M48
; DRILL file {KiCad 9.0.1} date 2025-05-26T11:02:10-0700
; FORMAT={-:-/ absolute / metric / decimal}
; #@! TF.CreationDate,2025-05-26T11:02:10-07:00
; #@! TF.GenerationSoftware,Kicad,Pcbnew,9.0.1
; #@! TF.FileFunction,Plated,1,2,PTH
FMAT,2
METRIC
; #@! TA.AperFunction,Plated,PTH,ViaDrill
T1C0.300
; #@! TA.AperFunction,Plated,PTH,ComponentDrill
T2C1.000
%
G90
G05
T1
X187.77Y-77.863
X188.017Y-86.155
X190.368Y-97.179
X190.672Y-101.422
X192.093Y-94.303
X192.424Y-101.069
X193.537Y-95.439
X196.432Y-112.218
X197.41Y-100.015
X197.921Y-97.139
X198.676Y-99.507
X199.279Y-95.078
X199.966Y-99.236
X200.404Y-98.54
X200.436Y-105.203
X200.554Y-95.73
X202.973Y-114.591
X203.324Y-105.666
X203.754Y-96.87
X203.799Y-102.448
X203.946Y-99.958
X204.356Y-98.743
X204.489Y-101.454
X205.275Y-97.967
X205.336Y-102.452
X205.514Y-104.99
X206.676Y-102.449
X207.345Y-96.539
X208.072Y-96.946
X208.44Y-102.452
X209.353Y-100.654
X210.845Y-103.057
X211.229Y-94.697
X211.379Y-88.117
X212.623Y-78.287
X212.689Y-97.087
X212.949Y-100.719
X215.0Y-76.646
X215.0Y-106.742
X216.218Y-103.131
X218.81Y-98.254
X220.08Y-94.501
T2
X180.5Y-116.0
X183.04Y-116.0
X185.58Y-116.0
X188.12Y-116.0
X190.66Y-116.0
X193.2Y-116.0
X195.74Y-116.0
X198.28Y-116.0
X200.82Y-116.0
X203.36Y-116.0
X205.9Y-116.0
X208.44Y-116.0
X210.98Y-116.0
X212.46Y-110.0
X213.52Y-116.0
X215.0Y-110.0
X216.06Y-116.0
X217.54Y-110.0
X218.6Y-116.0
X220.08Y-110.0
M30
