G04 #@! TF.GenerationSoftware,KiCad,Pcbnew,9.0.1*
G04 #@! TF.CreationDate,2025-04-08T20:49:58-07:00*
G04 #@! TF.ProjectId,Bigger_Test,42696767-6572-45f5-9465-73742e6b6963,rev?*
G04 #@! TF.SameCoordinates,Original*
G04 #@! TF.FileFunction,Legend,Top*
G04 #@! TF.FilePolarity,Positive*
%FSLAX46Y46*%
G04 Gerber Fmt 4.6, Leading zero omitted, Abs format (unit mm)*
G04 Created by KiCad (PCBNEW 9.0.1) date 2025-04-08 20:49:58*
%MOMM*%
%LPD*%
G01*
G04 APERTURE LIST*
%ADD10C,0.150000*%
%ADD11C,0.120000*%
%ADD12C,0.100000*%
%ADD13C,0.200000*%
G04 APERTURE END LIST*
D10*
X78666666Y-81044819D02*
X78666666Y-81759104D01*
X78666666Y-81759104D02*
X78619047Y-81901961D01*
X78619047Y-81901961D02*
X78523809Y-81997200D01*
X78523809Y-81997200D02*
X78380952Y-82044819D01*
X78380952Y-82044819D02*
X78285714Y-82044819D01*
X79666666Y-82044819D02*
X79095238Y-82044819D01*
X79380952Y-82044819D02*
X79380952Y-81044819D01*
X79380952Y-81044819D02*
X79285714Y-81187676D01*
X79285714Y-81187676D02*
X79190476Y-81282914D01*
X79190476Y-81282914D02*
X79095238Y-81330533D01*
X107872575Y-84381876D02*
X107872575Y-83741876D01*
X107872575Y-83741876D02*
X108024956Y-83741876D01*
X108024956Y-83741876D02*
X108116385Y-83772352D01*
X108116385Y-83772352D02*
X108177337Y-83833304D01*
X108177337Y-83833304D02*
X108207814Y-83894257D01*
X108207814Y-83894257D02*
X108238290Y-84016161D01*
X108238290Y-84016161D02*
X108238290Y-84107590D01*
X108238290Y-84107590D02*
X108207814Y-84229495D01*
X108207814Y-84229495D02*
X108177337Y-84290447D01*
X108177337Y-84290447D02*
X108116385Y-84351400D01*
X108116385Y-84351400D02*
X108024956Y-84381876D01*
X108024956Y-84381876D02*
X107872575Y-84381876D01*
X108482099Y-83802828D02*
X108512575Y-83772352D01*
X108512575Y-83772352D02*
X108573528Y-83741876D01*
X108573528Y-83741876D02*
X108725909Y-83741876D01*
X108725909Y-83741876D02*
X108786861Y-83772352D01*
X108786861Y-83772352D02*
X108817337Y-83802828D01*
X108817337Y-83802828D02*
X108847814Y-83863780D01*
X108847814Y-83863780D02*
X108847814Y-83924733D01*
X108847814Y-83924733D02*
X108817337Y-84016161D01*
X108817337Y-84016161D02*
X108451623Y-84381876D01*
X108451623Y-84381876D02*
X108847814Y-84381876D01*
X109122099Y-84320923D02*
X109152576Y-84351400D01*
X109152576Y-84351400D02*
X109122099Y-84381876D01*
X109122099Y-84381876D02*
X109091623Y-84351400D01*
X109091623Y-84351400D02*
X109122099Y-84320923D01*
X109122099Y-84320923D02*
X109122099Y-84381876D01*
X109731623Y-83741876D02*
X109426861Y-83741876D01*
X109426861Y-83741876D02*
X109396385Y-84046638D01*
X109396385Y-84046638D02*
X109426861Y-84016161D01*
X109426861Y-84016161D02*
X109487814Y-83985685D01*
X109487814Y-83985685D02*
X109640195Y-83985685D01*
X109640195Y-83985685D02*
X109701147Y-84016161D01*
X109701147Y-84016161D02*
X109731623Y-84046638D01*
X109731623Y-84046638D02*
X109762100Y-84107590D01*
X109762100Y-84107590D02*
X109762100Y-84259971D01*
X109762100Y-84259971D02*
X109731623Y-84320923D01*
X109731623Y-84320923D02*
X109701147Y-84351400D01*
X109701147Y-84351400D02*
X109640195Y-84381876D01*
X109640195Y-84381876D02*
X109487814Y-84381876D01*
X109487814Y-84381876D02*
X109426861Y-84351400D01*
X109426861Y-84351400D02*
X109396385Y-84320923D01*
D11*
X110219242Y-85832960D02*
X110584957Y-85832960D01*
X110402099Y-86015817D02*
X110402099Y-85650102D01*
D10*
X92668775Y-89381876D02*
X92668775Y-88741876D01*
X92668775Y-88741876D02*
X92821156Y-88741876D01*
X92821156Y-88741876D02*
X92912585Y-88772352D01*
X92912585Y-88772352D02*
X92973537Y-88833304D01*
X92973537Y-88833304D02*
X93004014Y-88894257D01*
X93004014Y-88894257D02*
X93034490Y-89016161D01*
X93034490Y-89016161D02*
X93034490Y-89107590D01*
X93034490Y-89107590D02*
X93004014Y-89229495D01*
X93004014Y-89229495D02*
X92973537Y-89290447D01*
X92973537Y-89290447D02*
X92912585Y-89351400D01*
X92912585Y-89351400D02*
X92821156Y-89381876D01*
X92821156Y-89381876D02*
X92668775Y-89381876D01*
X93247823Y-88741876D02*
X93644014Y-88741876D01*
X93644014Y-88741876D02*
X93430680Y-88985685D01*
X93430680Y-88985685D02*
X93522109Y-88985685D01*
X93522109Y-88985685D02*
X93583061Y-89016161D01*
X93583061Y-89016161D02*
X93613537Y-89046638D01*
X93613537Y-89046638D02*
X93644014Y-89107590D01*
X93644014Y-89107590D02*
X93644014Y-89259971D01*
X93644014Y-89259971D02*
X93613537Y-89320923D01*
X93613537Y-89320923D02*
X93583061Y-89351400D01*
X93583061Y-89351400D02*
X93522109Y-89381876D01*
X93522109Y-89381876D02*
X93339252Y-89381876D01*
X93339252Y-89381876D02*
X93278299Y-89351400D01*
X93278299Y-89351400D02*
X93247823Y-89320923D01*
X93918299Y-89320923D02*
X93948776Y-89351400D01*
X93948776Y-89351400D02*
X93918299Y-89381876D01*
X93918299Y-89381876D02*
X93887823Y-89351400D01*
X93887823Y-89351400D02*
X93918299Y-89320923D01*
X93918299Y-89320923D02*
X93918299Y-89381876D01*
X94192585Y-88802828D02*
X94223061Y-88772352D01*
X94223061Y-88772352D02*
X94284014Y-88741876D01*
X94284014Y-88741876D02*
X94436395Y-88741876D01*
X94436395Y-88741876D02*
X94497347Y-88772352D01*
X94497347Y-88772352D02*
X94527823Y-88802828D01*
X94527823Y-88802828D02*
X94558300Y-88863780D01*
X94558300Y-88863780D02*
X94558300Y-88924733D01*
X94558300Y-88924733D02*
X94527823Y-89016161D01*
X94527823Y-89016161D02*
X94162109Y-89381876D01*
X94162109Y-89381876D02*
X94558300Y-89381876D01*
D11*
X95015442Y-90832960D02*
X95381157Y-90832960D01*
X95198299Y-91015817D02*
X95198299Y-90650102D01*
D10*
X97668775Y-89381876D02*
X97668775Y-88741876D01*
X97668775Y-88741876D02*
X97821156Y-88741876D01*
X97821156Y-88741876D02*
X97912585Y-88772352D01*
X97912585Y-88772352D02*
X97973537Y-88833304D01*
X97973537Y-88833304D02*
X98004014Y-88894257D01*
X98004014Y-88894257D02*
X98034490Y-89016161D01*
X98034490Y-89016161D02*
X98034490Y-89107590D01*
X98034490Y-89107590D02*
X98004014Y-89229495D01*
X98004014Y-89229495D02*
X97973537Y-89290447D01*
X97973537Y-89290447D02*
X97912585Y-89351400D01*
X97912585Y-89351400D02*
X97821156Y-89381876D01*
X97821156Y-89381876D02*
X97668775Y-89381876D01*
X98247823Y-88741876D02*
X98644014Y-88741876D01*
X98644014Y-88741876D02*
X98430680Y-88985685D01*
X98430680Y-88985685D02*
X98522109Y-88985685D01*
X98522109Y-88985685D02*
X98583061Y-89016161D01*
X98583061Y-89016161D02*
X98613537Y-89046638D01*
X98613537Y-89046638D02*
X98644014Y-89107590D01*
X98644014Y-89107590D02*
X98644014Y-89259971D01*
X98644014Y-89259971D02*
X98613537Y-89320923D01*
X98613537Y-89320923D02*
X98583061Y-89351400D01*
X98583061Y-89351400D02*
X98522109Y-89381876D01*
X98522109Y-89381876D02*
X98339252Y-89381876D01*
X98339252Y-89381876D02*
X98278299Y-89351400D01*
X98278299Y-89351400D02*
X98247823Y-89320923D01*
X98918299Y-89320923D02*
X98948776Y-89351400D01*
X98948776Y-89351400D02*
X98918299Y-89381876D01*
X98918299Y-89381876D02*
X98887823Y-89351400D01*
X98887823Y-89351400D02*
X98918299Y-89320923D01*
X98918299Y-89320923D02*
X98918299Y-89381876D01*
X99162109Y-88741876D02*
X99558300Y-88741876D01*
X99558300Y-88741876D02*
X99344966Y-88985685D01*
X99344966Y-88985685D02*
X99436395Y-88985685D01*
X99436395Y-88985685D02*
X99497347Y-89016161D01*
X99497347Y-89016161D02*
X99527823Y-89046638D01*
X99527823Y-89046638D02*
X99558300Y-89107590D01*
X99558300Y-89107590D02*
X99558300Y-89259971D01*
X99558300Y-89259971D02*
X99527823Y-89320923D01*
X99527823Y-89320923D02*
X99497347Y-89351400D01*
X99497347Y-89351400D02*
X99436395Y-89381876D01*
X99436395Y-89381876D02*
X99253538Y-89381876D01*
X99253538Y-89381876D02*
X99192585Y-89351400D01*
X99192585Y-89351400D02*
X99162109Y-89320923D01*
D11*
X100015442Y-90832960D02*
X100381157Y-90832960D01*
X100198299Y-91015817D02*
X100198299Y-90650102D01*
D10*
X97668775Y-94381876D02*
X97668775Y-93741876D01*
X97668775Y-93741876D02*
X97821156Y-93741876D01*
X97821156Y-93741876D02*
X97912585Y-93772352D01*
X97912585Y-93772352D02*
X97973537Y-93833304D01*
X97973537Y-93833304D02*
X98004014Y-93894257D01*
X98004014Y-93894257D02*
X98034490Y-94016161D01*
X98034490Y-94016161D02*
X98034490Y-94107590D01*
X98034490Y-94107590D02*
X98004014Y-94229495D01*
X98004014Y-94229495D02*
X97973537Y-94290447D01*
X97973537Y-94290447D02*
X97912585Y-94351400D01*
X97912585Y-94351400D02*
X97821156Y-94381876D01*
X97821156Y-94381876D02*
X97668775Y-94381876D01*
X98583061Y-93955209D02*
X98583061Y-94381876D01*
X98430680Y-93711400D02*
X98278299Y-94168542D01*
X98278299Y-94168542D02*
X98674490Y-94168542D01*
X98918299Y-94320923D02*
X98948776Y-94351400D01*
X98948776Y-94351400D02*
X98918299Y-94381876D01*
X98918299Y-94381876D02*
X98887823Y-94351400D01*
X98887823Y-94351400D02*
X98918299Y-94320923D01*
X98918299Y-94320923D02*
X98918299Y-94381876D01*
X99162109Y-93741876D02*
X99558300Y-93741876D01*
X99558300Y-93741876D02*
X99344966Y-93985685D01*
X99344966Y-93985685D02*
X99436395Y-93985685D01*
X99436395Y-93985685D02*
X99497347Y-94016161D01*
X99497347Y-94016161D02*
X99527823Y-94046638D01*
X99527823Y-94046638D02*
X99558300Y-94107590D01*
X99558300Y-94107590D02*
X99558300Y-94259971D01*
X99558300Y-94259971D02*
X99527823Y-94320923D01*
X99527823Y-94320923D02*
X99497347Y-94351400D01*
X99497347Y-94351400D02*
X99436395Y-94381876D01*
X99436395Y-94381876D02*
X99253538Y-94381876D01*
X99253538Y-94381876D02*
X99192585Y-94351400D01*
X99192585Y-94351400D02*
X99162109Y-94320923D01*
D11*
X100015442Y-95832960D02*
X100381157Y-95832960D01*
X100198299Y-96015817D02*
X100198299Y-95650102D01*
D10*
X107871375Y-89381876D02*
X107871375Y-88741876D01*
X107871375Y-88741876D02*
X108023756Y-88741876D01*
X108023756Y-88741876D02*
X108115185Y-88772352D01*
X108115185Y-88772352D02*
X108176137Y-88833304D01*
X108176137Y-88833304D02*
X108206614Y-88894257D01*
X108206614Y-88894257D02*
X108237090Y-89016161D01*
X108237090Y-89016161D02*
X108237090Y-89107590D01*
X108237090Y-89107590D02*
X108206614Y-89229495D01*
X108206614Y-89229495D02*
X108176137Y-89290447D01*
X108176137Y-89290447D02*
X108115185Y-89351400D01*
X108115185Y-89351400D02*
X108023756Y-89381876D01*
X108023756Y-89381876D02*
X107871375Y-89381876D01*
X108450423Y-88741876D02*
X108846614Y-88741876D01*
X108846614Y-88741876D02*
X108633280Y-88985685D01*
X108633280Y-88985685D02*
X108724709Y-88985685D01*
X108724709Y-88985685D02*
X108785661Y-89016161D01*
X108785661Y-89016161D02*
X108816137Y-89046638D01*
X108816137Y-89046638D02*
X108846614Y-89107590D01*
X108846614Y-89107590D02*
X108846614Y-89259971D01*
X108846614Y-89259971D02*
X108816137Y-89320923D01*
X108816137Y-89320923D02*
X108785661Y-89351400D01*
X108785661Y-89351400D02*
X108724709Y-89381876D01*
X108724709Y-89381876D02*
X108541852Y-89381876D01*
X108541852Y-89381876D02*
X108480899Y-89351400D01*
X108480899Y-89351400D02*
X108450423Y-89320923D01*
X109120899Y-89320923D02*
X109151376Y-89351400D01*
X109151376Y-89351400D02*
X109120899Y-89381876D01*
X109120899Y-89381876D02*
X109090423Y-89351400D01*
X109090423Y-89351400D02*
X109120899Y-89320923D01*
X109120899Y-89320923D02*
X109120899Y-89381876D01*
X109730423Y-88741876D02*
X109425661Y-88741876D01*
X109425661Y-88741876D02*
X109395185Y-89046638D01*
X109395185Y-89046638D02*
X109425661Y-89016161D01*
X109425661Y-89016161D02*
X109486614Y-88985685D01*
X109486614Y-88985685D02*
X109638995Y-88985685D01*
X109638995Y-88985685D02*
X109699947Y-89016161D01*
X109699947Y-89016161D02*
X109730423Y-89046638D01*
X109730423Y-89046638D02*
X109760900Y-89107590D01*
X109760900Y-89107590D02*
X109760900Y-89259971D01*
X109760900Y-89259971D02*
X109730423Y-89320923D01*
X109730423Y-89320923D02*
X109699947Y-89351400D01*
X109699947Y-89351400D02*
X109638995Y-89381876D01*
X109638995Y-89381876D02*
X109486614Y-89381876D01*
X109486614Y-89381876D02*
X109425661Y-89351400D01*
X109425661Y-89351400D02*
X109395185Y-89320923D01*
D11*
X110218042Y-90832960D02*
X110583757Y-90832960D01*
X110400899Y-91015817D02*
X110400899Y-90650102D01*
D10*
X87468775Y-89381876D02*
X87468775Y-88741876D01*
X87468775Y-88741876D02*
X87621156Y-88741876D01*
X87621156Y-88741876D02*
X87712585Y-88772352D01*
X87712585Y-88772352D02*
X87773537Y-88833304D01*
X87773537Y-88833304D02*
X87804014Y-88894257D01*
X87804014Y-88894257D02*
X87834490Y-89016161D01*
X87834490Y-89016161D02*
X87834490Y-89107590D01*
X87834490Y-89107590D02*
X87804014Y-89229495D01*
X87804014Y-89229495D02*
X87773537Y-89290447D01*
X87773537Y-89290447D02*
X87712585Y-89351400D01*
X87712585Y-89351400D02*
X87621156Y-89381876D01*
X87621156Y-89381876D02*
X87468775Y-89381876D01*
X88047823Y-88741876D02*
X88444014Y-88741876D01*
X88444014Y-88741876D02*
X88230680Y-88985685D01*
X88230680Y-88985685D02*
X88322109Y-88985685D01*
X88322109Y-88985685D02*
X88383061Y-89016161D01*
X88383061Y-89016161D02*
X88413537Y-89046638D01*
X88413537Y-89046638D02*
X88444014Y-89107590D01*
X88444014Y-89107590D02*
X88444014Y-89259971D01*
X88444014Y-89259971D02*
X88413537Y-89320923D01*
X88413537Y-89320923D02*
X88383061Y-89351400D01*
X88383061Y-89351400D02*
X88322109Y-89381876D01*
X88322109Y-89381876D02*
X88139252Y-89381876D01*
X88139252Y-89381876D02*
X88078299Y-89351400D01*
X88078299Y-89351400D02*
X88047823Y-89320923D01*
X88718299Y-89320923D02*
X88748776Y-89351400D01*
X88748776Y-89351400D02*
X88718299Y-89381876D01*
X88718299Y-89381876D02*
X88687823Y-89351400D01*
X88687823Y-89351400D02*
X88718299Y-89320923D01*
X88718299Y-89320923D02*
X88718299Y-89381876D01*
X89358300Y-89381876D02*
X88992585Y-89381876D01*
X89175442Y-89381876D02*
X89175442Y-88741876D01*
X89175442Y-88741876D02*
X89114490Y-88833304D01*
X89114490Y-88833304D02*
X89053538Y-88894257D01*
X89053538Y-88894257D02*
X88992585Y-88924733D01*
D11*
X89815442Y-90832960D02*
X90181157Y-90832960D01*
X89998299Y-91015817D02*
X89998299Y-90650102D01*
D10*
X97668775Y-84381876D02*
X97668775Y-83741876D01*
X97668775Y-83741876D02*
X97821156Y-83741876D01*
X97821156Y-83741876D02*
X97912585Y-83772352D01*
X97912585Y-83772352D02*
X97973537Y-83833304D01*
X97973537Y-83833304D02*
X98004014Y-83894257D01*
X98004014Y-83894257D02*
X98034490Y-84016161D01*
X98034490Y-84016161D02*
X98034490Y-84107590D01*
X98034490Y-84107590D02*
X98004014Y-84229495D01*
X98004014Y-84229495D02*
X97973537Y-84290447D01*
X97973537Y-84290447D02*
X97912585Y-84351400D01*
X97912585Y-84351400D02*
X97821156Y-84381876D01*
X97821156Y-84381876D02*
X97668775Y-84381876D01*
X98278299Y-83802828D02*
X98308775Y-83772352D01*
X98308775Y-83772352D02*
X98369728Y-83741876D01*
X98369728Y-83741876D02*
X98522109Y-83741876D01*
X98522109Y-83741876D02*
X98583061Y-83772352D01*
X98583061Y-83772352D02*
X98613537Y-83802828D01*
X98613537Y-83802828D02*
X98644014Y-83863780D01*
X98644014Y-83863780D02*
X98644014Y-83924733D01*
X98644014Y-83924733D02*
X98613537Y-84016161D01*
X98613537Y-84016161D02*
X98247823Y-84381876D01*
X98247823Y-84381876D02*
X98644014Y-84381876D01*
X98918299Y-84320923D02*
X98948776Y-84351400D01*
X98948776Y-84351400D02*
X98918299Y-84381876D01*
X98918299Y-84381876D02*
X98887823Y-84351400D01*
X98887823Y-84351400D02*
X98918299Y-84320923D01*
X98918299Y-84320923D02*
X98918299Y-84381876D01*
X99162109Y-83741876D02*
X99558300Y-83741876D01*
X99558300Y-83741876D02*
X99344966Y-83985685D01*
X99344966Y-83985685D02*
X99436395Y-83985685D01*
X99436395Y-83985685D02*
X99497347Y-84016161D01*
X99497347Y-84016161D02*
X99527823Y-84046638D01*
X99527823Y-84046638D02*
X99558300Y-84107590D01*
X99558300Y-84107590D02*
X99558300Y-84259971D01*
X99558300Y-84259971D02*
X99527823Y-84320923D01*
X99527823Y-84320923D02*
X99497347Y-84351400D01*
X99497347Y-84351400D02*
X99436395Y-84381876D01*
X99436395Y-84381876D02*
X99253538Y-84381876D01*
X99253538Y-84381876D02*
X99192585Y-84351400D01*
X99192585Y-84351400D02*
X99162109Y-84320923D01*
D11*
X100015442Y-85832960D02*
X100381157Y-85832960D01*
X100198299Y-86015817D02*
X100198299Y-85650102D01*
D10*
X102770075Y-94381876D02*
X102770075Y-93741876D01*
X102770075Y-93741876D02*
X102922456Y-93741876D01*
X102922456Y-93741876D02*
X103013885Y-93772352D01*
X103013885Y-93772352D02*
X103074837Y-93833304D01*
X103074837Y-93833304D02*
X103105314Y-93894257D01*
X103105314Y-93894257D02*
X103135790Y-94016161D01*
X103135790Y-94016161D02*
X103135790Y-94107590D01*
X103135790Y-94107590D02*
X103105314Y-94229495D01*
X103105314Y-94229495D02*
X103074837Y-94290447D01*
X103074837Y-94290447D02*
X103013885Y-94351400D01*
X103013885Y-94351400D02*
X102922456Y-94381876D01*
X102922456Y-94381876D02*
X102770075Y-94381876D01*
X103684361Y-93955209D02*
X103684361Y-94381876D01*
X103531980Y-93711400D02*
X103379599Y-94168542D01*
X103379599Y-94168542D02*
X103775790Y-94168542D01*
X104019599Y-94320923D02*
X104050076Y-94351400D01*
X104050076Y-94351400D02*
X104019599Y-94381876D01*
X104019599Y-94381876D02*
X103989123Y-94351400D01*
X103989123Y-94351400D02*
X104019599Y-94320923D01*
X104019599Y-94320923D02*
X104019599Y-94381876D01*
X104598647Y-93955209D02*
X104598647Y-94381876D01*
X104446266Y-93711400D02*
X104293885Y-94168542D01*
X104293885Y-94168542D02*
X104690076Y-94168542D01*
D11*
X106415447Y-96032960D02*
X106781162Y-96032960D01*
X106598304Y-96215817D02*
X106598304Y-95850102D01*
D10*
X87468775Y-99381876D02*
X87468775Y-98741876D01*
X87468775Y-98741876D02*
X87621156Y-98741876D01*
X87621156Y-98741876D02*
X87712585Y-98772352D01*
X87712585Y-98772352D02*
X87773537Y-98833304D01*
X87773537Y-98833304D02*
X87804014Y-98894257D01*
X87804014Y-98894257D02*
X87834490Y-99016161D01*
X87834490Y-99016161D02*
X87834490Y-99107590D01*
X87834490Y-99107590D02*
X87804014Y-99229495D01*
X87804014Y-99229495D02*
X87773537Y-99290447D01*
X87773537Y-99290447D02*
X87712585Y-99351400D01*
X87712585Y-99351400D02*
X87621156Y-99381876D01*
X87621156Y-99381876D02*
X87468775Y-99381876D01*
X88413537Y-98741876D02*
X88108775Y-98741876D01*
X88108775Y-98741876D02*
X88078299Y-99046638D01*
X88078299Y-99046638D02*
X88108775Y-99016161D01*
X88108775Y-99016161D02*
X88169728Y-98985685D01*
X88169728Y-98985685D02*
X88322109Y-98985685D01*
X88322109Y-98985685D02*
X88383061Y-99016161D01*
X88383061Y-99016161D02*
X88413537Y-99046638D01*
X88413537Y-99046638D02*
X88444014Y-99107590D01*
X88444014Y-99107590D02*
X88444014Y-99259971D01*
X88444014Y-99259971D02*
X88413537Y-99320923D01*
X88413537Y-99320923D02*
X88383061Y-99351400D01*
X88383061Y-99351400D02*
X88322109Y-99381876D01*
X88322109Y-99381876D02*
X88169728Y-99381876D01*
X88169728Y-99381876D02*
X88108775Y-99351400D01*
X88108775Y-99351400D02*
X88078299Y-99320923D01*
X88718299Y-99320923D02*
X88748776Y-99351400D01*
X88748776Y-99351400D02*
X88718299Y-99381876D01*
X88718299Y-99381876D02*
X88687823Y-99351400D01*
X88687823Y-99351400D02*
X88718299Y-99320923D01*
X88718299Y-99320923D02*
X88718299Y-99381876D01*
X89358300Y-99381876D02*
X88992585Y-99381876D01*
X89175442Y-99381876D02*
X89175442Y-98741876D01*
X89175442Y-98741876D02*
X89114490Y-98833304D01*
X89114490Y-98833304D02*
X89053538Y-98894257D01*
X89053538Y-98894257D02*
X88992585Y-98924733D01*
D11*
X89815442Y-100832960D02*
X90181157Y-100832960D01*
X89998299Y-101015817D02*
X89998299Y-100650102D01*
D10*
X107872575Y-79381876D02*
X107872575Y-78741876D01*
X107872575Y-78741876D02*
X108024956Y-78741876D01*
X108024956Y-78741876D02*
X108116385Y-78772352D01*
X108116385Y-78772352D02*
X108177337Y-78833304D01*
X108177337Y-78833304D02*
X108207814Y-78894257D01*
X108207814Y-78894257D02*
X108238290Y-79016161D01*
X108238290Y-79016161D02*
X108238290Y-79107590D01*
X108238290Y-79107590D02*
X108207814Y-79229495D01*
X108207814Y-79229495D02*
X108177337Y-79290447D01*
X108177337Y-79290447D02*
X108116385Y-79351400D01*
X108116385Y-79351400D02*
X108024956Y-79381876D01*
X108024956Y-79381876D02*
X107872575Y-79381876D01*
X108847814Y-79381876D02*
X108482099Y-79381876D01*
X108664956Y-79381876D02*
X108664956Y-78741876D01*
X108664956Y-78741876D02*
X108604004Y-78833304D01*
X108604004Y-78833304D02*
X108543052Y-78894257D01*
X108543052Y-78894257D02*
X108482099Y-78924733D01*
X109122099Y-79320923D02*
X109152576Y-79351400D01*
X109152576Y-79351400D02*
X109122099Y-79381876D01*
X109122099Y-79381876D02*
X109091623Y-79351400D01*
X109091623Y-79351400D02*
X109122099Y-79320923D01*
X109122099Y-79320923D02*
X109122099Y-79381876D01*
X109731623Y-78741876D02*
X109426861Y-78741876D01*
X109426861Y-78741876D02*
X109396385Y-79046638D01*
X109396385Y-79046638D02*
X109426861Y-79016161D01*
X109426861Y-79016161D02*
X109487814Y-78985685D01*
X109487814Y-78985685D02*
X109640195Y-78985685D01*
X109640195Y-78985685D02*
X109701147Y-79016161D01*
X109701147Y-79016161D02*
X109731623Y-79046638D01*
X109731623Y-79046638D02*
X109762100Y-79107590D01*
X109762100Y-79107590D02*
X109762100Y-79259971D01*
X109762100Y-79259971D02*
X109731623Y-79320923D01*
X109731623Y-79320923D02*
X109701147Y-79351400D01*
X109701147Y-79351400D02*
X109640195Y-79381876D01*
X109640195Y-79381876D02*
X109487814Y-79381876D01*
X109487814Y-79381876D02*
X109426861Y-79351400D01*
X109426861Y-79351400D02*
X109396385Y-79320923D01*
D11*
X110219242Y-80832960D02*
X110584957Y-80832960D01*
X110402099Y-81015817D02*
X110402099Y-80650102D01*
D10*
X92570475Y-79381876D02*
X92570475Y-78741876D01*
X92570475Y-78741876D02*
X92722856Y-78741876D01*
X92722856Y-78741876D02*
X92814285Y-78772352D01*
X92814285Y-78772352D02*
X92875237Y-78833304D01*
X92875237Y-78833304D02*
X92905714Y-78894257D01*
X92905714Y-78894257D02*
X92936190Y-79016161D01*
X92936190Y-79016161D02*
X92936190Y-79107590D01*
X92936190Y-79107590D02*
X92905714Y-79229495D01*
X92905714Y-79229495D02*
X92875237Y-79290447D01*
X92875237Y-79290447D02*
X92814285Y-79351400D01*
X92814285Y-79351400D02*
X92722856Y-79381876D01*
X92722856Y-79381876D02*
X92570475Y-79381876D01*
X93545714Y-79381876D02*
X93179999Y-79381876D01*
X93362856Y-79381876D02*
X93362856Y-78741876D01*
X93362856Y-78741876D02*
X93301904Y-78833304D01*
X93301904Y-78833304D02*
X93240952Y-78894257D01*
X93240952Y-78894257D02*
X93179999Y-78924733D01*
X93819999Y-79320923D02*
X93850476Y-79351400D01*
X93850476Y-79351400D02*
X93819999Y-79381876D01*
X93819999Y-79381876D02*
X93789523Y-79351400D01*
X93789523Y-79351400D02*
X93819999Y-79320923D01*
X93819999Y-79320923D02*
X93819999Y-79381876D01*
X94094285Y-78802828D02*
X94124761Y-78772352D01*
X94124761Y-78772352D02*
X94185714Y-78741876D01*
X94185714Y-78741876D02*
X94338095Y-78741876D01*
X94338095Y-78741876D02*
X94399047Y-78772352D01*
X94399047Y-78772352D02*
X94429523Y-78802828D01*
X94429523Y-78802828D02*
X94460000Y-78863780D01*
X94460000Y-78863780D02*
X94460000Y-78924733D01*
X94460000Y-78924733D02*
X94429523Y-79016161D01*
X94429523Y-79016161D02*
X94063809Y-79381876D01*
X94063809Y-79381876D02*
X94460000Y-79381876D01*
D11*
X94917142Y-80832960D02*
X95282857Y-80832960D01*
X95099999Y-81015817D02*
X95099999Y-80650102D01*
D10*
X92668775Y-94381876D02*
X92668775Y-93741876D01*
X92668775Y-93741876D02*
X92821156Y-93741876D01*
X92821156Y-93741876D02*
X92912585Y-93772352D01*
X92912585Y-93772352D02*
X92973537Y-93833304D01*
X92973537Y-93833304D02*
X93004014Y-93894257D01*
X93004014Y-93894257D02*
X93034490Y-94016161D01*
X93034490Y-94016161D02*
X93034490Y-94107590D01*
X93034490Y-94107590D02*
X93004014Y-94229495D01*
X93004014Y-94229495D02*
X92973537Y-94290447D01*
X92973537Y-94290447D02*
X92912585Y-94351400D01*
X92912585Y-94351400D02*
X92821156Y-94381876D01*
X92821156Y-94381876D02*
X92668775Y-94381876D01*
X93583061Y-93955209D02*
X93583061Y-94381876D01*
X93430680Y-93711400D02*
X93278299Y-94168542D01*
X93278299Y-94168542D02*
X93674490Y-94168542D01*
X93918299Y-94320923D02*
X93948776Y-94351400D01*
X93948776Y-94351400D02*
X93918299Y-94381876D01*
X93918299Y-94381876D02*
X93887823Y-94351400D01*
X93887823Y-94351400D02*
X93918299Y-94320923D01*
X93918299Y-94320923D02*
X93918299Y-94381876D01*
X94192585Y-93802828D02*
X94223061Y-93772352D01*
X94223061Y-93772352D02*
X94284014Y-93741876D01*
X94284014Y-93741876D02*
X94436395Y-93741876D01*
X94436395Y-93741876D02*
X94497347Y-93772352D01*
X94497347Y-93772352D02*
X94527823Y-93802828D01*
X94527823Y-93802828D02*
X94558300Y-93863780D01*
X94558300Y-93863780D02*
X94558300Y-93924733D01*
X94558300Y-93924733D02*
X94527823Y-94016161D01*
X94527823Y-94016161D02*
X94162109Y-94381876D01*
X94162109Y-94381876D02*
X94558300Y-94381876D01*
D11*
X95015442Y-95832960D02*
X95381157Y-95832960D01*
X95198299Y-96015817D02*
X95198299Y-95650102D01*
D10*
X97668775Y-99381876D02*
X97668775Y-98741876D01*
X97668775Y-98741876D02*
X97821156Y-98741876D01*
X97821156Y-98741876D02*
X97912585Y-98772352D01*
X97912585Y-98772352D02*
X97973537Y-98833304D01*
X97973537Y-98833304D02*
X98004014Y-98894257D01*
X98004014Y-98894257D02*
X98034490Y-99016161D01*
X98034490Y-99016161D02*
X98034490Y-99107590D01*
X98034490Y-99107590D02*
X98004014Y-99229495D01*
X98004014Y-99229495D02*
X97973537Y-99290447D01*
X97973537Y-99290447D02*
X97912585Y-99351400D01*
X97912585Y-99351400D02*
X97821156Y-99381876D01*
X97821156Y-99381876D02*
X97668775Y-99381876D01*
X98613537Y-98741876D02*
X98308775Y-98741876D01*
X98308775Y-98741876D02*
X98278299Y-99046638D01*
X98278299Y-99046638D02*
X98308775Y-99016161D01*
X98308775Y-99016161D02*
X98369728Y-98985685D01*
X98369728Y-98985685D02*
X98522109Y-98985685D01*
X98522109Y-98985685D02*
X98583061Y-99016161D01*
X98583061Y-99016161D02*
X98613537Y-99046638D01*
X98613537Y-99046638D02*
X98644014Y-99107590D01*
X98644014Y-99107590D02*
X98644014Y-99259971D01*
X98644014Y-99259971D02*
X98613537Y-99320923D01*
X98613537Y-99320923D02*
X98583061Y-99351400D01*
X98583061Y-99351400D02*
X98522109Y-99381876D01*
X98522109Y-99381876D02*
X98369728Y-99381876D01*
X98369728Y-99381876D02*
X98308775Y-99351400D01*
X98308775Y-99351400D02*
X98278299Y-99320923D01*
X98918299Y-99320923D02*
X98948776Y-99351400D01*
X98948776Y-99351400D02*
X98918299Y-99381876D01*
X98918299Y-99381876D02*
X98887823Y-99351400D01*
X98887823Y-99351400D02*
X98918299Y-99320923D01*
X98918299Y-99320923D02*
X98918299Y-99381876D01*
X99162109Y-98741876D02*
X99558300Y-98741876D01*
X99558300Y-98741876D02*
X99344966Y-98985685D01*
X99344966Y-98985685D02*
X99436395Y-98985685D01*
X99436395Y-98985685D02*
X99497347Y-99016161D01*
X99497347Y-99016161D02*
X99527823Y-99046638D01*
X99527823Y-99046638D02*
X99558300Y-99107590D01*
X99558300Y-99107590D02*
X99558300Y-99259971D01*
X99558300Y-99259971D02*
X99527823Y-99320923D01*
X99527823Y-99320923D02*
X99497347Y-99351400D01*
X99497347Y-99351400D02*
X99436395Y-99381876D01*
X99436395Y-99381876D02*
X99253538Y-99381876D01*
X99253538Y-99381876D02*
X99192585Y-99351400D01*
X99192585Y-99351400D02*
X99162109Y-99320923D01*
D11*
X100015442Y-100832960D02*
X100381157Y-100832960D01*
X100198299Y-101015817D02*
X100198299Y-100650102D01*
D10*
X102472175Y-79381876D02*
X102472175Y-78741876D01*
X102472175Y-78741876D02*
X102624556Y-78741876D01*
X102624556Y-78741876D02*
X102715985Y-78772352D01*
X102715985Y-78772352D02*
X102776937Y-78833304D01*
X102776937Y-78833304D02*
X102807414Y-78894257D01*
X102807414Y-78894257D02*
X102837890Y-79016161D01*
X102837890Y-79016161D02*
X102837890Y-79107590D01*
X102837890Y-79107590D02*
X102807414Y-79229495D01*
X102807414Y-79229495D02*
X102776937Y-79290447D01*
X102776937Y-79290447D02*
X102715985Y-79351400D01*
X102715985Y-79351400D02*
X102624556Y-79381876D01*
X102624556Y-79381876D02*
X102472175Y-79381876D01*
X103447414Y-79381876D02*
X103081699Y-79381876D01*
X103264556Y-79381876D02*
X103264556Y-78741876D01*
X103264556Y-78741876D02*
X103203604Y-78833304D01*
X103203604Y-78833304D02*
X103142652Y-78894257D01*
X103142652Y-78894257D02*
X103081699Y-78924733D01*
X103721699Y-79320923D02*
X103752176Y-79351400D01*
X103752176Y-79351400D02*
X103721699Y-79381876D01*
X103721699Y-79381876D02*
X103691223Y-79351400D01*
X103691223Y-79351400D02*
X103721699Y-79320923D01*
X103721699Y-79320923D02*
X103721699Y-79381876D01*
X104300747Y-78955209D02*
X104300747Y-79381876D01*
X104148366Y-78711400D02*
X103995985Y-79168542D01*
X103995985Y-79168542D02*
X104392176Y-79168542D01*
D11*
X104818842Y-80832960D02*
X105184557Y-80832960D01*
X105001699Y-81015817D02*
X105001699Y-80650102D01*
D10*
X87468775Y-94381876D02*
X87468775Y-93741876D01*
X87468775Y-93741876D02*
X87621156Y-93741876D01*
X87621156Y-93741876D02*
X87712585Y-93772352D01*
X87712585Y-93772352D02*
X87773537Y-93833304D01*
X87773537Y-93833304D02*
X87804014Y-93894257D01*
X87804014Y-93894257D02*
X87834490Y-94016161D01*
X87834490Y-94016161D02*
X87834490Y-94107590D01*
X87834490Y-94107590D02*
X87804014Y-94229495D01*
X87804014Y-94229495D02*
X87773537Y-94290447D01*
X87773537Y-94290447D02*
X87712585Y-94351400D01*
X87712585Y-94351400D02*
X87621156Y-94381876D01*
X87621156Y-94381876D02*
X87468775Y-94381876D01*
X88383061Y-93955209D02*
X88383061Y-94381876D01*
X88230680Y-93711400D02*
X88078299Y-94168542D01*
X88078299Y-94168542D02*
X88474490Y-94168542D01*
X88718299Y-94320923D02*
X88748776Y-94351400D01*
X88748776Y-94351400D02*
X88718299Y-94381876D01*
X88718299Y-94381876D02*
X88687823Y-94351400D01*
X88687823Y-94351400D02*
X88718299Y-94320923D01*
X88718299Y-94320923D02*
X88718299Y-94381876D01*
X89358300Y-94381876D02*
X88992585Y-94381876D01*
X89175442Y-94381876D02*
X89175442Y-93741876D01*
X89175442Y-93741876D02*
X89114490Y-93833304D01*
X89114490Y-93833304D02*
X89053538Y-93894257D01*
X89053538Y-93894257D02*
X88992585Y-93924733D01*
D11*
X89815442Y-95832960D02*
X90181157Y-95832960D01*
X89998299Y-96015817D02*
X89998299Y-95650102D01*
D10*
X92668775Y-99381876D02*
X92668775Y-98741876D01*
X92668775Y-98741876D02*
X92821156Y-98741876D01*
X92821156Y-98741876D02*
X92912585Y-98772352D01*
X92912585Y-98772352D02*
X92973537Y-98833304D01*
X92973537Y-98833304D02*
X93004014Y-98894257D01*
X93004014Y-98894257D02*
X93034490Y-99016161D01*
X93034490Y-99016161D02*
X93034490Y-99107590D01*
X93034490Y-99107590D02*
X93004014Y-99229495D01*
X93004014Y-99229495D02*
X92973537Y-99290447D01*
X92973537Y-99290447D02*
X92912585Y-99351400D01*
X92912585Y-99351400D02*
X92821156Y-99381876D01*
X92821156Y-99381876D02*
X92668775Y-99381876D01*
X93613537Y-98741876D02*
X93308775Y-98741876D01*
X93308775Y-98741876D02*
X93278299Y-99046638D01*
X93278299Y-99046638D02*
X93308775Y-99016161D01*
X93308775Y-99016161D02*
X93369728Y-98985685D01*
X93369728Y-98985685D02*
X93522109Y-98985685D01*
X93522109Y-98985685D02*
X93583061Y-99016161D01*
X93583061Y-99016161D02*
X93613537Y-99046638D01*
X93613537Y-99046638D02*
X93644014Y-99107590D01*
X93644014Y-99107590D02*
X93644014Y-99259971D01*
X93644014Y-99259971D02*
X93613537Y-99320923D01*
X93613537Y-99320923D02*
X93583061Y-99351400D01*
X93583061Y-99351400D02*
X93522109Y-99381876D01*
X93522109Y-99381876D02*
X93369728Y-99381876D01*
X93369728Y-99381876D02*
X93308775Y-99351400D01*
X93308775Y-99351400D02*
X93278299Y-99320923D01*
X93918299Y-99320923D02*
X93948776Y-99351400D01*
X93948776Y-99351400D02*
X93918299Y-99381876D01*
X93918299Y-99381876D02*
X93887823Y-99351400D01*
X93887823Y-99351400D02*
X93918299Y-99320923D01*
X93918299Y-99320923D02*
X93918299Y-99381876D01*
X94192585Y-98802828D02*
X94223061Y-98772352D01*
X94223061Y-98772352D02*
X94284014Y-98741876D01*
X94284014Y-98741876D02*
X94436395Y-98741876D01*
X94436395Y-98741876D02*
X94497347Y-98772352D01*
X94497347Y-98772352D02*
X94527823Y-98802828D01*
X94527823Y-98802828D02*
X94558300Y-98863780D01*
X94558300Y-98863780D02*
X94558300Y-98924733D01*
X94558300Y-98924733D02*
X94527823Y-99016161D01*
X94527823Y-99016161D02*
X94162109Y-99381876D01*
X94162109Y-99381876D02*
X94558300Y-99381876D01*
D11*
X95015442Y-100832960D02*
X95381157Y-100832960D01*
X95198299Y-101015817D02*
X95198299Y-100650102D01*
D10*
X107872075Y-94381876D02*
X107872075Y-93741876D01*
X107872075Y-93741876D02*
X108024456Y-93741876D01*
X108024456Y-93741876D02*
X108115885Y-93772352D01*
X108115885Y-93772352D02*
X108176837Y-93833304D01*
X108176837Y-93833304D02*
X108207314Y-93894257D01*
X108207314Y-93894257D02*
X108237790Y-94016161D01*
X108237790Y-94016161D02*
X108237790Y-94107590D01*
X108237790Y-94107590D02*
X108207314Y-94229495D01*
X108207314Y-94229495D02*
X108176837Y-94290447D01*
X108176837Y-94290447D02*
X108115885Y-94351400D01*
X108115885Y-94351400D02*
X108024456Y-94381876D01*
X108024456Y-94381876D02*
X107872075Y-94381876D01*
X108786361Y-93955209D02*
X108786361Y-94381876D01*
X108633980Y-93711400D02*
X108481599Y-94168542D01*
X108481599Y-94168542D02*
X108877790Y-94168542D01*
X109121599Y-94320923D02*
X109152076Y-94351400D01*
X109152076Y-94351400D02*
X109121599Y-94381876D01*
X109121599Y-94381876D02*
X109091123Y-94351400D01*
X109091123Y-94351400D02*
X109121599Y-94320923D01*
X109121599Y-94320923D02*
X109121599Y-94381876D01*
X109731123Y-93741876D02*
X109426361Y-93741876D01*
X109426361Y-93741876D02*
X109395885Y-94046638D01*
X109395885Y-94046638D02*
X109426361Y-94016161D01*
X109426361Y-94016161D02*
X109487314Y-93985685D01*
X109487314Y-93985685D02*
X109639695Y-93985685D01*
X109639695Y-93985685D02*
X109700647Y-94016161D01*
X109700647Y-94016161D02*
X109731123Y-94046638D01*
X109731123Y-94046638D02*
X109761600Y-94107590D01*
X109761600Y-94107590D02*
X109761600Y-94259971D01*
X109761600Y-94259971D02*
X109731123Y-94320923D01*
X109731123Y-94320923D02*
X109700647Y-94351400D01*
X109700647Y-94351400D02*
X109639695Y-94381876D01*
X109639695Y-94381876D02*
X109487314Y-94381876D01*
X109487314Y-94381876D02*
X109426361Y-94351400D01*
X109426361Y-94351400D02*
X109395885Y-94320923D01*
D11*
X110218742Y-95832960D02*
X110584457Y-95832960D01*
X110401599Y-96015817D02*
X110401599Y-95650102D01*
D10*
X87370475Y-79381876D02*
X87370475Y-78741876D01*
X87370475Y-78741876D02*
X87522856Y-78741876D01*
X87522856Y-78741876D02*
X87614285Y-78772352D01*
X87614285Y-78772352D02*
X87675237Y-78833304D01*
X87675237Y-78833304D02*
X87705714Y-78894257D01*
X87705714Y-78894257D02*
X87736190Y-79016161D01*
X87736190Y-79016161D02*
X87736190Y-79107590D01*
X87736190Y-79107590D02*
X87705714Y-79229495D01*
X87705714Y-79229495D02*
X87675237Y-79290447D01*
X87675237Y-79290447D02*
X87614285Y-79351400D01*
X87614285Y-79351400D02*
X87522856Y-79381876D01*
X87522856Y-79381876D02*
X87370475Y-79381876D01*
X88345714Y-79381876D02*
X87979999Y-79381876D01*
X88162856Y-79381876D02*
X88162856Y-78741876D01*
X88162856Y-78741876D02*
X88101904Y-78833304D01*
X88101904Y-78833304D02*
X88040952Y-78894257D01*
X88040952Y-78894257D02*
X87979999Y-78924733D01*
X88619999Y-79320923D02*
X88650476Y-79351400D01*
X88650476Y-79351400D02*
X88619999Y-79381876D01*
X88619999Y-79381876D02*
X88589523Y-79351400D01*
X88589523Y-79351400D02*
X88619999Y-79320923D01*
X88619999Y-79320923D02*
X88619999Y-79381876D01*
X89260000Y-79381876D02*
X88894285Y-79381876D01*
X89077142Y-79381876D02*
X89077142Y-78741876D01*
X89077142Y-78741876D02*
X89016190Y-78833304D01*
X89016190Y-78833304D02*
X88955238Y-78894257D01*
X88955238Y-78894257D02*
X88894285Y-78924733D01*
D11*
X89717142Y-80832960D02*
X90082857Y-80832960D01*
X89899999Y-81015817D02*
X89899999Y-80650102D01*
D10*
X102764775Y-99381876D02*
X102764775Y-98741876D01*
X102764775Y-98741876D02*
X102917156Y-98741876D01*
X102917156Y-98741876D02*
X103008585Y-98772352D01*
X103008585Y-98772352D02*
X103069537Y-98833304D01*
X103069537Y-98833304D02*
X103100014Y-98894257D01*
X103100014Y-98894257D02*
X103130490Y-99016161D01*
X103130490Y-99016161D02*
X103130490Y-99107590D01*
X103130490Y-99107590D02*
X103100014Y-99229495D01*
X103100014Y-99229495D02*
X103069537Y-99290447D01*
X103069537Y-99290447D02*
X103008585Y-99351400D01*
X103008585Y-99351400D02*
X102917156Y-99381876D01*
X102917156Y-99381876D02*
X102764775Y-99381876D01*
X103709537Y-98741876D02*
X103404775Y-98741876D01*
X103404775Y-98741876D02*
X103374299Y-99046638D01*
X103374299Y-99046638D02*
X103404775Y-99016161D01*
X103404775Y-99016161D02*
X103465728Y-98985685D01*
X103465728Y-98985685D02*
X103618109Y-98985685D01*
X103618109Y-98985685D02*
X103679061Y-99016161D01*
X103679061Y-99016161D02*
X103709537Y-99046638D01*
X103709537Y-99046638D02*
X103740014Y-99107590D01*
X103740014Y-99107590D02*
X103740014Y-99259971D01*
X103740014Y-99259971D02*
X103709537Y-99320923D01*
X103709537Y-99320923D02*
X103679061Y-99351400D01*
X103679061Y-99351400D02*
X103618109Y-99381876D01*
X103618109Y-99381876D02*
X103465728Y-99381876D01*
X103465728Y-99381876D02*
X103404775Y-99351400D01*
X103404775Y-99351400D02*
X103374299Y-99320923D01*
X104014299Y-99320923D02*
X104044776Y-99351400D01*
X104044776Y-99351400D02*
X104014299Y-99381876D01*
X104014299Y-99381876D02*
X103983823Y-99351400D01*
X103983823Y-99351400D02*
X104014299Y-99320923D01*
X104014299Y-99320923D02*
X104014299Y-99381876D01*
X104593347Y-98955209D02*
X104593347Y-99381876D01*
X104440966Y-98711400D02*
X104288585Y-99168542D01*
X104288585Y-99168542D02*
X104684776Y-99168542D01*
D11*
X106209742Y-100832960D02*
X106575457Y-100832960D01*
X106392599Y-101015817D02*
X106392599Y-100650102D01*
D10*
X102770475Y-89381876D02*
X102770475Y-88741876D01*
X102770475Y-88741876D02*
X102922856Y-88741876D01*
X102922856Y-88741876D02*
X103014285Y-88772352D01*
X103014285Y-88772352D02*
X103075237Y-88833304D01*
X103075237Y-88833304D02*
X103105714Y-88894257D01*
X103105714Y-88894257D02*
X103136190Y-89016161D01*
X103136190Y-89016161D02*
X103136190Y-89107590D01*
X103136190Y-89107590D02*
X103105714Y-89229495D01*
X103105714Y-89229495D02*
X103075237Y-89290447D01*
X103075237Y-89290447D02*
X103014285Y-89351400D01*
X103014285Y-89351400D02*
X102922856Y-89381876D01*
X102922856Y-89381876D02*
X102770475Y-89381876D01*
X103349523Y-88741876D02*
X103745714Y-88741876D01*
X103745714Y-88741876D02*
X103532380Y-88985685D01*
X103532380Y-88985685D02*
X103623809Y-88985685D01*
X103623809Y-88985685D02*
X103684761Y-89016161D01*
X103684761Y-89016161D02*
X103715237Y-89046638D01*
X103715237Y-89046638D02*
X103745714Y-89107590D01*
X103745714Y-89107590D02*
X103745714Y-89259971D01*
X103745714Y-89259971D02*
X103715237Y-89320923D01*
X103715237Y-89320923D02*
X103684761Y-89351400D01*
X103684761Y-89351400D02*
X103623809Y-89381876D01*
X103623809Y-89381876D02*
X103440952Y-89381876D01*
X103440952Y-89381876D02*
X103379999Y-89351400D01*
X103379999Y-89351400D02*
X103349523Y-89320923D01*
X104019999Y-89320923D02*
X104050476Y-89351400D01*
X104050476Y-89351400D02*
X104019999Y-89381876D01*
X104019999Y-89381876D02*
X103989523Y-89351400D01*
X103989523Y-89351400D02*
X104019999Y-89320923D01*
X104019999Y-89320923D02*
X104019999Y-89381876D01*
X104599047Y-88955209D02*
X104599047Y-89381876D01*
X104446666Y-88711400D02*
X104294285Y-89168542D01*
X104294285Y-89168542D02*
X104690476Y-89168542D01*
D11*
X106415442Y-92032960D02*
X106781157Y-92032960D01*
X106598299Y-92215817D02*
X106598299Y-91850102D01*
D10*
X87468775Y-84381876D02*
X87468775Y-83741876D01*
X87468775Y-83741876D02*
X87621156Y-83741876D01*
X87621156Y-83741876D02*
X87712585Y-83772352D01*
X87712585Y-83772352D02*
X87773537Y-83833304D01*
X87773537Y-83833304D02*
X87804014Y-83894257D01*
X87804014Y-83894257D02*
X87834490Y-84016161D01*
X87834490Y-84016161D02*
X87834490Y-84107590D01*
X87834490Y-84107590D02*
X87804014Y-84229495D01*
X87804014Y-84229495D02*
X87773537Y-84290447D01*
X87773537Y-84290447D02*
X87712585Y-84351400D01*
X87712585Y-84351400D02*
X87621156Y-84381876D01*
X87621156Y-84381876D02*
X87468775Y-84381876D01*
X88078299Y-83802828D02*
X88108775Y-83772352D01*
X88108775Y-83772352D02*
X88169728Y-83741876D01*
X88169728Y-83741876D02*
X88322109Y-83741876D01*
X88322109Y-83741876D02*
X88383061Y-83772352D01*
X88383061Y-83772352D02*
X88413537Y-83802828D01*
X88413537Y-83802828D02*
X88444014Y-83863780D01*
X88444014Y-83863780D02*
X88444014Y-83924733D01*
X88444014Y-83924733D02*
X88413537Y-84016161D01*
X88413537Y-84016161D02*
X88047823Y-84381876D01*
X88047823Y-84381876D02*
X88444014Y-84381876D01*
X88718299Y-84320923D02*
X88748776Y-84351400D01*
X88748776Y-84351400D02*
X88718299Y-84381876D01*
X88718299Y-84381876D02*
X88687823Y-84351400D01*
X88687823Y-84351400D02*
X88718299Y-84320923D01*
X88718299Y-84320923D02*
X88718299Y-84381876D01*
X89358300Y-84381876D02*
X88992585Y-84381876D01*
X89175442Y-84381876D02*
X89175442Y-83741876D01*
X89175442Y-83741876D02*
X89114490Y-83833304D01*
X89114490Y-83833304D02*
X89053538Y-83894257D01*
X89053538Y-83894257D02*
X88992585Y-83924733D01*
D11*
X89815442Y-85832960D02*
X90181157Y-85832960D01*
X89998299Y-86015817D02*
X89998299Y-85650102D01*
D10*
X107852375Y-99381876D02*
X107852375Y-98741876D01*
X107852375Y-98741876D02*
X108004756Y-98741876D01*
X108004756Y-98741876D02*
X108096185Y-98772352D01*
X108096185Y-98772352D02*
X108157137Y-98833304D01*
X108157137Y-98833304D02*
X108187614Y-98894257D01*
X108187614Y-98894257D02*
X108218090Y-99016161D01*
X108218090Y-99016161D02*
X108218090Y-99107590D01*
X108218090Y-99107590D02*
X108187614Y-99229495D01*
X108187614Y-99229495D02*
X108157137Y-99290447D01*
X108157137Y-99290447D02*
X108096185Y-99351400D01*
X108096185Y-99351400D02*
X108004756Y-99381876D01*
X108004756Y-99381876D02*
X107852375Y-99381876D01*
X108797137Y-98741876D02*
X108492375Y-98741876D01*
X108492375Y-98741876D02*
X108461899Y-99046638D01*
X108461899Y-99046638D02*
X108492375Y-99016161D01*
X108492375Y-99016161D02*
X108553328Y-98985685D01*
X108553328Y-98985685D02*
X108705709Y-98985685D01*
X108705709Y-98985685D02*
X108766661Y-99016161D01*
X108766661Y-99016161D02*
X108797137Y-99046638D01*
X108797137Y-99046638D02*
X108827614Y-99107590D01*
X108827614Y-99107590D02*
X108827614Y-99259971D01*
X108827614Y-99259971D02*
X108797137Y-99320923D01*
X108797137Y-99320923D02*
X108766661Y-99351400D01*
X108766661Y-99351400D02*
X108705709Y-99381876D01*
X108705709Y-99381876D02*
X108553328Y-99381876D01*
X108553328Y-99381876D02*
X108492375Y-99351400D01*
X108492375Y-99351400D02*
X108461899Y-99320923D01*
X109101899Y-99320923D02*
X109132376Y-99351400D01*
X109132376Y-99351400D02*
X109101899Y-99381876D01*
X109101899Y-99381876D02*
X109071423Y-99351400D01*
X109071423Y-99351400D02*
X109101899Y-99320923D01*
X109101899Y-99320923D02*
X109101899Y-99381876D01*
X109711423Y-98741876D02*
X109406661Y-98741876D01*
X109406661Y-98741876D02*
X109376185Y-99046638D01*
X109376185Y-99046638D02*
X109406661Y-99016161D01*
X109406661Y-99016161D02*
X109467614Y-98985685D01*
X109467614Y-98985685D02*
X109619995Y-98985685D01*
X109619995Y-98985685D02*
X109680947Y-99016161D01*
X109680947Y-99016161D02*
X109711423Y-99046638D01*
X109711423Y-99046638D02*
X109741900Y-99107590D01*
X109741900Y-99107590D02*
X109741900Y-99259971D01*
X109741900Y-99259971D02*
X109711423Y-99320923D01*
X109711423Y-99320923D02*
X109680947Y-99351400D01*
X109680947Y-99351400D02*
X109619995Y-99381876D01*
X109619995Y-99381876D02*
X109467614Y-99381876D01*
X109467614Y-99381876D02*
X109406661Y-99351400D01*
X109406661Y-99351400D02*
X109376185Y-99320923D01*
D11*
X110199042Y-100832960D02*
X110564757Y-100832960D01*
X110381899Y-101015817D02*
X110381899Y-100650102D01*
D10*
X102770475Y-84381876D02*
X102770475Y-83741876D01*
X102770475Y-83741876D02*
X102922856Y-83741876D01*
X102922856Y-83741876D02*
X103014285Y-83772352D01*
X103014285Y-83772352D02*
X103075237Y-83833304D01*
X103075237Y-83833304D02*
X103105714Y-83894257D01*
X103105714Y-83894257D02*
X103136190Y-84016161D01*
X103136190Y-84016161D02*
X103136190Y-84107590D01*
X103136190Y-84107590D02*
X103105714Y-84229495D01*
X103105714Y-84229495D02*
X103075237Y-84290447D01*
X103075237Y-84290447D02*
X103014285Y-84351400D01*
X103014285Y-84351400D02*
X102922856Y-84381876D01*
X102922856Y-84381876D02*
X102770475Y-84381876D01*
X103379999Y-83802828D02*
X103410475Y-83772352D01*
X103410475Y-83772352D02*
X103471428Y-83741876D01*
X103471428Y-83741876D02*
X103623809Y-83741876D01*
X103623809Y-83741876D02*
X103684761Y-83772352D01*
X103684761Y-83772352D02*
X103715237Y-83802828D01*
X103715237Y-83802828D02*
X103745714Y-83863780D01*
X103745714Y-83863780D02*
X103745714Y-83924733D01*
X103745714Y-83924733D02*
X103715237Y-84016161D01*
X103715237Y-84016161D02*
X103349523Y-84381876D01*
X103349523Y-84381876D02*
X103745714Y-84381876D01*
X104019999Y-84320923D02*
X104050476Y-84351400D01*
X104050476Y-84351400D02*
X104019999Y-84381876D01*
X104019999Y-84381876D02*
X103989523Y-84351400D01*
X103989523Y-84351400D02*
X104019999Y-84320923D01*
X104019999Y-84320923D02*
X104019999Y-84381876D01*
X104599047Y-83955209D02*
X104599047Y-84381876D01*
X104446666Y-83711400D02*
X104294285Y-84168542D01*
X104294285Y-84168542D02*
X104690476Y-84168542D01*
D11*
X105117142Y-85832960D02*
X105482857Y-85832960D01*
X105299999Y-86015817D02*
X105299999Y-85650102D01*
D10*
X92668775Y-84381876D02*
X92668775Y-83741876D01*
X92668775Y-83741876D02*
X92821156Y-83741876D01*
X92821156Y-83741876D02*
X92912585Y-83772352D01*
X92912585Y-83772352D02*
X92973537Y-83833304D01*
X92973537Y-83833304D02*
X93004014Y-83894257D01*
X93004014Y-83894257D02*
X93034490Y-84016161D01*
X93034490Y-84016161D02*
X93034490Y-84107590D01*
X93034490Y-84107590D02*
X93004014Y-84229495D01*
X93004014Y-84229495D02*
X92973537Y-84290447D01*
X92973537Y-84290447D02*
X92912585Y-84351400D01*
X92912585Y-84351400D02*
X92821156Y-84381876D01*
X92821156Y-84381876D02*
X92668775Y-84381876D01*
X93278299Y-83802828D02*
X93308775Y-83772352D01*
X93308775Y-83772352D02*
X93369728Y-83741876D01*
X93369728Y-83741876D02*
X93522109Y-83741876D01*
X93522109Y-83741876D02*
X93583061Y-83772352D01*
X93583061Y-83772352D02*
X93613537Y-83802828D01*
X93613537Y-83802828D02*
X93644014Y-83863780D01*
X93644014Y-83863780D02*
X93644014Y-83924733D01*
X93644014Y-83924733D02*
X93613537Y-84016161D01*
X93613537Y-84016161D02*
X93247823Y-84381876D01*
X93247823Y-84381876D02*
X93644014Y-84381876D01*
X93918299Y-84320923D02*
X93948776Y-84351400D01*
X93948776Y-84351400D02*
X93918299Y-84381876D01*
X93918299Y-84381876D02*
X93887823Y-84351400D01*
X93887823Y-84351400D02*
X93918299Y-84320923D01*
X93918299Y-84320923D02*
X93918299Y-84381876D01*
X94192585Y-83802828D02*
X94223061Y-83772352D01*
X94223061Y-83772352D02*
X94284014Y-83741876D01*
X94284014Y-83741876D02*
X94436395Y-83741876D01*
X94436395Y-83741876D02*
X94497347Y-83772352D01*
X94497347Y-83772352D02*
X94527823Y-83802828D01*
X94527823Y-83802828D02*
X94558300Y-83863780D01*
X94558300Y-83863780D02*
X94558300Y-83924733D01*
X94558300Y-83924733D02*
X94527823Y-84016161D01*
X94527823Y-84016161D02*
X94162109Y-84381876D01*
X94162109Y-84381876D02*
X94558300Y-84381876D01*
D11*
X95015442Y-85832960D02*
X95381157Y-85832960D01*
X95198299Y-86015817D02*
X95198299Y-85650102D01*
D10*
X97570475Y-79381876D02*
X97570475Y-78741876D01*
X97570475Y-78741876D02*
X97722856Y-78741876D01*
X97722856Y-78741876D02*
X97814285Y-78772352D01*
X97814285Y-78772352D02*
X97875237Y-78833304D01*
X97875237Y-78833304D02*
X97905714Y-78894257D01*
X97905714Y-78894257D02*
X97936190Y-79016161D01*
X97936190Y-79016161D02*
X97936190Y-79107590D01*
X97936190Y-79107590D02*
X97905714Y-79229495D01*
X97905714Y-79229495D02*
X97875237Y-79290447D01*
X97875237Y-79290447D02*
X97814285Y-79351400D01*
X97814285Y-79351400D02*
X97722856Y-79381876D01*
X97722856Y-79381876D02*
X97570475Y-79381876D01*
X98545714Y-79381876D02*
X98179999Y-79381876D01*
X98362856Y-79381876D02*
X98362856Y-78741876D01*
X98362856Y-78741876D02*
X98301904Y-78833304D01*
X98301904Y-78833304D02*
X98240952Y-78894257D01*
X98240952Y-78894257D02*
X98179999Y-78924733D01*
X98819999Y-79320923D02*
X98850476Y-79351400D01*
X98850476Y-79351400D02*
X98819999Y-79381876D01*
X98819999Y-79381876D02*
X98789523Y-79351400D01*
X98789523Y-79351400D02*
X98819999Y-79320923D01*
X98819999Y-79320923D02*
X98819999Y-79381876D01*
X99063809Y-78741876D02*
X99460000Y-78741876D01*
X99460000Y-78741876D02*
X99246666Y-78985685D01*
X99246666Y-78985685D02*
X99338095Y-78985685D01*
X99338095Y-78985685D02*
X99399047Y-79016161D01*
X99399047Y-79016161D02*
X99429523Y-79046638D01*
X99429523Y-79046638D02*
X99460000Y-79107590D01*
X99460000Y-79107590D02*
X99460000Y-79259971D01*
X99460000Y-79259971D02*
X99429523Y-79320923D01*
X99429523Y-79320923D02*
X99399047Y-79351400D01*
X99399047Y-79351400D02*
X99338095Y-79381876D01*
X99338095Y-79381876D02*
X99155238Y-79381876D01*
X99155238Y-79381876D02*
X99094285Y-79351400D01*
X99094285Y-79351400D02*
X99063809Y-79320923D01*
D11*
X99917142Y-80832960D02*
X100282857Y-80832960D01*
X100099999Y-81015817D02*
X100099999Y-80650102D01*
X77670000Y-97950000D02*
X80330000Y-97950000D01*
X77670000Y-85190000D02*
X77670000Y-97950000D01*
X80330000Y-85190000D02*
X80330000Y-97950000D01*
X77670000Y-85190000D02*
X80330000Y-85190000D01*
X77670000Y-83920000D02*
X77670000Y-82590000D01*
X77670000Y-82590000D02*
X79000000Y-82590000D01*
D12*
X108672100Y-85500000D02*
X108912100Y-85360000D01*
D13*
X108702100Y-85000000D02*
X108902100Y-85000000D01*
X108902100Y-86000000D02*
X108702100Y-86000000D01*
D12*
X108912100Y-85360000D02*
X108912100Y-85650000D01*
X108912100Y-85650000D02*
X108672100Y-85500000D01*
X93468300Y-90500000D02*
X93708300Y-90360000D01*
D13*
X93498300Y-90000000D02*
X93698300Y-90000000D01*
X93698300Y-91000000D02*
X93498300Y-91000000D01*
D12*
X93708300Y-90360000D02*
X93708300Y-90650000D01*
X93708300Y-90650000D02*
X93468300Y-90500000D01*
X98468300Y-90500000D02*
X98708300Y-90360000D01*
D13*
X98498300Y-90000000D02*
X98698300Y-90000000D01*
X98698300Y-91000000D02*
X98498300Y-91000000D01*
D12*
X98708300Y-90360000D02*
X98708300Y-90650000D01*
X98708300Y-90650000D02*
X98468300Y-90500000D01*
X98468300Y-95500000D02*
X98708300Y-95360000D01*
D13*
X98498300Y-95000000D02*
X98698300Y-95000000D01*
X98698300Y-96000000D02*
X98498300Y-96000000D01*
D12*
X98708300Y-95360000D02*
X98708300Y-95650000D01*
X98708300Y-95650000D02*
X98468300Y-95500000D01*
X108670900Y-90500000D02*
X108910900Y-90360000D01*
D13*
X108700900Y-90000000D02*
X108900900Y-90000000D01*
X108900900Y-91000000D02*
X108700900Y-91000000D01*
D12*
X108910900Y-90360000D02*
X108910900Y-90650000D01*
X108910900Y-90650000D02*
X108670900Y-90500000D01*
X88268300Y-90500000D02*
X88508300Y-90360000D01*
D13*
X88298300Y-90000000D02*
X88498300Y-90000000D01*
X88498300Y-91000000D02*
X88298300Y-91000000D01*
D12*
X88508300Y-90360000D02*
X88508300Y-90650000D01*
X88508300Y-90650000D02*
X88268300Y-90500000D01*
X98468300Y-85500000D02*
X98708300Y-85360000D01*
D13*
X98498300Y-85000000D02*
X98698300Y-85000000D01*
X98698300Y-86000000D02*
X98498300Y-86000000D01*
D12*
X98708300Y-85360000D02*
X98708300Y-85650000D01*
X98708300Y-85650000D02*
X98468300Y-85500000D01*
X103569600Y-95500000D02*
X103809600Y-95360000D01*
D13*
X103599600Y-95000000D02*
X103799600Y-95000000D01*
X103799600Y-96000000D02*
X103599600Y-96000000D01*
D12*
X103809600Y-95360000D02*
X103809600Y-95650000D01*
X103809600Y-95650000D02*
X103569600Y-95500000D01*
X88268300Y-100500000D02*
X88508300Y-100360000D01*
D13*
X88298300Y-100000000D02*
X88498300Y-100000000D01*
X88498300Y-101000000D02*
X88298300Y-101000000D01*
D12*
X88508300Y-100360000D02*
X88508300Y-100650000D01*
X88508300Y-100650000D02*
X88268300Y-100500000D01*
X108912100Y-80650000D02*
X108672100Y-80500000D01*
X108912100Y-80360000D02*
X108912100Y-80650000D01*
D13*
X108902100Y-81000000D02*
X108702100Y-81000000D01*
X108702100Y-80000000D02*
X108902100Y-80000000D01*
D12*
X108672100Y-80500000D02*
X108912100Y-80360000D01*
X93610000Y-80650000D02*
X93370000Y-80500000D01*
X93610000Y-80360000D02*
X93610000Y-80650000D01*
D13*
X93600000Y-81000000D02*
X93400000Y-81000000D01*
X93400000Y-80000000D02*
X93600000Y-80000000D01*
D12*
X93370000Y-80500000D02*
X93610000Y-80360000D01*
X93468300Y-95500000D02*
X93708300Y-95360000D01*
D13*
X93498300Y-95000000D02*
X93698300Y-95000000D01*
X93698300Y-96000000D02*
X93498300Y-96000000D01*
D12*
X93708300Y-95360000D02*
X93708300Y-95650000D01*
X93708300Y-95650000D02*
X93468300Y-95500000D01*
X98468300Y-100500000D02*
X98708300Y-100360000D01*
D13*
X98498300Y-100000000D02*
X98698300Y-100000000D01*
X98698300Y-101000000D02*
X98498300Y-101000000D01*
D12*
X98708300Y-100360000D02*
X98708300Y-100650000D01*
X98708300Y-100650000D02*
X98468300Y-100500000D01*
X103511700Y-80650000D02*
X103271700Y-80500000D01*
X103511700Y-80360000D02*
X103511700Y-80650000D01*
D13*
X103501700Y-81000000D02*
X103301700Y-81000000D01*
X103301700Y-80000000D02*
X103501700Y-80000000D01*
D12*
X103271700Y-80500000D02*
X103511700Y-80360000D01*
X88268300Y-95500000D02*
X88508300Y-95360000D01*
D13*
X88298300Y-95000000D02*
X88498300Y-95000000D01*
X88498300Y-96000000D02*
X88298300Y-96000000D01*
D12*
X88508300Y-95360000D02*
X88508300Y-95650000D01*
X88508300Y-95650000D02*
X88268300Y-95500000D01*
X93468300Y-100500000D02*
X93708300Y-100360000D01*
D13*
X93498300Y-100000000D02*
X93698300Y-100000000D01*
X93698300Y-101000000D02*
X93498300Y-101000000D01*
D12*
X93708300Y-100360000D02*
X93708300Y-100650000D01*
X93708300Y-100650000D02*
X93468300Y-100500000D01*
X108671600Y-95500000D02*
X108911600Y-95360000D01*
D13*
X108701600Y-95000000D02*
X108901600Y-95000000D01*
X108901600Y-96000000D02*
X108701600Y-96000000D01*
D12*
X108911600Y-95360000D02*
X108911600Y-95650000D01*
X108911600Y-95650000D02*
X108671600Y-95500000D01*
X88410000Y-80650000D02*
X88170000Y-80500000D01*
X88410000Y-80360000D02*
X88410000Y-80650000D01*
D13*
X88400000Y-81000000D02*
X88200000Y-81000000D01*
X88200000Y-80000000D02*
X88400000Y-80000000D01*
D12*
X88170000Y-80500000D02*
X88410000Y-80360000D01*
X103564300Y-100500000D02*
X103804300Y-100360000D01*
D13*
X103594300Y-100000000D02*
X103794300Y-100000000D01*
X103794300Y-101000000D02*
X103594300Y-101000000D01*
D12*
X103804300Y-100360000D02*
X103804300Y-100650000D01*
X103804300Y-100650000D02*
X103564300Y-100500000D01*
X103570000Y-90500000D02*
X103810000Y-90360000D01*
D13*
X103600000Y-90000000D02*
X103800000Y-90000000D01*
X103800000Y-91000000D02*
X103600000Y-91000000D01*
D12*
X103810000Y-90360000D02*
X103810000Y-90650000D01*
X103810000Y-90650000D02*
X103570000Y-90500000D01*
X88268300Y-85500000D02*
X88508300Y-85360000D01*
D13*
X88298300Y-85000000D02*
X88498300Y-85000000D01*
X88498300Y-86000000D02*
X88298300Y-86000000D01*
D12*
X88508300Y-85360000D02*
X88508300Y-85650000D01*
X88508300Y-85650000D02*
X88268300Y-85500000D01*
X108651900Y-100500000D02*
X108891900Y-100360000D01*
D13*
X108681900Y-100000000D02*
X108881900Y-100000000D01*
X108881900Y-101000000D02*
X108681900Y-101000000D01*
D12*
X108891900Y-100360000D02*
X108891900Y-100650000D01*
X108891900Y-100650000D02*
X108651900Y-100500000D01*
X103570000Y-85500000D02*
X103810000Y-85360000D01*
D13*
X103600000Y-85000000D02*
X103800000Y-85000000D01*
X103800000Y-86000000D02*
X103600000Y-86000000D01*
D12*
X103810000Y-85360000D02*
X103810000Y-85650000D01*
X103810000Y-85650000D02*
X103570000Y-85500000D01*
X93468300Y-85500000D02*
X93708300Y-85360000D01*
D13*
X93498300Y-85000000D02*
X93698300Y-85000000D01*
X93698300Y-86000000D02*
X93498300Y-86000000D01*
D12*
X93708300Y-85360000D02*
X93708300Y-85650000D01*
X93708300Y-85650000D02*
X93468300Y-85500000D01*
X98610000Y-80650000D02*
X98370000Y-80500000D01*
X98610000Y-80360000D02*
X98610000Y-80650000D01*
D13*
X98600000Y-81000000D02*
X98400000Y-81000000D01*
X98400000Y-80000000D02*
X98600000Y-80000000D01*
D12*
X98370000Y-80500000D02*
X98610000Y-80360000D01*
M02*
