G04 #@! TF.GenerationSoftware,KiCad,Pcbnew,9.0.1*
G04 #@! TF.CreationDate,2025-04-08T20:49:57-07:00*
G04 #@! TF.ProjectId,Bigger_Test,42696767-6572-45f5-9465-73742e6b6963,rev?*
G04 #@! TF.SameCoordinates,Original*
G04 #@! TF.FileFunction,Copper,L1,Top*
G04 #@! TF.FilePolarity,Positive*
%FSLAX46Y46*%
G04 Gerber Fmt 4.6, Leading zero omitted, Abs format (unit mm)*
G04 Created by KiCad (PCBNEW 9.0.1) date 2025-04-08 20:49:57*
%MOMM*%
%LPD*%
G01*
G04 APERTURE LIST*
G04 #@! TA.AperFunction,ComponentPad*
%ADD10R,1.700000X1.700000*%
G04 #@! TD*
G04 #@! TA.AperFunction,ComponentPad*
%ADD11O,1.700000X1.700000*%
G04 #@! TD*
G04 #@! TA.AperFunction,SMDPad,CuDef*
%ADD12R,0.800000X0.800000*%
G04 #@! TD*
G04 #@! TA.AperFunction,ViaPad*
%ADD13C,0.600000*%
G04 #@! TD*
G04 #@! TA.AperFunction,Conductor*
%ADD14C,0.200000*%
G04 #@! TD*
G04 APERTURE END LIST*
D10*
X79000000Y-83920000D03*
D11*
X79000000Y-86460000D03*
X79000000Y-89000000D03*
X79000000Y-91540000D03*
X79000000Y-94080000D03*
X79000000Y-96620000D03*
D12*
X108002100Y-85500000D03*
X109602100Y-85500000D03*
X92798300Y-90500000D03*
X94398300Y-90500000D03*
X97798300Y-90500000D03*
X99398300Y-90500000D03*
X97798300Y-95500000D03*
X99398300Y-95500000D03*
X108000900Y-90500000D03*
X109600900Y-90500000D03*
X87598300Y-90500000D03*
X89198300Y-90500000D03*
X97798300Y-85500000D03*
X99398300Y-85500000D03*
X102899600Y-95500000D03*
X104499600Y-95500000D03*
X87598300Y-100500000D03*
X89198300Y-100500000D03*
X109602100Y-80500000D03*
X108002100Y-80500000D03*
X94300000Y-80500000D03*
X92700000Y-80500000D03*
X92798300Y-95500000D03*
X94398300Y-95500000D03*
X97798300Y-100500000D03*
X99398300Y-100500000D03*
X104201700Y-80500000D03*
X102601700Y-80500000D03*
X87598300Y-95500000D03*
X89198300Y-95500000D03*
X92798300Y-100500000D03*
X94398300Y-100500000D03*
X108001600Y-95500000D03*
X109601600Y-95500000D03*
X89100000Y-80500000D03*
X87500000Y-80500000D03*
X102894300Y-100500000D03*
X104494300Y-100500000D03*
X102900000Y-90500000D03*
X104500000Y-90500000D03*
X87598300Y-85500000D03*
X89198300Y-85500000D03*
X107981900Y-100500000D03*
X109581900Y-100500000D03*
X102900000Y-85500000D03*
X104500000Y-85500000D03*
X92798300Y-85500000D03*
X94398300Y-85500000D03*
X99300000Y-80500000D03*
X97700000Y-80500000D03*
D13*
X105050800Y-103672200D03*
X101621600Y-95109800D03*
X90758000Y-95020000D03*
X94474100Y-89575300D03*
X103443000Y-81258400D03*
X102179000Y-86308800D03*
D14*
X89549200Y-97462300D02*
X89549200Y-100500000D01*
X80994000Y-97462300D02*
X89549200Y-97462300D01*
X80151700Y-96620000D02*
X80994000Y-97462300D01*
X79000000Y-96620000D02*
X80151700Y-96620000D01*
X94398300Y-100500000D02*
X97798300Y-100500000D01*
X103601000Y-95500000D02*
X102899600Y-95500000D01*
X103601000Y-95149100D02*
X103601000Y-95500000D01*
X103952000Y-94798300D02*
X103601000Y-95149100D01*
X106022000Y-94798300D02*
X103952000Y-94798300D01*
X107426000Y-96201700D02*
X106022000Y-94798300D01*
X108593000Y-96201700D02*
X107426000Y-96201700D01*
X108900000Y-95895100D02*
X108593000Y-96201700D01*
X108900000Y-94975000D02*
X108900000Y-95895100D01*
X110303000Y-93572300D02*
X108900000Y-94975000D01*
X110303000Y-89948800D02*
X110303000Y-93572300D01*
X109602000Y-89248300D02*
X110303000Y-89948800D01*
X104500000Y-90500000D02*
X108000900Y-90500000D01*
X108551000Y-89248300D02*
X109602000Y-89248300D01*
X108001000Y-89798300D02*
X108551000Y-89248300D01*
X108001000Y-90500000D02*
X108001000Y-89798300D01*
X108000900Y-90500000D02*
X108001000Y-90500000D01*
X89198300Y-100500000D02*
X89549200Y-100500000D01*
X93696600Y-101202000D02*
X92149200Y-101202000D01*
X94398300Y-100500000D02*
X93696600Y-101202000D01*
X89900000Y-100500000D02*
X89549200Y-100500000D01*
X90601700Y-101202000D02*
X89900000Y-100500000D01*
X92149200Y-101202000D02*
X90601700Y-101202000D01*
X94619400Y-103672200D02*
X105050800Y-103672200D01*
X92149200Y-101202000D02*
X94619400Y-103672200D01*
X100490200Y-95109800D02*
X100100000Y-95500000D01*
X101621600Y-95109800D02*
X100490200Y-95109800D01*
X102899600Y-95500000D02*
X100100000Y-95500000D01*
X100100000Y-95500000D02*
X99398300Y-95500000D01*
X109602000Y-89248300D02*
X109602000Y-87374100D01*
X109602000Y-87374100D02*
X109602000Y-85500000D01*
X109602100Y-87374000D02*
X109602100Y-85500000D01*
X109602000Y-87374100D02*
X109602100Y-87374000D01*
X99398300Y-100500000D02*
X100100000Y-100500000D01*
X93696600Y-95850800D02*
X93313900Y-96233500D01*
X93696600Y-95500000D02*
X93696600Y-95850800D01*
X94047500Y-95500000D02*
X93696600Y-95500000D01*
X88300000Y-95500000D02*
X87598300Y-95500000D01*
X88300000Y-95850800D02*
X88300000Y-95500000D01*
X88682700Y-96233500D02*
X88300000Y-95850800D01*
X93313900Y-96233500D02*
X88682700Y-96233500D01*
X93500000Y-100048000D02*
X93750000Y-99798300D01*
X93500000Y-100500000D02*
X93500000Y-100048000D01*
X92798300Y-100500000D02*
X93500000Y-100500000D01*
X93750000Y-96669600D02*
X93313900Y-96233500D01*
X93750000Y-99798300D02*
X93750000Y-96669600D01*
X88496600Y-90500000D02*
X88496600Y-91540000D01*
X89198300Y-90500000D02*
X88496600Y-90500000D01*
X90087500Y-91540000D02*
X88496600Y-91540000D01*
X94047500Y-95500000D02*
X90087500Y-91540000D01*
X88496600Y-91540000D02*
X79000000Y-91540000D01*
X99950100Y-100350000D02*
X100100000Y-100350000D01*
X99800200Y-100200000D02*
X99950100Y-100350000D01*
X98725100Y-100200000D02*
X99800200Y-100200000D01*
X98323300Y-99798300D02*
X98725100Y-100200000D01*
X93750000Y-99798300D02*
X98323300Y-99798300D01*
X100100000Y-100500000D02*
X100100000Y-100350000D01*
X107981900Y-100500000D02*
X107982000Y-100500000D01*
X94398300Y-95500000D02*
X94047500Y-95500000D01*
X104494000Y-100500000D02*
X104494300Y-100500000D01*
X103793000Y-99798300D02*
X104494000Y-100500000D01*
X100652000Y-99798300D02*
X103793000Y-99798300D01*
X100100000Y-100350000D02*
X100652000Y-99798300D01*
X104494300Y-100500000D02*
X107981900Y-100500000D01*
X109602000Y-95500000D02*
X109602000Y-95850800D01*
X101204000Y-101604000D02*
X100100000Y-100500000D01*
X109715000Y-101604000D02*
X101204000Y-101604000D01*
X110309000Y-101009000D02*
X109715000Y-101604000D01*
X110309000Y-96908800D02*
X110309000Y-101009000D01*
X109602000Y-96201700D02*
X110309000Y-96908800D01*
X109602000Y-95850800D02*
X109602000Y-96201700D01*
X109601600Y-95850400D02*
X109601600Y-95500000D01*
X109602000Y-95850800D02*
X109601600Y-95850400D01*
X89198300Y-95500000D02*
X92798300Y-95500000D01*
X79000000Y-95231700D02*
X79000000Y-94540000D01*
X78731500Y-95231700D02*
X79000000Y-95231700D01*
X77837500Y-96125700D02*
X78731500Y-95231700D01*
X77837500Y-97154800D02*
X77837500Y-96125700D01*
X81182700Y-100500000D02*
X77837500Y-97154800D01*
X87598300Y-100500000D02*
X81182700Y-100500000D01*
X94398300Y-90500000D02*
X97798300Y-90500000D01*
X88718300Y-94540000D02*
X89198300Y-95020000D01*
X79000000Y-94540000D02*
X88718300Y-94540000D01*
X89198300Y-95020000D02*
X89198300Y-95500000D01*
X94398300Y-89651100D02*
X94398300Y-90500000D01*
X94474100Y-89575300D02*
X94398300Y-89651100D01*
X89198300Y-95020000D02*
X90758000Y-95020000D01*
X102286000Y-86201700D02*
X102179000Y-86308800D01*
X102900000Y-86201700D02*
X102286000Y-86201700D01*
X102900000Y-85500000D02*
X102900000Y-86201700D01*
X79000000Y-94080000D02*
X79000000Y-94540000D01*
X100100000Y-85500000D02*
X99398300Y-85500000D01*
X100451000Y-85149100D02*
X100100000Y-85500000D01*
X102900000Y-85149100D02*
X100451000Y-85149100D01*
X102900000Y-85500000D02*
X102900000Y-85149100D01*
X97798300Y-87801700D02*
X97798300Y-90500000D01*
X99398300Y-86201700D02*
X97798300Y-87801700D01*
X99398300Y-85500000D02*
X99398300Y-86201700D01*
X108002000Y-80500000D02*
X108002100Y-80500000D01*
X104201700Y-80500000D02*
X104201800Y-80500100D01*
X104202000Y-80500000D02*
X104201800Y-80500100D01*
X108002000Y-80500000D02*
X104202000Y-80500000D01*
X104201800Y-80500100D02*
X103443000Y-81258400D01*
X92798300Y-85500000D02*
X89198300Y-85500000D01*
X85698300Y-89301700D02*
X85698300Y-89000000D01*
X86896600Y-90500000D02*
X85698300Y-89301700D01*
X87598300Y-90500000D02*
X86896600Y-90500000D01*
X85698300Y-89000000D02*
X79000000Y-89000000D01*
X88496600Y-86201700D02*
X85698300Y-89000000D01*
X88496600Y-85500000D02*
X88496600Y-86201700D01*
X89198300Y-85500000D02*
X88496600Y-85500000D01*
X103303000Y-80500000D02*
X103303000Y-79798300D01*
X102602000Y-80500000D02*
X103303000Y-80500000D01*
X98401700Y-80500000D02*
X97700000Y-80500000D01*
X98401700Y-80149100D02*
X98401700Y-80500000D01*
X98752500Y-79798300D02*
X98401700Y-80149100D01*
X103303000Y-79798300D02*
X98752500Y-79798300D01*
X97700000Y-80500000D02*
X94300000Y-80500000D01*
X79000000Y-87848300D02*
X79000000Y-89000000D01*
X78731500Y-87848300D02*
X79000000Y-87848300D01*
X77837500Y-86954300D02*
X78731500Y-87848300D01*
X77837500Y-82948100D02*
X77837500Y-86954300D01*
X81401600Y-79384000D02*
X77837500Y-82948100D01*
X92833100Y-79384000D02*
X81401600Y-79384000D01*
X93598300Y-80149200D02*
X92833100Y-79384000D01*
X93598300Y-80500000D02*
X93598300Y-80149200D01*
X94300000Y-80500000D02*
X93598300Y-80500000D01*
X109602000Y-80500000D02*
X109251000Y-80500000D01*
X108550000Y-79798300D02*
X103303000Y-79798300D01*
X108900000Y-80149100D02*
X108550000Y-79798300D01*
X108900000Y-80500000D02*
X108900000Y-80149100D01*
X109251000Y-80500000D02*
X108900000Y-80500000D01*
X108002000Y-85500000D02*
X108002000Y-85250000D01*
X109251000Y-83549100D02*
X109251000Y-80500000D01*
X108002000Y-84798300D02*
X109251000Y-83549100D01*
X108002000Y-85250000D02*
X108002000Y-84798300D01*
X108002100Y-85250100D02*
X108002100Y-85500000D01*
X108002000Y-85250000D02*
X108002100Y-85250100D01*
X102601700Y-80500000D02*
X102602000Y-80500000D01*
X109602100Y-80500000D02*
X109602000Y-80500000D01*
X103596000Y-100500000D02*
X102894300Y-100500000D01*
X103596000Y-100851000D02*
X103596000Y-100500000D01*
X103947000Y-101202000D02*
X103596000Y-100851000D01*
X108529000Y-101202000D02*
X103947000Y-101202000D01*
X108880000Y-100851000D02*
X108529000Y-101202000D01*
X108880000Y-100500000D02*
X108880000Y-100851000D01*
X81426700Y-85185000D02*
X87598300Y-85185000D01*
X80151700Y-86460000D02*
X81426700Y-85185000D01*
X79000000Y-86460000D02*
X80151700Y-86460000D01*
X97798300Y-95500000D02*
X98149200Y-95500000D01*
X89100000Y-83899100D02*
X89100000Y-80500000D01*
X92530200Y-83899100D02*
X94131100Y-85500000D01*
X89100000Y-83899100D02*
X92530200Y-83899100D01*
X98850900Y-96201700D02*
X104500000Y-96201700D01*
X98500000Y-95850800D02*
X98850900Y-96201700D01*
X98500000Y-95500000D02*
X98500000Y-95850800D01*
X98149200Y-95500000D02*
X98500000Y-95500000D01*
X108880000Y-100118000D02*
X108880000Y-100500000D01*
X104964000Y-96201700D02*
X108880000Y-100118000D01*
X104500000Y-96201700D02*
X104964000Y-96201700D01*
X93500000Y-90500000D02*
X92798300Y-90500000D01*
X93500000Y-90850800D02*
X93500000Y-90500000D01*
X95100000Y-92450800D02*
X93500000Y-90850800D01*
X98149200Y-92450800D02*
X95100000Y-92450800D01*
X98149200Y-95500000D02*
X98149200Y-92450800D01*
X99398300Y-91201700D02*
X99398300Y-90500000D01*
X98149200Y-92450800D02*
X99398300Y-91201700D01*
X94398300Y-85500000D02*
X94131100Y-85500000D01*
X92798300Y-89798300D02*
X92798300Y-90500000D01*
X93696600Y-88900000D02*
X92798300Y-89798300D01*
X93696600Y-85500000D02*
X93696600Y-88900000D01*
X94131100Y-85500000D02*
X93696600Y-85500000D01*
X87598300Y-85500000D02*
X87598300Y-85185000D01*
X88497500Y-83899100D02*
X89100000Y-83899100D01*
X87598300Y-84798300D02*
X88497500Y-83899100D01*
X87598300Y-85185000D02*
X87598300Y-84798300D01*
X109582000Y-100500000D02*
X109581900Y-100500000D01*
X109581900Y-100500000D02*
X108880000Y-100500000D01*
X102894000Y-100500000D02*
X102894300Y-100500000D01*
X104500000Y-95500000D02*
X104500000Y-95850800D01*
X104500000Y-95850800D02*
X104500000Y-96201700D01*
X104499600Y-95850400D02*
X104499600Y-95500000D01*
X104500000Y-95850800D02*
X104499600Y-95850400D01*
X84178500Y-83920000D02*
X79000000Y-83920000D01*
X87598500Y-80500000D02*
X84178500Y-83920000D01*
X102900000Y-89798300D02*
X102900000Y-90149100D01*
X103798000Y-88900000D02*
X102900000Y-89798300D01*
X103798000Y-85500000D02*
X103798000Y-88900000D01*
X98559100Y-81240900D02*
X97798300Y-81240900D01*
X99300000Y-80500000D02*
X98559100Y-81240900D01*
X93440900Y-81240900D02*
X92700000Y-80500000D01*
X97798300Y-81240900D02*
X93440900Y-81240900D01*
X104500000Y-85500000D02*
X103798000Y-85500000D01*
X103798000Y-85100400D02*
X103798000Y-85500000D01*
X103441000Y-84743100D02*
X103798000Y-85100400D01*
X97798300Y-84743100D02*
X103441000Y-84743100D01*
X108002000Y-92801000D02*
X108002000Y-95500000D01*
X102900000Y-90500000D02*
X102900000Y-90149100D01*
X97798300Y-85500000D02*
X97798300Y-84743100D01*
X97798300Y-84743100D02*
X97798300Y-81240900D01*
X88201700Y-80500000D02*
X87598500Y-80500000D01*
X88201700Y-80149100D02*
X88201700Y-80500000D01*
X88552500Y-79798300D02*
X88201700Y-80149100D01*
X91296600Y-79798300D02*
X88552500Y-79798300D01*
X91998300Y-80500000D02*
X91296600Y-79798300D01*
X92700000Y-80500000D02*
X91998300Y-80500000D01*
X87598500Y-80500000D02*
X87500000Y-80500000D01*
X109601000Y-90500000D02*
X109601000Y-90850800D01*
X109601000Y-91201700D02*
X108002000Y-92801000D01*
X109601000Y-90850800D02*
X109601000Y-91201700D01*
X109600900Y-90850700D02*
X109600900Y-90500000D01*
X109601000Y-90850800D02*
X109600900Y-90850700D01*
X107549200Y-94798300D02*
X104000000Y-91249100D01*
X108001600Y-94798300D02*
X107549200Y-94798300D01*
X102900000Y-90149100D02*
X104000000Y-91249100D01*
X105552000Y-92801000D02*
X108002000Y-92801000D01*
X104000000Y-91249100D02*
X105552000Y-92801000D01*
X108001600Y-95500000D02*
X108001600Y-94798300D01*
M02*
