G04 #@! TF.GenerationSoftware,KiCad,Pcbnew,9.0.1*
G04 #@! TF.CreationDate,2025-04-08T20:49:58-07:00*
G04 #@! TF.ProjectId,Bigger_Test,42696767-6572-45f5-9465-73742e6b6963,rev?*
G04 #@! TF.SameCoordinates,Original*
G04 #@! TF.FileFunction,Soldermask,Top*
G04 #@! TF.FilePolarity,Negative*
%FSLAX46Y46*%
G04 Gerber Fmt 4.6, Leading zero omitted, Abs format (unit mm)*
G04 Created by KiCad (PCBNEW 9.0.1) date 2025-04-08 20:49:58*
%MOMM*%
%LPD*%
G01*
G04 APERTURE LIST*
G04 Aperture macros list*
%AMRoundRect*
0 Rectangle with rounded corners*
0 $1 Rounding radius*
0 $2 $3 $4 $5 $6 $7 $8 $9 X,Y pos of 4 corners*
0 Add a 4 corners polygon primitive as box body*
4,1,4,$2,$3,$4,$5,$6,$7,$8,$9,$2,$3,0*
0 Add four circle primitives for the rounded corners*
1,1,$1+$1,$2,$3*
1,1,$1+$1,$4,$5*
1,1,$1+$1,$6,$7*
1,1,$1+$1,$8,$9*
0 Add four rect primitives between the rounded corners*
20,1,$1+$1,$2,$3,$4,$5,0*
20,1,$1+$1,$4,$5,$6,$7,0*
20,1,$1+$1,$6,$7,$8,$9,0*
20,1,$1+$1,$8,$9,$2,$3,0*%
G04 Aperture macros list end*
%ADD10R,1.700000X1.700000*%
%ADD11O,1.700000X1.700000*%
%ADD12RoundRect,0.102000X-0.400000X-0.400000X0.400000X-0.400000X0.400000X0.400000X-0.400000X0.400000X0*%
G04 APERTURE END LIST*
D10*
X79000000Y-83920000D03*
D11*
X79000000Y-86460000D03*
X79000000Y-89000000D03*
X79000000Y-91540000D03*
X79000000Y-94080000D03*
X79000000Y-96620000D03*
D12*
X108002100Y-85500000D03*
X109602100Y-85500000D03*
X92798300Y-90500000D03*
X94398300Y-90500000D03*
X97798300Y-90500000D03*
X99398300Y-90500000D03*
X97798300Y-95500000D03*
X99398300Y-95500000D03*
X108000900Y-90500000D03*
X109600900Y-90500000D03*
X87598300Y-90500000D03*
X89198300Y-90500000D03*
X97798300Y-85500000D03*
X99398300Y-85500000D03*
X102899600Y-95500000D03*
X104499600Y-95500000D03*
X87598300Y-100500000D03*
X89198300Y-100500000D03*
X109602100Y-80500000D03*
X108002100Y-80500000D03*
X94300000Y-80500000D03*
X92700000Y-80500000D03*
X92798300Y-95500000D03*
X94398300Y-95500000D03*
X97798300Y-100500000D03*
X99398300Y-100500000D03*
X104201700Y-80500000D03*
X102601700Y-80500000D03*
X87598300Y-95500000D03*
X89198300Y-95500000D03*
X92798300Y-100500000D03*
X94398300Y-100500000D03*
X108001600Y-95500000D03*
X109601600Y-95500000D03*
X89100000Y-80500000D03*
X87500000Y-80500000D03*
X102894300Y-100500000D03*
X104494300Y-100500000D03*
X102900000Y-90500000D03*
X104500000Y-90500000D03*
X87598300Y-85500000D03*
X89198300Y-85500000D03*
X107981900Y-100500000D03*
X109581900Y-100500000D03*
X102900000Y-85500000D03*
X104500000Y-85500000D03*
X92798300Y-85500000D03*
X94398300Y-85500000D03*
X99300000Y-80500000D03*
X97700000Y-80500000D03*
M02*
