M48
; DRILL file {KiCad 9.0.1} date 2025-06-29T22:28:54-0700
; FORMAT={-:-/ absolute / metric / decimal}
; #@! TF.CreationDate,2025-06-29T22:28:54-07:00
; #@! TF.GenerationSoftware,Kicad,Pcbnew,9.0.1
; #@! TF.FileFunction,Plated,1,4,PTH
FMAT,2
METRIC
; #@! TA.AperFunction,Plated,PTH,ViaDrill
T1C0.300
%
G90
G05
T1
X210.801Y-85.5
X211.055Y-81.747
X212.795Y-77.523
X213.005Y-94.372
X213.133Y-97.339
X213.165Y-79.738
X213.224Y-88.923
X214.171Y-74.169
X214.898Y-98.258
X214.912Y-89.586
X215.084Y-91.879
X215.114Y-87.18
X215.165Y-90.623
X215.341Y-99.395
X216.797Y-84.704
X216.8Y-79.075
X216.894Y-97.06
X217.071Y-83.05
X217.1Y-94.94
X217.127Y-96.163
X217.192Y-87.145
X217.21Y-92.935
X218.778Y-94.03
X218.8Y-87.393
X218.899Y-101.018
X218.916Y-96.082
X219.055Y-85.835
X219.195Y-92.712
X219.196Y-94.685
X219.236Y-97.136
X220.746Y-93.202
X220.971Y-76.259
X221.0Y-74.5
X221.089Y-95.426
X221.172Y-98.06
X221.203Y-83.747
X221.206Y-94.669
X222.636Y-100.747
X222.896Y-73.506
X222.93Y-74.542
X222.956Y-98.314
X223.039Y-102.063
X223.054Y-90.815
X223.224Y-89.157
X223.245Y-88.16
X224.747Y-92.382
X224.754Y-93.997
X224.885Y-87.17
X224.98Y-73.187
X225.009Y-99.689
X225.244Y-86.224
X225.284Y-101.819
X226.5Y-101.55
X226.771Y-99.365
X226.887Y-92.755
X227.237Y-89.922
X227.249Y-73.359
X228.282Y-102.863
X228.762Y-86.206
X229.099Y-94.128
X229.207Y-96.273
X230.51Y-101.388
X230.773Y-102.349
X230.918Y-84.781
X230.921Y-87.852
X231.085Y-86.316
X231.092Y-71.01
X231.201Y-99.605
X231.228Y-76.489
X231.242Y-89.596
X232.77Y-79.396
X232.835Y-96.692
X232.849Y-100.402
X233.087Y-85.496
X233.229Y-76.308
X233.25Y-96.052
X234.828Y-73.85
X234.831Y-83.049
X234.905Y-90.114
X234.929Y-78.071
X234.959Y-94.217
X235.031Y-76.877
X235.198Y-91.476
X235.248Y-88.328
X236.753Y-93.755
X237.0Y-87.95
X237.044Y-98.996
X237.106Y-76.088
X237.121Y-89.729
X237.179Y-82.827
X237.91Y-96.903
X239.25Y-85.506
X239.802Y-95.01
M30
