%TF.GenerationSoftware,KiCad,Pcbnew,9.0.1*%
%TF.CreationDate,2025-06-29T22:28:52-07:00*%
%TF.ProjectId,Complete,436f6d70-6c65-4746-952e-6b696361645f,rev?*%
%TF.SameCoordinates,Original*%
%TF.FileFunction,Copper,L4,Bot*%
%TF.FilePolarity,Positive*%
%FSLAX46Y46*%
G04 Gerber Fmt 4.6, Leading zero omitted, Abs format (unit mm)*
G04 Created by KiCad (PCBNEW 9.0.1) date 2025-06-29 22:28:52*
%MOMM*%
%LPD*%
G01*
G04 APERTURE LIST*
G04 Aperture macros list*
%AMRoundRect*
0 Rectangle with rounded corners*
0 $1 Rounding radius*
0 $2 $3 $4 $5 $6 $7 $8 $9 X,Y pos of 4 corners*
0 Add a 4 corners polygon primitive as box body*
4,1,4,$2,$3,$4,$5,$6,$7,$8,$9,$2,$3,0*
0 Add four circle primitives for the rounded corners*
1,1,$1+$1,$2,$3*
1,1,$1+$1,$4,$5*
1,1,$1+$1,$6,$7*
1,1,$1+$1,$8,$9*
0 Add four rect primitives between the rounded corners*
20,1,$1+$1,$2,$3,$4,$5,0*
20,1,$1+$1,$4,$5,$6,$7,0*
20,1,$1+$1,$6,$7,$8,$9,0*
20,1,$1+$1,$8,$9,$2,$3,0*%
G04 Aperture macros list end*
%TA.AperFunction,SMDPad,CuDef*%
%ADD10RoundRect,0.150000X-0.350000X0.802500X-0.350000X-0.802500X0.350000X-0.802500X0.350000X0.802500X0*%
%TD*%
%TA.AperFunction,SMDPad,CuDef*%
%ADD11RoundRect,0.150000X-0.587500X-0.150000X0.587500X-0.150000X0.587500X0.150000X-0.587500X0.150000X0*%
%TD*%
%TA.AperFunction,SMDPad,CuDef*%
%ADD12R,1.346200X0.400000*%
%TD*%
%TA.AperFunction,SMDPad,CuDef*%
%ADD13R,0.400000X1.346200*%
%TD*%
%TA.AperFunction,SMDPad,CuDef*%
%ADD14RoundRect,0.150000X-0.150000X-0.200000X0.150000X-0.200000X0.150000X0.200000X-0.150000X0.200000X0*%
%TD*%
%TA.AperFunction,SMDPad,CuDef*%
%ADD15R,1.320800X0.558800*%
%TD*%
%TA.AperFunction,SMDPad,CuDef*%
%ADD16RoundRect,0.150000X0.350000X0.850000X-0.350000X0.850000X-0.350000X-0.850000X0.350000X-0.850000X0*%
%TD*%
%TA.AperFunction,SMDPad,CuDef*%
%ADD17RoundRect,0.144117X0.336272X0.855883X-0.336272X0.855883X-0.336272X-0.855883X0.336272X-0.855883X0*%
%TD*%
%TA.AperFunction,SMDPad,CuDef*%
%ADD18R,0.890000X0.930000*%
%TD*%
%TA.AperFunction,SMDPad,CuDef*%
%ADD19C,11.000000*%
%TD*%
%TA.AperFunction,SMDPad,CuDef*%
%ADD20R,2.000000X5.100000*%
%TD*%
%TA.AperFunction,SMDPad,CuDef*%
%ADD21R,2.000000X3.100000*%
%TD*%
%TA.AperFunction,SMDPad,CuDef*%
%ADD22R,0.930000X0.890000*%
%TD*%
%TA.AperFunction,SMDPad,CuDef*%
%ADD23R,0.900000X0.970000*%
%TD*%
%TA.AperFunction,SMDPad,CuDef*%
%ADD24R,1.420000X1.080000*%
%TD*%
%TA.AperFunction,SMDPad,CuDef*%
%ADD25RoundRect,0.082500X0.117500X-0.082500X0.117500X0.082500X-0.117500X0.082500X-0.117500X-0.082500X0*%
%TD*%
%TA.AperFunction,SMDPad,CuDef*%
%ADD26RoundRect,0.095000X0.105000X-0.095000X0.105000X0.095000X-0.105000X0.095000X-0.105000X-0.095000X0*%
%TD*%
%TA.AperFunction,SMDPad,CuDef*%
%ADD27R,0.970000X1.730000*%
%TD*%
%TA.AperFunction,SMDPad,CuDef*%
%ADD28RoundRect,0.073750X0.911250X0.221250X-0.911250X0.221250X-0.911250X-0.221250X0.911250X-0.221250X0*%
%TD*%
%TA.AperFunction,SMDPad,CuDef*%
%ADD29RoundRect,0.150000X-0.200000X0.150000X-0.200000X-0.150000X0.200000X-0.150000X0.200000X0.150000X0*%
%TD*%
%TA.AperFunction,SMDPad,CuDef*%
%ADD30R,0.977900X0.508000*%
%TD*%
%TA.AperFunction,SMDPad,CuDef*%
%ADD31RoundRect,0.082500X-0.082500X-0.117500X0.082500X-0.117500X0.082500X0.117500X-0.082500X0.117500X0*%
%TD*%
%TA.AperFunction,SMDPad,CuDef*%
%ADD32RoundRect,0.095000X-0.095000X-0.105000X0.095000X-0.105000X0.095000X0.105000X-0.095000X0.105000X0*%
%TD*%
%TA.AperFunction,ViaPad*%
%ADD33C,0.600000*%
%TD*%
%TA.AperFunction,Conductor*%
%ADD34C,0.200000*%
%TD*%
G04 APERTURE END LIST*
D10*
%TO.P,BB_B1,1,+*%
%TO.N,CHIP_POW*%
X213500000Y-87500000D03*
%TO.P,BB_B1,2,_*%
%TO.N,BUTT*%
X213500000Y-83500000D03*
%TD*%
D11*
%TO.P,Q1,1,G*%
%TO.N,Net-(Q1-G)*%
X226500000Y-102500000D03*
%TO.P,Q1,2,S*%
%TO.N,CHIP_POW*%
X226500000Y-100600000D03*
%TO.P,Q1,3,D*%
%TO.N,RTC_WAKE*%
X228375001Y-101550000D03*
%TD*%
D12*
%TO.P,U2,1,PA3*%
%TO.N,SCL*%
X223247500Y-93046201D03*
%TO.P,U2,2,PA4*%
%TO.N,A*%
X223247500Y-93696199D03*
%TO.P,U2,3,PA5*%
%TO.N,B*%
X223247500Y-94346201D03*
%TO.P,U2,4,PA6*%
%TO.N,C*%
X223247500Y-94996199D03*
%TO.P,U2,5,PA7*%
%TO.N,D*%
X223247500Y-95646201D03*
%TO.P,U2,6,PC0*%
%TO.N,E*%
X223247500Y-96296199D03*
%TO.P,U2,7,PC1*%
%TO.N,F*%
X223247500Y-96946201D03*
%TO.P,U2,8,PC2*%
%TO.N,G*%
X223247500Y-97596199D03*
D13*
%TO.P,U2,9,PC3*%
%TO.N,H*%
X221344199Y-99499500D03*
%TO.P,U2,10,PD0*%
%TO.N,I*%
X220694201Y-99499500D03*
%TO.P,U2,11,PD1*%
%TO.N,J*%
X220044199Y-99499500D03*
%TO.P,U2,12,PD2*%
%TO.N,K*%
X219394201Y-99499500D03*
%TO.P,U2,13,PD3*%
%TO.N,L*%
X218744199Y-99499500D03*
%TO.P,U2,14,PD4*%
%TO.N,M*%
X218094201Y-99499500D03*
%TO.P,U2,15,PD5*%
%TO.N,N*%
X217444199Y-99499500D03*
%TO.P,U2,16,PD6*%
%TO.N,O*%
X216794201Y-99499500D03*
D12*
%TO.P,U2,17,PD7*%
%TO.N,P*%
X214890900Y-97596199D03*
%TO.P,U2,18,AVDD*%
%TO.N,CHIP_POW*%
X214890900Y-96946201D03*
%TO.P,U2,19,GND*%
%TO.N,GNDREF*%
X214890900Y-96296199D03*
%TO.P,U2,20,PF0_(TOSC1)*%
%TO.N,unconnected-(U2-PF0_(TOSC1)-Pad20)*%
X214890900Y-95646201D03*
%TO.P,U2,21,PF1_(TOSC2)*%
%TO.N,unconnected-(U2-PF1_(TOSC2)-Pad21)*%
X214890900Y-94996199D03*
%TO.P,U2,22,PF2*%
%TO.N,unconnected-(U2-PF2-Pad22)*%
X214890900Y-94346201D03*
%TO.P,U2,23,PF3*%
%TO.N,Net-(Q1-G)*%
X214890900Y-93696199D03*
%TO.P,U2,24,PF4*%
%TO.N,Charge_STAT*%
X214890900Y-93046201D03*
D13*
%TO.P,U2,25,PF5*%
%TO.N,Bat_READ*%
X216794201Y-91142900D03*
%TO.P,U2,26,PF6*%
%TO.N,Bat_ON*%
X217444199Y-91142900D03*
%TO.P,U2,27,UPDI*%
%TO.N,UPDI*%
X218094201Y-91142900D03*
%TO.P,U2,28,VDD*%
%TO.N,CHIP_POW*%
X218744199Y-91142900D03*
%TO.P,U2,29,GND*%
%TO.N,GNDREF*%
X219394201Y-91142900D03*
%TO.P,U2,30,PA0*%
%TO.N,unconnected-(U2-PA0-Pad30)*%
X220044199Y-91142900D03*
%TO.P,U2,31,PA1*%
%TO.N,BUTT*%
X220694201Y-91142900D03*
%TO.P,U2,32,PA2*%
%TO.N,SDA*%
X221344199Y-91142900D03*
%TD*%
D14*
%TO.P,DB2,1,K*%
%TO.N,Net-(DB1-K)*%
X232700000Y-101500000D03*
%TO.P,DB2,2,A*%
%TO.N,Bat_ON*%
X231300000Y-101500000D03*
%TD*%
D15*
%TO.P,CHG1,1,STAT*%
%TO.N,Charge_STAT*%
X236440800Y-90620400D03*
%TO.P,CHG1,2,VSS*%
%TO.N,GNDREF*%
X236440800Y-91560200D03*
%TO.P,CHG1,3,VBAT*%
%TO.N,Net-(CHG1-VBAT)*%
X236440800Y-92500000D03*
%TO.P,CHG1,4,VDD*%
%TO.N,USB + *%
X233697600Y-92500000D03*
%TO.P,CHG1,5,PROG*%
%TO.N,Net-(CHG1-PROG)*%
X233697600Y-90620400D03*
%TD*%
D16*
%TO.P,POGO1,1,USB_+*%
%TO.N,USB + *%
X240500000Y-84500000D03*
%TO.P,POGO1,2,USB_-*%
%TO.N,GNDREF*%
X240500000Y-88000000D03*
%TO.P,POGO1,3,PROG*%
%TO.N,UPDI*%
X240500000Y-91500000D03*
D17*
%TO.P,POGO1,4,NC*%
%TO.N,unconnected-(POGO1-NC-Pad4)*%
X240480389Y-79294519D03*
%TD*%
D18*
%TO.P,R4,1*%
%TO.N,RTC_WAKE*%
X234186000Y-99500000D03*
%TO.P,R4,2*%
%TO.N,GNDREF*%
X235814000Y-99500000D03*
%TD*%
D19*
%TO.P,BT1,N*%
%TO.N,GNDREF*%
X226000000Y-79900000D03*
D20*
%TO.P,BT1,P*%
%TO.N,Net-(CHG1-VBAT)*%
X236500000Y-79450000D03*
D21*
X215000000Y-78450000D03*
%TD*%
D22*
%TO.P,R3,1*%
%TO.N,Charge_STAT*%
X224000000Y-102000000D03*
%TO.P,R3,2*%
%TO.N,CHIP_POW*%
X224000000Y-100372000D03*
%TD*%
%TO.P,R2,1*%
%TO.N,BUTT*%
X212000000Y-93186000D03*
%TO.P,R2,2*%
%TO.N,GNDREF*%
X212000000Y-94814000D03*
%TD*%
D23*
%TO.P,R6,1*%
%TO.N,Bat_READ*%
X221760000Y-101500000D03*
%TO.P,R6,2*%
%TO.N,GNDREF*%
X220240000Y-101500000D03*
%TD*%
D24*
%TO.P,C1,1*%
%TO.N,CHIP_POW*%
X211500000Y-79895001D03*
%TO.P,C1,2*%
%TO.N,GNDREF*%
X211500000Y-78104999D03*
%TD*%
%TO.P,C2,1*%
%TO.N,Net-(CHG1-VBAT)*%
X228500000Y-90604999D03*
%TO.P,C2,2*%
%TO.N,GNDREF*%
X228500000Y-92395001D03*
%TD*%
D25*
%TO.P,R8,1*%
%TO.N,SCL*%
X226000000Y-92805001D03*
D26*
%TO.P,R8,2*%
%TO.N,CHIP_POW*%
X226000000Y-92220000D03*
%TD*%
D27*
%TO.P,R5,1*%
%TO.N,Net-(CHG1-VBAT)*%
X211020000Y-90500000D03*
%TO.P,R5,2*%
%TO.N,Bat_READ*%
X213980000Y-90500000D03*
%TD*%
D28*
%TO.P,U3,1,32KHZ*%
%TO.N,unconnected-(U3-32KHZ-Pad1)*%
X230975000Y-94595000D03*
%TO.P,U3,2,VCC*%
%TO.N,RTC_WAKE*%
X230975000Y-95865000D03*
%TO.P,U3,3,~{INT}/SQW*%
%TO.N,unconnected-(U3-~{INT}{slash}SQW-Pad3)*%
X230975000Y-97135000D03*
%TO.P,U3,4,~{RST}*%
%TO.N,CHIP_POW*%
X230975000Y-98405000D03*
%TO.P,U3,5,GND*%
%TO.N,GNDREF*%
X226025000Y-98405000D03*
%TO.P,U3,6,VBAT*%
%TO.N,CHIP_POW*%
X226025000Y-97135000D03*
%TO.P,U3,7,SDA*%
%TO.N,SDA*%
X226025000Y-95865000D03*
%TO.P,U3,8,SCL*%
%TO.N,SCL*%
X226025000Y-94595000D03*
%TD*%
D29*
%TO.P,DB1,1,K*%
%TO.N,Net-(DB1-K)*%
X238756800Y-95700000D03*
%TO.P,DB1,2,A*%
%TO.N,USB + *%
X238756800Y-94300000D03*
%TD*%
D30*
%TO.P,U1,1,IN*%
%TO.N,Net-(CHG1-VBAT)*%
X236500050Y-95049999D03*
%TO.P,U1,2,GND*%
%TO.N,GNDREF*%
X236500050Y-96000000D03*
%TO.P,U1,3,EN*%
%TO.N,Net-(DB1-K)*%
X236500050Y-96950001D03*
%TO.P,U1,4,NC*%
%TO.N,unconnected-(U1-NC-Pad4)*%
X233769550Y-96950001D03*
%TO.P,U1,5,OUT*%
%TO.N,CHIP_POW*%
X233769550Y-95049999D03*
%TD*%
D31*
%TO.P,R7,1*%
%TO.N,SDA*%
X224194999Y-91000000D03*
D32*
%TO.P,R7,2*%
%TO.N,CHIP_POW*%
X224780000Y-91000000D03*
%TD*%
D22*
%TO.P,R1,1*%
%TO.N,Net-(CHG1-PROG)*%
X231000000Y-90686000D03*
%TO.P,R1,2*%
%TO.N,GNDREF*%
X231000000Y-92314000D03*
%TD*%
D33*
%TO.N,Net-(CHG1-VBAT)*%
X237105700Y-76087600D03*
X212795300Y-77522600D03*
X235197600Y-91476100D03*
X237910100Y-96903000D03*
%TO.N,GNDREF*%
X234958800Y-94217200D03*
X225009400Y-99689300D03*
%TO.N,CHIP_POW*%
X213224100Y-88923400D03*
X226500000Y-101550000D03*
X211054600Y-81746600D03*
X213133500Y-97338900D03*
X222636000Y-100746900D03*
%TO.N,Charge_STAT*%
X223039200Y-102063400D03*
X213005100Y-94371800D03*
X237000000Y-87950000D03*
%TO.N,Bat_ON*%
X230510200Y-101388100D03*
X219196200Y-94685500D03*
X232835500Y-96691900D03*
%TO.N,F*%
X223054100Y-90814900D03*
X216797100Y-84703700D03*
X225283700Y-101818900D03*
X231201300Y-99605100D03*
X239801600Y-95010400D03*
X218799800Y-87393300D03*
%TO.N,P*%
X215340800Y-99394800D03*
X227237400Y-89922200D03*
X230920900Y-87851800D03*
%TO.N,N*%
X218899200Y-101018100D03*
X235030700Y-76877200D03*
X224884700Y-87170500D03*
X217210500Y-92935200D03*
%TO.N,B*%
X224754500Y-93997300D03*
X231084900Y-86315800D03*
%TO.N,M*%
X233229400Y-76307900D03*
X217191700Y-87145500D03*
X216894500Y-97060400D03*
%TO.N,O*%
X217100500Y-94940400D03*
X228762500Y-86206000D03*
X230917800Y-84780900D03*
X223223600Y-89157000D03*
%TO.N,L*%
X231242200Y-89596500D03*
X229099400Y-94127900D03*
X217127300Y-96163200D03*
X226771200Y-99365200D03*
%TO.N,A*%
X237121300Y-89728900D03*
X224747200Y-92381500D03*
X235248000Y-88328100D03*
X222930100Y-74542400D03*
X233087100Y-85495600D03*
%TO.N,J*%
X215084100Y-91879300D03*
X218915900Y-96082100D03*
X229207000Y-96272800D03*
X234904800Y-90113500D03*
%TO.N,H*%
X219194700Y-92711900D03*
X221171900Y-98059800D03*
X221089100Y-95425700D03*
X233249800Y-96051600D03*
X232849200Y-100401900D03*
X215164600Y-90623000D03*
%TO.N,D*%
X226887300Y-92754700D03*
X223245300Y-88160100D03*
X219055500Y-85835400D03*
%TO.N,K*%
X221000000Y-74500000D03*
X215114500Y-87179600D03*
X214912300Y-89586000D03*
%TO.N,I*%
X210801000Y-85499800D03*
X234828200Y-73850000D03*
X224979800Y-73187200D03*
X220970700Y-76259300D03*
X219235600Y-97136400D03*
X217071200Y-83050000D03*
%TO.N,G*%
X216799900Y-79075400D03*
X231092400Y-71010400D03*
X222955900Y-98314100D03*
X231228400Y-76489100D03*
X237179400Y-82826700D03*
X234929400Y-78071200D03*
X214170500Y-74169000D03*
X213164700Y-79738200D03*
%TO.N,C*%
X225244300Y-86223700D03*
X220746400Y-93201600D03*
X221202700Y-83747300D03*
%TO.N,E*%
X227249300Y-73358600D03*
X221205500Y-94669400D03*
X222895600Y-73506300D03*
X239250200Y-85506300D03*
X234831100Y-83048900D03*
X232769900Y-79396200D03*
%TO.N,UPDI*%
X218778300Y-94030000D03*
X236753000Y-93755000D03*
%TO.N,Net-(DB1-K)*%
X237044500Y-98996100D03*
X230773100Y-102349300D03*
%TO.N,Net-(Q1-G)*%
X214897700Y-98258300D03*
X228282200Y-102863200D03*
%TD*%
D34*
%TO.N,Net-(CHG1-VBAT)*%
X236500000Y-79450000D02*
X236500000Y-76656300D01*
X238510700Y-96903000D02*
X237910100Y-96903000D01*
X235464300Y-88880700D02*
X235791700Y-88553300D01*
X215000000Y-78450000D02*
X213756300Y-78450000D01*
X235791700Y-82952000D02*
X236500000Y-82243700D01*
X235464300Y-91975500D02*
X235464300Y-91374700D01*
X230223400Y-91374700D02*
X229453700Y-90605000D01*
X235791700Y-88553300D02*
X235791700Y-82952000D01*
X239071200Y-95050000D02*
X239372700Y-95351500D01*
X235197600Y-91374700D02*
X235197600Y-91476100D01*
X228500000Y-90605000D02*
X229453700Y-90605000D01*
X235464300Y-91374700D02*
X235464300Y-88880700D01*
X239372700Y-95351500D02*
X239372700Y-96041000D01*
X235988800Y-92500000D02*
X235464300Y-91975500D01*
X235197600Y-91374700D02*
X230223400Y-91374700D01*
X236500000Y-95050000D02*
X239071200Y-95050000D01*
X236537000Y-76656300D02*
X236500000Y-76656300D01*
X236500000Y-79450000D02*
X236500000Y-82243700D01*
X213756300Y-78450000D02*
X213722700Y-78450000D01*
X211529000Y-82142800D02*
X213756300Y-79915500D01*
X213756300Y-79915500D02*
X213756300Y-78450000D01*
X211020000Y-89391300D02*
X211529000Y-88882300D01*
X236440800Y-92500000D02*
X235988800Y-92500000D01*
X239372700Y-96041000D02*
X238510700Y-96903000D01*
X213722700Y-78450000D02*
X212795300Y-77522600D01*
X237105700Y-76087600D02*
X236537000Y-76656300D01*
X211020000Y-90500000D02*
X211020000Y-89391300D01*
X211529000Y-88882300D02*
X211529000Y-82142800D01*
X235464300Y-91374700D02*
X235197600Y-91374700D01*
%TO.N,USB + *%
X241282200Y-85282200D02*
X240500000Y-84500000D01*
X239480800Y-94300000D02*
X241282200Y-92498600D01*
X234601700Y-92500000D02*
X236401700Y-94300000D01*
X241282200Y-92498600D02*
X241282200Y-85282200D01*
X233697600Y-92500000D02*
X234601700Y-92500000D01*
X238756800Y-94300000D02*
X239480800Y-94300000D01*
X236401700Y-94300000D02*
X238756800Y-94300000D01*
%TO.N,GNDREF*%
X224858100Y-99840600D02*
X224858100Y-100774200D01*
X219715600Y-76637300D02*
X212184000Y-76637300D01*
X235767300Y-95885300D02*
X235767300Y-96000000D01*
X212000000Y-94469600D02*
X212000000Y-94125300D01*
X232943100Y-91965900D02*
X232395500Y-92513500D01*
X225009400Y-99420600D02*
X225009400Y-99689300D01*
X224858100Y-100774200D02*
X224569500Y-101062800D01*
X221181000Y-102267600D02*
X220933700Y-102020300D01*
X212620400Y-86654300D02*
X212620400Y-92451800D01*
X222978300Y-79900000D02*
X219715600Y-76637300D01*
X235814000Y-99500000D02*
X235814000Y-98791300D01*
X228500000Y-92003100D02*
X229980400Y-92003100D01*
X212708700Y-92540100D02*
X212708700Y-93760900D01*
X222284100Y-102267600D02*
X221181000Y-102267600D01*
X229980400Y-92003100D02*
X230291300Y-92314000D01*
X220933700Y-102020300D02*
X220933700Y-101500000D01*
X237344900Y-91155100D02*
X237344900Y-91560200D01*
X231000000Y-92314000D02*
X232196000Y-92314000D01*
X235767300Y-96000000D02*
X235767300Y-98744600D01*
X232395500Y-92513500D02*
X234529000Y-94647000D01*
X211500000Y-78888700D02*
X210900000Y-78888700D01*
X212000000Y-95502700D02*
X212793500Y-96296200D01*
X231000000Y-92314000D02*
X230291300Y-92314000D01*
X219394200Y-91142900D02*
X219394200Y-90226100D01*
X234529000Y-94647000D02*
X234958800Y-94217200D01*
X211655700Y-94125300D02*
X212000000Y-94125300D01*
X212184000Y-76637300D02*
X211500000Y-77321300D01*
X222495500Y-102056200D02*
X222284100Y-102267600D01*
X212708700Y-93760900D02*
X212000000Y-94469600D01*
X226025000Y-98405000D02*
X225009400Y-99420600D01*
X222495500Y-101836700D02*
X222495500Y-102056200D01*
X212793500Y-96296200D02*
X214890900Y-96296200D01*
X212000000Y-94814000D02*
X212000000Y-94469600D01*
X237344900Y-92892300D02*
X237177400Y-93059800D01*
X210257300Y-92726900D02*
X211655700Y-94125300D01*
X211500000Y-78496800D02*
X211500000Y-78888700D01*
X219394200Y-90226100D02*
X215449800Y-86281700D01*
X215449800Y-86281700D02*
X212993000Y-86281700D01*
X224569500Y-101062800D02*
X223269400Y-101062800D01*
X211500000Y-78105000D02*
X211500000Y-77321300D01*
X236500000Y-96000000D02*
X235767300Y-96000000D01*
X210900000Y-78888700D02*
X210257300Y-79531400D01*
X212993000Y-86281700D02*
X212620400Y-86654300D01*
X234622300Y-91965900D02*
X232943100Y-91965900D01*
X211500000Y-78105000D02*
X211500000Y-78496800D01*
X235767300Y-98744600D02*
X235814000Y-98791300D01*
X236440800Y-91560200D02*
X237344900Y-91560200D01*
X223269400Y-101062800D02*
X222495500Y-101836700D01*
X212620400Y-92451800D02*
X212708700Y-92540100D01*
X225009400Y-99689300D02*
X224858100Y-99840600D01*
X235716200Y-93059800D02*
X234622300Y-91965900D01*
X220240000Y-101500000D02*
X220933700Y-101500000D01*
X228500000Y-92395000D02*
X228500000Y-92003100D01*
X234529000Y-94647000D02*
X235767300Y-95885300D01*
X226000000Y-79900000D02*
X222978300Y-79900000D01*
X227840200Y-91611300D02*
X226000000Y-89771100D01*
X228500000Y-92003100D02*
X228500000Y-91611300D01*
X240500000Y-88000000D02*
X237344900Y-91155100D01*
X228500000Y-91611300D02*
X227840200Y-91611300D01*
X237344900Y-91560200D02*
X237344900Y-92892300D01*
X232196000Y-92314000D02*
X232395500Y-92513500D01*
X210257300Y-79531400D02*
X210257300Y-92726900D01*
X237177400Y-93059800D02*
X235716200Y-93059800D01*
X212000000Y-94814000D02*
X212000000Y-95502700D01*
X226000000Y-89771100D02*
X226000000Y-79900000D01*
%TO.N,BUTT*%
X212000000Y-85000000D02*
X212000000Y-92497300D01*
X218216700Y-87400000D02*
X218216700Y-87748600D01*
X213500000Y-83500000D02*
X212000000Y-85000000D01*
X212000000Y-93186000D02*
X212000000Y-92497300D01*
X218216700Y-87748600D02*
X220694200Y-90226100D01*
X213500000Y-83500000D02*
X214316700Y-83500000D01*
X220694200Y-91142900D02*
X220694200Y-90226100D01*
X214316700Y-83500000D02*
X218216700Y-87400000D01*
%TO.N,CHIP_POW*%
X224000000Y-98857800D02*
X224000000Y-98812600D01*
X229142900Y-102101600D02*
X227605500Y-102101600D01*
X224000000Y-100372000D02*
X224000000Y-98857800D01*
X213224100Y-88923400D02*
X213500000Y-88647500D01*
X218744200Y-91142900D02*
X218744200Y-90226100D01*
X225677600Y-97135000D02*
X226025000Y-97135000D01*
X227605500Y-102101600D02*
X227053900Y-101550000D01*
X218744200Y-91142900D02*
X218744200Y-92059700D01*
X229966500Y-99413500D02*
X229966500Y-101278000D01*
X224902600Y-91122600D02*
X224780000Y-91122600D01*
X222412200Y-98539200D02*
X222730800Y-98857800D01*
X220195800Y-92059700D02*
X218744200Y-92059700D01*
X233769500Y-95050000D02*
X234912300Y-96192800D01*
X222730800Y-98857800D02*
X224000000Y-98857800D01*
X224780000Y-91000000D02*
X224780000Y-91122600D01*
X226500000Y-101550000D02*
X226500000Y-100600000D01*
X213526200Y-96946200D02*
X213133500Y-97338900D01*
X231621200Y-98405000D02*
X230975000Y-98405000D01*
X234912300Y-96192800D02*
X234912300Y-100045500D01*
X213500000Y-87500000D02*
X214060800Y-88060800D01*
X213500000Y-88647500D02*
X213500000Y-87500000D01*
X220195800Y-92059700D02*
X220195800Y-95798200D01*
X234912300Y-100045500D02*
X234749100Y-100208700D01*
X211054600Y-81124100D02*
X211054600Y-81746600D01*
X220195800Y-95798200D02*
X222412200Y-98014600D01*
X211500000Y-79895000D02*
X211500000Y-80678700D01*
X224000000Y-98812600D02*
X225677600Y-97135000D01*
X222412200Y-98014600D02*
X222412200Y-98539200D01*
X214890900Y-96946200D02*
X213526200Y-96946200D01*
X216578900Y-88060800D02*
X218744200Y-90226100D01*
X222730800Y-100652100D02*
X222730800Y-98857800D01*
X223842900Y-92059700D02*
X220195800Y-92059700D01*
X233424900Y-100208700D02*
X231621200Y-98405000D01*
X230975000Y-98405000D02*
X229966500Y-99413500D01*
X224780000Y-91122600D02*
X223842900Y-92059700D01*
X211500000Y-80678700D02*
X211054600Y-81124100D01*
X234749100Y-100208700D02*
X233424900Y-100208700D01*
X214060800Y-88060800D02*
X216578900Y-88060800D01*
X226000000Y-92220000D02*
X224902600Y-91122600D01*
X229966500Y-101278000D02*
X229142900Y-102101600D01*
X222636000Y-100746900D02*
X222730800Y-100652100D01*
X227053900Y-101550000D02*
X226500000Y-101550000D01*
%TO.N,Net-(CHG1-PROG)*%
X231000000Y-90686000D02*
X232727900Y-90686000D01*
X232727900Y-90686000D02*
X232793500Y-90620400D01*
X233697600Y-90620400D02*
X232793500Y-90620400D01*
%TO.N,Charge_STAT*%
X224000000Y-102000000D02*
X223291300Y-102000000D01*
X214890900Y-93046200D02*
X213974100Y-93046200D01*
X213974100Y-93046200D02*
X213974100Y-93402800D01*
X223227900Y-102063400D02*
X223039200Y-102063400D01*
X236440800Y-88509200D02*
X236440800Y-90620400D01*
X237000000Y-87950000D02*
X236440800Y-88509200D01*
X213974100Y-93402800D02*
X213005100Y-94371800D01*
X223291300Y-102000000D02*
X223227900Y-102063400D01*
%TO.N,Bat_ON*%
X231188100Y-101388100D02*
X231300000Y-101500000D01*
X217754200Y-93842500D02*
X217754200Y-92710000D01*
X219196200Y-94685500D02*
X218597200Y-94685500D01*
X230510200Y-101388100D02*
X231188100Y-101388100D01*
X218597200Y-94685500D02*
X217754200Y-93842500D01*
X217444200Y-92400000D02*
X217444200Y-91142900D01*
X217754200Y-92710000D02*
X217444200Y-92400000D01*
%TO.N,F*%
X224442100Y-96946200D02*
X224832300Y-96556000D01*
X225821800Y-99983100D02*
X225283700Y-100521200D01*
X224832300Y-96556000D02*
X227041800Y-96556000D01*
X223247500Y-96946200D02*
X224442100Y-96946200D01*
X227331700Y-96845900D02*
X227331700Y-99600000D01*
X226948600Y-99983100D02*
X225821800Y-99983100D01*
X227041800Y-96556000D02*
X227331700Y-96845900D01*
X225283700Y-100521200D02*
X225283700Y-101818900D01*
X227331700Y-99600000D02*
X226948600Y-99983100D01*
%TO.N,P*%
X213974100Y-97596200D02*
X213974100Y-98122000D01*
X214890900Y-97596200D02*
X213974100Y-97596200D01*
X215246900Y-99394800D02*
X215340800Y-99394800D01*
X213974100Y-98122000D02*
X215246900Y-99394800D01*
%TO.N,N*%
X218297400Y-100416300D02*
X218899200Y-101018100D01*
X217444200Y-100416300D02*
X218297400Y-100416300D01*
X217444200Y-99499500D02*
X217444200Y-100416300D01*
%TO.N,B*%
X224405600Y-94346200D02*
X224754500Y-93997300D01*
X223247500Y-94346200D02*
X224405600Y-94346200D01*
%TO.N,M*%
X216894500Y-97060400D02*
X216894500Y-97383000D01*
X218094200Y-99499500D02*
X218094200Y-98582700D01*
X216894500Y-97383000D02*
X218094200Y-98582700D01*
%TO.N,O*%
X216350800Y-98139300D02*
X216794200Y-98582700D01*
X216350800Y-95690100D02*
X216350800Y-98139300D01*
X217100500Y-94940400D02*
X216350800Y-95690100D01*
X216794200Y-99499500D02*
X216794200Y-98582700D01*
%TO.N,L*%
X217457900Y-97296400D02*
X218744200Y-98582700D01*
X218744200Y-99499500D02*
X218744200Y-98582700D01*
X217457900Y-96493800D02*
X217457900Y-97296400D01*
X217127300Y-96163200D02*
X217457900Y-96493800D01*
%TO.N,A*%
X224697200Y-92431500D02*
X224747200Y-92381500D01*
X222596100Y-92431500D02*
X224697200Y-92431500D01*
X223247500Y-93696200D02*
X222330700Y-93696200D01*
X222330700Y-93696200D02*
X222330700Y-92696900D01*
X222330700Y-92696900D02*
X222596100Y-92431500D01*
%TO.N,J*%
X218690300Y-96307700D02*
X218915900Y-96082100D01*
X218690300Y-97387300D02*
X218690300Y-96307700D01*
X219885700Y-98582700D02*
X218690300Y-97387300D01*
X220044200Y-98582700D02*
X219885700Y-98582700D01*
X220044200Y-99499500D02*
X220044200Y-98582700D01*
%TO.N,H*%
X221171900Y-98410400D02*
X221344200Y-98582700D01*
X221344200Y-99499500D02*
X221344200Y-98582700D01*
X221171900Y-98059800D02*
X221171900Y-98410400D01*
%TO.N,D*%
X227289200Y-94996600D02*
X227289200Y-94228600D01*
X227017300Y-95268500D02*
X227289200Y-94996600D01*
X226887300Y-93826700D02*
X226887300Y-92754700D01*
X224164300Y-95646200D02*
X224542000Y-95268500D01*
X223247500Y-95646200D02*
X224164300Y-95646200D01*
X224542000Y-95268500D02*
X227017300Y-95268500D01*
X227289200Y-94228600D02*
X226887300Y-93826700D01*
%TO.N,K*%
X217868400Y-94928700D02*
X217868400Y-97056900D01*
X216323100Y-93383400D02*
X217868400Y-94928700D01*
X217868400Y-97056900D02*
X219394200Y-98582700D01*
X214912300Y-89586000D02*
X216323100Y-90996800D01*
X219394200Y-99499500D02*
X219394200Y-98582700D01*
X216323100Y-90996800D02*
X216323100Y-93383400D01*
%TO.N,I*%
X220681900Y-98582700D02*
X219235600Y-97136400D01*
X220694200Y-98582700D02*
X220681900Y-98582700D01*
X220694200Y-99499500D02*
X220694200Y-98582700D01*
%TO.N,G*%
X223247500Y-98022500D02*
X223247500Y-97596200D01*
X222955900Y-98314100D02*
X223247500Y-98022500D01*
%TO.N,C*%
X222330700Y-94996200D02*
X222330700Y-94785900D01*
X223247500Y-94996200D02*
X222330700Y-94996200D01*
X222330700Y-94785900D02*
X220746400Y-93201600D01*
%TO.N,E*%
X222330700Y-95794600D02*
X221205500Y-94669400D01*
X222330700Y-96296200D02*
X222330700Y-95794600D01*
X223247500Y-96296200D02*
X222330700Y-96296200D01*
%TO.N,UPDI*%
X218097900Y-92063400D02*
X218094200Y-92059700D01*
X240500000Y-91500000D02*
X238245000Y-93755000D01*
X218094200Y-91142900D02*
X218094200Y-92059700D01*
X238245000Y-93755000D02*
X236753000Y-93755000D01*
X218097900Y-93349600D02*
X218097900Y-92063400D01*
X218778300Y-94030000D02*
X218097900Y-93349600D01*
%TO.N,Bat_READ*%
X221826400Y-100704900D02*
X221760000Y-100771300D01*
X216666800Y-92187100D02*
X216666800Y-93241100D01*
X213980000Y-90500000D02*
X213980000Y-89391300D01*
X216794200Y-91142900D02*
X216794200Y-92059700D01*
X213980000Y-89391300D02*
X214343800Y-89027500D01*
X214343800Y-89027500D02*
X215595600Y-89027500D01*
X215595600Y-89027500D02*
X216794200Y-90226100D01*
X219140900Y-95229200D02*
X221826400Y-97914700D01*
X218654900Y-95229200D02*
X219140900Y-95229200D01*
X216666800Y-93241100D02*
X218654900Y-95229200D01*
X221826400Y-97914700D02*
X221826400Y-100704900D01*
X221760000Y-101500000D02*
X221760000Y-100771300D01*
X216794200Y-91142900D02*
X216794200Y-90226100D01*
X216794200Y-92059700D02*
X216666800Y-92187100D01*
%TO.N,RTC_WAKE*%
X230975000Y-95865000D02*
X230650600Y-95865000D01*
X230975000Y-95865000D02*
X231347000Y-95865000D01*
X231347000Y-95865000D02*
X232291800Y-96809800D01*
X232291800Y-96809800D02*
X232291800Y-98294500D01*
X234186000Y-99500000D02*
X233497300Y-99500000D01*
X230650600Y-95865000D02*
X228375000Y-98140600D01*
X228375000Y-98140600D02*
X228375000Y-101550000D01*
X232291800Y-98294500D02*
X233497300Y-99500000D01*
%TO.N,SDA*%
X226025000Y-95865000D02*
X226906800Y-95865000D01*
X227431000Y-93263500D02*
X227431000Y-92529500D01*
X221344200Y-90226100D02*
X223904900Y-90226100D01*
X226906800Y-95865000D02*
X227632900Y-95138900D01*
X225417700Y-90516200D02*
X224195000Y-90516200D01*
X224195000Y-91000000D02*
X224195000Y-90516200D01*
X221344200Y-91142900D02*
X221344200Y-90226100D01*
X227632900Y-93465400D02*
X227431000Y-93263500D01*
X223904900Y-90226100D02*
X224195000Y-90516200D01*
X227431000Y-92529500D02*
X225417700Y-90516200D01*
X227632900Y-95138900D02*
X227632900Y-93465400D01*
%TO.N,SCL*%
X226000000Y-94570000D02*
X226025000Y-94595000D01*
X224164300Y-93046200D02*
X225758800Y-93046200D01*
X223247500Y-93046200D02*
X224164300Y-93046200D01*
X225758800Y-93046200D02*
X226000000Y-92805000D01*
X226000000Y-92805000D02*
X226000000Y-94570000D01*
%TO.N,Net-(DB1-K)*%
X237232600Y-96811700D02*
X237232600Y-96950000D01*
X238344300Y-95700000D02*
X237232600Y-96811700D01*
X236500000Y-96950000D02*
X236866300Y-96950000D01*
X238756800Y-95700000D02*
X238344300Y-95700000D01*
X237044500Y-97128200D02*
X236866300Y-96950000D01*
X232060400Y-102139600D02*
X232700000Y-101500000D01*
X236866300Y-96950000D02*
X237232600Y-96950000D01*
X230982800Y-102139600D02*
X232060400Y-102139600D01*
X230773100Y-102349300D02*
X230982800Y-102139600D01*
X237044500Y-98996100D02*
X237044500Y-97128200D01*
%TO.N,Net-(Q1-G)*%
X215807700Y-97897100D02*
X215446500Y-98258300D01*
X227919000Y-102500000D02*
X226500000Y-102500000D01*
X214890900Y-93696200D02*
X215807700Y-93696200D01*
X228282200Y-102863200D02*
X227919000Y-102500000D01*
X215807700Y-93696200D02*
X215807700Y-97897100D01*
X215446500Y-98258300D02*
X214897700Y-98258300D01*
%TD*%
M02*
