%TF.GenerationSoftware,KiCad,Pcbnew,9.0.1*%
%TF.CreationDate,2025-06-29T22:28:52-07:00*%
%TF.ProjectId,Complete,436f6d70-6c65-4746-952e-6b696361645f,rev?*%
%TF.SameCoordinates,Original*%
%TF.FileFunction,Legend,Bot*%
%TF.FilePolarity,Positive*%
%FSLAX46Y46*%
G04 Gerber Fmt 4.6, Leading zero omitted, Abs format (unit mm)*
G04 Created by KiCad (PCBNEW 9.0.1) date 2025-06-29 22:28:52*
%MOMM*%
%LPD*%
G01*
G04 APERTURE LIST*
%ADD10C,0.100000*%
%ADD11C,0.093750*%
%ADD12C,0.150000*%
%ADD13C,0.098425*%
%ADD14C,0.050000*%
%ADD15C,0.120000*%
%ADD16C,0.152400*%
%ADD17C,0.000000*%
%ADD18C,0.127000*%
%ADD19C,0.200000*%
G04 APERTURE END LIST*
D10*
X215448434Y-84418577D02*
X222067634Y-89460877D01*
X236567634Y-84418577D02*
X230067634Y-89418577D01*
D11*
G36*
X229922651Y-88872500D02*
G01*
X229703886Y-88872500D01*
X229629647Y-88868595D01*
X229576803Y-88858486D01*
X229529522Y-88839763D01*
X229484571Y-88810859D01*
X229452103Y-88779280D01*
X229426685Y-88739601D01*
X229414957Y-88710011D01*
X229407688Y-88676940D01*
X229405469Y-88644300D01*
X229510720Y-88644300D01*
X229514353Y-88681597D01*
X229524047Y-88708689D01*
X229540654Y-88731570D01*
X229566041Y-88753019D01*
X229597137Y-88769001D01*
X229633681Y-88778573D01*
X229675632Y-88782863D01*
X229738690Y-88784572D01*
X229821214Y-88784572D01*
X229821214Y-88509066D01*
X229705901Y-88509066D01*
X229625209Y-88512592D01*
X229597694Y-88518393D01*
X229572727Y-88528621D01*
X229549369Y-88543136D01*
X229533278Y-88558553D01*
X229523039Y-88574966D01*
X229514079Y-88604418D01*
X229510720Y-88644300D01*
X229405469Y-88644300D01*
X229405161Y-88639767D01*
X229409598Y-88592458D01*
X229422210Y-88552440D01*
X229442576Y-88518271D01*
X229470312Y-88489721D01*
X229505061Y-88467422D01*
X229548135Y-88451318D01*
X229548135Y-88447242D01*
X229516565Y-88428227D01*
X229490541Y-88405718D01*
X229469458Y-88379556D01*
X229453725Y-88350042D01*
X229444252Y-88318086D01*
X229442400Y-88297995D01*
X229546578Y-88297995D01*
X229549215Y-88331632D01*
X229556332Y-88357300D01*
X229569267Y-88378856D01*
X229589122Y-88396089D01*
X229613424Y-88409077D01*
X229635742Y-88416284D01*
X229661410Y-88419694D01*
X229705901Y-88421139D01*
X229821214Y-88421139D01*
X229821214Y-88198389D01*
X229723852Y-88198389D01*
X229640321Y-88201458D01*
X229611254Y-88207282D01*
X229585504Y-88218310D01*
X229567735Y-88232310D01*
X229555829Y-88250276D01*
X229549020Y-88271623D01*
X229546578Y-88297995D01*
X229442400Y-88297995D01*
X229441019Y-88283019D01*
X229445973Y-88236964D01*
X229459979Y-88199076D01*
X229474710Y-88177202D01*
X229494449Y-88157990D01*
X229519925Y-88141282D01*
X229558328Y-88124849D01*
X229598098Y-88115866D01*
X229643948Y-88112049D01*
X229720280Y-88110462D01*
X229922651Y-88110462D01*
X229922651Y-88872500D01*
G37*
G36*
X229149573Y-88291533D02*
G01*
X229198388Y-88306510D01*
X229241195Y-88330912D01*
X229278995Y-88365314D01*
X229308488Y-88406449D01*
X229330417Y-88455931D01*
X229344418Y-88515424D01*
X229349428Y-88587010D01*
X229344626Y-88656405D01*
X229331118Y-88714958D01*
X229309826Y-88764465D01*
X229281055Y-88806371D01*
X229244128Y-88841365D01*
X229201385Y-88866315D01*
X229151671Y-88881740D01*
X229093294Y-88887154D01*
X229036663Y-88881959D01*
X228987798Y-88867081D01*
X228945197Y-88842912D01*
X228907822Y-88808935D01*
X228878727Y-88768232D01*
X228857019Y-88718910D01*
X228843112Y-88659228D01*
X228838121Y-88587010D01*
X228937543Y-88587010D01*
X228940625Y-88642417D01*
X228949035Y-88686619D01*
X228961781Y-88721598D01*
X228978255Y-88749035D01*
X229000581Y-88772488D01*
X229026635Y-88789079D01*
X229057155Y-88799300D01*
X229093294Y-88802890D01*
X229129882Y-88799230D01*
X229160698Y-88788818D01*
X229186932Y-88771922D01*
X229209340Y-88748027D01*
X229225911Y-88720082D01*
X229238652Y-88684991D01*
X229247007Y-88641232D01*
X229250052Y-88587010D01*
X229246946Y-88530699D01*
X229238498Y-88486102D01*
X229225749Y-88451110D01*
X229209340Y-88423932D01*
X229187028Y-88400774D01*
X229160833Y-88384329D01*
X229129984Y-88374161D01*
X229093294Y-88370580D01*
X229056848Y-88374157D01*
X229026208Y-88384318D01*
X229000189Y-88400759D01*
X228978026Y-88423932D01*
X228961716Y-88451094D01*
X228949038Y-88486080D01*
X228940633Y-88530681D01*
X228937543Y-88587010D01*
X228838121Y-88587010D01*
X228843097Y-88515087D01*
X228856983Y-88455469D01*
X228878691Y-88406035D01*
X228907822Y-88365085D01*
X228945232Y-88330844D01*
X228987845Y-88306511D01*
X229036698Y-88291542D01*
X229093294Y-88286317D01*
X229149573Y-88291533D01*
G37*
G36*
X228581075Y-88291277D02*
G01*
X228626042Y-88306284D01*
X228667096Y-88330385D01*
X228702383Y-88363024D01*
X228732283Y-88404777D01*
X228756193Y-88456401D01*
X228770918Y-88513831D01*
X228776160Y-88582431D01*
X228771922Y-88651395D01*
X228760200Y-88707791D01*
X228742121Y-88753759D01*
X228718274Y-88791075D01*
X228686745Y-88822922D01*
X228650933Y-88845296D01*
X228609974Y-88858955D01*
X228562523Y-88863707D01*
X228508917Y-88859327D01*
X228468780Y-88847587D01*
X228432138Y-88827769D01*
X228392393Y-88797624D01*
X228392393Y-88847541D01*
X228394161Y-88881678D01*
X228399079Y-88910189D01*
X228408249Y-88936242D01*
X228422114Y-88958595D01*
X228442351Y-88976781D01*
X228470566Y-88991202D01*
X228503473Y-88999762D01*
X228546129Y-89002925D01*
X228595313Y-88998758D01*
X228644497Y-88987813D01*
X228687545Y-88974532D01*
X228716213Y-88963358D01*
X228721342Y-88963358D01*
X228721342Y-89064612D01*
X228682549Y-89074671D01*
X228639643Y-89082655D01*
X228595990Y-89087726D01*
X228553822Y-89089387D01*
X228488275Y-89084441D01*
X228435613Y-89070795D01*
X228393368Y-89049638D01*
X228359649Y-89021289D01*
X228333750Y-88985835D01*
X228313920Y-88940137D01*
X228300873Y-88881780D01*
X228296085Y-88807790D01*
X228296085Y-88405156D01*
X228392393Y-88405156D01*
X228392393Y-88718214D01*
X228426055Y-88741741D01*
X228463880Y-88759522D01*
X228503604Y-88770729D01*
X228541000Y-88774314D01*
X228576090Y-88770863D01*
X228604173Y-88761259D01*
X228626750Y-88746009D01*
X228644772Y-88724763D01*
X228661383Y-88690130D01*
X228672577Y-88643102D01*
X228676783Y-88580187D01*
X228673706Y-88529391D01*
X228665195Y-88487836D01*
X228652075Y-88453957D01*
X228634789Y-88426451D01*
X228611843Y-88402991D01*
X228585491Y-88386455D01*
X228555054Y-88376319D01*
X228519476Y-88372779D01*
X228489327Y-88374628D01*
X228458797Y-88380243D01*
X228427998Y-88389788D01*
X228392393Y-88405156D01*
X228296085Y-88405156D01*
X228296085Y-88300971D01*
X228386760Y-88300971D01*
X228392393Y-88326800D01*
X228425567Y-88309379D01*
X228457743Y-88296850D01*
X228491948Y-88289136D01*
X228534863Y-88286317D01*
X228581075Y-88291277D01*
G37*
G36*
X227996991Y-88291533D02*
G01*
X228045806Y-88306510D01*
X228088613Y-88330912D01*
X228126413Y-88365314D01*
X228155906Y-88406449D01*
X228177835Y-88455931D01*
X228191836Y-88515424D01*
X228196846Y-88587010D01*
X228192044Y-88656405D01*
X228178536Y-88714958D01*
X228157244Y-88764465D01*
X228128473Y-88806371D01*
X228091546Y-88841365D01*
X228048803Y-88866315D01*
X227999089Y-88881740D01*
X227940712Y-88887154D01*
X227884081Y-88881959D01*
X227835216Y-88867081D01*
X227792615Y-88842912D01*
X227755240Y-88808935D01*
X227726145Y-88768232D01*
X227704437Y-88718910D01*
X227690530Y-88659228D01*
X227685539Y-88587010D01*
X227784961Y-88587010D01*
X227788043Y-88642417D01*
X227796453Y-88686619D01*
X227809199Y-88721598D01*
X227825673Y-88749035D01*
X227847999Y-88772488D01*
X227874053Y-88789079D01*
X227904573Y-88799300D01*
X227940712Y-88802890D01*
X227977300Y-88799230D01*
X228008116Y-88788818D01*
X228034350Y-88771922D01*
X228056758Y-88748027D01*
X228073329Y-88720082D01*
X228086070Y-88684991D01*
X228094425Y-88641232D01*
X228097470Y-88587010D01*
X228094364Y-88530699D01*
X228085916Y-88486102D01*
X228073167Y-88451110D01*
X228056758Y-88423932D01*
X228034446Y-88400774D01*
X228008251Y-88384329D01*
X227977402Y-88374161D01*
X227940712Y-88370580D01*
X227904266Y-88374157D01*
X227873626Y-88384318D01*
X227847607Y-88400759D01*
X227825444Y-88423932D01*
X227809134Y-88451094D01*
X227796456Y-88486080D01*
X227788051Y-88530681D01*
X227784961Y-88587010D01*
X227685539Y-88587010D01*
X227690515Y-88515087D01*
X227704401Y-88455469D01*
X227726109Y-88406035D01*
X227755240Y-88365085D01*
X227792650Y-88330844D01*
X227835263Y-88306511D01*
X227884116Y-88291542D01*
X227940712Y-88286317D01*
X227996991Y-88291533D01*
G37*
G36*
X227431603Y-88884223D02*
G01*
X227487747Y-88880323D01*
X227538948Y-88868973D01*
X227586437Y-88852438D01*
X227621654Y-88836367D01*
X227621654Y-88728885D01*
X227616571Y-88728885D01*
X227587628Y-88750180D01*
X227543298Y-88774497D01*
X227489259Y-88794281D01*
X227459325Y-88800721D01*
X227428031Y-88802890D01*
X227378846Y-88797532D01*
X227354593Y-88790968D01*
X227339874Y-88784023D01*
X227323923Y-88771381D01*
X227314046Y-88759018D01*
X227308365Y-88743837D01*
X227306077Y-88719222D01*
X227308406Y-88697220D01*
X227314778Y-88680460D01*
X227324808Y-88667702D01*
X227347891Y-88653032D01*
X227391120Y-88638622D01*
X227439296Y-88627906D01*
X227494114Y-88614625D01*
X227535969Y-88598686D01*
X227567039Y-88579097D01*
X227589414Y-88556144D01*
X227605669Y-88528449D01*
X227615624Y-88496867D01*
X227619090Y-88460431D01*
X227615327Y-88423124D01*
X227604431Y-88390336D01*
X227586445Y-88361106D01*
X227560700Y-88334814D01*
X227530433Y-88314315D01*
X227495129Y-88299217D01*
X227453856Y-88289688D01*
X227405454Y-88286317D01*
X227357927Y-88289220D01*
X227309695Y-88298040D01*
X227263854Y-88311842D01*
X227228729Y-88327578D01*
X227228729Y-88429931D01*
X227233812Y-88429931D01*
X227272677Y-88404199D01*
X227316061Y-88384365D01*
X227361851Y-88371781D01*
X227407514Y-88367650D01*
X227452532Y-88372907D01*
X227487931Y-88387571D01*
X227506165Y-88403111D01*
X227516936Y-88422720D01*
X227520721Y-88447746D01*
X227518287Y-88470719D01*
X227511656Y-88488035D01*
X227501258Y-88501052D01*
X227478067Y-88516026D01*
X227438747Y-88529857D01*
X227390891Y-88540848D01*
X227335295Y-88553350D01*
X227294511Y-88567074D01*
X227263236Y-88584722D01*
X227239719Y-88605969D01*
X227222516Y-88632188D01*
X227211631Y-88664949D01*
X227207708Y-88706033D01*
X227211379Y-88741932D01*
X227222317Y-88775734D01*
X227240268Y-88806240D01*
X227265090Y-88832154D01*
X227297710Y-88854548D01*
X227334516Y-88870942D01*
X227375832Y-88880582D01*
X227431603Y-88884223D01*
G37*
G36*
X226782909Y-88872500D02*
G01*
X226564144Y-88872500D01*
X226489906Y-88868595D01*
X226437061Y-88858486D01*
X226389780Y-88839763D01*
X226344829Y-88810859D01*
X226312361Y-88779280D01*
X226286943Y-88739601D01*
X226275215Y-88710011D01*
X226267946Y-88676940D01*
X226265728Y-88644300D01*
X226370978Y-88644300D01*
X226374611Y-88681597D01*
X226384305Y-88708689D01*
X226400912Y-88731570D01*
X226426299Y-88753019D01*
X226457395Y-88769001D01*
X226493939Y-88778573D01*
X226535890Y-88782863D01*
X226598948Y-88784572D01*
X226681472Y-88784572D01*
X226681472Y-88509066D01*
X226566159Y-88509066D01*
X226485467Y-88512592D01*
X226457952Y-88518393D01*
X226432985Y-88528621D01*
X226409627Y-88543136D01*
X226393537Y-88558553D01*
X226383297Y-88574966D01*
X226374337Y-88604418D01*
X226370978Y-88644300D01*
X226265728Y-88644300D01*
X226265420Y-88639767D01*
X226269857Y-88592458D01*
X226282468Y-88552440D01*
X226302834Y-88518271D01*
X226330570Y-88489721D01*
X226365319Y-88467422D01*
X226408393Y-88451318D01*
X226408393Y-88447242D01*
X226376824Y-88428227D01*
X226350800Y-88405718D01*
X226329716Y-88379556D01*
X226313983Y-88350042D01*
X226304510Y-88318086D01*
X226302658Y-88297995D01*
X226406836Y-88297995D01*
X226409473Y-88331632D01*
X226416591Y-88357300D01*
X226429525Y-88378856D01*
X226449380Y-88396089D01*
X226473682Y-88409077D01*
X226496000Y-88416284D01*
X226521669Y-88419694D01*
X226566159Y-88421139D01*
X226681472Y-88421139D01*
X226681472Y-88198389D01*
X226584111Y-88198389D01*
X226500580Y-88201458D01*
X226471513Y-88207282D01*
X226445762Y-88218310D01*
X226427993Y-88232310D01*
X226416087Y-88250276D01*
X226409278Y-88271623D01*
X226406836Y-88297995D01*
X226302658Y-88297995D01*
X226301277Y-88283019D01*
X226306231Y-88236964D01*
X226320237Y-88199076D01*
X226334968Y-88177202D01*
X226354708Y-88157990D01*
X226380183Y-88141282D01*
X226418586Y-88124849D01*
X226458356Y-88115866D01*
X226504206Y-88112049D01*
X226580539Y-88110462D01*
X226782909Y-88110462D01*
X226782909Y-88872500D01*
G37*
G36*
X226070834Y-88872500D02*
G01*
X226167188Y-88872500D01*
X226167188Y-88300971D01*
X226070834Y-88300971D01*
X226070834Y-88872500D01*
G37*
G36*
X226064194Y-88204251D02*
G01*
X226173828Y-88204251D01*
X226173828Y-88104600D01*
X226064194Y-88104600D01*
X226064194Y-88204251D01*
G37*
G36*
X225477599Y-88872500D02*
G01*
X225573907Y-88872500D01*
X225573907Y-88547855D01*
X225577754Y-88474628D01*
X225583712Y-88442673D01*
X225592363Y-88420269D01*
X225606529Y-88401503D01*
X225625152Y-88388395D01*
X225648363Y-88380841D01*
X225682534Y-88377908D01*
X225718164Y-88382486D01*
X225756585Y-88397050D01*
X225793788Y-88418734D01*
X225831095Y-88446830D01*
X225831095Y-88872500D01*
X225927403Y-88872500D01*
X225927403Y-88300971D01*
X225831095Y-88300971D01*
X225831095Y-88365451D01*
X225787159Y-88330840D01*
X225746052Y-88306741D01*
X225702892Y-88291421D01*
X225657438Y-88286317D01*
X225615958Y-88290066D01*
X225580861Y-88300707D01*
X225550917Y-88317835D01*
X225525272Y-88341729D01*
X225505553Y-88370419D01*
X225490685Y-88405763D01*
X225481072Y-88449152D01*
X225477599Y-88502288D01*
X225477599Y-88872500D01*
G37*
G36*
X225168800Y-88884223D02*
G01*
X225207991Y-88881118D01*
X225240831Y-88872380D01*
X225268467Y-88858523D01*
X225291761Y-88839573D01*
X225309772Y-88816145D01*
X225323500Y-88785940D01*
X225332511Y-88747356D01*
X225335816Y-88698385D01*
X225335816Y-88382304D01*
X225400891Y-88382304D01*
X225400891Y-88300971D01*
X225335816Y-88300971D01*
X225335816Y-88136840D01*
X225239508Y-88136840D01*
X225239508Y-88300971D01*
X225062233Y-88300971D01*
X225062233Y-88382304D01*
X225239508Y-88382304D01*
X225239508Y-88653414D01*
X225237997Y-88720321D01*
X225234243Y-88743126D01*
X225226181Y-88764239D01*
X225214923Y-88779739D01*
X225198017Y-88791029D01*
X225176621Y-88797457D01*
X225145215Y-88799959D01*
X225121999Y-88798234D01*
X225099648Y-88793090D01*
X225067866Y-88781641D01*
X225062233Y-88781641D01*
X225062233Y-88867874D01*
X225117325Y-88879873D01*
X225168800Y-88884223D01*
G37*
G36*
X224823269Y-88291720D02*
G01*
X224873537Y-88307266D01*
X224917839Y-88332664D01*
X224957178Y-88368565D01*
X224988226Y-88411483D01*
X225011011Y-88461685D01*
X225025369Y-88520554D01*
X225030451Y-88589849D01*
X225025118Y-88660270D01*
X225010196Y-88718681D01*
X224986718Y-88767241D01*
X224954889Y-88807607D01*
X224914944Y-88840065D01*
X224867342Y-88863846D01*
X224810548Y-88878874D01*
X224742535Y-88884223D01*
X224684878Y-88880102D01*
X224633908Y-88868332D01*
X224588799Y-88852716D01*
X224546805Y-88836046D01*
X224546805Y-88731816D01*
X224552438Y-88731816D01*
X224582159Y-88752240D01*
X224626214Y-88774726D01*
X224651756Y-88784638D01*
X224681306Y-88792907D01*
X224712031Y-88798189D01*
X224743542Y-88799959D01*
X224787410Y-88796370D01*
X224824393Y-88786232D01*
X224855745Y-88770074D01*
X224882394Y-88747844D01*
X224903382Y-88720480D01*
X224918994Y-88687106D01*
X224928993Y-88646475D01*
X224932586Y-88596994D01*
X224536043Y-88596994D01*
X224536043Y-88544970D01*
X224537535Y-88522988D01*
X224629786Y-88522988D01*
X224932586Y-88522988D01*
X224927276Y-88487973D01*
X224918252Y-88459149D01*
X224904518Y-88433054D01*
X224885463Y-88409140D01*
X224862031Y-88389570D01*
X224836553Y-88375526D01*
X224807889Y-88367076D01*
X224771203Y-88363986D01*
X224734126Y-88367042D01*
X224705898Y-88375297D01*
X224681727Y-88389226D01*
X224662576Y-88408087D01*
X224649269Y-88429269D01*
X224639037Y-88455806D01*
X224632801Y-88485457D01*
X224629786Y-88522988D01*
X224537535Y-88522988D01*
X224540486Y-88479526D01*
X224552438Y-88429428D01*
X224572731Y-88385320D01*
X224599561Y-88349560D01*
X224632962Y-88321175D01*
X224671277Y-88301612D01*
X224714166Y-88290334D01*
X224765570Y-88286317D01*
X224823269Y-88291720D01*
G37*
G36*
X224094207Y-88325243D02*
G01*
X224129552Y-88307512D01*
X224161344Y-88295796D01*
X224194667Y-88288850D01*
X224236128Y-88286317D01*
X224283670Y-88291594D01*
X224329139Y-88307474D01*
X224370247Y-88332679D01*
X224404701Y-88365818D01*
X224435039Y-88409581D01*
X224458511Y-88461393D01*
X224468952Y-88498408D01*
X224475613Y-88541342D01*
X224477974Y-88591086D01*
X224473911Y-88660648D01*
X224462633Y-88718214D01*
X224443495Y-88770260D01*
X224419035Y-88811225D01*
X224388166Y-88844123D01*
X224351670Y-88867783D01*
X224310520Y-88882247D01*
X224265345Y-88887154D01*
X224237074Y-88885712D01*
X224214100Y-88881750D01*
X224171602Y-88866683D01*
X224133179Y-88844152D01*
X224094207Y-88812874D01*
X224094207Y-88872500D01*
X223997899Y-88872500D01*
X223997899Y-88405156D01*
X224094207Y-88405156D01*
X224094207Y-88731907D01*
X224129461Y-88758330D01*
X224166473Y-88778390D01*
X224205259Y-88791379D01*
X224242814Y-88795563D01*
X224277369Y-88791946D01*
X224305268Y-88781812D01*
X224327963Y-88765543D01*
X224346312Y-88742578D01*
X224363063Y-88705714D01*
X224374359Y-88655937D01*
X224378598Y-88589712D01*
X224375496Y-88536822D01*
X224366943Y-88493767D01*
X224353813Y-88458880D01*
X224336603Y-88430756D01*
X224313576Y-88406679D01*
X224287043Y-88389728D01*
X224256312Y-88379341D01*
X224220283Y-88375710D01*
X224187651Y-88377368D01*
X224158550Y-88382121D01*
X224129547Y-88390600D01*
X224094207Y-88405156D01*
X223997899Y-88405156D01*
X223997899Y-88075291D01*
X224094207Y-88075291D01*
X224094207Y-88325243D01*
G37*
G36*
X223460626Y-88289889D02*
G01*
X223464966Y-88338108D01*
X223477296Y-88379007D01*
X223496803Y-88415904D01*
X223521580Y-88447700D01*
X223550869Y-88475978D01*
X223584366Y-88502380D01*
X223658371Y-88550877D01*
X223658371Y-88667336D01*
X223750100Y-88667336D01*
X223750100Y-88511539D01*
X223683238Y-88470003D01*
X223647627Y-88445398D01*
X223623567Y-88424894D01*
X223598692Y-88397336D01*
X223580519Y-88368062D01*
X223569103Y-88335661D01*
X223565132Y-88297949D01*
X223569571Y-88261290D01*
X223581828Y-88233362D01*
X223601539Y-88212036D01*
X223627172Y-88196774D01*
X223658297Y-88187166D01*
X223696290Y-88183735D01*
X223746383Y-88188086D01*
X223792873Y-88200908D01*
X223835675Y-88219224D01*
X223866375Y-88236491D01*
X223872053Y-88236491D01*
X223872053Y-88131757D01*
X223835289Y-88119187D01*
X223785454Y-88106844D01*
X223733757Y-88098472D01*
X223686581Y-88095807D01*
X223634050Y-88099555D01*
X223589847Y-88110090D01*
X223552562Y-88126707D01*
X223521076Y-88149205D01*
X223494724Y-88177876D01*
X223476057Y-88210317D01*
X223464611Y-88247285D01*
X223460626Y-88289889D01*
G37*
G36*
X223650174Y-88872500D02*
G01*
X223754725Y-88872500D01*
X223754725Y-88764056D01*
X223650174Y-88764056D01*
X223650174Y-88872500D01*
G37*
G36*
X233368800Y-72372500D02*
G01*
X233470237Y-72372500D01*
X233470237Y-71999541D01*
X233821214Y-71999541D01*
X233821214Y-72372500D01*
X233922651Y-72372500D01*
X233922651Y-71610462D01*
X233821214Y-71610462D01*
X233821214Y-71909415D01*
X233470237Y-71909415D01*
X233470237Y-71610462D01*
X233368800Y-71610462D01*
X233368800Y-72372500D01*
G37*
G36*
X233054043Y-71791720D02*
G01*
X233104311Y-71807266D01*
X233148614Y-71832664D01*
X233187953Y-71868565D01*
X233219001Y-71911483D01*
X233241786Y-71961685D01*
X233256144Y-72020554D01*
X233261226Y-72089849D01*
X233255893Y-72160270D01*
X233240970Y-72218681D01*
X233217492Y-72267241D01*
X233185663Y-72307607D01*
X233145719Y-72340065D01*
X233098117Y-72363846D01*
X233041322Y-72378874D01*
X232973309Y-72384223D01*
X232915653Y-72380102D01*
X232864682Y-72368332D01*
X232819574Y-72352716D01*
X232777579Y-72336046D01*
X232777579Y-72231816D01*
X232783212Y-72231816D01*
X232812933Y-72252240D01*
X232856989Y-72274726D01*
X232882530Y-72284638D01*
X232912081Y-72292907D01*
X232942805Y-72298189D01*
X232974317Y-72299959D01*
X233018184Y-72296370D01*
X233055167Y-72286232D01*
X233086519Y-72270074D01*
X233113169Y-72247844D01*
X233134156Y-72220480D01*
X233149769Y-72187106D01*
X233159768Y-72146475D01*
X233163361Y-72096994D01*
X232766817Y-72096994D01*
X232766817Y-72044970D01*
X232768310Y-72022988D01*
X232860561Y-72022988D01*
X233163361Y-72022988D01*
X233158050Y-71987973D01*
X233149027Y-71959149D01*
X233135292Y-71933054D01*
X233116237Y-71909140D01*
X233092806Y-71889570D01*
X233067328Y-71875526D01*
X233038664Y-71867076D01*
X233001977Y-71863986D01*
X232964901Y-71867042D01*
X232936673Y-71875297D01*
X232912501Y-71889226D01*
X232893350Y-71908087D01*
X232880044Y-71929269D01*
X232869812Y-71955806D01*
X232863575Y-71985457D01*
X232860561Y-72022988D01*
X232768310Y-72022988D01*
X232771261Y-71979526D01*
X232783212Y-71929428D01*
X232803506Y-71885320D01*
X232830336Y-71849560D01*
X232863737Y-71821175D01*
X232902052Y-71801612D01*
X232944941Y-71790334D01*
X232996345Y-71786317D01*
X233054043Y-71791720D01*
G37*
G36*
X232219469Y-71800971D02*
G01*
X232527398Y-72583525D01*
X232630347Y-72583525D01*
X232527902Y-72345022D01*
X232735905Y-71800971D01*
X232631904Y-71800971D01*
X232475649Y-72224214D01*
X232319899Y-71800971D01*
X232219469Y-71800971D01*
G37*
G36*
X231475017Y-71825243D02*
G01*
X231510362Y-71807512D01*
X231542153Y-71795796D01*
X231575476Y-71788850D01*
X231616937Y-71786317D01*
X231664479Y-71791594D01*
X231709948Y-71807474D01*
X231751056Y-71832679D01*
X231785511Y-71865818D01*
X231815849Y-71909581D01*
X231839320Y-71961393D01*
X231849762Y-71998408D01*
X231856423Y-72041342D01*
X231858784Y-72091086D01*
X231854721Y-72160648D01*
X231843442Y-72218214D01*
X231824304Y-72270260D01*
X231799845Y-72311225D01*
X231768975Y-72344123D01*
X231732479Y-72367783D01*
X231691330Y-72382247D01*
X231646155Y-72387154D01*
X231617884Y-72385712D01*
X231594910Y-72381750D01*
X231552411Y-72366683D01*
X231513989Y-72344152D01*
X231475017Y-72312874D01*
X231475017Y-72372500D01*
X231378709Y-72372500D01*
X231378709Y-71905156D01*
X231475017Y-71905156D01*
X231475017Y-72231907D01*
X231510270Y-72258330D01*
X231547282Y-72278390D01*
X231586068Y-72291379D01*
X231623623Y-72295563D01*
X231658178Y-72291946D01*
X231686077Y-72281812D01*
X231708773Y-72265543D01*
X231727121Y-72242578D01*
X231743872Y-72205714D01*
X231755168Y-72155937D01*
X231759407Y-72089712D01*
X231756305Y-72036822D01*
X231747752Y-71993767D01*
X231734623Y-71958880D01*
X231717413Y-71930756D01*
X231694385Y-71906679D01*
X231667853Y-71889728D01*
X231637121Y-71879341D01*
X231601092Y-71875710D01*
X231568460Y-71877368D01*
X231539360Y-71882121D01*
X231510356Y-71890600D01*
X231475017Y-71905156D01*
X231378709Y-71905156D01*
X231378709Y-71575291D01*
X231475017Y-71575291D01*
X231475017Y-71825243D01*
G37*
G36*
X231140618Y-72372500D02*
G01*
X231236972Y-72372500D01*
X231236972Y-71800971D01*
X231140618Y-71800971D01*
X231140618Y-72372500D01*
G37*
G36*
X231133978Y-71704251D02*
G01*
X231243612Y-71704251D01*
X231243612Y-71604600D01*
X231133978Y-71604600D01*
X231133978Y-71704251D01*
G37*
G36*
X230655094Y-71825243D02*
G01*
X230690438Y-71807512D01*
X230722230Y-71795796D01*
X230755553Y-71788850D01*
X230797014Y-71786317D01*
X230844556Y-71791594D01*
X230890025Y-71807474D01*
X230931133Y-71832679D01*
X230965587Y-71865818D01*
X230995925Y-71909581D01*
X231019397Y-71961393D01*
X231029838Y-71998408D01*
X231036499Y-72041342D01*
X231038860Y-72091086D01*
X231034798Y-72160648D01*
X231023519Y-72218214D01*
X231004381Y-72270260D01*
X230979921Y-72311225D01*
X230949052Y-72344123D01*
X230912556Y-72367783D01*
X230871407Y-72382247D01*
X230826232Y-72387154D01*
X230797960Y-72385712D01*
X230774986Y-72381750D01*
X230732488Y-72366683D01*
X230694066Y-72344152D01*
X230655094Y-72312874D01*
X230655094Y-72372500D01*
X230558786Y-72372500D01*
X230558786Y-71905156D01*
X230655094Y-71905156D01*
X230655094Y-72231907D01*
X230690347Y-72258330D01*
X230727359Y-72278390D01*
X230766145Y-72291379D01*
X230803700Y-72295563D01*
X230838255Y-72291946D01*
X230866154Y-72281812D01*
X230888849Y-72265543D01*
X230907198Y-72242578D01*
X230923949Y-72205714D01*
X230935245Y-72155937D01*
X230939484Y-72089712D01*
X230936382Y-72036822D01*
X230927829Y-71993767D01*
X230914699Y-71958880D01*
X230897489Y-71930756D01*
X230874462Y-71906679D01*
X230847930Y-71889728D01*
X230817198Y-71879341D01*
X230781169Y-71875710D01*
X230748537Y-71877368D01*
X230719436Y-71882121D01*
X230690433Y-71890600D01*
X230655094Y-71905156D01*
X230558786Y-71905156D01*
X230558786Y-71575291D01*
X230655094Y-71575291D01*
X230655094Y-71825243D01*
G37*
G36*
X229641730Y-71800971D02*
G01*
X229949659Y-72583525D01*
X230052608Y-72583525D01*
X229950163Y-72345022D01*
X230158166Y-71800971D01*
X230054165Y-71800971D01*
X229897910Y-72224214D01*
X229742160Y-71800971D01*
X229641730Y-71800971D01*
G37*
G36*
X229413391Y-71791533D02*
G01*
X229462205Y-71806510D01*
X229505012Y-71830912D01*
X229542812Y-71865314D01*
X229572305Y-71906449D01*
X229594235Y-71955931D01*
X229608235Y-72015424D01*
X229613245Y-72087010D01*
X229608443Y-72156405D01*
X229594935Y-72214958D01*
X229573644Y-72264465D01*
X229544873Y-72306371D01*
X229507946Y-72341365D01*
X229465202Y-72366315D01*
X229415489Y-72381740D01*
X229357111Y-72387154D01*
X229300480Y-72381959D01*
X229251616Y-72367081D01*
X229209015Y-72342912D01*
X229171639Y-72308935D01*
X229142545Y-72268232D01*
X229120836Y-72218910D01*
X229106929Y-72159228D01*
X229101938Y-72087010D01*
X229201360Y-72087010D01*
X229204442Y-72142417D01*
X229212853Y-72186619D01*
X229225598Y-72221598D01*
X229242073Y-72249035D01*
X229264398Y-72272488D01*
X229290452Y-72289079D01*
X229320972Y-72299300D01*
X229357111Y-72302890D01*
X229393700Y-72299230D01*
X229424515Y-72288818D01*
X229450749Y-72271922D01*
X229473157Y-72248027D01*
X229489728Y-72220082D01*
X229502470Y-72184991D01*
X229510825Y-72141232D01*
X229513869Y-72087010D01*
X229510763Y-72030699D01*
X229502315Y-71986102D01*
X229489566Y-71951110D01*
X229473157Y-71923932D01*
X229450845Y-71900774D01*
X229424650Y-71884329D01*
X229393801Y-71874161D01*
X229357111Y-71870580D01*
X229320665Y-71874157D01*
X229290025Y-71884318D01*
X229264006Y-71900759D01*
X229241844Y-71923932D01*
X229225534Y-71951094D01*
X229212855Y-71986080D01*
X229204451Y-72030681D01*
X229201360Y-72087010D01*
X229101938Y-72087010D01*
X229106914Y-72015087D01*
X229120800Y-71955469D01*
X229142508Y-71906035D01*
X229171639Y-71865085D01*
X229209049Y-71830844D01*
X229251662Y-71806511D01*
X229300515Y-71791542D01*
X229357111Y-71786317D01*
X229413391Y-71791533D01*
G37*
G36*
X228561368Y-72372500D02*
G01*
X228657721Y-72372500D01*
X228657721Y-72307745D01*
X228702683Y-72343078D01*
X228742260Y-72366912D01*
X228783991Y-72381976D01*
X228831378Y-72387154D01*
X228867958Y-72384042D01*
X228901857Y-72374881D01*
X228932672Y-72359136D01*
X228959468Y-72336092D01*
X228980927Y-72306767D01*
X228997662Y-72269231D01*
X229007553Y-72226495D01*
X229011217Y-72171182D01*
X229011217Y-71800971D01*
X228914909Y-71800971D01*
X228914909Y-72125616D01*
X228911566Y-72200904D01*
X228905954Y-72229465D01*
X228896454Y-72253202D01*
X228882378Y-72272395D01*
X228864443Y-72285351D01*
X228841750Y-72292649D01*
X228806282Y-72295563D01*
X228770901Y-72290853D01*
X228730994Y-72275550D01*
X228692649Y-72253200D01*
X228657721Y-72226274D01*
X228657721Y-71800971D01*
X228561368Y-71800971D01*
X228561368Y-72372500D01*
G37*
G36*
X227938507Y-71791277D02*
G01*
X227983474Y-71806284D01*
X228024528Y-71830385D01*
X228059815Y-71863024D01*
X228089715Y-71904777D01*
X228113625Y-71956401D01*
X228128350Y-72013831D01*
X228133592Y-72082431D01*
X228129354Y-72151395D01*
X228117632Y-72207791D01*
X228099553Y-72253759D01*
X228075706Y-72291075D01*
X228044177Y-72322922D01*
X228008364Y-72345296D01*
X227967406Y-72358955D01*
X227919955Y-72363707D01*
X227866349Y-72359327D01*
X227826212Y-72347587D01*
X227789570Y-72327769D01*
X227749825Y-72297624D01*
X227749825Y-72347541D01*
X227751593Y-72381678D01*
X227756511Y-72410189D01*
X227765681Y-72436242D01*
X227779546Y-72458595D01*
X227799783Y-72476781D01*
X227827998Y-72491202D01*
X227860905Y-72499762D01*
X227903561Y-72502925D01*
X227952745Y-72498758D01*
X228001929Y-72487813D01*
X228044977Y-72474532D01*
X228073645Y-72463358D01*
X228078774Y-72463358D01*
X228078774Y-72564612D01*
X228039981Y-72574671D01*
X227997075Y-72582655D01*
X227953422Y-72587726D01*
X227911254Y-72589387D01*
X227845707Y-72584441D01*
X227793045Y-72570795D01*
X227750800Y-72549638D01*
X227717081Y-72521289D01*
X227691182Y-72485835D01*
X227671352Y-72440137D01*
X227658305Y-72381780D01*
X227653517Y-72307790D01*
X227653517Y-71905156D01*
X227749825Y-71905156D01*
X227749825Y-72218214D01*
X227783487Y-72241741D01*
X227821312Y-72259522D01*
X227861036Y-72270729D01*
X227898432Y-72274314D01*
X227933522Y-72270863D01*
X227961605Y-72261259D01*
X227984182Y-72246009D01*
X228002204Y-72224763D01*
X228018815Y-72190130D01*
X228030009Y-72143102D01*
X228034215Y-72080187D01*
X228031138Y-72029391D01*
X228022627Y-71987836D01*
X228009507Y-71953957D01*
X227992221Y-71926451D01*
X227969275Y-71902991D01*
X227942923Y-71886455D01*
X227912486Y-71876319D01*
X227876908Y-71872779D01*
X227846759Y-71874628D01*
X227816229Y-71880243D01*
X227785430Y-71889788D01*
X227749825Y-71905156D01*
X227653517Y-71905156D01*
X227653517Y-71800971D01*
X227744192Y-71800971D01*
X227749825Y-71826800D01*
X227782999Y-71809379D01*
X227815175Y-71796850D01*
X227849380Y-71789136D01*
X227892295Y-71786317D01*
X227938507Y-71791277D01*
G37*
G36*
X227346088Y-71791720D02*
G01*
X227396356Y-71807266D01*
X227440658Y-71832664D01*
X227479998Y-71868565D01*
X227511045Y-71911483D01*
X227533830Y-71961685D01*
X227548188Y-72020554D01*
X227553271Y-72089849D01*
X227547938Y-72160270D01*
X227533015Y-72218681D01*
X227509537Y-72267241D01*
X227477708Y-72307607D01*
X227437764Y-72340065D01*
X227390161Y-72363846D01*
X227333367Y-72378874D01*
X227265354Y-72384223D01*
X227207698Y-72380102D01*
X227156727Y-72368332D01*
X227111618Y-72352716D01*
X227069624Y-72336046D01*
X227069624Y-72231816D01*
X227075257Y-72231816D01*
X227104978Y-72252240D01*
X227149033Y-72274726D01*
X227174575Y-72284638D01*
X227204125Y-72292907D01*
X227234850Y-72298189D01*
X227266362Y-72299959D01*
X227310229Y-72296370D01*
X227347212Y-72286232D01*
X227378564Y-72270074D01*
X227405214Y-72247844D01*
X227426201Y-72220480D01*
X227441814Y-72187106D01*
X227451812Y-72146475D01*
X227455406Y-72096994D01*
X227058862Y-72096994D01*
X227058862Y-72044970D01*
X227060355Y-72022988D01*
X227152605Y-72022988D01*
X227455406Y-72022988D01*
X227450095Y-71987973D01*
X227441072Y-71959149D01*
X227427337Y-71933054D01*
X227408282Y-71909140D01*
X227384851Y-71889570D01*
X227359372Y-71875526D01*
X227330709Y-71867076D01*
X227294022Y-71863986D01*
X227256946Y-71867042D01*
X227228718Y-71875297D01*
X227204546Y-71889226D01*
X227185395Y-71908087D01*
X227172089Y-71929269D01*
X227161856Y-71955806D01*
X227155620Y-71985457D01*
X227152605Y-72022988D01*
X227060355Y-72022988D01*
X227063306Y-71979526D01*
X227075257Y-71929428D01*
X227095551Y-71885320D01*
X227122380Y-71849560D01*
X227155782Y-71821175D01*
X227194096Y-71801612D01*
X227236986Y-71790334D01*
X227288389Y-71786317D01*
X227346088Y-71791720D01*
G37*
G36*
X226788165Y-72384223D02*
G01*
X226827356Y-72381118D01*
X226860196Y-72372380D01*
X226887832Y-72358523D01*
X226911126Y-72339573D01*
X226929137Y-72316145D01*
X226942865Y-72285940D01*
X226951876Y-72247356D01*
X226955181Y-72198385D01*
X226955181Y-71882304D01*
X227020256Y-71882304D01*
X227020256Y-71800971D01*
X226955181Y-71800971D01*
X226955181Y-71636840D01*
X226858873Y-71636840D01*
X226858873Y-71800971D01*
X226681598Y-71800971D01*
X226681598Y-71882304D01*
X226858873Y-71882304D01*
X226858873Y-72153414D01*
X226857362Y-72220321D01*
X226853608Y-72243126D01*
X226845546Y-72264239D01*
X226834288Y-72279739D01*
X226817382Y-72291029D01*
X226795986Y-72297457D01*
X226764580Y-72299959D01*
X226741364Y-72298234D01*
X226719013Y-72293090D01*
X226687231Y-72281641D01*
X226681598Y-72281641D01*
X226681598Y-72367874D01*
X226736690Y-72379873D01*
X226788165Y-72384223D01*
G37*
G36*
X225833007Y-71800971D02*
G01*
X226140936Y-72583525D01*
X226243885Y-72583525D01*
X226141440Y-72345022D01*
X226349443Y-71800971D01*
X226245442Y-71800971D01*
X226089187Y-72224214D01*
X225933437Y-71800971D01*
X225833007Y-71800971D01*
G37*
G36*
X225604668Y-71791533D02*
G01*
X225653482Y-71806510D01*
X225696289Y-71830912D01*
X225734089Y-71865314D01*
X225763582Y-71906449D01*
X225785512Y-71955931D01*
X225799512Y-72015424D01*
X225804522Y-72087010D01*
X225799720Y-72156405D01*
X225786212Y-72214958D01*
X225764921Y-72264465D01*
X225736150Y-72306371D01*
X225699223Y-72341365D01*
X225656480Y-72366315D01*
X225606766Y-72381740D01*
X225548388Y-72387154D01*
X225491758Y-72381959D01*
X225442893Y-72367081D01*
X225400292Y-72342912D01*
X225362916Y-72308935D01*
X225333822Y-72268232D01*
X225312113Y-72218910D01*
X225298206Y-72159228D01*
X225293215Y-72087010D01*
X225392637Y-72087010D01*
X225395719Y-72142417D01*
X225404130Y-72186619D01*
X225416875Y-72221598D01*
X225433350Y-72249035D01*
X225455675Y-72272488D01*
X225481729Y-72289079D01*
X225512249Y-72299300D01*
X225548388Y-72302890D01*
X225584977Y-72299230D01*
X225615792Y-72288818D01*
X225642026Y-72271922D01*
X225664434Y-72248027D01*
X225681005Y-72220082D01*
X225693747Y-72184991D01*
X225702102Y-72141232D01*
X225705146Y-72087010D01*
X225702040Y-72030699D01*
X225693592Y-71986102D01*
X225680843Y-71951110D01*
X225664434Y-71923932D01*
X225642122Y-71900774D01*
X225615927Y-71884329D01*
X225585078Y-71874161D01*
X225548388Y-71870580D01*
X225511942Y-71874157D01*
X225481302Y-71884318D01*
X225455283Y-71900759D01*
X225433121Y-71923932D01*
X225416811Y-71951094D01*
X225404132Y-71986080D01*
X225395728Y-72030681D01*
X225392637Y-72087010D01*
X225293215Y-72087010D01*
X225298191Y-72015087D01*
X225312077Y-71955469D01*
X225333785Y-71906035D01*
X225362916Y-71865085D01*
X225400326Y-71830844D01*
X225442939Y-71806511D01*
X225491792Y-71791542D01*
X225548388Y-71786317D01*
X225604668Y-71791533D01*
G37*
G36*
X224752645Y-72372500D02*
G01*
X224848999Y-72372500D01*
X224848999Y-72307745D01*
X224893960Y-72343078D01*
X224933537Y-72366912D01*
X224975268Y-72381976D01*
X225022655Y-72387154D01*
X225059235Y-72384042D01*
X225093135Y-72374881D01*
X225123949Y-72359136D01*
X225150745Y-72336092D01*
X225172204Y-72306767D01*
X225188939Y-72269231D01*
X225198830Y-72226495D01*
X225202494Y-72171182D01*
X225202494Y-71800971D01*
X225106186Y-71800971D01*
X225106186Y-72125616D01*
X225102843Y-72200904D01*
X225097231Y-72229465D01*
X225087731Y-72253202D01*
X225073655Y-72272395D01*
X225055720Y-72285351D01*
X225033027Y-72292649D01*
X224997559Y-72295563D01*
X224962178Y-72290853D01*
X224922271Y-72275550D01*
X224883926Y-72253200D01*
X224848999Y-72226274D01*
X224848999Y-71800971D01*
X224752645Y-71800971D01*
X224752645Y-72372500D01*
G37*
G36*
X224309619Y-71906484D02*
G01*
X224314748Y-71906484D01*
X224337554Y-71901630D01*
X224366497Y-71900622D01*
X224404983Y-71904760D01*
X224443891Y-71917475D01*
X224480703Y-71938017D01*
X224516615Y-71967530D01*
X224516615Y-72372500D01*
X224612923Y-72372500D01*
X224612923Y-71800971D01*
X224516615Y-71800971D01*
X224516615Y-71885922D01*
X224464368Y-71844153D01*
X224424657Y-71820160D01*
X224385237Y-71805568D01*
X224348591Y-71800971D01*
X224326288Y-71801750D01*
X224309619Y-71804085D01*
X224309619Y-71906484D01*
G37*
G36*
X223685879Y-71791830D02*
G01*
X223731359Y-71808070D01*
X223773225Y-71832443D01*
X223810997Y-71861971D01*
X223810997Y-71800971D01*
X223907305Y-71800971D01*
X223907305Y-72583525D01*
X223810997Y-72583525D01*
X223810997Y-72344381D01*
X223776416Y-72362421D01*
X223743907Y-72374515D01*
X223709737Y-72381657D01*
X223668573Y-72384223D01*
X223618349Y-72378886D01*
X223573557Y-72363300D01*
X223532934Y-72337292D01*
X223495695Y-72299639D01*
X223466918Y-72255933D01*
X223445599Y-72204517D01*
X223432078Y-72143959D01*
X223427999Y-72083255D01*
X223526653Y-72083255D01*
X223529743Y-72136886D01*
X223538240Y-72180283D01*
X223551232Y-72215203D01*
X223568189Y-72243127D01*
X223590929Y-72266959D01*
X223617336Y-72283787D01*
X223648135Y-72294134D01*
X223684464Y-72297761D01*
X223718248Y-72296000D01*
X223746196Y-72291121D01*
X223774064Y-72282218D01*
X223810997Y-72266071D01*
X223810997Y-71942754D01*
X223775492Y-71916632D01*
X223738548Y-71896043D01*
X223699507Y-71882407D01*
X223659368Y-71877908D01*
X223625426Y-71881568D01*
X223598074Y-71891830D01*
X223575851Y-71908357D01*
X223557931Y-71931809D01*
X223541634Y-71969122D01*
X223530720Y-72018557D01*
X223526653Y-72083255D01*
X223427999Y-72083255D01*
X223427276Y-72072493D01*
X223431202Y-72006427D01*
X223442208Y-71950671D01*
X223459419Y-71903638D01*
X223482368Y-71863986D01*
X223512867Y-71829769D01*
X223547908Y-71805905D01*
X223588380Y-71791379D01*
X223635783Y-71786317D01*
X223685879Y-71791830D01*
G37*
G36*
X222877180Y-72372500D02*
G01*
X222973488Y-72372500D01*
X222973488Y-72047855D01*
X222977335Y-71974628D01*
X222983293Y-71942673D01*
X222991944Y-71920269D01*
X223006110Y-71901503D01*
X223024733Y-71888395D01*
X223047944Y-71880841D01*
X223082115Y-71877908D01*
X223117745Y-71882486D01*
X223156167Y-71897050D01*
X223193369Y-71918734D01*
X223230676Y-71946830D01*
X223230676Y-72372500D01*
X223326984Y-72372500D01*
X223326984Y-71575291D01*
X223230676Y-71575291D01*
X223230676Y-71865451D01*
X223186741Y-71830840D01*
X223145634Y-71806741D01*
X223102474Y-71791421D01*
X223057019Y-71786317D01*
X223015539Y-71790066D01*
X222980442Y-71800707D01*
X222950499Y-71817835D01*
X222924853Y-71841729D01*
X222905135Y-71870419D01*
X222890266Y-71905763D01*
X222880653Y-71949152D01*
X222877180Y-72002288D01*
X222877180Y-72372500D01*
G37*
G36*
X222582162Y-71791533D02*
G01*
X222630977Y-71806510D01*
X222673783Y-71830912D01*
X222711584Y-71865314D01*
X222741077Y-71906449D01*
X222763006Y-71955931D01*
X222777007Y-72015424D01*
X222782017Y-72087010D01*
X222777214Y-72156405D01*
X222763707Y-72214958D01*
X222742415Y-72264465D01*
X222713644Y-72306371D01*
X222676717Y-72341365D01*
X222633974Y-72366315D01*
X222584260Y-72381740D01*
X222525883Y-72387154D01*
X222469252Y-72381959D01*
X222420387Y-72367081D01*
X222377786Y-72342912D01*
X222340411Y-72308935D01*
X222311316Y-72268232D01*
X222289608Y-72218910D01*
X222275701Y-72159228D01*
X222270710Y-72087010D01*
X222370132Y-72087010D01*
X222373213Y-72142417D01*
X222381624Y-72186619D01*
X222394370Y-72221598D01*
X222410844Y-72249035D01*
X222433170Y-72272488D01*
X222459224Y-72289079D01*
X222489743Y-72299300D01*
X222525883Y-72302890D01*
X222562471Y-72299230D01*
X222593287Y-72288818D01*
X222619521Y-72271922D01*
X222641929Y-72248027D01*
X222658500Y-72220082D01*
X222671241Y-72184991D01*
X222679596Y-72141232D01*
X222682641Y-72087010D01*
X222679535Y-72030699D01*
X222671087Y-71986102D01*
X222658338Y-71951110D01*
X222641929Y-71923932D01*
X222619617Y-71900774D01*
X222593422Y-71884329D01*
X222562573Y-71874161D01*
X222525883Y-71870580D01*
X222489437Y-71874157D01*
X222458797Y-71884318D01*
X222432778Y-71900759D01*
X222410615Y-71923932D01*
X222394305Y-71951094D01*
X222381627Y-71986080D01*
X222373222Y-72030681D01*
X222370132Y-72087010D01*
X222270710Y-72087010D01*
X222275686Y-72015087D01*
X222289572Y-71955469D01*
X222311280Y-71906035D01*
X222340411Y-71865085D01*
X222377821Y-71830844D01*
X222420434Y-71806511D01*
X222469286Y-71791542D01*
X222525883Y-71786317D01*
X222582162Y-71791533D01*
G37*
G36*
X221998318Y-72384223D02*
G01*
X222037509Y-72381118D01*
X222070350Y-72372380D01*
X222097985Y-72358523D01*
X222121279Y-72339573D01*
X222139290Y-72316145D01*
X222153019Y-72285940D01*
X222162030Y-72247356D01*
X222165334Y-72198385D01*
X222165334Y-71882304D01*
X222230410Y-71882304D01*
X222230410Y-71800971D01*
X222165334Y-71800971D01*
X222165334Y-71636840D01*
X222069026Y-71636840D01*
X222069026Y-71800971D01*
X221891752Y-71800971D01*
X221891752Y-71882304D01*
X222069026Y-71882304D01*
X222069026Y-72153414D01*
X222067515Y-72220321D01*
X222063762Y-72243126D01*
X222055700Y-72264239D01*
X222044442Y-72279739D01*
X222027536Y-72291029D01*
X222006140Y-72297457D01*
X221974733Y-72299959D01*
X221951518Y-72298234D01*
X221929167Y-72293090D01*
X221897385Y-72281641D01*
X221891752Y-72281641D01*
X221891752Y-72367874D01*
X221946844Y-72379873D01*
X221998318Y-72384223D01*
G37*
G36*
X221661123Y-71791533D02*
G01*
X221709937Y-71806510D01*
X221752744Y-71830912D01*
X221790544Y-71865314D01*
X221820037Y-71906449D01*
X221841967Y-71955931D01*
X221855967Y-72015424D01*
X221860977Y-72087010D01*
X221856175Y-72156405D01*
X221842667Y-72214958D01*
X221821376Y-72264465D01*
X221792605Y-72306371D01*
X221755678Y-72341365D01*
X221712935Y-72366315D01*
X221663221Y-72381740D01*
X221604843Y-72387154D01*
X221548213Y-72381959D01*
X221499348Y-72367081D01*
X221456747Y-72342912D01*
X221419371Y-72308935D01*
X221390277Y-72268232D01*
X221368568Y-72218910D01*
X221354661Y-72159228D01*
X221349670Y-72087010D01*
X221449092Y-72087010D01*
X221452174Y-72142417D01*
X221460585Y-72186619D01*
X221473330Y-72221598D01*
X221489805Y-72249035D01*
X221512130Y-72272488D01*
X221538184Y-72289079D01*
X221568704Y-72299300D01*
X221604843Y-72302890D01*
X221641432Y-72299230D01*
X221672247Y-72288818D01*
X221698481Y-72271922D01*
X221720889Y-72248027D01*
X221737460Y-72220082D01*
X221750202Y-72184991D01*
X221758557Y-72141232D01*
X221761601Y-72087010D01*
X221758495Y-72030699D01*
X221750047Y-71986102D01*
X221737298Y-71951110D01*
X221720889Y-71923932D01*
X221698577Y-71900774D01*
X221672382Y-71884329D01*
X221641533Y-71874161D01*
X221604843Y-71870580D01*
X221568397Y-71874157D01*
X221537757Y-71884318D01*
X221511738Y-71900759D01*
X221489576Y-71923932D01*
X221473266Y-71951094D01*
X221460587Y-71986080D01*
X221452183Y-72030681D01*
X221449092Y-72087010D01*
X221349670Y-72087010D01*
X221354646Y-72015087D01*
X221368532Y-71955469D01*
X221390240Y-71906035D01*
X221419371Y-71865085D01*
X221456781Y-71830844D01*
X221499394Y-71806511D01*
X221548247Y-71791542D01*
X221604843Y-71786317D01*
X221661123Y-71791533D01*
G37*
G36*
X221095734Y-72384223D02*
G01*
X221151878Y-72380323D01*
X221203079Y-72368973D01*
X221250568Y-72352438D01*
X221285785Y-72336367D01*
X221285785Y-72228885D01*
X221280702Y-72228885D01*
X221251759Y-72250180D01*
X221207429Y-72274497D01*
X221153391Y-72294281D01*
X221123457Y-72300721D01*
X221092162Y-72302890D01*
X221042978Y-72297532D01*
X221018725Y-72290968D01*
X221004006Y-72284023D01*
X220988054Y-72271381D01*
X220978177Y-72259018D01*
X220972496Y-72243837D01*
X220970208Y-72219222D01*
X220972537Y-72197220D01*
X220978909Y-72180460D01*
X220988939Y-72167702D01*
X221012022Y-72153032D01*
X221055251Y-72138622D01*
X221103428Y-72127906D01*
X221158245Y-72114625D01*
X221200100Y-72098686D01*
X221231170Y-72079097D01*
X221253545Y-72056144D01*
X221269800Y-72028449D01*
X221279756Y-71996867D01*
X221283221Y-71960431D01*
X221279459Y-71923124D01*
X221268562Y-71890336D01*
X221250577Y-71861106D01*
X221224832Y-71834814D01*
X221194564Y-71814315D01*
X221159260Y-71799217D01*
X221117987Y-71789688D01*
X221069585Y-71786317D01*
X221022058Y-71789220D01*
X220973826Y-71798040D01*
X220927985Y-71811842D01*
X220892860Y-71827578D01*
X220892860Y-71929931D01*
X220897943Y-71929931D01*
X220936808Y-71904199D01*
X220980192Y-71884365D01*
X221025983Y-71871781D01*
X221071646Y-71867650D01*
X221116663Y-71872907D01*
X221152062Y-71887571D01*
X221170296Y-71903111D01*
X221181067Y-71922720D01*
X221184852Y-71947746D01*
X221182419Y-71970719D01*
X221175787Y-71988035D01*
X221165389Y-72001052D01*
X221142198Y-72016026D01*
X221102878Y-72029857D01*
X221055022Y-72040848D01*
X220999426Y-72053350D01*
X220958642Y-72067074D01*
X220927367Y-72084722D01*
X220903851Y-72105969D01*
X220886647Y-72132188D01*
X220875763Y-72164949D01*
X220871840Y-72206033D01*
X220875510Y-72241932D01*
X220886448Y-72275734D01*
X220904399Y-72306240D01*
X220929221Y-72332154D01*
X220961841Y-72354548D01*
X220998647Y-72370942D01*
X221039964Y-72380582D01*
X221095734Y-72384223D01*
G37*
G36*
X220233263Y-71791830D02*
G01*
X220278742Y-71808070D01*
X220320608Y-71832443D01*
X220358380Y-71861971D01*
X220358380Y-71800971D01*
X220454688Y-71800971D01*
X220454688Y-72583525D01*
X220358380Y-72583525D01*
X220358380Y-72344381D01*
X220323799Y-72362421D01*
X220291290Y-72374515D01*
X220257120Y-72381657D01*
X220215956Y-72384223D01*
X220165732Y-72378886D01*
X220120940Y-72363300D01*
X220080317Y-72337292D01*
X220043078Y-72299639D01*
X220014301Y-72255933D01*
X219992982Y-72204517D01*
X219979461Y-72143959D01*
X219975382Y-72083255D01*
X220074036Y-72083255D01*
X220077126Y-72136886D01*
X220085623Y-72180283D01*
X220098615Y-72215203D01*
X220115572Y-72243127D01*
X220138312Y-72266959D01*
X220164719Y-72283787D01*
X220195518Y-72294134D01*
X220231847Y-72297761D01*
X220265632Y-72296000D01*
X220293579Y-72291121D01*
X220321447Y-72282218D01*
X220358380Y-72266071D01*
X220358380Y-71942754D01*
X220322875Y-71916632D01*
X220285932Y-71896043D01*
X220246890Y-71882407D01*
X220206751Y-71877908D01*
X220172810Y-71881568D01*
X220145457Y-71891830D01*
X220123234Y-71908357D01*
X220105314Y-71931809D01*
X220089017Y-71969122D01*
X220078103Y-72018557D01*
X220074036Y-72083255D01*
X219975382Y-72083255D01*
X219974659Y-72072493D01*
X219978585Y-72006427D01*
X219989591Y-71950671D01*
X220006802Y-71903638D01*
X220029751Y-71863986D01*
X220060250Y-71829769D01*
X220095291Y-71805905D01*
X220135763Y-71791379D01*
X220183166Y-71786317D01*
X220233263Y-71791830D01*
G37*
G36*
X219571063Y-71906484D02*
G01*
X219576192Y-71906484D01*
X219598999Y-71901630D01*
X219627941Y-71900622D01*
X219666427Y-71904760D01*
X219705336Y-71917475D01*
X219742147Y-71938017D01*
X219778059Y-71967530D01*
X219778059Y-72372500D01*
X219874367Y-72372500D01*
X219874367Y-71800971D01*
X219778059Y-71800971D01*
X219778059Y-71885922D01*
X219725813Y-71844153D01*
X219686102Y-71820160D01*
X219646682Y-71805568D01*
X219610035Y-71800971D01*
X219587733Y-71801750D01*
X219571063Y-71804085D01*
X219571063Y-71906484D01*
G37*
G36*
X219397910Y-72372500D02*
G01*
X219494264Y-72372500D01*
X219494264Y-71800971D01*
X219397910Y-71800971D01*
X219397910Y-72372500D01*
G37*
G36*
X219391270Y-71704251D02*
G01*
X219500905Y-71704251D01*
X219500905Y-71604600D01*
X219391270Y-71604600D01*
X219391270Y-71704251D01*
G37*
G36*
X218806873Y-72372500D02*
G01*
X218903181Y-72372500D01*
X218903181Y-72047855D01*
X218907028Y-71974628D01*
X218912986Y-71942673D01*
X218921637Y-71920269D01*
X218935803Y-71901503D01*
X218954426Y-71888395D01*
X218977637Y-71880841D01*
X219011808Y-71877908D01*
X219047438Y-71882486D01*
X219085860Y-71897050D01*
X219123062Y-71918734D01*
X219160369Y-71946830D01*
X219160369Y-72372500D01*
X219256677Y-72372500D01*
X219256677Y-71800971D01*
X219160369Y-71800971D01*
X219160369Y-71865451D01*
X219116434Y-71830840D01*
X219075327Y-71806741D01*
X219032167Y-71791421D01*
X218986712Y-71786317D01*
X218945232Y-71790066D01*
X218910135Y-71800707D01*
X218880192Y-71817835D01*
X218854546Y-71841729D01*
X218834828Y-71870419D01*
X218819959Y-71905763D01*
X218810346Y-71949152D01*
X218806873Y-72002288D01*
X218806873Y-72372500D01*
G37*
G36*
X218498074Y-72384223D02*
G01*
X218537265Y-72381118D01*
X218570106Y-72372380D01*
X218597741Y-72358523D01*
X218621035Y-72339573D01*
X218639046Y-72316145D01*
X218652775Y-72285940D01*
X218661785Y-72247356D01*
X218665090Y-72198385D01*
X218665090Y-71882304D01*
X218730166Y-71882304D01*
X218730166Y-71800971D01*
X218665090Y-71800971D01*
X218665090Y-71636840D01*
X218568782Y-71636840D01*
X218568782Y-71800971D01*
X218391508Y-71800971D01*
X218391508Y-71882304D01*
X218568782Y-71882304D01*
X218568782Y-72153414D01*
X218567271Y-72220321D01*
X218563517Y-72243126D01*
X218555456Y-72264239D01*
X218544198Y-72279739D01*
X218527291Y-72291029D01*
X218505895Y-72297457D01*
X218474489Y-72299959D01*
X218451273Y-72298234D01*
X218428923Y-72293090D01*
X218397141Y-72281641D01*
X218391508Y-72281641D01*
X218391508Y-72367874D01*
X218446600Y-72379873D01*
X218498074Y-72384223D01*
G37*
G36*
X218152543Y-71791720D02*
G01*
X218202811Y-71807266D01*
X218247113Y-71832664D01*
X218286453Y-71868565D01*
X218317500Y-71911483D01*
X218340285Y-71961685D01*
X218354643Y-72020554D01*
X218359726Y-72089849D01*
X218354393Y-72160270D01*
X218339470Y-72218681D01*
X218315992Y-72267241D01*
X218284163Y-72307607D01*
X218244219Y-72340065D01*
X218196616Y-72363846D01*
X218139822Y-72378874D01*
X218071809Y-72384223D01*
X218014153Y-72380102D01*
X217963182Y-72368332D01*
X217918073Y-72352716D01*
X217876079Y-72336046D01*
X217876079Y-72231816D01*
X217881712Y-72231816D01*
X217911433Y-72252240D01*
X217955488Y-72274726D01*
X217981030Y-72284638D01*
X218010580Y-72292907D01*
X218041305Y-72298189D01*
X218072817Y-72299959D01*
X218116684Y-72296370D01*
X218153667Y-72286232D01*
X218185019Y-72270074D01*
X218211669Y-72247844D01*
X218232656Y-72220480D01*
X218248269Y-72187106D01*
X218258267Y-72146475D01*
X218261861Y-72096994D01*
X217865317Y-72096994D01*
X217865317Y-72044970D01*
X217866810Y-72022988D01*
X217959060Y-72022988D01*
X218261861Y-72022988D01*
X218256550Y-71987973D01*
X218247527Y-71959149D01*
X218233792Y-71933054D01*
X218214737Y-71909140D01*
X218191306Y-71889570D01*
X218165827Y-71875526D01*
X218137164Y-71867076D01*
X218100477Y-71863986D01*
X218063401Y-71867042D01*
X218035173Y-71875297D01*
X218011001Y-71889226D01*
X217991850Y-71908087D01*
X217978544Y-71929269D01*
X217968311Y-71955806D01*
X217962075Y-71985457D01*
X217959060Y-72022988D01*
X217866810Y-72022988D01*
X217869761Y-71979526D01*
X217881712Y-71929428D01*
X217902006Y-71885320D01*
X217928835Y-71849560D01*
X217962237Y-71821175D01*
X218000551Y-71801612D01*
X218043441Y-71790334D01*
X218094844Y-71786317D01*
X218152543Y-71791720D01*
G37*
G36*
X217423482Y-71825243D02*
G01*
X217458826Y-71807512D01*
X217490618Y-71795796D01*
X217523941Y-71788850D01*
X217565402Y-71786317D01*
X217612944Y-71791594D01*
X217658413Y-71807474D01*
X217699521Y-71832679D01*
X217733975Y-71865818D01*
X217764313Y-71909581D01*
X217787785Y-71961393D01*
X217798226Y-71998408D01*
X217804887Y-72041342D01*
X217807248Y-72091086D01*
X217803186Y-72160648D01*
X217791907Y-72218214D01*
X217772769Y-72270260D01*
X217748309Y-72311225D01*
X217717440Y-72344123D01*
X217680944Y-72367783D01*
X217639795Y-72382247D01*
X217594620Y-72387154D01*
X217566348Y-72385712D01*
X217543374Y-72381750D01*
X217500876Y-72366683D01*
X217462454Y-72344152D01*
X217423482Y-72312874D01*
X217423482Y-72372500D01*
X217327174Y-72372500D01*
X217327174Y-71905156D01*
X217423482Y-71905156D01*
X217423482Y-72231907D01*
X217458735Y-72258330D01*
X217495747Y-72278390D01*
X217534533Y-72291379D01*
X217572088Y-72295563D01*
X217606643Y-72291946D01*
X217634542Y-72281812D01*
X217657237Y-72265543D01*
X217675586Y-72242578D01*
X217692337Y-72205714D01*
X217703633Y-72155937D01*
X217707872Y-72089712D01*
X217704770Y-72036822D01*
X217696217Y-71993767D01*
X217683087Y-71958880D01*
X217665877Y-71930756D01*
X217642850Y-71906679D01*
X217616318Y-71889728D01*
X217585586Y-71879341D01*
X217549557Y-71875710D01*
X217516925Y-71877368D01*
X217487824Y-71882121D01*
X217458821Y-71890600D01*
X217423482Y-71905156D01*
X217327174Y-71905156D01*
X217327174Y-71575291D01*
X217423482Y-71575291D01*
X217423482Y-71825243D01*
G37*
G36*
X216789900Y-71789889D02*
G01*
X216794241Y-71838108D01*
X216806570Y-71879007D01*
X216826077Y-71915904D01*
X216850854Y-71947700D01*
X216880143Y-71975978D01*
X216913640Y-72002380D01*
X216987646Y-72050877D01*
X216987646Y-72167336D01*
X217079374Y-72167336D01*
X217079374Y-72011539D01*
X217012513Y-71970003D01*
X216976901Y-71945398D01*
X216952841Y-71924894D01*
X216927966Y-71897336D01*
X216909793Y-71868062D01*
X216898377Y-71835661D01*
X216894406Y-71797949D01*
X216898845Y-71761290D01*
X216911102Y-71733362D01*
X216930813Y-71712036D01*
X216956446Y-71696774D01*
X216987571Y-71687166D01*
X217025564Y-71683735D01*
X217075657Y-71688086D01*
X217122147Y-71700908D01*
X217164949Y-71719224D01*
X217195649Y-71736491D01*
X217201328Y-71736491D01*
X217201328Y-71631757D01*
X217164564Y-71619187D01*
X217114728Y-71606844D01*
X217063031Y-71598472D01*
X217015856Y-71595807D01*
X216963324Y-71599555D01*
X216919121Y-71610090D01*
X216881836Y-71626707D01*
X216850351Y-71649205D01*
X216823998Y-71677876D01*
X216805331Y-71710317D01*
X216793885Y-71747285D01*
X216789900Y-71789889D01*
G37*
G36*
X216979448Y-72372500D02*
G01*
X217083999Y-72372500D01*
X217083999Y-72264056D01*
X216979448Y-72264056D01*
X216979448Y-72372500D01*
G37*
G36*
X239980495Y-74852500D02*
G01*
X240422651Y-74852500D01*
X240422651Y-74090462D01*
X240321214Y-74090462D01*
X240321214Y-74762374D01*
X239980495Y-74762374D01*
X239980495Y-74852500D01*
G37*
G36*
X239748492Y-74271533D02*
G01*
X239797306Y-74286510D01*
X239840113Y-74310912D01*
X239877913Y-74345314D01*
X239907406Y-74386449D01*
X239929336Y-74435931D01*
X239943336Y-74495424D01*
X239948346Y-74567010D01*
X239943544Y-74636405D01*
X239930036Y-74694958D01*
X239908745Y-74744465D01*
X239879974Y-74786371D01*
X239843047Y-74821365D01*
X239800304Y-74846315D01*
X239750590Y-74861740D01*
X239692212Y-74867154D01*
X239635582Y-74861959D01*
X239586717Y-74847081D01*
X239544116Y-74822912D01*
X239506740Y-74788935D01*
X239477646Y-74748232D01*
X239455937Y-74698910D01*
X239442030Y-74639228D01*
X239437039Y-74567010D01*
X239536461Y-74567010D01*
X239539543Y-74622417D01*
X239547954Y-74666619D01*
X239560699Y-74701598D01*
X239577174Y-74729035D01*
X239599499Y-74752488D01*
X239625553Y-74769079D01*
X239656073Y-74779300D01*
X239692212Y-74782890D01*
X239728801Y-74779230D01*
X239759616Y-74768818D01*
X239785850Y-74751922D01*
X239808258Y-74728027D01*
X239824830Y-74700082D01*
X239837571Y-74664991D01*
X239845926Y-74621232D01*
X239848970Y-74567010D01*
X239845864Y-74510699D01*
X239837416Y-74466102D01*
X239824668Y-74431110D01*
X239808258Y-74403932D01*
X239785946Y-74380774D01*
X239759751Y-74364329D01*
X239728903Y-74354161D01*
X239692212Y-74350580D01*
X239655766Y-74354157D01*
X239625126Y-74364318D01*
X239599107Y-74380759D01*
X239576945Y-74403932D01*
X239560635Y-74431094D01*
X239547956Y-74466080D01*
X239539552Y-74510681D01*
X239536461Y-74567010D01*
X239437039Y-74567010D01*
X239442016Y-74495087D01*
X239455901Y-74435469D01*
X239477609Y-74386035D01*
X239506740Y-74345085D01*
X239544150Y-74310844D01*
X239586763Y-74286511D01*
X239635616Y-74271542D01*
X239692212Y-74266317D01*
X239748492Y-74271533D01*
G37*
G36*
X240270162Y-75339739D02*
G01*
X240310681Y-75351149D01*
X240347040Y-75369134D01*
X240374474Y-75390487D01*
X240395753Y-75415747D01*
X240412667Y-75444892D01*
X240423535Y-75476905D01*
X240427230Y-75512120D01*
X240424136Y-75550219D01*
X240415434Y-75582026D01*
X240401631Y-75608703D01*
X240371006Y-75644668D01*
X240324282Y-75681747D01*
X240374474Y-75716689D01*
X240399060Y-75738378D01*
X240420590Y-75763309D01*
X240438907Y-75792241D01*
X240453380Y-75824949D01*
X240462437Y-75860602D01*
X240465653Y-75902939D01*
X240461196Y-75952034D01*
X240448402Y-75994686D01*
X240427579Y-76032132D01*
X240398288Y-76065239D01*
X240362916Y-76091979D01*
X240323240Y-76111181D01*
X240278438Y-76123030D01*
X240227424Y-76127154D01*
X240181707Y-76123814D01*
X240140363Y-76114118D01*
X240102677Y-76098303D01*
X240068078Y-76076330D01*
X240032389Y-76045313D01*
X239995333Y-76003644D01*
X239890827Y-76112500D01*
X239759669Y-76112500D01*
X239909300Y-75958672D01*
X240039938Y-75958672D01*
X240063129Y-75986929D01*
X240086993Y-76008546D01*
X240111653Y-76024389D01*
X240152979Y-76039786D01*
X240200268Y-76045088D01*
X240236545Y-76041930D01*
X240267543Y-76032938D01*
X240294249Y-76018453D01*
X240317367Y-75998285D01*
X240341073Y-75964842D01*
X240355564Y-75925529D01*
X240360644Y-75878713D01*
X240358240Y-75847047D01*
X240351164Y-75817485D01*
X240340497Y-75790257D01*
X240329411Y-75770636D01*
X240301247Y-75736793D01*
X240275601Y-75717330D01*
X240039938Y-75958672D01*
X239909300Y-75958672D01*
X239942576Y-75924463D01*
X239917925Y-75868034D01*
X239901314Y-75808326D01*
X239891701Y-75748366D01*
X239888767Y-75698233D01*
X239888767Y-75649415D01*
X239988692Y-75649415D01*
X239990249Y-75777093D01*
X239993266Y-75825135D01*
X239998951Y-75867722D01*
X240179293Y-75682754D01*
X240136702Y-75664184D01*
X240106295Y-75644423D01*
X240081074Y-75621236D01*
X240061965Y-75597437D01*
X240047535Y-75571648D01*
X240038655Y-75545551D01*
X240033808Y-75518858D01*
X240032936Y-75504839D01*
X240132674Y-75504839D01*
X240137299Y-75547474D01*
X240151083Y-75585027D01*
X240163236Y-75603310D01*
X240180072Y-75620610D01*
X240200652Y-75634854D01*
X240227424Y-75646484D01*
X240255877Y-75627624D01*
X240276884Y-75610443D01*
X240306834Y-75576921D01*
X240317483Y-75557898D01*
X240323000Y-75543169D01*
X240326847Y-75508365D01*
X240323784Y-75478867D01*
X240315022Y-75453793D01*
X240300697Y-75432207D01*
X240281436Y-75415494D01*
X240257961Y-75405337D01*
X240228982Y-75401753D01*
X240204412Y-75404747D01*
X240182180Y-75413601D01*
X240161616Y-75428681D01*
X240145954Y-75448356D01*
X240136186Y-75473225D01*
X240132674Y-75504839D01*
X240032936Y-75504839D01*
X240032244Y-75493710D01*
X240035661Y-75460712D01*
X240045620Y-75431348D01*
X240062181Y-75404800D01*
X240086054Y-75380549D01*
X240124141Y-75356270D01*
X240169760Y-75341163D01*
X240224860Y-75335807D01*
X240270162Y-75339739D01*
G37*
G36*
X239980495Y-77372500D02*
G01*
X240422651Y-77372500D01*
X240422651Y-76610462D01*
X240321214Y-76610462D01*
X240321214Y-77282374D01*
X239980495Y-77282374D01*
X239980495Y-77372500D01*
G37*
G36*
X239748492Y-76791533D02*
G01*
X239797306Y-76806510D01*
X239840113Y-76830912D01*
X239877913Y-76865314D01*
X239907406Y-76906449D01*
X239929336Y-76955931D01*
X239943336Y-77015424D01*
X239948346Y-77087010D01*
X239943544Y-77156405D01*
X239930036Y-77214958D01*
X239908745Y-77264465D01*
X239879974Y-77306371D01*
X239843047Y-77341365D01*
X239800304Y-77366315D01*
X239750590Y-77381740D01*
X239692212Y-77387154D01*
X239635582Y-77381959D01*
X239586717Y-77367081D01*
X239544116Y-77342912D01*
X239506740Y-77308935D01*
X239477646Y-77268232D01*
X239455937Y-77218910D01*
X239442030Y-77159228D01*
X239437039Y-77087010D01*
X239536461Y-77087010D01*
X239539543Y-77142417D01*
X239547954Y-77186619D01*
X239560699Y-77221598D01*
X239577174Y-77249035D01*
X239599499Y-77272488D01*
X239625553Y-77289079D01*
X239656073Y-77299300D01*
X239692212Y-77302890D01*
X239728801Y-77299230D01*
X239759616Y-77288818D01*
X239785850Y-77271922D01*
X239808258Y-77248027D01*
X239824830Y-77220082D01*
X239837571Y-77184991D01*
X239845926Y-77141232D01*
X239848970Y-77087010D01*
X239845864Y-77030699D01*
X239837416Y-76986102D01*
X239824668Y-76951110D01*
X239808258Y-76923932D01*
X239785946Y-76900774D01*
X239759751Y-76884329D01*
X239728903Y-76874161D01*
X239692212Y-76870580D01*
X239655766Y-76874157D01*
X239625126Y-76884318D01*
X239599107Y-76900759D01*
X239576945Y-76923932D01*
X239560635Y-76951094D01*
X239547956Y-76986080D01*
X239539552Y-77030681D01*
X239536461Y-77087010D01*
X239437039Y-77087010D01*
X239442016Y-77015087D01*
X239455901Y-76955469D01*
X239477609Y-76906035D01*
X239506740Y-76865085D01*
X239544150Y-76830844D01*
X239586763Y-76806511D01*
X239635616Y-76791542D01*
X239692212Y-76786317D01*
X239748492Y-76791533D01*
G37*
G36*
X239164648Y-77384223D02*
G01*
X239203839Y-77381118D01*
X239236679Y-77372380D01*
X239264315Y-77358523D01*
X239287609Y-77339573D01*
X239305620Y-77316145D01*
X239319348Y-77285940D01*
X239328359Y-77247356D01*
X239331664Y-77198385D01*
X239331664Y-76882304D01*
X239396739Y-76882304D01*
X239396739Y-76800971D01*
X239331664Y-76800971D01*
X239331664Y-76636840D01*
X239235356Y-76636840D01*
X239235356Y-76800971D01*
X239058081Y-76800971D01*
X239058081Y-76882304D01*
X239235356Y-76882304D01*
X239235356Y-77153414D01*
X239233845Y-77220321D01*
X239230091Y-77243126D01*
X239222029Y-77264239D01*
X239210771Y-77279739D01*
X239193865Y-77291029D01*
X239172469Y-77297457D01*
X239141063Y-77299959D01*
X239117847Y-77298234D01*
X239095496Y-77293090D01*
X239063714Y-77281641D01*
X239058081Y-77281641D01*
X239058081Y-77367874D01*
X239113173Y-77379873D01*
X239164648Y-77384223D01*
G37*
G36*
X238818067Y-77384223D02*
G01*
X238857258Y-77381118D01*
X238890099Y-77372380D01*
X238917734Y-77358523D01*
X238941028Y-77339573D01*
X238959039Y-77316145D01*
X238972768Y-77285940D01*
X238981778Y-77247356D01*
X238985083Y-77198385D01*
X238985083Y-76882304D01*
X239050159Y-76882304D01*
X239050159Y-76800971D01*
X238985083Y-76800971D01*
X238985083Y-76636840D01*
X238888775Y-76636840D01*
X238888775Y-76800971D01*
X238711501Y-76800971D01*
X238711501Y-76882304D01*
X238888775Y-76882304D01*
X238888775Y-77153414D01*
X238887264Y-77220321D01*
X238883510Y-77243126D01*
X238875449Y-77264239D01*
X238864191Y-77279739D01*
X238847284Y-77291029D01*
X238825888Y-77297457D01*
X238794482Y-77299959D01*
X238771267Y-77298234D01*
X238748916Y-77293090D01*
X238717134Y-77281641D01*
X238711501Y-77281641D01*
X238711501Y-77367874D01*
X238766593Y-77379873D01*
X238818067Y-77384223D01*
G37*
G36*
X238546270Y-77372500D02*
G01*
X238642624Y-77372500D01*
X238642624Y-76800971D01*
X238546270Y-76800971D01*
X238546270Y-77372500D01*
G37*
G36*
X238539630Y-76704251D02*
G01*
X238649265Y-76704251D01*
X238649265Y-76604600D01*
X238539630Y-76604600D01*
X238539630Y-76704251D01*
G37*
G36*
X238237330Y-76791720D02*
G01*
X238287598Y-76807266D01*
X238331901Y-76832664D01*
X238371240Y-76868565D01*
X238402287Y-76911483D01*
X238425072Y-76961685D01*
X238439430Y-77020554D01*
X238444513Y-77089849D01*
X238439180Y-77160270D01*
X238424257Y-77218681D01*
X238400779Y-77267241D01*
X238368950Y-77307607D01*
X238329006Y-77340065D01*
X238281403Y-77363846D01*
X238224609Y-77378874D01*
X238156596Y-77384223D01*
X238098940Y-77380102D01*
X238047969Y-77368332D01*
X238002861Y-77352716D01*
X237960866Y-77336046D01*
X237960866Y-77231816D01*
X237966499Y-77231816D01*
X237996220Y-77252240D01*
X238040276Y-77274726D01*
X238065817Y-77284638D01*
X238095368Y-77292907D01*
X238126092Y-77298189D01*
X238157604Y-77299959D01*
X238201471Y-77296370D01*
X238238454Y-77286232D01*
X238269806Y-77270074D01*
X238296456Y-77247844D01*
X238317443Y-77220480D01*
X238333056Y-77187106D01*
X238343054Y-77146475D01*
X238346648Y-77096994D01*
X237950104Y-77096994D01*
X237950104Y-77044970D01*
X237951597Y-77022988D01*
X238043848Y-77022988D01*
X238346648Y-77022988D01*
X238341337Y-76987973D01*
X238332314Y-76959149D01*
X238318579Y-76933054D01*
X238299524Y-76909140D01*
X238276093Y-76889570D01*
X238250614Y-76875526D01*
X238221951Y-76867076D01*
X238185264Y-76863986D01*
X238148188Y-76867042D01*
X238119960Y-76875297D01*
X238095788Y-76889226D01*
X238076637Y-76908087D01*
X238063331Y-76929269D01*
X238053098Y-76955806D01*
X238046862Y-76985457D01*
X238043848Y-77022988D01*
X237951597Y-77022988D01*
X237954548Y-76979526D01*
X237966499Y-76929428D01*
X237986793Y-76885320D01*
X238013623Y-76849560D01*
X238047024Y-76821175D01*
X238085338Y-76801612D01*
X238128228Y-76790334D01*
X238179631Y-76786317D01*
X238237330Y-76791720D01*
G37*
G36*
X213505129Y-75872500D02*
G01*
X213402638Y-75872500D01*
X213333487Y-75661474D01*
X213041953Y-75661474D01*
X212972801Y-75872500D01*
X212865731Y-75872500D01*
X212966628Y-75573546D01*
X213070163Y-75573546D01*
X213305323Y-75573546D01*
X213187995Y-75213822D01*
X213070163Y-75573546D01*
X212966628Y-75573546D01*
X213122919Y-75110462D01*
X213247941Y-75110462D01*
X213505129Y-75872500D01*
G37*
G36*
X212793237Y-75872500D02*
G01*
X212691800Y-75872500D01*
X212691800Y-75588201D01*
X212605704Y-75588201D01*
X212551441Y-75585693D01*
X212507045Y-75578791D01*
X212470974Y-75568280D01*
X212420982Y-75543486D01*
X212378238Y-75509433D01*
X212350586Y-75475331D01*
X212329282Y-75434007D01*
X212316067Y-75388619D01*
X212311820Y-75342462D01*
X212417164Y-75342462D01*
X212419878Y-75377116D01*
X212427422Y-75405385D01*
X212440529Y-75430925D01*
X212460212Y-75455119D01*
X212488148Y-75476415D01*
X212523227Y-75490382D01*
X212564105Y-75497499D01*
X212622603Y-75500273D01*
X212691800Y-75500273D01*
X212691800Y-75198389D01*
X212607765Y-75198389D01*
X212562040Y-75200206D01*
X212528081Y-75204984D01*
X212497611Y-75214044D01*
X212471981Y-75227332D01*
X212447756Y-75248342D01*
X212430765Y-75274501D01*
X212420739Y-75305079D01*
X212417164Y-75342462D01*
X212311820Y-75342462D01*
X212311605Y-75340126D01*
X212314499Y-75298405D01*
X212322690Y-75262672D01*
X212335694Y-75231957D01*
X212353799Y-75203844D01*
X212375910Y-75179299D01*
X212402326Y-75158043D01*
X212440985Y-75136647D01*
X212486361Y-75121728D01*
X212536530Y-75113525D01*
X212601629Y-75110462D01*
X212793237Y-75110462D01*
X212793237Y-75872500D01*
G37*
D10*
X210933608Y-83714285D02*
X210981227Y-83857142D01*
X210981227Y-83857142D02*
X211028846Y-83904761D01*
X211028846Y-83904761D02*
X211124084Y-83952380D01*
X211124084Y-83952380D02*
X211266941Y-83952380D01*
X211266941Y-83952380D02*
X211362179Y-83904761D01*
X211362179Y-83904761D02*
X211409799Y-83857142D01*
X211409799Y-83857142D02*
X211457418Y-83761904D01*
X211457418Y-83761904D02*
X211457418Y-83380952D01*
X211457418Y-83380952D02*
X210457418Y-83380952D01*
X210457418Y-83380952D02*
X210457418Y-83714285D01*
X210457418Y-83714285D02*
X210505037Y-83809523D01*
X210505037Y-83809523D02*
X210552656Y-83857142D01*
X210552656Y-83857142D02*
X210647894Y-83904761D01*
X210647894Y-83904761D02*
X210743132Y-83904761D01*
X210743132Y-83904761D02*
X210838370Y-83857142D01*
X210838370Y-83857142D02*
X210885989Y-83809523D01*
X210885989Y-83809523D02*
X210933608Y-83714285D01*
X210933608Y-83714285D02*
X210933608Y-83380952D01*
X210933608Y-84714285D02*
X210981227Y-84857142D01*
X210981227Y-84857142D02*
X211028846Y-84904761D01*
X211028846Y-84904761D02*
X211124084Y-84952380D01*
X211124084Y-84952380D02*
X211266941Y-84952380D01*
X211266941Y-84952380D02*
X211362179Y-84904761D01*
X211362179Y-84904761D02*
X211409799Y-84857142D01*
X211409799Y-84857142D02*
X211457418Y-84761904D01*
X211457418Y-84761904D02*
X211457418Y-84380952D01*
X211457418Y-84380952D02*
X210457418Y-84380952D01*
X210457418Y-84380952D02*
X210457418Y-84714285D01*
X210457418Y-84714285D02*
X210505037Y-84809523D01*
X210505037Y-84809523D02*
X210552656Y-84857142D01*
X210552656Y-84857142D02*
X210647894Y-84904761D01*
X210647894Y-84904761D02*
X210743132Y-84904761D01*
X210743132Y-84904761D02*
X210838370Y-84857142D01*
X210838370Y-84857142D02*
X210885989Y-84809523D01*
X210885989Y-84809523D02*
X210933608Y-84714285D01*
X210933608Y-84714285D02*
X210933608Y-84380952D01*
X211552656Y-85142857D02*
X211552656Y-85904761D01*
X210933608Y-86476190D02*
X210981227Y-86619047D01*
X210981227Y-86619047D02*
X211028846Y-86666666D01*
X211028846Y-86666666D02*
X211124084Y-86714285D01*
X211124084Y-86714285D02*
X211266941Y-86714285D01*
X211266941Y-86714285D02*
X211362179Y-86666666D01*
X211362179Y-86666666D02*
X211409799Y-86619047D01*
X211409799Y-86619047D02*
X211457418Y-86523809D01*
X211457418Y-86523809D02*
X211457418Y-86142857D01*
X211457418Y-86142857D02*
X210457418Y-86142857D01*
X210457418Y-86142857D02*
X210457418Y-86476190D01*
X210457418Y-86476190D02*
X210505037Y-86571428D01*
X210505037Y-86571428D02*
X210552656Y-86619047D01*
X210552656Y-86619047D02*
X210647894Y-86666666D01*
X210647894Y-86666666D02*
X210743132Y-86666666D01*
X210743132Y-86666666D02*
X210838370Y-86619047D01*
X210838370Y-86619047D02*
X210885989Y-86571428D01*
X210885989Y-86571428D02*
X210933608Y-86476190D01*
X210933608Y-86476190D02*
X210933608Y-86142857D01*
X211457418Y-87666666D02*
X211457418Y-87095238D01*
X211457418Y-87380952D02*
X210457418Y-87380952D01*
X210457418Y-87380952D02*
X210600275Y-87285714D01*
X210600275Y-87285714D02*
X210695513Y-87190476D01*
X210695513Y-87190476D02*
X210743132Y-87095238D01*
D12*
X227532738Y-102100057D02*
X227627976Y-102052438D01*
X227627976Y-102052438D02*
X227723214Y-101957200D01*
X227723214Y-101957200D02*
X227866071Y-101814342D01*
X227866071Y-101814342D02*
X227961309Y-101766723D01*
X227961309Y-101766723D02*
X228056547Y-101766723D01*
X228008928Y-102004819D02*
X228104166Y-101957200D01*
X228104166Y-101957200D02*
X228199404Y-101861961D01*
X228199404Y-101861961D02*
X228247023Y-101671485D01*
X228247023Y-101671485D02*
X228247023Y-101338152D01*
X228247023Y-101338152D02*
X228199404Y-101147676D01*
X228199404Y-101147676D02*
X228104166Y-101052438D01*
X228104166Y-101052438D02*
X228008928Y-101004819D01*
X228008928Y-101004819D02*
X227818452Y-101004819D01*
X227818452Y-101004819D02*
X227723214Y-101052438D01*
X227723214Y-101052438D02*
X227627976Y-101147676D01*
X227627976Y-101147676D02*
X227580357Y-101338152D01*
X227580357Y-101338152D02*
X227580357Y-101671485D01*
X227580357Y-101671485D02*
X227627976Y-101861961D01*
X227627976Y-101861961D02*
X227723214Y-101957200D01*
X227723214Y-101957200D02*
X227818452Y-102004819D01*
X227818452Y-102004819D02*
X228008928Y-102004819D01*
X226627976Y-102004819D02*
X227199404Y-102004819D01*
X226913690Y-102004819D02*
X226913690Y-101004819D01*
X226913690Y-101004819D02*
X227008928Y-101147676D01*
X227008928Y-101147676D02*
X227104166Y-101242914D01*
X227104166Y-101242914D02*
X227199404Y-101290533D01*
X219761904Y-96454819D02*
X219761904Y-97264342D01*
X219761904Y-97264342D02*
X219714285Y-97359580D01*
X219714285Y-97359580D02*
X219666666Y-97407200D01*
X219666666Y-97407200D02*
X219571428Y-97454819D01*
X219571428Y-97454819D02*
X219380952Y-97454819D01*
X219380952Y-97454819D02*
X219285714Y-97407200D01*
X219285714Y-97407200D02*
X219238095Y-97359580D01*
X219238095Y-97359580D02*
X219190476Y-97264342D01*
X219190476Y-97264342D02*
X219190476Y-96454819D01*
X218761904Y-96550057D02*
X218714285Y-96502438D01*
X218714285Y-96502438D02*
X218619047Y-96454819D01*
X218619047Y-96454819D02*
X218380952Y-96454819D01*
X218380952Y-96454819D02*
X218285714Y-96502438D01*
X218285714Y-96502438D02*
X218238095Y-96550057D01*
X218238095Y-96550057D02*
X218190476Y-96645295D01*
X218190476Y-96645295D02*
X218190476Y-96740533D01*
X218190476Y-96740533D02*
X218238095Y-96883390D01*
X218238095Y-96883390D02*
X218809523Y-97454819D01*
X218809523Y-97454819D02*
X218190476Y-97454819D01*
X223499999Y-90954819D02*
X223499999Y-91192914D01*
X223738094Y-91097676D02*
X223499999Y-91192914D01*
X223499999Y-91192914D02*
X223261904Y-91097676D01*
X223642856Y-91383390D02*
X223499999Y-91192914D01*
X223499999Y-91192914D02*
X223357142Y-91383390D01*
X224555599Y-91795019D02*
X224555599Y-92033114D01*
X224793694Y-91937876D02*
X224555599Y-92033114D01*
X224555599Y-92033114D02*
X224317504Y-91937876D01*
X224698456Y-92223590D02*
X224555599Y-92033114D01*
X224555599Y-92033114D02*
X224412742Y-92223590D01*
X231990475Y-102862295D02*
X231990475Y-102062295D01*
X231990475Y-102062295D02*
X231799999Y-102062295D01*
X231799999Y-102062295D02*
X231685713Y-102100390D01*
X231685713Y-102100390D02*
X231609523Y-102176580D01*
X231609523Y-102176580D02*
X231571428Y-102252771D01*
X231571428Y-102252771D02*
X231533332Y-102405152D01*
X231533332Y-102405152D02*
X231533332Y-102519438D01*
X231533332Y-102519438D02*
X231571428Y-102671819D01*
X231571428Y-102671819D02*
X231609523Y-102748009D01*
X231609523Y-102748009D02*
X231685713Y-102824200D01*
X231685713Y-102824200D02*
X231799999Y-102862295D01*
X231799999Y-102862295D02*
X231990475Y-102862295D01*
X230923809Y-102443247D02*
X230809523Y-102481342D01*
X230809523Y-102481342D02*
X230771428Y-102519438D01*
X230771428Y-102519438D02*
X230733332Y-102595628D01*
X230733332Y-102595628D02*
X230733332Y-102709914D01*
X230733332Y-102709914D02*
X230771428Y-102786104D01*
X230771428Y-102786104D02*
X230809523Y-102824200D01*
X230809523Y-102824200D02*
X230885713Y-102862295D01*
X230885713Y-102862295D02*
X231190475Y-102862295D01*
X231190475Y-102862295D02*
X231190475Y-102062295D01*
X231190475Y-102062295D02*
X230923809Y-102062295D01*
X230923809Y-102062295D02*
X230847618Y-102100390D01*
X230847618Y-102100390D02*
X230809523Y-102138485D01*
X230809523Y-102138485D02*
X230771428Y-102214676D01*
X230771428Y-102214676D02*
X230771428Y-102290866D01*
X230771428Y-102290866D02*
X230809523Y-102367057D01*
X230809523Y-102367057D02*
X230847618Y-102405152D01*
X230847618Y-102405152D02*
X230923809Y-102443247D01*
X230923809Y-102443247D02*
X231190475Y-102443247D01*
X230428571Y-102138485D02*
X230390475Y-102100390D01*
X230390475Y-102100390D02*
X230314285Y-102062295D01*
X230314285Y-102062295D02*
X230123809Y-102062295D01*
X230123809Y-102062295D02*
X230047618Y-102100390D01*
X230047618Y-102100390D02*
X230009523Y-102138485D01*
X230009523Y-102138485D02*
X229971428Y-102214676D01*
X229971428Y-102214676D02*
X229971428Y-102290866D01*
X229971428Y-102290866D02*
X230009523Y-102405152D01*
X230009523Y-102405152D02*
X230466666Y-102862295D01*
X230466666Y-102862295D02*
X229971428Y-102862295D01*
X235355304Y-90607819D02*
X235393400Y-90569723D01*
X235393400Y-90569723D02*
X235431495Y-90455438D01*
X235431495Y-90455438D02*
X235431495Y-90379247D01*
X235431495Y-90379247D02*
X235393400Y-90264961D01*
X235393400Y-90264961D02*
X235317209Y-90188771D01*
X235317209Y-90188771D02*
X235241019Y-90150676D01*
X235241019Y-90150676D02*
X235088638Y-90112580D01*
X235088638Y-90112580D02*
X234974352Y-90112580D01*
X234974352Y-90112580D02*
X234821971Y-90150676D01*
X234821971Y-90150676D02*
X234745780Y-90188771D01*
X234745780Y-90188771D02*
X234669590Y-90264961D01*
X234669590Y-90264961D02*
X234631495Y-90379247D01*
X234631495Y-90379247D02*
X234631495Y-90455438D01*
X234631495Y-90455438D02*
X234669590Y-90569723D01*
X234669590Y-90569723D02*
X234707685Y-90607819D01*
X235431495Y-90950676D02*
X234631495Y-90950676D01*
X235012447Y-90950676D02*
X235012447Y-91407819D01*
X235431495Y-91407819D02*
X234631495Y-91407819D01*
X234669590Y-92207818D02*
X234631495Y-92131628D01*
X234631495Y-92131628D02*
X234631495Y-92017342D01*
X234631495Y-92017342D02*
X234669590Y-91903056D01*
X234669590Y-91903056D02*
X234745780Y-91826866D01*
X234745780Y-91826866D02*
X234821971Y-91788771D01*
X234821971Y-91788771D02*
X234974352Y-91750675D01*
X234974352Y-91750675D02*
X235088638Y-91750675D01*
X235088638Y-91750675D02*
X235241019Y-91788771D01*
X235241019Y-91788771D02*
X235317209Y-91826866D01*
X235317209Y-91826866D02*
X235393400Y-91903056D01*
X235393400Y-91903056D02*
X235431495Y-92017342D01*
X235431495Y-92017342D02*
X235431495Y-92093533D01*
X235431495Y-92093533D02*
X235393400Y-92207818D01*
X235393400Y-92207818D02*
X235355304Y-92245914D01*
X235355304Y-92245914D02*
X235088638Y-92245914D01*
X235088638Y-92245914D02*
X235088638Y-92093533D01*
X235431495Y-93007818D02*
X235431495Y-92550675D01*
X235431495Y-92779247D02*
X234631495Y-92779247D01*
X234631495Y-92779247D02*
X234745780Y-92703056D01*
X234745780Y-92703056D02*
X234821971Y-92626866D01*
X234821971Y-92626866D02*
X234860066Y-92550675D01*
D10*
X240542580Y-88035713D02*
X241542580Y-88035713D01*
X241542580Y-88035713D02*
X241542580Y-87654761D01*
X241542580Y-87654761D02*
X241494961Y-87559523D01*
X241494961Y-87559523D02*
X241447342Y-87511904D01*
X241447342Y-87511904D02*
X241352104Y-87464285D01*
X241352104Y-87464285D02*
X241209247Y-87464285D01*
X241209247Y-87464285D02*
X241114009Y-87511904D01*
X241114009Y-87511904D02*
X241066390Y-87559523D01*
X241066390Y-87559523D02*
X241018771Y-87654761D01*
X241018771Y-87654761D02*
X241018771Y-88035713D01*
X241542580Y-86845237D02*
X241542580Y-86654761D01*
X241542580Y-86654761D02*
X241494961Y-86559523D01*
X241494961Y-86559523D02*
X241399723Y-86464285D01*
X241399723Y-86464285D02*
X241209247Y-86416666D01*
X241209247Y-86416666D02*
X240875914Y-86416666D01*
X240875914Y-86416666D02*
X240685438Y-86464285D01*
X240685438Y-86464285D02*
X240590200Y-86559523D01*
X240590200Y-86559523D02*
X240542580Y-86654761D01*
X240542580Y-86654761D02*
X240542580Y-86845237D01*
X240542580Y-86845237D02*
X240590200Y-86940475D01*
X240590200Y-86940475D02*
X240685438Y-87035713D01*
X240685438Y-87035713D02*
X240875914Y-87083332D01*
X240875914Y-87083332D02*
X241209247Y-87083332D01*
X241209247Y-87083332D02*
X241399723Y-87035713D01*
X241399723Y-87035713D02*
X241494961Y-86940475D01*
X241494961Y-86940475D02*
X241542580Y-86845237D01*
X241494961Y-85464285D02*
X241542580Y-85559523D01*
X241542580Y-85559523D02*
X241542580Y-85702380D01*
X241542580Y-85702380D02*
X241494961Y-85845237D01*
X241494961Y-85845237D02*
X241399723Y-85940475D01*
X241399723Y-85940475D02*
X241304485Y-85988094D01*
X241304485Y-85988094D02*
X241114009Y-86035713D01*
X241114009Y-86035713D02*
X240971152Y-86035713D01*
X240971152Y-86035713D02*
X240780676Y-85988094D01*
X240780676Y-85988094D02*
X240685438Y-85940475D01*
X240685438Y-85940475D02*
X240590200Y-85845237D01*
X240590200Y-85845237D02*
X240542580Y-85702380D01*
X240542580Y-85702380D02*
X240542580Y-85607142D01*
X240542580Y-85607142D02*
X240590200Y-85464285D01*
X240590200Y-85464285D02*
X240637819Y-85416666D01*
X240637819Y-85416666D02*
X240971152Y-85416666D01*
X240971152Y-85416666D02*
X240971152Y-85607142D01*
X241542580Y-84797618D02*
X241542580Y-84607142D01*
X241542580Y-84607142D02*
X241494961Y-84511904D01*
X241494961Y-84511904D02*
X241399723Y-84416666D01*
X241399723Y-84416666D02*
X241209247Y-84369047D01*
X241209247Y-84369047D02*
X240875914Y-84369047D01*
X240875914Y-84369047D02*
X240685438Y-84416666D01*
X240685438Y-84416666D02*
X240590200Y-84511904D01*
X240590200Y-84511904D02*
X240542580Y-84607142D01*
X240542580Y-84607142D02*
X240542580Y-84797618D01*
X240542580Y-84797618D02*
X240590200Y-84892856D01*
X240590200Y-84892856D02*
X240685438Y-84988094D01*
X240685438Y-84988094D02*
X240875914Y-85035713D01*
X240875914Y-85035713D02*
X241209247Y-85035713D01*
X241209247Y-85035713D02*
X241399723Y-84988094D01*
X241399723Y-84988094D02*
X241494961Y-84892856D01*
X241494961Y-84892856D02*
X241542580Y-84797618D01*
X240542580Y-83416666D02*
X240542580Y-83988094D01*
X240542580Y-83702380D02*
X241542580Y-83702380D01*
X241542580Y-83702380D02*
X241399723Y-83797618D01*
X241399723Y-83797618D02*
X241304485Y-83892856D01*
X241304485Y-83892856D02*
X241256866Y-83988094D01*
D13*
X234805616Y-100727014D02*
X234936850Y-100539538D01*
X235030588Y-100727014D02*
X235030588Y-100333313D01*
X235030588Y-100333313D02*
X234880607Y-100333313D01*
X234880607Y-100333313D02*
X234843112Y-100352061D01*
X234843112Y-100352061D02*
X234824364Y-100370809D01*
X234824364Y-100370809D02*
X234805616Y-100408304D01*
X234805616Y-100408304D02*
X234805616Y-100464547D01*
X234805616Y-100464547D02*
X234824364Y-100502042D01*
X234824364Y-100502042D02*
X234843112Y-100520790D01*
X234843112Y-100520790D02*
X234880607Y-100539538D01*
X234880607Y-100539538D02*
X235030588Y-100539538D01*
X234468158Y-100464547D02*
X234468158Y-100727014D01*
X234561897Y-100314566D02*
X234655635Y-100595781D01*
X234655635Y-100595781D02*
X234411915Y-100595781D01*
D12*
X234100000Y-82906533D02*
X233900000Y-82973200D01*
X233900000Y-82973200D02*
X233833333Y-83039866D01*
X233833333Y-83039866D02*
X233766666Y-83173200D01*
X233766666Y-83173200D02*
X233766666Y-83373200D01*
X233766666Y-83373200D02*
X233833333Y-83506533D01*
X233833333Y-83506533D02*
X233900000Y-83573200D01*
X233900000Y-83573200D02*
X234033333Y-83639866D01*
X234033333Y-83639866D02*
X234566666Y-83639866D01*
X234566666Y-83639866D02*
X234566666Y-82239866D01*
X234566666Y-82239866D02*
X234100000Y-82239866D01*
X234100000Y-82239866D02*
X233966666Y-82306533D01*
X233966666Y-82306533D02*
X233900000Y-82373200D01*
X233900000Y-82373200D02*
X233833333Y-82506533D01*
X233833333Y-82506533D02*
X233833333Y-82639866D01*
X233833333Y-82639866D02*
X233900000Y-82773200D01*
X233900000Y-82773200D02*
X233966666Y-82839866D01*
X233966666Y-82839866D02*
X234100000Y-82906533D01*
X234100000Y-82906533D02*
X234566666Y-82906533D01*
X233366666Y-82239866D02*
X232566666Y-82239866D01*
X232966666Y-83639866D02*
X232966666Y-82239866D01*
X231366666Y-83639866D02*
X232166666Y-83639866D01*
X231766666Y-83639866D02*
X231766666Y-82239866D01*
X231766666Y-82239866D02*
X231899999Y-82439866D01*
X231899999Y-82439866D02*
X232033333Y-82573200D01*
X232033333Y-82573200D02*
X232166666Y-82639866D01*
D13*
X225227014Y-101380383D02*
X225039538Y-101249149D01*
X225227014Y-101155411D02*
X224833313Y-101155411D01*
X224833313Y-101155411D02*
X224833313Y-101305392D01*
X224833313Y-101305392D02*
X224852061Y-101342888D01*
X224852061Y-101342888D02*
X224870809Y-101361635D01*
X224870809Y-101361635D02*
X224908304Y-101380383D01*
X224908304Y-101380383D02*
X224964547Y-101380383D01*
X224964547Y-101380383D02*
X225002042Y-101361635D01*
X225002042Y-101361635D02*
X225020790Y-101342888D01*
X225020790Y-101342888D02*
X225039538Y-101305392D01*
X225039538Y-101305392D02*
X225039538Y-101155411D01*
X224833313Y-101511617D02*
X224833313Y-101755336D01*
X224833313Y-101755336D02*
X224983295Y-101624103D01*
X224983295Y-101624103D02*
X224983295Y-101680346D01*
X224983295Y-101680346D02*
X225002042Y-101717841D01*
X225002042Y-101717841D02*
X225020790Y-101736589D01*
X225020790Y-101736589D02*
X225058285Y-101755336D01*
X225058285Y-101755336D02*
X225152024Y-101755336D01*
X225152024Y-101755336D02*
X225189519Y-101736589D01*
X225189519Y-101736589D02*
X225208267Y-101717841D01*
X225208267Y-101717841D02*
X225227014Y-101680346D01*
X225227014Y-101680346D02*
X225227014Y-101567860D01*
X225227014Y-101567860D02*
X225208267Y-101530364D01*
X225208267Y-101530364D02*
X225189519Y-101511617D01*
X211177014Y-93674383D02*
X210989538Y-93543149D01*
X211177014Y-93449411D02*
X210783313Y-93449411D01*
X210783313Y-93449411D02*
X210783313Y-93599392D01*
X210783313Y-93599392D02*
X210802061Y-93636888D01*
X210802061Y-93636888D02*
X210820809Y-93655635D01*
X210820809Y-93655635D02*
X210858304Y-93674383D01*
X210858304Y-93674383D02*
X210914547Y-93674383D01*
X210914547Y-93674383D02*
X210952042Y-93655635D01*
X210952042Y-93655635D02*
X210970790Y-93636888D01*
X210970790Y-93636888D02*
X210989538Y-93599392D01*
X210989538Y-93599392D02*
X210989538Y-93449411D01*
X210820809Y-93824364D02*
X210802061Y-93843112D01*
X210802061Y-93843112D02*
X210783313Y-93880607D01*
X210783313Y-93880607D02*
X210783313Y-93974346D01*
X210783313Y-93974346D02*
X210802061Y-94011841D01*
X210802061Y-94011841D02*
X210820809Y-94030589D01*
X210820809Y-94030589D02*
X210858304Y-94049336D01*
X210858304Y-94049336D02*
X210895799Y-94049336D01*
X210895799Y-94049336D02*
X210952042Y-94030589D01*
X210952042Y-94030589D02*
X211177014Y-93805617D01*
X211177014Y-93805617D02*
X211177014Y-94049336D01*
X221275616Y-100607014D02*
X221406850Y-100419538D01*
X221500588Y-100607014D02*
X221500588Y-100213313D01*
X221500588Y-100213313D02*
X221350607Y-100213313D01*
X221350607Y-100213313D02*
X221313112Y-100232061D01*
X221313112Y-100232061D02*
X221294364Y-100250809D01*
X221294364Y-100250809D02*
X221275616Y-100288304D01*
X221275616Y-100288304D02*
X221275616Y-100344547D01*
X221275616Y-100344547D02*
X221294364Y-100382042D01*
X221294364Y-100382042D02*
X221313112Y-100400790D01*
X221313112Y-100400790D02*
X221350607Y-100419538D01*
X221350607Y-100419538D02*
X221500588Y-100419538D01*
X220938158Y-100213313D02*
X221013149Y-100213313D01*
X221013149Y-100213313D02*
X221050644Y-100232061D01*
X221050644Y-100232061D02*
X221069392Y-100250809D01*
X221069392Y-100250809D02*
X221106887Y-100307052D01*
X221106887Y-100307052D02*
X221125635Y-100382042D01*
X221125635Y-100382042D02*
X221125635Y-100532024D01*
X221125635Y-100532024D02*
X221106887Y-100569519D01*
X221106887Y-100569519D02*
X221088140Y-100588267D01*
X221088140Y-100588267D02*
X221050644Y-100607014D01*
X221050644Y-100607014D02*
X220975654Y-100607014D01*
X220975654Y-100607014D02*
X220938158Y-100588267D01*
X220938158Y-100588267D02*
X220919411Y-100569519D01*
X220919411Y-100569519D02*
X220900663Y-100532024D01*
X220900663Y-100532024D02*
X220900663Y-100438285D01*
X220900663Y-100438285D02*
X220919411Y-100400790D01*
X220919411Y-100400790D02*
X220938158Y-100382042D01*
X220938158Y-100382042D02*
X220975654Y-100363295D01*
X220975654Y-100363295D02*
X221050644Y-100363295D01*
X221050644Y-100363295D02*
X221088140Y-100382042D01*
X221088140Y-100382042D02*
X221106887Y-100400790D01*
X221106887Y-100400790D02*
X221125635Y-100438285D01*
X212939519Y-79374383D02*
X212958267Y-79355635D01*
X212958267Y-79355635D02*
X212977014Y-79299392D01*
X212977014Y-79299392D02*
X212977014Y-79261897D01*
X212977014Y-79261897D02*
X212958267Y-79205654D01*
X212958267Y-79205654D02*
X212920771Y-79168159D01*
X212920771Y-79168159D02*
X212883276Y-79149411D01*
X212883276Y-79149411D02*
X212808285Y-79130663D01*
X212808285Y-79130663D02*
X212752042Y-79130663D01*
X212752042Y-79130663D02*
X212677052Y-79149411D01*
X212677052Y-79149411D02*
X212639556Y-79168159D01*
X212639556Y-79168159D02*
X212602061Y-79205654D01*
X212602061Y-79205654D02*
X212583313Y-79261897D01*
X212583313Y-79261897D02*
X212583313Y-79299392D01*
X212583313Y-79299392D02*
X212602061Y-79355635D01*
X212602061Y-79355635D02*
X212620809Y-79374383D01*
X212977014Y-79749336D02*
X212977014Y-79524364D01*
X212977014Y-79636850D02*
X212583313Y-79636850D01*
X212583313Y-79636850D02*
X212639556Y-79599355D01*
X212639556Y-79599355D02*
X212677052Y-79561860D01*
X212677052Y-79561860D02*
X212695799Y-79524364D01*
X227339519Y-90994383D02*
X227358267Y-90975635D01*
X227358267Y-90975635D02*
X227377014Y-90919392D01*
X227377014Y-90919392D02*
X227377014Y-90881897D01*
X227377014Y-90881897D02*
X227358267Y-90825654D01*
X227358267Y-90825654D02*
X227320771Y-90788159D01*
X227320771Y-90788159D02*
X227283276Y-90769411D01*
X227283276Y-90769411D02*
X227208285Y-90750663D01*
X227208285Y-90750663D02*
X227152042Y-90750663D01*
X227152042Y-90750663D02*
X227077052Y-90769411D01*
X227077052Y-90769411D02*
X227039556Y-90788159D01*
X227039556Y-90788159D02*
X227002061Y-90825654D01*
X227002061Y-90825654D02*
X226983313Y-90881897D01*
X226983313Y-90881897D02*
X226983313Y-90919392D01*
X226983313Y-90919392D02*
X227002061Y-90975635D01*
X227002061Y-90975635D02*
X227020809Y-90994383D01*
X227020809Y-91144364D02*
X227002061Y-91163112D01*
X227002061Y-91163112D02*
X226983313Y-91200607D01*
X226983313Y-91200607D02*
X226983313Y-91294346D01*
X226983313Y-91294346D02*
X227002061Y-91331841D01*
X227002061Y-91331841D02*
X227020809Y-91350589D01*
X227020809Y-91350589D02*
X227058304Y-91369336D01*
X227058304Y-91369336D02*
X227095799Y-91369336D01*
X227095799Y-91369336D02*
X227152042Y-91350589D01*
X227152042Y-91350589D02*
X227377014Y-91125617D01*
X227377014Y-91125617D02*
X227377014Y-91369336D01*
D14*
X226943923Y-92531666D02*
X226848685Y-92465000D01*
X226943923Y-92417381D02*
X226743923Y-92417381D01*
X226743923Y-92417381D02*
X226743923Y-92493571D01*
X226743923Y-92493571D02*
X226753447Y-92512619D01*
X226753447Y-92512619D02*
X226762971Y-92522142D01*
X226762971Y-92522142D02*
X226782019Y-92531666D01*
X226782019Y-92531666D02*
X226810590Y-92531666D01*
X226810590Y-92531666D02*
X226829638Y-92522142D01*
X226829638Y-92522142D02*
X226839161Y-92512619D01*
X226839161Y-92512619D02*
X226848685Y-92493571D01*
X226848685Y-92493571D02*
X226848685Y-92417381D01*
X226829638Y-92645952D02*
X226820114Y-92626904D01*
X226820114Y-92626904D02*
X226810590Y-92617381D01*
X226810590Y-92617381D02*
X226791542Y-92607857D01*
X226791542Y-92607857D02*
X226782019Y-92607857D01*
X226782019Y-92607857D02*
X226762971Y-92617381D01*
X226762971Y-92617381D02*
X226753447Y-92626904D01*
X226753447Y-92626904D02*
X226743923Y-92645952D01*
X226743923Y-92645952D02*
X226743923Y-92684047D01*
X226743923Y-92684047D02*
X226753447Y-92703095D01*
X226753447Y-92703095D02*
X226762971Y-92712619D01*
X226762971Y-92712619D02*
X226782019Y-92722142D01*
X226782019Y-92722142D02*
X226791542Y-92722142D01*
X226791542Y-92722142D02*
X226810590Y-92712619D01*
X226810590Y-92712619D02*
X226820114Y-92703095D01*
X226820114Y-92703095D02*
X226829638Y-92684047D01*
X226829638Y-92684047D02*
X226829638Y-92645952D01*
X226829638Y-92645952D02*
X226839161Y-92626904D01*
X226839161Y-92626904D02*
X226848685Y-92617381D01*
X226848685Y-92617381D02*
X226867733Y-92607857D01*
X226867733Y-92607857D02*
X226905828Y-92607857D01*
X226905828Y-92607857D02*
X226924876Y-92617381D01*
X226924876Y-92617381D02*
X226934400Y-92626904D01*
X226934400Y-92626904D02*
X226943923Y-92645952D01*
X226943923Y-92645952D02*
X226943923Y-92684047D01*
X226943923Y-92684047D02*
X226934400Y-92703095D01*
X226934400Y-92703095D02*
X226924876Y-92712619D01*
X226924876Y-92712619D02*
X226905828Y-92722142D01*
X226905828Y-92722142D02*
X226867733Y-92722142D01*
X226867733Y-92722142D02*
X226848685Y-92712619D01*
X226848685Y-92712619D02*
X226839161Y-92703095D01*
X226839161Y-92703095D02*
X226829638Y-92684047D01*
D13*
X211605616Y-92127014D02*
X211736850Y-91939538D01*
X211830588Y-92127014D02*
X211830588Y-91733313D01*
X211830588Y-91733313D02*
X211680607Y-91733313D01*
X211680607Y-91733313D02*
X211643112Y-91752061D01*
X211643112Y-91752061D02*
X211624364Y-91770809D01*
X211624364Y-91770809D02*
X211605616Y-91808304D01*
X211605616Y-91808304D02*
X211605616Y-91864547D01*
X211605616Y-91864547D02*
X211624364Y-91902042D01*
X211624364Y-91902042D02*
X211643112Y-91920790D01*
X211643112Y-91920790D02*
X211680607Y-91939538D01*
X211680607Y-91939538D02*
X211830588Y-91939538D01*
X211249411Y-91733313D02*
X211436887Y-91733313D01*
X211436887Y-91733313D02*
X211455635Y-91920790D01*
X211455635Y-91920790D02*
X211436887Y-91902042D01*
X211436887Y-91902042D02*
X211399392Y-91883295D01*
X211399392Y-91883295D02*
X211305654Y-91883295D01*
X211305654Y-91883295D02*
X211268158Y-91902042D01*
X211268158Y-91902042D02*
X211249411Y-91920790D01*
X211249411Y-91920790D02*
X211230663Y-91958285D01*
X211230663Y-91958285D02*
X211230663Y-92052024D01*
X211230663Y-92052024D02*
X211249411Y-92089519D01*
X211249411Y-92089519D02*
X211268158Y-92108267D01*
X211268158Y-92108267D02*
X211305654Y-92127014D01*
X211305654Y-92127014D02*
X211399392Y-92127014D01*
X211399392Y-92127014D02*
X211436887Y-92108267D01*
X211436887Y-92108267D02*
X211455635Y-92089519D01*
D12*
X229261904Y-94454819D02*
X229261904Y-95264342D01*
X229261904Y-95264342D02*
X229214285Y-95359580D01*
X229214285Y-95359580D02*
X229166666Y-95407200D01*
X229166666Y-95407200D02*
X229071428Y-95454819D01*
X229071428Y-95454819D02*
X228880952Y-95454819D01*
X228880952Y-95454819D02*
X228785714Y-95407200D01*
X228785714Y-95407200D02*
X228738095Y-95359580D01*
X228738095Y-95359580D02*
X228690476Y-95264342D01*
X228690476Y-95264342D02*
X228690476Y-94454819D01*
X228309523Y-94454819D02*
X227690476Y-94454819D01*
X227690476Y-94454819D02*
X228023809Y-94835771D01*
X228023809Y-94835771D02*
X227880952Y-94835771D01*
X227880952Y-94835771D02*
X227785714Y-94883390D01*
X227785714Y-94883390D02*
X227738095Y-94931009D01*
X227738095Y-94931009D02*
X227690476Y-95026247D01*
X227690476Y-95026247D02*
X227690476Y-95264342D01*
X227690476Y-95264342D02*
X227738095Y-95359580D01*
X227738095Y-95359580D02*
X227785714Y-95407200D01*
X227785714Y-95407200D02*
X227880952Y-95454819D01*
X227880952Y-95454819D02*
X228166666Y-95454819D01*
X228166666Y-95454819D02*
X228261904Y-95407200D01*
X228261904Y-95407200D02*
X228309523Y-95359580D01*
X240511619Y-93261905D02*
X239511619Y-93261905D01*
X239511619Y-93261905D02*
X239511619Y-93500000D01*
X239511619Y-93500000D02*
X239559238Y-93642857D01*
X239559238Y-93642857D02*
X239654476Y-93738095D01*
X239654476Y-93738095D02*
X239749714Y-93785714D01*
X239749714Y-93785714D02*
X239940190Y-93833333D01*
X239940190Y-93833333D02*
X240083047Y-93833333D01*
X240083047Y-93833333D02*
X240273523Y-93785714D01*
X240273523Y-93785714D02*
X240368761Y-93738095D01*
X240368761Y-93738095D02*
X240464000Y-93642857D01*
X240464000Y-93642857D02*
X240511619Y-93500000D01*
X240511619Y-93500000D02*
X240511619Y-93261905D01*
X239987809Y-94595238D02*
X240035428Y-94738095D01*
X240035428Y-94738095D02*
X240083047Y-94785714D01*
X240083047Y-94785714D02*
X240178285Y-94833333D01*
X240178285Y-94833333D02*
X240321142Y-94833333D01*
X240321142Y-94833333D02*
X240416380Y-94785714D01*
X240416380Y-94785714D02*
X240464000Y-94738095D01*
X240464000Y-94738095D02*
X240511619Y-94642857D01*
X240511619Y-94642857D02*
X240511619Y-94261905D01*
X240511619Y-94261905D02*
X239511619Y-94261905D01*
X239511619Y-94261905D02*
X239511619Y-94595238D01*
X239511619Y-94595238D02*
X239559238Y-94690476D01*
X239559238Y-94690476D02*
X239606857Y-94738095D01*
X239606857Y-94738095D02*
X239702095Y-94785714D01*
X239702095Y-94785714D02*
X239797333Y-94785714D01*
X239797333Y-94785714D02*
X239892571Y-94738095D01*
X239892571Y-94738095D02*
X239940190Y-94690476D01*
X239940190Y-94690476D02*
X239987809Y-94595238D01*
X239987809Y-94595238D02*
X239987809Y-94261905D01*
X240511619Y-95785714D02*
X240511619Y-95214286D01*
X240511619Y-95500000D02*
X239511619Y-95500000D01*
X239511619Y-95500000D02*
X239654476Y-95404762D01*
X239654476Y-95404762D02*
X239749714Y-95309524D01*
X239749714Y-95309524D02*
X239797333Y-95214286D01*
X235896704Y-95454819D02*
X235896704Y-96264342D01*
X235896704Y-96264342D02*
X235849085Y-96359580D01*
X235849085Y-96359580D02*
X235801466Y-96407200D01*
X235801466Y-96407200D02*
X235706228Y-96454819D01*
X235706228Y-96454819D02*
X235515752Y-96454819D01*
X235515752Y-96454819D02*
X235420514Y-96407200D01*
X235420514Y-96407200D02*
X235372895Y-96359580D01*
X235372895Y-96359580D02*
X235325276Y-96264342D01*
X235325276Y-96264342D02*
X235325276Y-95454819D01*
X234325276Y-96454819D02*
X234896704Y-96454819D01*
X234610990Y-96454819D02*
X234610990Y-95454819D01*
X234610990Y-95454819D02*
X234706228Y-95597676D01*
X234706228Y-95597676D02*
X234801466Y-95692914D01*
X234801466Y-95692914D02*
X234896704Y-95740533D01*
X237000049Y-93904820D02*
X237000049Y-94142915D01*
X237238144Y-94047677D02*
X237000049Y-94142915D01*
X237000049Y-94142915D02*
X236761954Y-94047677D01*
X237142906Y-94333391D02*
X237000049Y-94142915D01*
X237000049Y-94142915D02*
X236857192Y-94333391D01*
D14*
X224468333Y-91943923D02*
X224534999Y-91848685D01*
X224582618Y-91943923D02*
X224582618Y-91743923D01*
X224582618Y-91743923D02*
X224506428Y-91743923D01*
X224506428Y-91743923D02*
X224487380Y-91753447D01*
X224487380Y-91753447D02*
X224477857Y-91762971D01*
X224477857Y-91762971D02*
X224468333Y-91782019D01*
X224468333Y-91782019D02*
X224468333Y-91810590D01*
X224468333Y-91810590D02*
X224477857Y-91829638D01*
X224477857Y-91829638D02*
X224487380Y-91839161D01*
X224487380Y-91839161D02*
X224506428Y-91848685D01*
X224506428Y-91848685D02*
X224582618Y-91848685D01*
X224401666Y-91743923D02*
X224268333Y-91743923D01*
X224268333Y-91743923D02*
X224354047Y-91943923D01*
D13*
X230127014Y-91174383D02*
X229939538Y-91043149D01*
X230127014Y-90949411D02*
X229733313Y-90949411D01*
X229733313Y-90949411D02*
X229733313Y-91099392D01*
X229733313Y-91099392D02*
X229752061Y-91136888D01*
X229752061Y-91136888D02*
X229770809Y-91155635D01*
X229770809Y-91155635D02*
X229808304Y-91174383D01*
X229808304Y-91174383D02*
X229864547Y-91174383D01*
X229864547Y-91174383D02*
X229902042Y-91155635D01*
X229902042Y-91155635D02*
X229920790Y-91136888D01*
X229920790Y-91136888D02*
X229939538Y-91099392D01*
X229939538Y-91099392D02*
X229939538Y-90949411D01*
X230127014Y-91549336D02*
X230127014Y-91324364D01*
X230127014Y-91436850D02*
X229733313Y-91436850D01*
X229733313Y-91436850D02*
X229789556Y-91399355D01*
X229789556Y-91399355D02*
X229827052Y-91361860D01*
X229827052Y-91361860D02*
X229845799Y-91324364D01*
D10*
%TO.C,BB_B1*%
X214000000Y-88500000D02*
X212000000Y-88500000D01*
X212000000Y-82500000D01*
X214000000Y-82500000D01*
X214000000Y-88500000D01*
D15*
%TO.C,Q1*%
X227437500Y-99989999D02*
X226787500Y-99990000D01*
X227437500Y-99989999D02*
X228087500Y-99990000D01*
X227437500Y-103110001D02*
X226787500Y-103110000D01*
X227437500Y-103110001D02*
X228087500Y-103110000D01*
X226515000Y-103389999D02*
X226035000Y-103390000D01*
X226275000Y-103060000D01*
X226515000Y-103389999D01*
G36*
X226515000Y-103389999D02*
G01*
X226035000Y-103390000D01*
X226275000Y-103060000D01*
X226515000Y-103389999D01*
G37*
D16*
%TO.C,U2*%
X215437000Y-91689000D02*
X216207461Y-91689000D01*
X215437000Y-92459461D02*
X215437000Y-91689000D01*
X215437000Y-98953400D02*
X215437000Y-98182939D01*
X216207461Y-98953400D02*
X215437000Y-98953400D01*
X221930939Y-91689000D02*
X222701400Y-91689000D01*
X222701400Y-91689000D02*
X222701400Y-92459461D01*
X222701400Y-98182939D02*
X222701400Y-98953400D01*
X222701400Y-98953400D02*
X221930939Y-98953400D01*
D17*
G36*
X213963800Y-95836701D02*
G01*
X213709800Y-95836701D01*
X213709800Y-95455701D01*
X213963800Y-95455701D01*
X213963800Y-95836701D01*
G37*
G36*
X220234699Y-90215800D02*
G01*
X219853699Y-90215800D01*
X219853699Y-89961800D01*
X220234699Y-89961800D01*
X220234699Y-90215800D01*
G37*
G36*
X220884701Y-100680600D02*
G01*
X220503701Y-100680600D01*
X220503701Y-100426600D01*
X220884701Y-100426600D01*
X220884701Y-100680600D01*
G37*
D15*
%TO.C,DB2*%
X231300000Y-100900000D02*
X233260000Y-100899999D01*
X231300000Y-102100000D02*
X233260000Y-102100001D01*
X233260000Y-100899999D02*
X233260000Y-102100001D01*
D16*
%TO.C,CHG1*%
X234434200Y-90010800D02*
X234764400Y-90010800D01*
X234764400Y-90010800D02*
X235374000Y-90010800D01*
X235374000Y-90010800D02*
X235704200Y-90010800D01*
X235374000Y-90010800D02*
G75*
G02*
X234764400Y-90010800I-304800J0D01*
G01*
%TO.C,POGO1*%
D10*
X243000000Y-78250000D02*
X239000000Y-78250000D01*
X239000000Y-92750000D01*
X243000000Y-92750000D01*
X243000000Y-78250000D01*
X243000000Y-78250000D02*
X241000000Y-78250000D01*
X241000000Y-92750000D01*
X243000000Y-92750000D01*
X243000000Y-78250000D01*
X243000000Y-78250000D02*
X242000000Y-78250000D01*
X242000000Y-92750000D01*
X243000000Y-92750000D01*
X243000000Y-78250000D01*
D18*
%TO.C,BT1*%
X215450000Y-71900000D02*
X215450000Y-76400000D01*
X215450000Y-71900000D02*
X218000000Y-69450000D01*
X215450000Y-89250000D02*
X215450000Y-83400000D01*
X220500000Y-89250000D02*
X215450000Y-89250000D01*
X234000000Y-69450000D02*
X218000000Y-69450000D01*
X236550000Y-71900000D02*
X234000000Y-69450000D01*
X236550000Y-76400000D02*
X236550000Y-71900000D01*
X236550000Y-83400000D02*
X236550000Y-89250000D01*
X236550000Y-89250000D02*
X231500000Y-89250000D01*
%TO.C,R8*%
X225485000Y-92800000D02*
X225485000Y-92200000D01*
X226515000Y-92800000D02*
X226515000Y-92200000D01*
%TO.C,R5*%
X211830000Y-89650000D02*
X213170000Y-89650000D01*
X211830000Y-91350000D02*
X213170000Y-91350000D01*
%TO.C,U3*%
X230500000Y-93980000D02*
X226500000Y-93980000D01*
X230500000Y-99020000D02*
X226500000Y-99020000D01*
D19*
X233045000Y-94005000D02*
G75*
G02*
X232845000Y-94005000I-100000J0D01*
G01*
X232845000Y-94005000D02*
G75*
G02*
X233045000Y-94005000I100000J0D01*
G01*
D15*
%TO.C,DB1*%
X238156800Y-94300000D02*
X238156799Y-96260000D01*
X239356800Y-94300000D02*
X239356801Y-96260000D01*
X239356801Y-96260000D02*
X238156799Y-96260000D01*
D16*
%TO.C,U1*%
X234131500Y-94349000D02*
X236138100Y-94349000D01*
X234131500Y-96363261D02*
X234131500Y-95636739D01*
X236138100Y-97651000D02*
X234131500Y-97651000D01*
D18*
%TO.C,R7*%
X224200000Y-90485000D02*
X224800000Y-90485000D01*
X224200000Y-91515000D02*
X224800000Y-91515000D01*
%TD*%
M02*
