%TF.GenerationSoftware,KiCad,Pcbnew,9.0.1*%
%TF.CreationDate,2025-05-26T11:02:23-07:00*%
%TF.ProjectId,TestWatch,54657374-5761-4746-9368-2e6b69636164,rev?*%
%TF.SameCoordinates,Original*%
%TF.FileFunction,Paste,Top*%
%TF.FilePolarity,Positive*%
%FSLAX46Y46*%
G04 Gerber Fmt 4.6, Leading zero omitted, Abs format (unit mm)*
G04 Created by KiCad (PCBNEW 9.0.1) date 2025-05-26 11:02:23*
%MOMM*%
%LPD*%
G01*
G04 APERTURE LIST*
G04 Aperture macros list*
%AMRoundRect*
0 Rectangle with rounded corners*
0 $1 Rounding radius*
0 $2 $3 $4 $5 $6 $7 $8 $9 X,Y pos of 4 corners*
0 Add a 4 corners polygon primitive as box body*
4,1,4,$2,$3,$4,$5,$6,$7,$8,$9,$2,$3,0*
0 Add four circle primitives for the rounded corners*
1,1,$1+$1,$2,$3*
1,1,$1+$1,$4,$5*
1,1,$1+$1,$6,$7*
1,1,$1+$1,$8,$9*
0 Add four rect primitives between the rounded corners*
20,1,$1+$1,$2,$3,$4,$5,0*
20,1,$1+$1,$4,$5,$6,$7,0*
20,1,$1+$1,$6,$7,$8,$9,0*
20,1,$1+$1,$8,$9,$2,$3,0*%
%AMRotRect*
0 Rectangle, with rotation*
0 The origin of the aperture is its center*
0 $1 length*
0 $2 width*
0 $3 Rotation angle, in degrees counterclockwise*
0 Add horizontal line*
21,1,$1,$2,0,0,$3*%
G04 Aperture macros list end*
%ADD10R,1.420000X1.080000*%
%ADD11R,0.890000X0.930000*%
%ADD12R,0.900000X0.970000*%
%ADD13R,0.540000X0.600000*%
%ADD14RoundRect,0.190500X-0.762000X-0.444500X0.762000X-0.444500X0.762000X0.444500X-0.762000X0.444500X0*%
%ADD15R,1.700000X0.800000*%
%ADD16R,1.100000X0.800000*%
%ADD17R,0.600000X1.475000*%
%ADD18R,1.475000X0.600000*%
%ADD19RoundRect,0.062500X0.187500X-0.542500X0.187500X0.542500X-0.187500X0.542500X-0.187500X-0.542500X0*%
%ADD20R,0.977900X0.508000*%
%ADD21R,1.320800X0.558800*%
%ADD22RoundRect,0.062500X0.542500X0.187500X-0.542500X0.187500X-0.542500X-0.187500X0.542500X-0.187500X0*%
%ADD23R,1.900000X1.300000*%
%ADD24RotRect,0.970000X1.730000X135.000000*%
%ADD25RoundRect,0.190500X-0.224506X-0.853124X0.853124X0.224506X0.224506X0.853124X-0.853124X-0.224506X0*%
%ADD26RoundRect,0.150000X0.247487X0.035355X0.035355X0.247487X-0.247487X-0.035355X-0.035355X-0.247487X0*%
G04 APERTURE END LIST*
D10*
%TO.C,C1*%
X187569200Y-89321299D03*
X187569200Y-91111301D03*
%TD*%
%TO.C,C2*%
X199169200Y-96297299D03*
X199169200Y-98087301D03*
%TD*%
D11*
%TO.C,R1*%
X196300800Y-95642300D03*
X194672800Y-95642300D03*
%TD*%
D12*
%TO.C,R4*%
X196246800Y-98192300D03*
X194726800Y-98192300D03*
%TD*%
D13*
%TO.C,R6*%
X193869000Y-106486000D03*
X193005000Y-106486000D03*
%TD*%
D14*
%TO.C,P13*%
X206818000Y-106134800D03*
%TD*%
D11*
%TO.C,R2*%
X215383200Y-86242300D03*
X213755200Y-86242300D03*
%TD*%
D15*
%TO.C,BUTT1*%
X213569200Y-88516299D03*
X213569200Y-91916301D03*
D16*
X215219200Y-90216300D03*
%TD*%
D17*
%TO.C,STM1*%
X209169200Y-95216299D03*
X208369200Y-95216300D03*
X207569201Y-95216300D03*
X206769200Y-95216300D03*
X205969200Y-95216300D03*
X205169199Y-95216300D03*
X204369200Y-95216300D03*
X203569200Y-95216299D03*
D18*
X202131199Y-96654300D03*
X202131200Y-97454300D03*
X202131200Y-98254299D03*
X202131200Y-99054300D03*
X202131200Y-99854300D03*
X202131200Y-100654301D03*
X202131200Y-101454300D03*
X202131199Y-102254300D03*
D17*
X203569200Y-103692301D03*
X204369200Y-103692300D03*
X205169199Y-103692300D03*
X205969200Y-103692300D03*
X206769200Y-103692300D03*
X207569201Y-103692300D03*
X208369200Y-103692300D03*
X209169200Y-103692301D03*
D18*
X210607201Y-102254300D03*
X210607200Y-101454300D03*
X210607200Y-100654301D03*
X210607200Y-99854300D03*
X210607200Y-99054300D03*
X210607200Y-98254299D03*
X210607200Y-97454300D03*
X210607201Y-96654300D03*
%TD*%
D14*
%TO.C,POGO1*%
X187669200Y-88516300D03*
X187669200Y-91916300D03*
%TD*%
D10*
%TO.C,C3*%
X213669200Y-82297299D03*
X213669200Y-84087301D03*
%TD*%
D19*
%TO.C,DB1*%
X213669200Y-97087300D03*
X213669200Y-99297300D03*
%TD*%
D20*
%TO.C,U1*%
X190338750Y-102192299D03*
X190338750Y-103142300D03*
X190338750Y-104092301D03*
X193069250Y-104092301D03*
X193069250Y-102192299D03*
%TD*%
D21*
%TO.C,CHG1*%
X191940800Y-97178800D03*
X191940800Y-96239000D03*
X191940800Y-95299200D03*
X189197600Y-95299200D03*
X189197600Y-97178800D03*
%TD*%
D22*
%TO.C,DB2*%
X201564200Y-106692300D03*
X203774200Y-106692300D03*
%TD*%
D23*
%TO.C,OSC1*%
X195969200Y-100966300D03*
X195969200Y-106466300D03*
X199169200Y-106466300D03*
X199169200Y-100966300D03*
%TD*%
D24*
%TO.C,R3*%
X187215718Y-101238818D03*
X185122682Y-99145782D03*
%TD*%
D25*
%TO.C,P14*%
X186169153Y-79058740D03*
%TD*%
D26*
%TO.C,DB3*%
X211674225Y-78197325D03*
X212664175Y-79187275D03*
%TD*%
D11*
%TO.C,R5*%
X192383200Y-99692300D03*
X190755200Y-99692300D03*
%TD*%
M02*
