%TF.GenerationSoftware,KiCad,Pcbnew,9.0.1*%
%TF.CreationDate,2025-05-24T12:43:54-07:00*%
%TF.ProjectId,TestWatch,54657374-5761-4746-9368-2e6b69636164,rev?*%
%TF.SameCoordinates,Original*%
%TF.FileFunction,Soldermask,Top*%
%TF.FilePolarity,Negative*%
%FSLAX46Y46*%
G04 Gerber Fmt 4.6, Leading zero omitted, Abs format (unit mm)*
G04 Created by KiCad (PCBNEW 9.0.1) date 2025-05-24 12:43:54*
%MOMM*%
%LPD*%
G01*
G04 APERTURE LIST*
G04 Aperture macros list*
%AMRoundRect*
0 Rectangle with rounded corners*
0 $1 Rounding radius*
0 $2 $3 $4 $5 $6 $7 $8 $9 X,Y pos of 4 corners*
0 Add a 4 corners polygon primitive as box body*
4,1,4,$2,$3,$4,$5,$6,$7,$8,$9,$2,$3,0*
0 Add four circle primitives for the rounded corners*
1,1,$1+$1,$2,$3*
1,1,$1+$1,$4,$5*
1,1,$1+$1,$6,$7*
1,1,$1+$1,$8,$9*
0 Add four rect primitives between the rounded corners*
20,1,$1+$1,$2,$3,$4,$5,0*
20,1,$1+$1,$4,$5,$6,$7,0*
20,1,$1+$1,$6,$7,$8,$9,0*
20,1,$1+$1,$8,$9,$2,$3,0*%
G04 Aperture macros list end*
%ADD10RoundRect,0.102000X0.270000X0.300000X-0.270000X0.300000X-0.270000X-0.300000X0.270000X-0.300000X0*%
%ADD11RoundRect,0.102000X-0.710000X0.540000X-0.710000X-0.540000X0.710000X-0.540000X0.710000X0.540000X0*%
%ADD12RoundRect,0.088000X0.619000X0.264000X-0.619000X0.264000X-0.619000X-0.264000X0.619000X-0.264000X0*%
%ADD13RoundRect,0.150000X0.247487X0.035355X0.035355X0.247487X-0.247487X-0.035355X-0.035355X-0.247487X0*%
%ADD14RoundRect,0.102000X0.445000X0.465000X-0.445000X0.465000X-0.445000X-0.465000X0.445000X-0.465000X0*%
%ADD15RoundRect,0.102000X0.954594X0.268701X0.268701X0.954594X-0.954594X-0.268701X-0.268701X-0.954594X0*%
%ADD16RoundRect,0.102000X-0.850000X0.400000X-0.850000X-0.400000X0.850000X-0.400000X0.850000X0.400000X0*%
%ADD17RoundRect,0.102000X-0.550000X0.400000X-0.550000X-0.400000X0.550000X-0.400000X0.550000X0.400000X0*%
%ADD18R,1.475000X0.600000*%
%ADD19R,0.600000X1.475000*%
%ADD20RoundRect,0.190500X-0.762000X-0.444500X0.762000X-0.444500X0.762000X0.444500X-0.762000X0.444500X0*%
%ADD21RoundRect,0.102000X-0.950000X-0.650000X0.950000X-0.650000X0.950000X0.650000X-0.950000X0.650000X0*%
%ADD22RoundRect,0.102000X0.450000X0.485000X-0.450000X0.485000X-0.450000X-0.485000X0.450000X-0.485000X0*%
%ADD23RoundRect,0.088000X0.264000X-0.619000X0.264000X0.619000X-0.264000X0.619000X-0.264000X-0.619000X0*%
%ADD24R,1.700000X1.700000*%
%ADD25C,1.700000*%
%ADD26R,0.977900X0.508000*%
%ADD27RoundRect,0.102000X-0.445000X-0.465000X0.445000X-0.465000X0.445000X0.465000X-0.445000X0.465000X0*%
%ADD28C,11.204000*%
%ADD29RoundRect,0.102000X-1.000000X-2.000000X1.000000X-2.000000X1.000000X2.000000X-1.000000X2.000000X0*%
%ADD30RoundRect,0.102000X0.660400X0.279400X-0.660400X0.279400X-0.660400X-0.279400X0.660400X-0.279400X0*%
%ADD31RoundRect,0.190500X-0.224506X-0.853124X0.853124X0.224506X0.224506X0.853124X-0.853124X-0.224506X0*%
G04 APERTURE END LIST*
D10*
%TO.C,R6*%
X193199800Y-106793700D03*
X192335800Y-106793700D03*
%TD*%
D11*
%TO.C,C3*%
X213000000Y-82604999D03*
X213000000Y-84395001D03*
%TD*%
D12*
%TO.C,D2*%
X203105000Y-107000000D03*
X200895000Y-107000000D03*
%TD*%
D13*
%TO.C,D3*%
X211994975Y-79494975D03*
X211005025Y-78505025D03*
%TD*%
D14*
%TO.C,R5*%
X190086000Y-100000000D03*
X191714000Y-100000000D03*
%TD*%
D15*
%TO.C,R3*%
X184453482Y-99453482D03*
X186546518Y-101546518D03*
%TD*%
D14*
%TO.C,R1*%
X195631600Y-95950000D03*
X194003600Y-95950000D03*
%TD*%
D11*
%TO.C,C2*%
X198500000Y-96604999D03*
X198500000Y-98395001D03*
%TD*%
D16*
%TO.C,BUTT1*%
X212900000Y-92224001D03*
X212900000Y-88823999D03*
D17*
X211250000Y-90524000D03*
%TD*%
D18*
%TO.C,STM1*%
X201462000Y-96962000D03*
X201462000Y-97762000D03*
X201462000Y-98562000D03*
X201462000Y-99362000D03*
X201462000Y-100162000D03*
X201462000Y-100962000D03*
X201462000Y-101762000D03*
X201462000Y-102562000D03*
D19*
X202900000Y-104000000D03*
X203700000Y-104000000D03*
X204500000Y-104000000D03*
X205300000Y-104000000D03*
X206100000Y-104000000D03*
X206900000Y-104000000D03*
X207700000Y-104000000D03*
X208500000Y-104000000D03*
D18*
X209938000Y-102562000D03*
X209938000Y-101762000D03*
X209938000Y-100962000D03*
X209938000Y-100162000D03*
X209938000Y-99362000D03*
X209938000Y-98562000D03*
X209938000Y-97762000D03*
X209938000Y-96962000D03*
D19*
X208500000Y-95524000D03*
X207700000Y-95524000D03*
X206900000Y-95524000D03*
X206100000Y-95524000D03*
X205300000Y-95524000D03*
X204500000Y-95524000D03*
X203700000Y-95524000D03*
X202900000Y-95524000D03*
%TD*%
D20*
%TO.C,POGO1*%
X187000000Y-88824000D03*
X187000000Y-92224000D03*
%TD*%
D21*
%TO.C,OSC1*%
X195300000Y-101274000D03*
X195300000Y-106774000D03*
X198500000Y-106774000D03*
X198500000Y-101274000D03*
%TD*%
D22*
%TO.C,R4*%
X195577600Y-98500000D03*
X194057600Y-98500000D03*
%TD*%
D23*
%TO.C,D1*%
X213000000Y-97395000D03*
X213000000Y-99605000D03*
%TD*%
D11*
%TO.C,C1*%
X186900000Y-89628999D03*
X186900000Y-91419001D03*
%TD*%
D24*
%TO.C,J1*%
X180500000Y-116000000D03*
D25*
X183040000Y-116000000D03*
X185579999Y-116000000D03*
X188120000Y-116000000D03*
X190660000Y-116000000D03*
X193200000Y-116000000D03*
X195740000Y-116000000D03*
X198280001Y-116000000D03*
X200820000Y-116000000D03*
X203360000Y-116000000D03*
X205900000Y-116000000D03*
X208439999Y-116000000D03*
X210980000Y-116000000D03*
X213520000Y-116000000D03*
X216060000Y-116000000D03*
X218599999Y-116000000D03*
%TD*%
D26*
%TO.C,U1*%
X189669550Y-102499999D03*
X189669550Y-103450000D03*
X189669550Y-104400001D03*
X192400050Y-104400001D03*
X192400050Y-102499999D03*
%TD*%
D27*
%TO.C,R2*%
X212186000Y-95000000D03*
X213814000Y-95000000D03*
%TD*%
D28*
%TO.C,BT1*%
X198900000Y-84500000D03*
D29*
X187900000Y-83500000D03*
X209900000Y-83500000D03*
%TD*%
D24*
%TO.C,J2*%
X212500000Y-110000000D03*
D25*
X215040000Y-110000000D03*
X217579999Y-110000000D03*
X220120000Y-110000000D03*
%TD*%
D30*
%TO.C,CHG1*%
X191271600Y-97486500D03*
X191271600Y-96546700D03*
X191271600Y-95606900D03*
X188528400Y-95606900D03*
X188528400Y-97486500D03*
%TD*%
D31*
%TO.C,P14*%
X185499953Y-79366440D03*
%TD*%
D20*
%TO.C,P13*%
X206148800Y-106442500D03*
%TD*%
M02*
