M48
; DRILL file {KiCad 9.0.1} date 2025-05-24T12:43:50-0700
; FORMAT={-:-/ absolute / metric / decimal}
; #@! TF.CreationDate,2025-05-24T12:43:50-07:00
; #@! TF.GenerationSoftware,Kicad,Pcbnew,9.0.1
; #@! TF.FileFunction,Plated,1,2,PTH
FMAT,2
METRIC
; #@! TA.AperFunction,Plated,PTH,ViaDrill
T1C0.300
; #@! TA.AperFunction,Plated,PTH,ComponentDrill
T2C1.000
%
G90
G05
T1
X185.551Y-100.236
X187.493Y-76.781
X191.314Y-105.687
X192.351Y-110.528
X192.5Y-97.727
X195.623Y-100.115
X195.766Y-97.489
X198.281Y-103.033
X199.986Y-100.962
X200.101Y-94.685
X200.101Y-99.999
X201.577Y-106.013
X202.727Y-102.571
X203.013Y-100.064
X203.281Y-98.925
X203.334Y-102.028
X203.965Y-97.397
X204.324Y-106.789
X204.577Y-96.786
X204.926Y-102.74
X205.44Y-101.002
X206.257Y-100.962
X206.589Y-96.784
X206.858Y-100.34
X207.449Y-99.582
X208.279Y-99.373
X208.454Y-96.804
X209.311Y-94.858
X210.798Y-80.057
X211.333Y-96.821
X211.434Y-100.452
X211.434Y-105.666
X212.5Y-103.152
X213.271Y-89.897
X213.88Y-81.048
X215.915Y-85.237
X215.915Y-95.0
X216.218Y-96.219
X217.58Y-98.641
T2
X180.5Y-116.0
X183.04Y-116.0
X185.58Y-116.0
X188.12Y-116.0
X190.66Y-116.0
X193.2Y-116.0
X195.74Y-116.0
X198.28Y-116.0
X200.82Y-116.0
X203.36Y-116.0
X205.9Y-116.0
X208.44Y-116.0
X210.98Y-116.0
X212.5Y-110.0
X213.52Y-116.0
X215.04Y-110.0
X216.06Y-116.0
X217.58Y-110.0
X218.6Y-116.0
X220.12Y-110.0
M30
