%TF.GenerationSoftware,KiCad,Pcbnew,9.0.1*%
%TF.CreationDate,2025-05-24T12:43:53-07:00*%
%TF.ProjectId,TestWatch,54657374-5761-4746-9368-2e6b69636164,rev?*%
%TF.SameCoordinates,Original*%
%TF.FileFunction,Copper,L2,Bot*%
%TF.FilePolarity,Positive*%
%FSLAX46Y46*%
G04 Gerber Fmt 4.6, Leading zero omitted, Abs format (unit mm)*
G04 Created by KiCad (PCBNEW 9.0.1) date 2025-05-24 12:43:53*
%MOMM*%
%LPD*%
G01*
G04 APERTURE LIST*
%TA.AperFunction,ComponentPad*%
%ADD10R,1.700000X1.700000*%
%TD*%
%TA.AperFunction,ComponentPad*%
%ADD11C,1.700000*%
%TD*%
%TA.AperFunction,ViaPad*%
%ADD12C,0.600000*%
%TD*%
%TA.AperFunction,Conductor*%
%ADD13C,0.200000*%
%TD*%
G04 APERTURE END LIST*
D10*
%TO.P,J1,1,Pin_1*%
%TO.N,A*%
X180500000Y-116000000D03*
D11*
%TO.P,J1,2,Pin_2*%
%TO.N,B*%
X183040000Y-116000000D03*
%TO.P,J1,3,Pin_3*%
%TO.N,C*%
X185579999Y-116000000D03*
%TO.P,J1,4,Pin_4*%
%TO.N,D*%
X188120000Y-116000000D03*
%TO.P,J1,5,Pin_5*%
%TO.N,E*%
X190660000Y-116000000D03*
%TO.P,J1,6,Pin_6*%
%TO.N,F*%
X193200000Y-116000000D03*
%TO.P,J1,7,Pin_7*%
%TO.N,G*%
X195740000Y-116000000D03*
%TO.P,J1,8,Pin_8*%
%TO.N,H*%
X198280001Y-116000000D03*
%TO.P,J1,9,Pin_9*%
%TO.N,I*%
X200820000Y-116000000D03*
%TO.P,J1,10,Pin_10*%
%TO.N,J*%
X203360000Y-116000000D03*
%TO.P,J1,11,Pin_11*%
%TO.N,K*%
X205900000Y-116000000D03*
%TO.P,J1,12,Pin_12*%
%TO.N,L*%
X208439999Y-116000000D03*
%TO.P,J1,13,Pin_13*%
%TO.N,M*%
X210980000Y-116000000D03*
%TO.P,J1,14,Pin_14*%
%TO.N,N*%
X213520000Y-116000000D03*
%TO.P,J1,15,Pin_15*%
%TO.N,O*%
X216060000Y-116000000D03*
%TO.P,J1,16,Pin_16*%
%TO.N,P*%
X218599999Y-116000000D03*
%TD*%
D10*
%TO.P,J2,1,Pin_1*%
%TO.N,STM_POW*%
X212500000Y-110000000D03*
D11*
%TO.P,J2,2,Pin_2*%
%TO.N,Net-(J2-Pin_2)*%
X215040000Y-110000000D03*
%TO.P,J2,3,Pin_3*%
%TO.N,Net-(J2-Pin_3)*%
X217579999Y-110000000D03*
%TO.P,J2,4,Pin_4*%
%TO.N,GNDREF*%
X220120000Y-110000000D03*
%TD*%
D12*
%TO.N,Net-(STM1-PG10-NRST)*%
X203013500Y-100064200D03*
X198280600Y-103033400D03*
%TO.N,Net-(D3-A)*%
X209311300Y-94858400D03*
X210798500Y-80057000D03*
%TO.N,GNDREF*%
X215914600Y-95000000D03*
X215914600Y-85236700D03*
%TO.N,Net-(J2-Pin_3)*%
X217580000Y-98641500D03*
%TO.N,Net-(J2-Pin_2)*%
X211333100Y-96820600D03*
X213880300Y-81048200D03*
%TO.N,Net-(STM1-PA1)*%
X195765800Y-97489200D03*
X199986200Y-100962000D03*
X185551100Y-100235500D03*
%TO.N,Net-(STM1-PB3)*%
X203964800Y-97397400D03*
X201577000Y-106012600D03*
%TO.N,Net-(STM1-PF1-OSC_OUT)*%
X195622500Y-100115000D03*
X203280600Y-98925100D03*
%TO.N,Net-(CHG1-STAT)*%
X192500100Y-97727000D03*
X187493500Y-76781500D03*
%TO.N,STM_POW*%
X212500000Y-103152000D03*
X213271000Y-89896700D03*
%TO.N,Net-(STM1-PA0)*%
X200101400Y-99998700D03*
X200101400Y-94685000D03*
%TO.N,P*%
X204324200Y-106789000D03*
X204577300Y-96786300D03*
%TO.N,I*%
X206256700Y-100962000D03*
%TO.N,K*%
X207449400Y-99581800D03*
%TO.N,M*%
X208453900Y-96803700D03*
%TO.N,G*%
X203334500Y-102028500D03*
%TO.N,J*%
X206858500Y-100339500D03*
%TO.N,L*%
X208279400Y-99372600D03*
%TO.N,H*%
X205440400Y-101002200D03*
%TO.N,D*%
X202727000Y-102571100D03*
%TO.N,O*%
X216218500Y-96218700D03*
%TO.N,N*%
X206589400Y-96784400D03*
%TO.N,F*%
X204925900Y-102739800D03*
%TO.N,Net-(U1-EN)*%
X191313800Y-105687000D03*
X192351300Y-110528000D03*
X211434500Y-105665800D03*
X211434500Y-100451600D03*
%TD*%
D13*
%TO.N,Net-(STM1-PG10-NRST)*%
X200044300Y-103033400D02*
X203013500Y-100064200D01*
X198280600Y-103033400D02*
X200044300Y-103033400D01*
%TO.N,Net-(D3-A)*%
X209311400Y-94858400D02*
X209311300Y-94858400D01*
X209311400Y-81544100D02*
X209311400Y-94858400D01*
X210798500Y-80057000D02*
X209311400Y-81544100D01*
%TO.N,GNDREF*%
X220120000Y-99205400D02*
X215914600Y-95000000D01*
X220120000Y-110000000D02*
X220120000Y-99205400D01*
X215914600Y-95000000D02*
X215914600Y-85236700D01*
%TO.N,Net-(J2-Pin_3)*%
X217580000Y-110000000D02*
X217580000Y-98641500D01*
%TO.N,Net-(J2-Pin_2)*%
X215040000Y-100527500D02*
X211333100Y-96820600D01*
X215040000Y-110000000D02*
X215040000Y-100527500D01*
X213880300Y-94273400D02*
X213880300Y-81048200D01*
X211333100Y-96820600D02*
X213880300Y-94273400D01*
%TO.N,Net-(STM1-PA1)*%
X199238600Y-100962000D02*
X195765800Y-97489200D01*
X199986200Y-100962000D02*
X199238600Y-100962000D01*
X193019500Y-100235500D02*
X185551100Y-100235500D01*
X195765800Y-97489200D02*
X193019500Y-100235500D01*
%TO.N,Net-(STM1-PB3)*%
X203964800Y-102250500D02*
X203964800Y-97397400D01*
X203922500Y-102292800D02*
X203964800Y-102250500D01*
X203922500Y-103667100D02*
X203922500Y-102292800D01*
X201577000Y-106012600D02*
X203922500Y-103667100D01*
%TO.N,Net-(STM1-PF1-OSC_OUT)*%
X197086000Y-101578500D02*
X195622500Y-100115000D01*
X200627200Y-101578500D02*
X197086000Y-101578500D01*
X203280600Y-98925100D02*
X200627200Y-101578500D01*
%TO.N,Net-(CHG1-STAT)*%
X192500100Y-81788100D02*
X192500100Y-97727000D01*
X187493500Y-76781500D02*
X192500100Y-81788100D01*
%TO.N,STM_POW*%
X212500000Y-110000000D02*
X212500000Y-103152000D01*
X210689600Y-92478100D02*
X213271000Y-89896700D01*
X210689600Y-97169500D02*
X210689600Y-92478100D01*
X212500000Y-98979900D02*
X210689600Y-97169500D01*
X212500000Y-103152000D02*
X212500000Y-98979900D01*
%TO.N,Net-(STM1-PA0)*%
X200101400Y-94685000D02*
X200101400Y-99998700D01*
%TO.N,P*%
X204324200Y-102459100D02*
X204324200Y-106789000D01*
X204577300Y-102206000D02*
X204324200Y-102459100D01*
X204577300Y-96786300D02*
X204577300Y-102206000D01*
%TO.N,I*%
X206256700Y-110563300D02*
X206256700Y-100962000D01*
X200820000Y-116000000D02*
X206256700Y-110563300D01*
%TO.N,K*%
X207482500Y-99614900D02*
X207449400Y-99581800D01*
X207482500Y-114417500D02*
X207482500Y-99614900D01*
X205900000Y-116000000D02*
X207482500Y-114417500D01*
%TO.N,M*%
X210832800Y-99182600D02*
X208453900Y-96803700D01*
X210832800Y-115852800D02*
X210832800Y-99182600D01*
X210980000Y-116000000D02*
X210832800Y-115852800D01*
%TO.N,G*%
X203334500Y-102815100D02*
X203334500Y-102028500D01*
X195740000Y-110409600D02*
X203334500Y-102815100D01*
X195740000Y-116000000D02*
X195740000Y-110409600D01*
%TO.N,J*%
X206858500Y-112501500D02*
X203360000Y-116000000D01*
X206858500Y-100339500D02*
X206858500Y-112501500D01*
%TO.N,L*%
X208440000Y-99533200D02*
X208279400Y-99372600D01*
X208440000Y-116000000D02*
X208440000Y-99533200D01*
%TO.N,H*%
X205591000Y-101152800D02*
X205440400Y-101002200D01*
X205591000Y-108689000D02*
X205591000Y-101152800D01*
X198280000Y-116000000D02*
X205591000Y-108689000D01*
%TO.N,D*%
X201548900Y-102571100D02*
X202727000Y-102571100D01*
X188120000Y-116000000D02*
X201548900Y-102571100D01*
%TO.N,O*%
X216218500Y-115841500D02*
X216218500Y-96218700D01*
X216060000Y-116000000D02*
X216218500Y-115841500D01*
%TO.N,N*%
X209726700Y-99921700D02*
X206589400Y-96784400D01*
X209726700Y-116387500D02*
X209726700Y-99921700D01*
X210498100Y-117158900D02*
X209726700Y-116387500D01*
X212361100Y-117158900D02*
X210498100Y-117158900D01*
X213520000Y-116000000D02*
X212361100Y-117158900D01*
%TO.N,F*%
X204925900Y-107694400D02*
X204925900Y-102739800D01*
X197010000Y-115610300D02*
X204925900Y-107694400D01*
X197010000Y-116370800D02*
X197010000Y-115610300D01*
X196221900Y-117158900D02*
X197010000Y-116370800D01*
X194358900Y-117158900D02*
X196221900Y-117158900D01*
X193200000Y-116000000D02*
X194358900Y-117158900D01*
%TO.N,Net-(U1-EN)*%
X192351300Y-106724500D02*
X192351300Y-110528000D01*
X191313800Y-105687000D02*
X192351300Y-106724500D01*
X211434500Y-105665800D02*
X211434500Y-100451600D01*
%TD*%
M02*
