%TF.GenerationSoftware,KiCad,Pcbnew,9.0.1*%
%TF.CreationDate,2025-05-24T12:43:53-07:00*%
%TF.ProjectId,TestWatch,54657374-5761-4746-9368-2e6b69636164,rev?*%
%TF.SameCoordinates,Original*%
%TF.FileFunction,Copper,L1,Top*%
%TF.FilePolarity,Positive*%
%FSLAX46Y46*%
G04 Gerber Fmt 4.6, Leading zero omitted, Abs format (unit mm)*
G04 Created by KiCad (PCBNEW 9.0.1) date 2025-05-24 12:43:53*
%MOMM*%
%LPD*%
G01*
G04 APERTURE LIST*
G04 Aperture macros list*
%AMRoundRect*
0 Rectangle with rounded corners*
0 $1 Rounding radius*
0 $2 $3 $4 $5 $6 $7 $8 $9 X,Y pos of 4 corners*
0 Add a 4 corners polygon primitive as box body*
4,1,4,$2,$3,$4,$5,$6,$7,$8,$9,$2,$3,0*
0 Add four circle primitives for the rounded corners*
1,1,$1+$1,$2,$3*
1,1,$1+$1,$4,$5*
1,1,$1+$1,$6,$7*
1,1,$1+$1,$8,$9*
0 Add four rect primitives between the rounded corners*
20,1,$1+$1,$2,$3,$4,$5,0*
20,1,$1+$1,$4,$5,$6,$7,0*
20,1,$1+$1,$6,$7,$8,$9,0*
20,1,$1+$1,$8,$9,$2,$3,0*%
%AMRotRect*
0 Rectangle, with rotation*
0 The origin of the aperture is its center*
0 $1 length*
0 $2 width*
0 $3 Rotation angle, in degrees counterclockwise*
0 Add horizontal line*
21,1,$1,$2,0,0,$3*%
G04 Aperture macros list end*
%TA.AperFunction,SMDPad,CuDef*%
%ADD10R,0.540000X0.600000*%
%TD*%
%TA.AperFunction,SMDPad,CuDef*%
%ADD11R,1.420000X1.080000*%
%TD*%
%TA.AperFunction,SMDPad,CuDef*%
%ADD12RoundRect,0.062500X0.542500X0.187500X-0.542500X0.187500X-0.542500X-0.187500X0.542500X-0.187500X0*%
%TD*%
%TA.AperFunction,SMDPad,CuDef*%
%ADD13RoundRect,0.150000X0.247487X0.035355X0.035355X0.247487X-0.247487X-0.035355X-0.035355X-0.247487X0*%
%TD*%
%TA.AperFunction,SMDPad,CuDef*%
%ADD14R,0.890000X0.930000*%
%TD*%
%TA.AperFunction,SMDPad,CuDef*%
%ADD15RotRect,0.970000X1.730000X135.000000*%
%TD*%
%TA.AperFunction,SMDPad,CuDef*%
%ADD16R,1.700000X0.800000*%
%TD*%
%TA.AperFunction,SMDPad,CuDef*%
%ADD17R,1.100000X0.800000*%
%TD*%
%TA.AperFunction,SMDPad,CuDef*%
%ADD18R,1.475000X0.600000*%
%TD*%
%TA.AperFunction,SMDPad,CuDef*%
%ADD19R,0.600000X1.475000*%
%TD*%
%TA.AperFunction,SMDPad,CuDef*%
%ADD20RoundRect,0.190500X-0.762000X-0.444500X0.762000X-0.444500X0.762000X0.444500X-0.762000X0.444500X0*%
%TD*%
%TA.AperFunction,SMDPad,CuDef*%
%ADD21R,1.900000X1.300000*%
%TD*%
%TA.AperFunction,SMDPad,CuDef*%
%ADD22R,0.900000X0.970000*%
%TD*%
%TA.AperFunction,SMDPad,CuDef*%
%ADD23RoundRect,0.062500X0.187500X-0.542500X0.187500X0.542500X-0.187500X0.542500X-0.187500X-0.542500X0*%
%TD*%
%TA.AperFunction,ComponentPad*%
%ADD24R,1.700000X1.700000*%
%TD*%
%TA.AperFunction,ComponentPad*%
%ADD25C,1.700000*%
%TD*%
%TA.AperFunction,SMDPad,CuDef*%
%ADD26R,0.977900X0.508000*%
%TD*%
%TA.AperFunction,SMDPad,CuDef*%
%ADD27C,11.000000*%
%TD*%
%TA.AperFunction,SMDPad,CuDef*%
%ADD28R,2.000000X4.000000*%
%TD*%
%TA.AperFunction,SMDPad,CuDef*%
%ADD29R,1.320800X0.558800*%
%TD*%
%TA.AperFunction,SMDPad,CuDef*%
%ADD30RoundRect,0.190500X-0.224506X-0.853124X0.853124X0.224506X0.224506X0.853124X-0.853124X-0.224506X0*%
%TD*%
%TA.AperFunction,ViaPad*%
%ADD31C,0.600000*%
%TD*%
%TA.AperFunction,Conductor*%
%ADD32C,0.200000*%
%TD*%
G04 APERTURE END LIST*
D10*
%TO.P,R6,1*%
%TO.N,Net-(STM1-PG10-NRST)*%
X193199800Y-106793700D03*
%TO.P,R6,2*%
%TO.N,STM_POW*%
X192335800Y-106793700D03*
%TD*%
D11*
%TO.P,C3,1*%
%TO.N,Net-(CHG1-VBAT)*%
X213000000Y-82604999D03*
%TO.P,C3,2*%
%TO.N,GNDREF*%
X213000000Y-84395001D03*
%TD*%
D12*
%TO.P,D2,C*%
%TO.N,Net-(U1-EN)*%
X203105000Y-107000000D03*
%TO.P,D2,A*%
%TO.N,Net-(STM1-PB3)*%
X200895000Y-107000000D03*
%TD*%
D13*
%TO.P,D3,2,A*%
%TO.N,Net-(D3-A)*%
X211994975Y-79494975D03*
%TO.P,D3,1,K*%
%TO.N,Net-(CHG1-STAT)*%
X211005025Y-78505025D03*
%TD*%
D14*
%TO.P,R5,2*%
%TO.N,USB + *%
X190086000Y-100000000D03*
%TO.P,R5,1*%
%TO.N,Net-(CHG1-STAT)*%
X191714000Y-100000000D03*
%TD*%
D15*
%TO.P,R3,2*%
%TO.N,Net-(STM1-PA1)*%
X184453482Y-99453482D03*
%TO.P,R3,1*%
%TO.N,Net-(CHG1-VBAT)*%
X186546518Y-101546518D03*
%TD*%
D14*
%TO.P,R1,1*%
%TO.N,Net-(CHG1-PROG)*%
X195631600Y-95950000D03*
%TO.P,R1,2*%
%TO.N,GNDREF*%
X194003600Y-95950000D03*
%TD*%
D11*
%TO.P,C2,1*%
%TO.N,STM_POW*%
X198500000Y-96604999D03*
%TO.P,C2,2*%
%TO.N,GNDREF*%
X198500000Y-98395001D03*
%TD*%
D16*
%TO.P,BUTT1,1,1*%
%TO.N,Net-(STM1-PA0)*%
X212900000Y-92224001D03*
%TO.P,BUTT1,2,2*%
%TO.N,STM_POW*%
X212900000Y-88823999D03*
D17*
%TO.P,BUTT1,3,3*%
%TO.N,unconnected-(BUTT1-Pad3)*%
X211250000Y-90524000D03*
%TD*%
D18*
%TO.P,STM1,1,VDD_1*%
%TO.N,STM_POW*%
X201462000Y-96962000D03*
%TO.P,STM1,2,PF0-OSC_IN*%
%TO.N,Net-(STM1-PF0-OSC_IN)*%
X201462000Y-97762000D03*
%TO.P,STM1,3,PF1-OSC_OUT*%
%TO.N,Net-(STM1-PF1-OSC_OUT)*%
X201462000Y-98562000D03*
%TO.P,STM1,4,PG10-NRST*%
%TO.N,Net-(STM1-PG10-NRST)*%
X201462000Y-99362000D03*
%TO.P,STM1,5,PA0*%
%TO.N,Net-(STM1-PA0)*%
X201462000Y-100162000D03*
%TO.P,STM1,6,PA1*%
%TO.N,Net-(STM1-PA1)*%
X201462000Y-100962000D03*
%TO.P,STM1,7,PA2*%
%TO.N,A*%
X201462000Y-101762000D03*
%TO.P,STM1,8,PA3*%
%TO.N,B*%
X201462000Y-102562000D03*
D19*
%TO.P,STM1,9,PA4*%
%TO.N,C*%
X202900000Y-104000000D03*
%TO.P,STM1,10,PA5*%
%TO.N,D*%
X203700000Y-104000000D03*
%TO.P,STM1,11,PA6*%
%TO.N,E*%
X204500000Y-104000000D03*
%TO.P,STM1,12,PA7*%
%TO.N,F*%
X205300000Y-104000000D03*
%TO.P,STM1,13,PB0*%
%TO.N,G*%
X206100000Y-104000000D03*
%TO.P,STM1,14,VSSA*%
%TO.N,GNDREF*%
X206900000Y-104000000D03*
%TO.P,STM1,15,VDDA*%
%TO.N,STM_POW*%
X207700000Y-104000000D03*
%TO.P,STM1,16,VSS_1*%
%TO.N,GNDREF*%
X208500000Y-104000000D03*
D18*
%TO.P,STM1,17,VDD_2*%
%TO.N,STM_POW*%
X209938000Y-102562000D03*
%TO.P,STM1,18,PA8*%
%TO.N,H*%
X209938000Y-101762000D03*
%TO.P,STM1,19,PA9*%
%TO.N,I*%
X209938000Y-100962000D03*
%TO.P,STM1,20,PA10*%
%TO.N,J*%
X209938000Y-100162000D03*
%TO.P,STM1,21,PA11*%
%TO.N,K*%
X209938000Y-99362000D03*
%TO.P,STM1,22,PA12*%
%TO.N,L*%
X209938000Y-98562000D03*
%TO.P,STM1,23,PA13*%
%TO.N,Net-(J2-Pin_3)*%
X209938000Y-97762000D03*
%TO.P,STM1,24,PA14*%
%TO.N,Net-(J2-Pin_2)*%
X209938000Y-96962000D03*
D19*
%TO.P,STM1,25,PA15*%
%TO.N,M*%
X208500000Y-95524000D03*
%TO.P,STM1,26,PB3*%
%TO.N,Net-(STM1-PB3)*%
X207700000Y-95524000D03*
%TO.P,STM1,27,PB4*%
%TO.N,Net-(D3-A)*%
X206900000Y-95524000D03*
%TO.P,STM1,28,PB5*%
%TO.N,N*%
X206100000Y-95524000D03*
%TO.P,STM1,29,PB6*%
%TO.N,O*%
X205300000Y-95524000D03*
%TO.P,STM1,30,PB7*%
%TO.N,P*%
X204500000Y-95524000D03*
%TO.P,STM1,31,PB8-BOOT0*%
%TO.N,GNDREF*%
X203700000Y-95524000D03*
%TO.P,STM1,32,VSS_2*%
X202900000Y-95524000D03*
%TD*%
D20*
%TO.P,POGO1,1,USB_+*%
%TO.N,USB + *%
X187000000Y-88824000D03*
%TO.P,POGO1,2,USB_-*%
%TO.N,GNDREF*%
X187000000Y-92224000D03*
%TD*%
D21*
%TO.P,OSC1,1*%
%TO.N,Net-(STM1-PF1-OSC_OUT)*%
X195300000Y-101274000D03*
%TO.P,OSC1,2,NC_2*%
%TO.N,unconnected-(OSC1-NC_2-Pad2)*%
X195300000Y-106774000D03*
%TO.P,OSC1,3,NC_1*%
%TO.N,unconnected-(OSC1-NC_1-Pad3)*%
X198500000Y-106774000D03*
%TO.P,OSC1,4*%
%TO.N,Net-(STM1-PF0-OSC_IN)*%
X198500000Y-101274000D03*
%TD*%
D22*
%TO.P,R4,1*%
%TO.N,Net-(STM1-PA1)*%
X195577600Y-98500000D03*
%TO.P,R4,2*%
%TO.N,GNDREF*%
X194057600Y-98500000D03*
%TD*%
D23*
%TO.P,D1,A*%
%TO.N,USB + *%
X213000000Y-97395000D03*
%TO.P,D1,C*%
%TO.N,Net-(U1-EN)*%
X213000000Y-99605000D03*
%TD*%
D11*
%TO.P,C1,1*%
%TO.N,USB + *%
X186900000Y-89628999D03*
%TO.P,C1,2*%
%TO.N,GNDREF*%
X186900000Y-91419001D03*
%TD*%
D24*
%TO.P,J1,1,Pin_1*%
%TO.N,A*%
X180500000Y-116000000D03*
D25*
%TO.P,J1,2,Pin_2*%
%TO.N,B*%
X183040000Y-116000000D03*
%TO.P,J1,3,Pin_3*%
%TO.N,C*%
X185579999Y-116000000D03*
%TO.P,J1,4,Pin_4*%
%TO.N,D*%
X188120000Y-116000000D03*
%TO.P,J1,5,Pin_5*%
%TO.N,E*%
X190660000Y-116000000D03*
%TO.P,J1,6,Pin_6*%
%TO.N,F*%
X193200000Y-116000000D03*
%TO.P,J1,7,Pin_7*%
%TO.N,G*%
X195740000Y-116000000D03*
%TO.P,J1,8,Pin_8*%
%TO.N,H*%
X198280001Y-116000000D03*
%TO.P,J1,9,Pin_9*%
%TO.N,I*%
X200820000Y-116000000D03*
%TO.P,J1,10,Pin_10*%
%TO.N,J*%
X203360000Y-116000000D03*
%TO.P,J1,11,Pin_11*%
%TO.N,K*%
X205900000Y-116000000D03*
%TO.P,J1,12,Pin_12*%
%TO.N,L*%
X208439999Y-116000000D03*
%TO.P,J1,13,Pin_13*%
%TO.N,M*%
X210980000Y-116000000D03*
%TO.P,J1,14,Pin_14*%
%TO.N,N*%
X213520000Y-116000000D03*
%TO.P,J1,15,Pin_15*%
%TO.N,O*%
X216060000Y-116000000D03*
%TO.P,J1,16,Pin_16*%
%TO.N,P*%
X218599999Y-116000000D03*
%TD*%
D26*
%TO.P,U1,1,IN*%
%TO.N,Net-(CHG1-VBAT)*%
X189669550Y-102499999D03*
%TO.P,U1,2,GND*%
%TO.N,GNDREF*%
X189669550Y-103450000D03*
%TO.P,U1,3,EN*%
%TO.N,Net-(U1-EN)*%
X189669550Y-104400001D03*
%TO.P,U1,4,NC*%
%TO.N,unconnected-(U1-NC-Pad4)*%
X192400050Y-104400001D03*
%TO.P,U1,5,OUT*%
%TO.N,STM_POW*%
X192400050Y-102499999D03*
%TD*%
D14*
%TO.P,R2,1*%
%TO.N,Net-(STM1-PA0)*%
X212186000Y-95000000D03*
%TO.P,R2,2*%
%TO.N,GNDREF*%
X213814000Y-95000000D03*
%TD*%
D27*
%TO.P,BT1,N*%
%TO.N,GNDREF*%
X198900000Y-84500000D03*
D28*
%TO.P,BT1,P*%
%TO.N,Net-(CHG1-VBAT)*%
X187900000Y-83500000D03*
X209900000Y-83500000D03*
%TD*%
D24*
%TO.P,J2,1,Pin_1*%
%TO.N,STM_POW*%
X212500000Y-110000000D03*
D25*
%TO.P,J2,2,Pin_2*%
%TO.N,Net-(J2-Pin_2)*%
X215040000Y-110000000D03*
%TO.P,J2,3,Pin_3*%
%TO.N,Net-(J2-Pin_3)*%
X217579999Y-110000000D03*
%TO.P,J2,4,Pin_4*%
%TO.N,GNDREF*%
X220120000Y-110000000D03*
%TD*%
D29*
%TO.P,CHG1,1,STAT*%
%TO.N,Net-(CHG1-STAT)*%
X191271600Y-97486500D03*
%TO.P,CHG1,2,VSS*%
%TO.N,GNDREF*%
X191271600Y-96546700D03*
%TO.P,CHG1,3,VBAT*%
%TO.N,Net-(CHG1-VBAT)*%
X191271600Y-95606900D03*
%TO.P,CHG1,4,VDD*%
%TO.N,USB + *%
X188528400Y-95606900D03*
%TO.P,CHG1,5,PROG*%
%TO.N,Net-(CHG1-PROG)*%
X188528400Y-97486500D03*
%TD*%
D30*
%TO.P,P14,1,1*%
%TO.N,Net-(J2-Pin_2)*%
X185499953Y-79366440D03*
%TD*%
D20*
%TO.P,P13,1,1*%
%TO.N,Net-(J2-Pin_3)*%
X206148800Y-106442500D03*
%TD*%
D31*
%TO.N,Net-(STM1-PG10-NRST)*%
X203013500Y-100064200D03*
X198280600Y-103033400D03*
%TO.N,Net-(D3-A)*%
X209311300Y-94858400D03*
X210798500Y-80057000D03*
%TO.N,GNDREF*%
X215914600Y-95000000D03*
X215914600Y-85236700D03*
%TO.N,Net-(J2-Pin_3)*%
X217580000Y-98641500D03*
%TO.N,Net-(J2-Pin_2)*%
X211333100Y-96820600D03*
X213880300Y-81048200D03*
%TO.N,Net-(STM1-PA1)*%
X195765800Y-97489200D03*
X199986200Y-100962000D03*
X185551100Y-100235500D03*
%TO.N,Net-(STM1-PB3)*%
X203964800Y-97397400D03*
X201577000Y-106012600D03*
%TO.N,Net-(STM1-PF1-OSC_OUT)*%
X195622500Y-100115000D03*
X203280600Y-98925100D03*
%TO.N,Net-(CHG1-STAT)*%
X192500100Y-97727000D03*
X187493500Y-76781500D03*
%TO.N,STM_POW*%
X212500000Y-103152000D03*
X213271000Y-89896700D03*
%TO.N,Net-(STM1-PA0)*%
X200101400Y-99998700D03*
X200101400Y-94685000D03*
%TO.N,P*%
X204324200Y-106789000D03*
X204577300Y-96786300D03*
%TO.N,I*%
X206256700Y-100962000D03*
%TO.N,K*%
X207449400Y-99581800D03*
%TO.N,M*%
X208453900Y-96803700D03*
%TO.N,G*%
X203334500Y-102028500D03*
%TO.N,J*%
X206858500Y-100339500D03*
%TO.N,L*%
X208279400Y-99372600D03*
%TO.N,H*%
X205440400Y-101002200D03*
%TO.N,D*%
X202727000Y-102571100D03*
%TO.N,O*%
X216218500Y-96218700D03*
%TO.N,N*%
X206589400Y-96784400D03*
%TO.N,F*%
X204925900Y-102739800D03*
%TO.N,Net-(U1-EN)*%
X191313800Y-105687000D03*
X192351300Y-110528000D03*
X211434500Y-105665800D03*
X211434500Y-100451600D03*
%TD*%
D32*
%TO.N,Net-(STM1-PG10-NRST)*%
X193199800Y-106793700D02*
X193771500Y-106793700D01*
X196960100Y-103033400D02*
X198280600Y-103033400D01*
X193771500Y-106222000D02*
X196960100Y-103033400D01*
X193771500Y-106793700D02*
X193771500Y-106222000D01*
X201462000Y-99362000D02*
X202501200Y-99362000D01*
X203013500Y-99874300D02*
X203013500Y-100064200D01*
X202501200Y-99362000D02*
X203013500Y-99874300D01*
%TO.N,Net-(D3-A)*%
X211433000Y-80057000D02*
X211995000Y-79495000D01*
X210798500Y-80057000D02*
X211433000Y-80057000D01*
X208937700Y-94484800D02*
X209311300Y-94858400D01*
X206900000Y-94484800D02*
X208937700Y-94484800D01*
X206900000Y-95524000D02*
X206900000Y-94484800D01*
%TO.N,GNDREF*%
X192830400Y-95950000D02*
X194003600Y-95950000D01*
X192233700Y-96546700D02*
X192830400Y-95950000D01*
X191271600Y-96546700D02*
X192233700Y-96546700D01*
X213000000Y-84395000D02*
X213000000Y-85236700D01*
X193400300Y-97713300D02*
X192233700Y-96546700D01*
X194057600Y-97713300D02*
X193400300Y-97713300D01*
X206900000Y-104000000D02*
X206900000Y-105039200D01*
X208500000Y-104000000D02*
X208500000Y-105039200D01*
X202900000Y-95524000D02*
X202900000Y-94484800D01*
X203700000Y-95524000D02*
X203700000Y-94484800D01*
X194057600Y-97814100D02*
X194057600Y-97714800D01*
X194057600Y-98157000D02*
X194057600Y-97814100D01*
X194057600Y-98157000D02*
X194057600Y-98500000D01*
X189669600Y-103450000D02*
X190460300Y-103450000D01*
X202900000Y-94484800D02*
X203700000Y-94484800D01*
X194057600Y-97714800D02*
X194057600Y-97713300D01*
X185708300Y-90227300D02*
X186900000Y-91419000D01*
X185708300Y-88159300D02*
X185708300Y-90227300D01*
X188063300Y-85804300D02*
X185708300Y-88159300D01*
X204362400Y-85804300D02*
X188063300Y-85804300D01*
X200204300Y-85804300D02*
X204362400Y-85804300D01*
X198900000Y-84500000D02*
X200204300Y-85804300D01*
X212432400Y-85804300D02*
X213000000Y-85236700D01*
X204362400Y-85804300D02*
X212432400Y-85804300D01*
X186900000Y-92124000D02*
X187000000Y-92224000D01*
X186900000Y-91419000D02*
X186900000Y-92124000D01*
X206900000Y-105039200D02*
X208500000Y-105039200D01*
X215159200Y-105039200D02*
X220120000Y-110000000D01*
X208500000Y-105039200D02*
X215159200Y-105039200D01*
X198500000Y-98395000D02*
X197488300Y-98395000D01*
X213457000Y-95000000D02*
X213067300Y-95000000D01*
X213457000Y-95000000D02*
X213814000Y-95000000D01*
X213814000Y-95000000D02*
X215914600Y-95000000D01*
X197852400Y-95524000D02*
X196366600Y-97009800D01*
X202900000Y-95524000D02*
X197852400Y-95524000D01*
X197488300Y-98131600D02*
X196366600Y-97009800D01*
X197488300Y-98395000D02*
X197488300Y-98131600D01*
X194916900Y-96854000D02*
X194057600Y-97713300D01*
X196210700Y-96854000D02*
X194916900Y-96854000D01*
X196366600Y-97009800D02*
X196210700Y-96854000D01*
X190460300Y-102892400D02*
X190460300Y-103450000D01*
X194057600Y-99295100D02*
X190460300Y-102892400D01*
X194057600Y-98500000D02*
X194057600Y-99295100D01*
X213067300Y-95466700D02*
X213067300Y-95000000D01*
X212736200Y-95797800D02*
X213067300Y-95466700D01*
X211632300Y-95797800D02*
X212736200Y-95797800D01*
X211349700Y-95515200D02*
X211632300Y-95797800D01*
X211349700Y-95429900D02*
X211349700Y-95515200D01*
X209596700Y-93676900D02*
X211349700Y-95429900D01*
X204507900Y-93676900D02*
X209596700Y-93676900D01*
X203700000Y-94484800D02*
X204507900Y-93676900D01*
X213000000Y-85236700D02*
X215914600Y-85236700D01*
%TO.N,Net-(J2-Pin_3)*%
X214022500Y-106442500D02*
X217580000Y-110000000D01*
X206148800Y-106442500D02*
X214022500Y-106442500D01*
X212412000Y-98641500D02*
X217580000Y-98641500D01*
X211532500Y-97762000D02*
X212412000Y-98641500D01*
X209938000Y-97762000D02*
X211532500Y-97762000D01*
%TO.N,Net-(J2-Pin_2)*%
X209938000Y-96962000D02*
X210977200Y-96962000D01*
X211118600Y-96820600D02*
X211333100Y-96820600D01*
X210977200Y-96962000D02*
X211118600Y-96820600D01*
X210931300Y-81048200D02*
X213880300Y-81048200D01*
X208502300Y-78619200D02*
X210931300Y-81048200D01*
X202765800Y-78619200D02*
X208502300Y-78619200D01*
X202765800Y-78619100D02*
X202765800Y-78619200D01*
X202400600Y-78253900D02*
X202765800Y-78619100D01*
X186612500Y-78253900D02*
X202400600Y-78253900D01*
X185500000Y-79366400D02*
X186612500Y-78253900D01*
%TO.N,Net-(STM1-PA1)*%
X201462000Y-100962000D02*
X199986200Y-100962000D01*
X195765800Y-97525100D02*
X195765800Y-97489200D01*
X195577600Y-97713300D02*
X195765800Y-97525100D01*
X195577600Y-98500000D02*
X195577600Y-97713300D01*
X185235500Y-100235500D02*
X184453500Y-99453500D01*
X185551100Y-100235500D02*
X185235500Y-100235500D01*
%TO.N,Net-(STM1-PB3)*%
X200895000Y-106694600D02*
X200895000Y-107000000D01*
X201577000Y-106012600D02*
X200895000Y-106694600D01*
X206896000Y-97397400D02*
X203964800Y-97397400D01*
X207700000Y-96593400D02*
X206896000Y-97397400D01*
X207700000Y-95524000D02*
X207700000Y-96593400D01*
%TO.N,Net-(STM1-PF1-OSC_OUT)*%
X201462000Y-98562000D02*
X202501200Y-98562000D01*
X195415200Y-100322300D02*
X195622500Y-100115000D01*
X195300000Y-100322300D02*
X195415200Y-100322300D01*
X195300000Y-101274000D02*
X195300000Y-100322300D01*
X202917500Y-98562000D02*
X203280600Y-98925100D01*
X202501200Y-98562000D02*
X202917500Y-98562000D01*
%TO.N,Net-(CHG1-STAT)*%
X191714000Y-100000000D02*
X191714000Y-99233300D01*
X191752700Y-97486500D02*
X191271600Y-97486500D01*
X191752700Y-97486500D02*
X191993200Y-97486500D01*
X192233700Y-98713600D02*
X191714000Y-99233300D01*
X192233700Y-97727000D02*
X192233700Y-98713600D01*
X191993200Y-97486500D02*
X192233700Y-97727000D01*
X209281500Y-76781500D02*
X211005000Y-78505000D01*
X187493500Y-76781500D02*
X209281500Y-76781500D01*
X192233700Y-97727000D02*
X192500100Y-97727000D01*
%TO.N,Net-(STM1-PF0-OSC_IN)*%
X200422800Y-98807900D02*
X200422800Y-97762000D01*
X198908400Y-100322300D02*
X200422800Y-98807900D01*
X198500000Y-100322300D02*
X198908400Y-100322300D01*
X198500000Y-101274000D02*
X198500000Y-100322300D01*
X201462000Y-97762000D02*
X200422800Y-97762000D01*
%TO.N,STM_POW*%
X207700000Y-104000000D02*
X207700000Y-102960800D01*
X207700000Y-102669700D02*
X207700000Y-102960800D01*
X207807700Y-102562000D02*
X207700000Y-102669700D01*
X209938000Y-102562000D02*
X207807700Y-102562000D01*
X201981000Y-96962000D02*
X202501200Y-96962000D01*
X201981000Y-96962000D02*
X201462000Y-96962000D01*
X192335800Y-106793700D02*
X191764100Y-106793700D01*
X192400100Y-102500000D02*
X191609500Y-102500000D01*
X209938000Y-102562000D02*
X210977200Y-102562000D01*
X212900000Y-88824000D02*
X212900000Y-89525700D01*
X213271000Y-89896700D02*
X212900000Y-89525700D01*
X198905000Y-96605000D02*
X199511700Y-96605000D01*
X198905000Y-96605000D02*
X198500000Y-96605000D01*
X191609500Y-105131800D02*
X191609500Y-102500000D01*
X191915500Y-105437800D02*
X191609500Y-105131800D01*
X191915500Y-105936200D02*
X191915500Y-105437800D01*
X191609500Y-106242200D02*
X191915500Y-105936200D01*
X191609500Y-106639100D02*
X191609500Y-106242200D01*
X191764100Y-106793700D02*
X191609500Y-106639100D01*
X211567200Y-103152000D02*
X212500000Y-103152000D01*
X210977200Y-102562000D02*
X211567200Y-103152000D01*
X201462000Y-96962000D02*
X199868700Y-96962000D01*
X199868700Y-96962000D02*
X199511700Y-96605000D01*
X196125100Y-102500000D02*
X192400100Y-102500000D01*
X197243200Y-101381900D02*
X196125100Y-102500000D01*
X197243200Y-100420900D02*
X197243200Y-101381900D01*
X197819700Y-99844400D02*
X197243200Y-100420900D01*
X198807400Y-99844400D02*
X197819700Y-99844400D01*
X199868700Y-98783100D02*
X198807400Y-99844400D01*
X199868700Y-96962000D02*
X199868700Y-98783100D01*
X203981900Y-98442700D02*
X202501200Y-96962000D01*
X203981900Y-100394500D02*
X203981900Y-98442700D01*
X205292200Y-101704800D02*
X203981900Y-100394500D01*
X205341400Y-101704800D02*
X205292200Y-101704800D01*
X206306300Y-102669700D02*
X205341400Y-101704800D01*
X207700000Y-102669700D02*
X206306300Y-102669700D01*
%TO.N,USB + *%
X186900000Y-89629000D02*
X186900000Y-90470700D01*
X186900000Y-88924000D02*
X186900000Y-89629000D01*
X187000000Y-88824000D02*
X186900000Y-88924000D01*
X187511700Y-98172400D02*
X189339300Y-100000000D01*
X187511700Y-96142600D02*
X187511700Y-98172400D01*
X188047400Y-95606900D02*
X187511700Y-96142600D01*
X190086000Y-100000000D02*
X189339300Y-100000000D01*
X188528400Y-95606900D02*
X188287900Y-95606900D01*
X188287900Y-95606900D02*
X188047400Y-95606900D01*
X188287900Y-91850900D02*
X188652300Y-91486500D01*
X188287900Y-95606900D02*
X188287900Y-91850900D01*
X213889500Y-91486500D02*
X188652300Y-91486500D01*
X216873200Y-94470200D02*
X213889500Y-91486500D01*
X216873200Y-96416500D02*
X216873200Y-94470200D01*
X215894700Y-97395000D02*
X216873200Y-96416500D01*
X213000000Y-97395000D02*
X215894700Y-97395000D01*
X187636500Y-90470700D02*
X186900000Y-90470700D01*
X188652300Y-91486500D02*
X187636500Y-90470700D01*
%TO.N,Net-(STM1-PA0)*%
X212186000Y-95000000D02*
X212186000Y-94233300D01*
X212186000Y-93639700D02*
X212900000Y-92925700D01*
X212186000Y-94233300D02*
X212186000Y-93639700D01*
X212900000Y-92224000D02*
X212900000Y-92440100D01*
X212900000Y-92440100D02*
X212900000Y-92925700D01*
X202346300Y-92440100D02*
X200101400Y-94685000D01*
X212900000Y-92440100D02*
X202346300Y-92440100D01*
X200264700Y-100162000D02*
X200101400Y-99998700D01*
X201462000Y-100162000D02*
X200264700Y-100162000D01*
%TO.N,Net-(CHG1-PROG)*%
X188528400Y-97486500D02*
X189490500Y-97486500D01*
X195631600Y-95950000D02*
X195051200Y-95950000D01*
X195051200Y-95614600D02*
X195051200Y-95950000D01*
X194440700Y-95004100D02*
X195051200Y-95614600D01*
X190319000Y-95004100D02*
X194440700Y-95004100D01*
X189490500Y-95832600D02*
X190319000Y-95004100D01*
X189490500Y-97486500D02*
X189490500Y-95832600D01*
%TO.N,P*%
X204500000Y-96709000D02*
X204577300Y-96786300D01*
X204500000Y-95524000D02*
X204500000Y-96709000D01*
X210557200Y-113022000D02*
X204324200Y-106789000D01*
X215622000Y-113022000D02*
X210557200Y-113022000D01*
X218600000Y-116000000D02*
X215622000Y-113022000D01*
%TO.N,I*%
X206256700Y-100962000D02*
X209938000Y-100962000D01*
%TO.N,K*%
X208898800Y-99660900D02*
X208898800Y-99362000D01*
X208557500Y-100002200D02*
X208898800Y-99660900D01*
X207869800Y-100002200D02*
X208557500Y-100002200D01*
X207449400Y-99581800D02*
X207869800Y-100002200D01*
X209938000Y-99362000D02*
X208898800Y-99362000D01*
%TO.N,M*%
X208500000Y-96757600D02*
X208453900Y-96803700D01*
X208500000Y-95524000D02*
X208500000Y-96757600D01*
%TO.N,G*%
X203412500Y-102106500D02*
X203334500Y-102028500D01*
X205175100Y-102106500D02*
X203412500Y-102106500D01*
X205527600Y-102459000D02*
X205175100Y-102106500D01*
X205527600Y-102694900D02*
X205527600Y-102459000D01*
X206100000Y-103267300D02*
X205527600Y-102694900D01*
X206100000Y-104000000D02*
X206100000Y-103267300D01*
%TO.N,C*%
X202900000Y-104000000D02*
X202900000Y-105039200D01*
X185580000Y-115787000D02*
X185580000Y-116000000D01*
X191955300Y-109411700D02*
X185580000Y-115787000D01*
X197891900Y-109411700D02*
X191955300Y-109411700D01*
X199987800Y-107315800D02*
X197891900Y-109411700D01*
X199987800Y-106615100D02*
X199987800Y-107315800D01*
X201563700Y-105039200D02*
X199987800Y-106615100D01*
X202900000Y-105039200D02*
X201563700Y-105039200D01*
%TO.N,J*%
X206932100Y-100413100D02*
X206858500Y-100339500D01*
X208814800Y-100413100D02*
X206932100Y-100413100D01*
X209065900Y-100162000D02*
X208814800Y-100413100D01*
X209938000Y-100162000D02*
X209065900Y-100162000D01*
%TO.N,L*%
X209938000Y-98562000D02*
X208898800Y-98562000D01*
X208279400Y-99181400D02*
X208279400Y-99372600D01*
X208898800Y-98562000D02*
X208279400Y-99181400D01*
%TO.N,H*%
X206200200Y-101762000D02*
X209938000Y-101762000D01*
X205440400Y-101002200D02*
X206200200Y-101762000D01*
%TO.N,E*%
X190660000Y-111344100D02*
X190660000Y-116000000D01*
X192190700Y-109813400D02*
X190660000Y-111344100D01*
X199368500Y-109813400D02*
X192190700Y-109813400D01*
X201965100Y-107216800D02*
X199368500Y-109813400D01*
X201965100Y-106883300D02*
X201965100Y-107216800D01*
X203809200Y-105039200D02*
X201965100Y-106883300D01*
X204500000Y-105039200D02*
X203809200Y-105039200D01*
X204500000Y-104000000D02*
X204500000Y-105039200D01*
%TO.N,D*%
X203700000Y-104000000D02*
X203700000Y-102960800D01*
X203116700Y-102960800D02*
X202727000Y-102571100D01*
X203700000Y-102960800D02*
X203116700Y-102960800D01*
%TO.N,O*%
X205300000Y-95524000D02*
X205300000Y-94484800D01*
X205701700Y-94083100D02*
X205300000Y-94484800D01*
X209386900Y-94083100D02*
X205701700Y-94083100D01*
X210734800Y-95431000D02*
X209386900Y-94083100D01*
X210734800Y-95534500D02*
X210734800Y-95431000D01*
X211419000Y-96218700D02*
X210734800Y-95534500D01*
X216218500Y-96218700D02*
X211419000Y-96218700D01*
%TO.N,N*%
X206100000Y-95524000D02*
X206100000Y-96563200D01*
X206368200Y-96563200D02*
X206589400Y-96784400D01*
X206100000Y-96563200D02*
X206368200Y-96563200D01*
%TO.N,A*%
X180500000Y-116000000D02*
X181651700Y-116000000D01*
X201462000Y-101762000D02*
X200422800Y-101762000D01*
X196745000Y-105439800D02*
X200422800Y-101762000D01*
X196745000Y-107403200D02*
X196745000Y-105439800D01*
X195685800Y-108462400D02*
X196745000Y-107403200D01*
X188901400Y-108462400D02*
X195685800Y-108462400D01*
X181651700Y-115712100D02*
X188901400Y-108462400D01*
X181651700Y-116000000D02*
X181651700Y-115712100D01*
%TO.N,B*%
X190175900Y-108864100D02*
X183040000Y-116000000D01*
X195900700Y-108864100D02*
X190175900Y-108864100D01*
X197205100Y-107559700D02*
X195900700Y-108864100D01*
X197205100Y-105779700D02*
X197205100Y-107559700D01*
X200422800Y-102562000D02*
X197205100Y-105779700D01*
X201462000Y-102562000D02*
X200422800Y-102562000D01*
%TO.N,F*%
X205300000Y-103113900D02*
X204925900Y-102739800D01*
X205300000Y-104000000D02*
X205300000Y-103113900D01*
%TO.N,Net-(U1-EN)*%
X190460300Y-104833500D02*
X191313800Y-105687000D01*
X190460300Y-104400000D02*
X190460300Y-104833500D01*
X189669600Y-104400000D02*
X190460300Y-104400000D01*
X199577000Y-110528000D02*
X203105000Y-107000000D01*
X192351300Y-110528000D02*
X199577000Y-110528000D01*
X211266100Y-105497400D02*
X211434500Y-105665800D01*
X204607600Y-105497400D02*
X211266100Y-105497400D01*
X203105000Y-107000000D02*
X204607600Y-105497400D01*
X212153400Y-100451600D02*
X211434500Y-100451600D01*
X213000000Y-99605000D02*
X212153400Y-100451600D01*
%TO.N,Net-(CHG1-VBAT)*%
X211988300Y-82713400D02*
X211201700Y-83500000D01*
X211988300Y-82605000D02*
X211988300Y-82713400D01*
X209900000Y-83500000D02*
X211201700Y-83500000D01*
X213000000Y-82605000D02*
X212089200Y-82605000D01*
X212089200Y-82605000D02*
X211989800Y-82605000D01*
X211989800Y-82605000D02*
X211988300Y-82605000D01*
X187500000Y-102500000D02*
X187102800Y-102102800D01*
X189669600Y-102500000D02*
X187500000Y-102500000D01*
X191271600Y-95606900D02*
X190309500Y-95606900D01*
X190309500Y-97938800D02*
X190309500Y-95606900D01*
X190900000Y-98529300D02*
X190309500Y-97938800D01*
X190900000Y-100596200D02*
X190900000Y-98529300D01*
X189949700Y-101546500D02*
X190900000Y-100596200D01*
X187659100Y-101546500D02*
X189949700Y-101546500D01*
X187102800Y-102102800D02*
X187659100Y-101546500D01*
X211468000Y-82083200D02*
X211989800Y-82605000D01*
X205661800Y-82083200D02*
X211468000Y-82083200D01*
X202245000Y-78666400D02*
X205661800Y-82083200D01*
X194035300Y-78666400D02*
X202245000Y-78666400D01*
X189201700Y-83500000D02*
X194035300Y-78666400D01*
X186546500Y-101546500D02*
X187102800Y-102102800D01*
X188550900Y-83500000D02*
X189201700Y-83500000D01*
X188550900Y-83500000D02*
X187900000Y-83500000D01*
X187900000Y-83500000D02*
X186598300Y-83500000D01*
X186546500Y-101546500D02*
X185990200Y-100990200D01*
X185306600Y-84791700D02*
X186598300Y-83500000D01*
X185306600Y-97231000D02*
X185306600Y-84791700D01*
X186152800Y-98077200D02*
X185306600Y-97231000D01*
X186152800Y-100827600D02*
X186152800Y-98077200D01*
X185990200Y-100990200D02*
X186152800Y-100827600D01*
%TD*%
M02*
