%TF.GenerationSoftware,KiCad,Pcbnew,9.0.1*%
%TF.CreationDate,2025-06-24T23:42:48-07:00*%
%TF.ProjectId,Pogo_Breakout,506f676f-5f42-4726-9561-6b6f75742e6b,rev?*%
%TF.SameCoordinates,Original*%
%TF.FileFunction,Soldermask,Top*%
%TF.FilePolarity,Negative*%
%FSLAX46Y46*%
G04 Gerber Fmt 4.6, Leading zero omitted, Abs format (unit mm)*
G04 Created by KiCad (PCBNEW 9.0.1) date 2025-06-24 23:42:48*
%MOMM*%
%LPD*%
G01*
G04 APERTURE LIST*
%ADD10C,0.800000*%
%ADD11C,0.200000*%
%ADD12C,0.639335*%
%ADD13C,1.100000*%
G04 APERTURE END LIST*
D10*
X152400000Y-102000000D02*
G75*
G02*
X151600000Y-102000000I-400000J0D01*
G01*
X151600000Y-102000000D02*
G75*
G02*
X152400000Y-102000000I400000J0D01*
G01*
D11*
X152500000Y-101000000D02*
X153922386Y-101000000D01*
X153922386Y-103000000D01*
X152500000Y-103000000D01*
X152500000Y-101000000D01*
G36*
X152500000Y-101000000D02*
G01*
X153922386Y-101000000D01*
X153922386Y-103000000D01*
X152500000Y-103000000D01*
X152500000Y-101000000D01*
G37*
D12*
X152319667Y-108000000D02*
G75*
G02*
X151680333Y-108000000I-319667J0D01*
G01*
X151680333Y-108000000D02*
G75*
G02*
X152319667Y-108000000I319667J0D01*
G01*
D11*
X152500000Y-96077360D02*
X153925124Y-96077360D01*
X153925124Y-98000000D01*
X152500000Y-98000000D01*
X152500000Y-96077360D01*
G36*
X152500000Y-96077360D02*
G01*
X153925124Y-96077360D01*
X153925124Y-98000000D01*
X152500000Y-98000000D01*
X152500000Y-96077360D01*
G37*
D10*
X152400000Y-104500000D02*
G75*
G02*
X151600000Y-104500000I-400000J0D01*
G01*
X151600000Y-104500000D02*
G75*
G02*
X152400000Y-104500000I400000J0D01*
G01*
D13*
X152550000Y-99000000D02*
G75*
G02*
X151450000Y-99000000I-550000J0D01*
G01*
X151450000Y-99000000D02*
G75*
G02*
X152550000Y-99000000I550000J0D01*
G01*
D11*
X152500000Y-108300008D02*
X153921558Y-108300008D01*
X153921558Y-110300008D01*
X152500000Y-110300008D01*
X152500000Y-108300008D01*
G36*
X152500000Y-108300008D02*
G01*
X153921558Y-108300008D01*
X153921558Y-110300008D01*
X152500000Y-110300008D01*
X152500000Y-108300008D01*
G37*
X152500000Y-104818285D02*
X153922513Y-104818285D01*
X153922513Y-106318285D01*
X152500000Y-106318285D01*
X152500000Y-104818285D01*
G36*
X152500000Y-104818285D02*
G01*
X153922513Y-104818285D01*
X153922513Y-106318285D01*
X152500000Y-106318285D01*
X152500000Y-104818285D01*
G37*
M02*
