%TF.GenerationSoftware,KiCad,Pcbnew,9.0.1*%
%TF.CreationDate,2025-06-29T22:28:52-07:00*%
%TF.ProjectId,Complete,436f6d70-6c65-4746-952e-6b696361645f,rev?*%
%TF.SameCoordinates,Original*%
%TF.FileFunction,Paste,Bot*%
%TF.FilePolarity,Positive*%
%FSLAX46Y46*%
G04 Gerber Fmt 4.6, Leading zero omitted, Abs format (unit mm)*
G04 Created by KiCad (PCBNEW 9.0.1) date 2025-06-29 22:28:52*
%MOMM*%
%LPD*%
G01*
G04 APERTURE LIST*
G04 Aperture macros list*
%AMRoundRect*
0 Rectangle with rounded corners*
0 $1 Rounding radius*
0 $2 $3 $4 $5 $6 $7 $8 $9 X,Y pos of 4 corners*
0 Add a 4 corners polygon primitive as box body*
4,1,4,$2,$3,$4,$5,$6,$7,$8,$9,$2,$3,0*
0 Add four circle primitives for the rounded corners*
1,1,$1+$1,$2,$3*
1,1,$1+$1,$4,$5*
1,1,$1+$1,$6,$7*
1,1,$1+$1,$8,$9*
0 Add four rect primitives between the rounded corners*
20,1,$1+$1,$2,$3,$4,$5,0*
20,1,$1+$1,$4,$5,$6,$7,0*
20,1,$1+$1,$6,$7,$8,$9,0*
20,1,$1+$1,$8,$9,$2,$3,0*%
G04 Aperture macros list end*
%ADD10RoundRect,0.150000X-0.350000X0.802500X-0.350000X-0.802500X0.350000X-0.802500X0.350000X0.802500X0*%
%ADD11RoundRect,0.150000X-0.587500X-0.150000X0.587500X-0.150000X0.587500X0.150000X-0.587500X0.150000X0*%
%ADD12R,1.346200X0.400000*%
%ADD13R,0.400000X1.346200*%
%ADD14RoundRect,0.150000X-0.150000X-0.200000X0.150000X-0.200000X0.150000X0.200000X-0.150000X0.200000X0*%
%ADD15R,1.320800X0.558800*%
%ADD16RoundRect,0.150000X0.350000X0.850000X-0.350000X0.850000X-0.350000X-0.850000X0.350000X-0.850000X0*%
%ADD17RoundRect,0.144117X0.336272X0.855883X-0.336272X0.855883X-0.336272X-0.855883X0.336272X-0.855883X0*%
%ADD18R,0.890000X0.930000*%
%ADD19R,0.930000X0.890000*%
%ADD20R,0.900000X0.970000*%
%ADD21R,1.420000X1.080000*%
%ADD22RoundRect,0.082500X0.117500X-0.082500X0.117500X0.082500X-0.117500X0.082500X-0.117500X-0.082500X0*%
%ADD23RoundRect,0.095000X0.105000X-0.095000X0.105000X0.095000X-0.105000X0.095000X-0.105000X-0.095000X0*%
%ADD24R,0.970000X1.730000*%
%ADD25RoundRect,0.073750X0.911250X0.221250X-0.911250X0.221250X-0.911250X-0.221250X0.911250X-0.221250X0*%
%ADD26RoundRect,0.150000X-0.200000X0.150000X-0.200000X-0.150000X0.200000X-0.150000X0.200000X0.150000X0*%
%ADD27R,0.977900X0.508000*%
%ADD28RoundRect,0.082500X-0.082500X-0.117500X0.082500X-0.117500X0.082500X0.117500X-0.082500X0.117500X0*%
%ADD29RoundRect,0.095000X-0.095000X-0.105000X0.095000X-0.105000X0.095000X0.105000X-0.095000X0.105000X0*%
G04 APERTURE END LIST*
D10*
%TO.C,BB_B1*%
X213500000Y-87500000D03*
X213500000Y-83500000D03*
%TD*%
D11*
%TO.C,Q1*%
X226500000Y-102500000D03*
X226500000Y-100600000D03*
X228375001Y-101550000D03*
%TD*%
D12*
%TO.C,U2*%
X223247500Y-93046201D03*
X223247500Y-93696199D03*
X223247500Y-94346201D03*
X223247500Y-94996199D03*
X223247500Y-95646201D03*
X223247500Y-96296199D03*
X223247500Y-96946201D03*
X223247500Y-97596199D03*
D13*
X221344199Y-99499500D03*
X220694201Y-99499500D03*
X220044199Y-99499500D03*
X219394201Y-99499500D03*
X218744199Y-99499500D03*
X218094201Y-99499500D03*
X217444199Y-99499500D03*
X216794201Y-99499500D03*
D12*
X214890900Y-97596199D03*
X214890900Y-96946201D03*
X214890900Y-96296199D03*
X214890900Y-95646201D03*
X214890900Y-94996199D03*
X214890900Y-94346201D03*
X214890900Y-93696199D03*
X214890900Y-93046201D03*
D13*
X216794201Y-91142900D03*
X217444199Y-91142900D03*
X218094201Y-91142900D03*
X218744199Y-91142900D03*
X219394201Y-91142900D03*
X220044199Y-91142900D03*
X220694201Y-91142900D03*
X221344199Y-91142900D03*
%TD*%
D14*
%TO.C,DB2*%
X232700000Y-101500000D03*
X231300000Y-101500000D03*
%TD*%
D15*
%TO.C,CHG1*%
X236440800Y-90620400D03*
X236440800Y-91560200D03*
X236440800Y-92500000D03*
X233697600Y-92500000D03*
X233697600Y-90620400D03*
%TD*%
D16*
%TO.C,POGO1*%
X240500000Y-84500000D03*
X240500000Y-88000000D03*
X240500000Y-91500000D03*
D17*
X240480389Y-79294519D03*
%TD*%
D18*
%TO.C,R4*%
X234186000Y-99500000D03*
X235814000Y-99500000D03*
%TD*%
D19*
%TO.C,R3*%
X224000000Y-102000000D03*
X224000000Y-100372000D03*
%TD*%
%TO.C,R2*%
X212000000Y-93186000D03*
X212000000Y-94814000D03*
%TD*%
D20*
%TO.C,R6*%
X221760000Y-101500000D03*
X220240000Y-101500000D03*
%TD*%
D21*
%TO.C,C1*%
X211500000Y-79895001D03*
X211500000Y-78104999D03*
%TD*%
%TO.C,C2*%
X228500000Y-90604999D03*
X228500000Y-92395001D03*
%TD*%
D22*
%TO.C,R8*%
X226000000Y-92805001D03*
D23*
X226000000Y-92220000D03*
%TD*%
D24*
%TO.C,R5*%
X211020000Y-90500000D03*
X213980000Y-90500000D03*
%TD*%
D25*
%TO.C,U3*%
X230975000Y-94595000D03*
X230975000Y-95865000D03*
X230975000Y-97135000D03*
X230975000Y-98405000D03*
X226025000Y-98405000D03*
X226025000Y-97135000D03*
X226025000Y-95865000D03*
X226025000Y-94595000D03*
%TD*%
D26*
%TO.C,DB1*%
X238756800Y-95700000D03*
X238756800Y-94300000D03*
%TD*%
D27*
%TO.C,U1*%
X236500050Y-95049999D03*
X236500050Y-96000000D03*
X236500050Y-96950001D03*
X233769550Y-96950001D03*
X233769550Y-95049999D03*
%TD*%
D28*
%TO.C,R7*%
X224194999Y-91000000D03*
D29*
X224780000Y-91000000D03*
%TD*%
D19*
%TO.C,R1*%
X231000000Y-90686000D03*
X231000000Y-92314000D03*
%TD*%
M02*
