M48
; DRILL file {KiCad 9.0.1} date 2025-06-29T08:21:21-0700
; FORMAT={-:-/ absolute / metric / decimal}
; #@! TF.CreationDate,2025-06-29T08:21:21-07:00
; #@! TF.GenerationSoftware,Kicad,Pcbnew,9.0.1
; #@! TF.FileFunction,Plated,1,4,PTH
FMAT,2
METRIC
; #@! TA.AperFunction,Plated,PTH,ViaDrill
T1C0.300
%
G90
G05
T1
X210.802Y-85.712
X211.022Y-88.115
X212.91Y-92.133
X213.133Y-96.185
X213.232Y-80.059
X213.522Y-97.094
X214.587Y-98.583
X214.755Y-92.314
X214.804Y-84.852
X215.0Y-80.452
X215.116Y-88.447
X215.189Y-90.006
X215.239Y-82.04
X215.839Y-99.095
X216.744Y-86.251
X216.773Y-78.792
X216.927Y-96.262
X216.997Y-92.604
X217.002Y-82.599
X217.025Y-94.556
X217.228Y-80.506
X217.243Y-88.157
X217.249Y-73.054
X217.256Y-97.637
X217.879Y-100.809
X218.744Y-90.026
X218.897Y-86.131
X218.913Y-88.201
X219.112Y-76.065
X219.228Y-94.951
X219.232Y-97.813
X219.242Y-79.024
X219.246Y-96.589
X219.434Y-100.737
X220.771Y-83.096
X220.773Y-70.063
X220.829Y-85.08
X221.005Y-97.695
X221.034Y-96.381
X221.042Y-88.077
X221.117Y-94.531
X221.2Y-89.204
X221.688Y-102.477
X222.684Y-101.046
X222.723Y-85.487
X222.753Y-90.791
X222.894Y-70.967
X223.243Y-98.386
X223.255Y-88.448
X224.704Y-93.474
X224.766Y-91.969
X224.888Y-88.431
X224.895Y-73.257
X224.983Y-100.891
X225.007Y-70.95
X225.052Y-71.95
X225.128Y-85.956
X225.205Y-99.413
X226.846Y-85.853
X226.873Y-87.287
X226.909Y-93.856
X226.924Y-88.374
X226.978Y-92.956
X227.23Y-90.05
X227.247Y-91.721
X228.142Y-102.893
X228.704Y-102.33
X228.754Y-87.989
X228.774Y-97.901
X228.963Y-93.706
X229.002Y-100.785
X229.24Y-73.801
X230.544Y-101.5
X230.824Y-73.259
X231.17Y-75.14
X231.229Y-85.317
X231.232Y-88.96
X232.768Y-82.95
X232.842Y-97.615
X232.844Y-82.061
X232.919Y-79.59
X233.229Y-96.09
X234.756Y-93.192
X234.792Y-82.044
X234.853Y-91.52
X234.947Y-94.05
X235.045Y-78.95
X235.204Y-84.878
X235.208Y-89.028
X235.241Y-89.813
X236.772Y-88.202
X238.759Y-85.946
X238.941Y-93.192
X238.948Y-90.271
X239.115Y-81.555
X239.215Y-80.809
X240.349Y-95.151
M30
