%TF.GenerationSoftware,KiCad,Pcbnew,9.0.1*%
%TF.CreationDate,2025-06-29T08:21:18-07:00*%
%TF.ProjectId,Complete_Watch,436f6d70-6c65-4746-955f-57617463682e,rev?*%
%TF.SameCoordinates,Original*%
%TF.FileFunction,Legend,Bot*%
%TF.FilePolarity,Positive*%
%FSLAX46Y46*%
G04 Gerber Fmt 4.6, Leading zero omitted, Abs format (unit mm)*
G04 Created by KiCad (PCBNEW 9.0.1) date 2025-06-29 08:21:18*
%MOMM*%
%LPD*%
G01*
G04 APERTURE LIST*
%ADD10C,0.100000*%
%ADD11C,0.150000*%
%ADD12C,0.098425*%
%ADD13C,0.050000*%
%ADD14C,0.152400*%
%ADD15C,0.000000*%
%ADD16C,0.120000*%
%ADD17C,0.127000*%
%ADD18C,0.200000*%
G04 APERTURE END LIST*
D10*
X215448434Y-84418577D02*
X222067634Y-89460877D01*
X236567634Y-84418577D02*
X230067634Y-89418577D01*
D11*
X219761904Y-96454819D02*
X219761904Y-97264342D01*
X219761904Y-97264342D02*
X219714285Y-97359580D01*
X219714285Y-97359580D02*
X219666666Y-97407200D01*
X219666666Y-97407200D02*
X219571428Y-97454819D01*
X219571428Y-97454819D02*
X219380952Y-97454819D01*
X219380952Y-97454819D02*
X219285714Y-97407200D01*
X219285714Y-97407200D02*
X219238095Y-97359580D01*
X219238095Y-97359580D02*
X219190476Y-97264342D01*
X219190476Y-97264342D02*
X219190476Y-96454819D01*
X218761904Y-96550057D02*
X218714285Y-96502438D01*
X218714285Y-96502438D02*
X218619047Y-96454819D01*
X218619047Y-96454819D02*
X218380952Y-96454819D01*
X218380952Y-96454819D02*
X218285714Y-96502438D01*
X218285714Y-96502438D02*
X218238095Y-96550057D01*
X218238095Y-96550057D02*
X218190476Y-96645295D01*
X218190476Y-96645295D02*
X218190476Y-96740533D01*
X218190476Y-96740533D02*
X218238095Y-96883390D01*
X218238095Y-96883390D02*
X218809523Y-97454819D01*
X218809523Y-97454819D02*
X218190476Y-97454819D01*
X223499999Y-90954819D02*
X223499999Y-91192914D01*
X223738094Y-91097676D02*
X223499999Y-91192914D01*
X223499999Y-91192914D02*
X223261904Y-91097676D01*
X223642856Y-91383390D02*
X223499999Y-91192914D01*
X223499999Y-91192914D02*
X223357142Y-91383390D01*
X224555599Y-91795019D02*
X224555599Y-92033114D01*
X224793694Y-91937876D02*
X224555599Y-92033114D01*
X224555599Y-92033114D02*
X224317504Y-91937876D01*
X224698456Y-92223590D02*
X224555599Y-92033114D01*
X224555599Y-92033114D02*
X224412742Y-92223590D01*
D10*
X210933608Y-83714285D02*
X210981227Y-83857142D01*
X210981227Y-83857142D02*
X211028846Y-83904761D01*
X211028846Y-83904761D02*
X211124084Y-83952380D01*
X211124084Y-83952380D02*
X211266941Y-83952380D01*
X211266941Y-83952380D02*
X211362179Y-83904761D01*
X211362179Y-83904761D02*
X211409799Y-83857142D01*
X211409799Y-83857142D02*
X211457418Y-83761904D01*
X211457418Y-83761904D02*
X211457418Y-83380952D01*
X211457418Y-83380952D02*
X210457418Y-83380952D01*
X210457418Y-83380952D02*
X210457418Y-83714285D01*
X210457418Y-83714285D02*
X210505037Y-83809523D01*
X210505037Y-83809523D02*
X210552656Y-83857142D01*
X210552656Y-83857142D02*
X210647894Y-83904761D01*
X210647894Y-83904761D02*
X210743132Y-83904761D01*
X210743132Y-83904761D02*
X210838370Y-83857142D01*
X210838370Y-83857142D02*
X210885989Y-83809523D01*
X210885989Y-83809523D02*
X210933608Y-83714285D01*
X210933608Y-83714285D02*
X210933608Y-83380952D01*
X210933608Y-84714285D02*
X210981227Y-84857142D01*
X210981227Y-84857142D02*
X211028846Y-84904761D01*
X211028846Y-84904761D02*
X211124084Y-84952380D01*
X211124084Y-84952380D02*
X211266941Y-84952380D01*
X211266941Y-84952380D02*
X211362179Y-84904761D01*
X211362179Y-84904761D02*
X211409799Y-84857142D01*
X211409799Y-84857142D02*
X211457418Y-84761904D01*
X211457418Y-84761904D02*
X211457418Y-84380952D01*
X211457418Y-84380952D02*
X210457418Y-84380952D01*
X210457418Y-84380952D02*
X210457418Y-84714285D01*
X210457418Y-84714285D02*
X210505037Y-84809523D01*
X210505037Y-84809523D02*
X210552656Y-84857142D01*
X210552656Y-84857142D02*
X210647894Y-84904761D01*
X210647894Y-84904761D02*
X210743132Y-84904761D01*
X210743132Y-84904761D02*
X210838370Y-84857142D01*
X210838370Y-84857142D02*
X210885989Y-84809523D01*
X210885989Y-84809523D02*
X210933608Y-84714285D01*
X210933608Y-84714285D02*
X210933608Y-84380952D01*
X211552656Y-85142857D02*
X211552656Y-85904761D01*
X210933608Y-86476190D02*
X210981227Y-86619047D01*
X210981227Y-86619047D02*
X211028846Y-86666666D01*
X211028846Y-86666666D02*
X211124084Y-86714285D01*
X211124084Y-86714285D02*
X211266941Y-86714285D01*
X211266941Y-86714285D02*
X211362179Y-86666666D01*
X211362179Y-86666666D02*
X211409799Y-86619047D01*
X211409799Y-86619047D02*
X211457418Y-86523809D01*
X211457418Y-86523809D02*
X211457418Y-86142857D01*
X211457418Y-86142857D02*
X210457418Y-86142857D01*
X210457418Y-86142857D02*
X210457418Y-86476190D01*
X210457418Y-86476190D02*
X210505037Y-86571428D01*
X210505037Y-86571428D02*
X210552656Y-86619047D01*
X210552656Y-86619047D02*
X210647894Y-86666666D01*
X210647894Y-86666666D02*
X210743132Y-86666666D01*
X210743132Y-86666666D02*
X210838370Y-86619047D01*
X210838370Y-86619047D02*
X210885989Y-86571428D01*
X210885989Y-86571428D02*
X210933608Y-86476190D01*
X210933608Y-86476190D02*
X210933608Y-86142857D01*
X211457418Y-87666666D02*
X211457418Y-87095238D01*
X211457418Y-87380952D02*
X210457418Y-87380952D01*
X210457418Y-87380952D02*
X210600275Y-87285714D01*
X210600275Y-87285714D02*
X210695513Y-87190476D01*
X210695513Y-87190476D02*
X210743132Y-87095238D01*
D11*
X227532738Y-102100057D02*
X227627976Y-102052438D01*
X227627976Y-102052438D02*
X227723214Y-101957200D01*
X227723214Y-101957200D02*
X227866071Y-101814342D01*
X227866071Y-101814342D02*
X227961309Y-101766723D01*
X227961309Y-101766723D02*
X228056547Y-101766723D01*
X228008928Y-102004819D02*
X228104166Y-101957200D01*
X228104166Y-101957200D02*
X228199404Y-101861961D01*
X228199404Y-101861961D02*
X228247023Y-101671485D01*
X228247023Y-101671485D02*
X228247023Y-101338152D01*
X228247023Y-101338152D02*
X228199404Y-101147676D01*
X228199404Y-101147676D02*
X228104166Y-101052438D01*
X228104166Y-101052438D02*
X228008928Y-101004819D01*
X228008928Y-101004819D02*
X227818452Y-101004819D01*
X227818452Y-101004819D02*
X227723214Y-101052438D01*
X227723214Y-101052438D02*
X227627976Y-101147676D01*
X227627976Y-101147676D02*
X227580357Y-101338152D01*
X227580357Y-101338152D02*
X227580357Y-101671485D01*
X227580357Y-101671485D02*
X227627976Y-101861961D01*
X227627976Y-101861961D02*
X227723214Y-101957200D01*
X227723214Y-101957200D02*
X227818452Y-102004819D01*
X227818452Y-102004819D02*
X228008928Y-102004819D01*
X226627976Y-102004819D02*
X227199404Y-102004819D01*
X226913690Y-102004819D02*
X226913690Y-101004819D01*
X226913690Y-101004819D02*
X227008928Y-101147676D01*
X227008928Y-101147676D02*
X227104166Y-101242914D01*
X227104166Y-101242914D02*
X227199404Y-101290533D01*
X231990475Y-102862295D02*
X231990475Y-102062295D01*
X231990475Y-102062295D02*
X231799999Y-102062295D01*
X231799999Y-102062295D02*
X231685713Y-102100390D01*
X231685713Y-102100390D02*
X231609523Y-102176580D01*
X231609523Y-102176580D02*
X231571428Y-102252771D01*
X231571428Y-102252771D02*
X231533332Y-102405152D01*
X231533332Y-102405152D02*
X231533332Y-102519438D01*
X231533332Y-102519438D02*
X231571428Y-102671819D01*
X231571428Y-102671819D02*
X231609523Y-102748009D01*
X231609523Y-102748009D02*
X231685713Y-102824200D01*
X231685713Y-102824200D02*
X231799999Y-102862295D01*
X231799999Y-102862295D02*
X231990475Y-102862295D01*
X230923809Y-102443247D02*
X230809523Y-102481342D01*
X230809523Y-102481342D02*
X230771428Y-102519438D01*
X230771428Y-102519438D02*
X230733332Y-102595628D01*
X230733332Y-102595628D02*
X230733332Y-102709914D01*
X230733332Y-102709914D02*
X230771428Y-102786104D01*
X230771428Y-102786104D02*
X230809523Y-102824200D01*
X230809523Y-102824200D02*
X230885713Y-102862295D01*
X230885713Y-102862295D02*
X231190475Y-102862295D01*
X231190475Y-102862295D02*
X231190475Y-102062295D01*
X231190475Y-102062295D02*
X230923809Y-102062295D01*
X230923809Y-102062295D02*
X230847618Y-102100390D01*
X230847618Y-102100390D02*
X230809523Y-102138485D01*
X230809523Y-102138485D02*
X230771428Y-102214676D01*
X230771428Y-102214676D02*
X230771428Y-102290866D01*
X230771428Y-102290866D02*
X230809523Y-102367057D01*
X230809523Y-102367057D02*
X230847618Y-102405152D01*
X230847618Y-102405152D02*
X230923809Y-102443247D01*
X230923809Y-102443247D02*
X231190475Y-102443247D01*
X230428571Y-102138485D02*
X230390475Y-102100390D01*
X230390475Y-102100390D02*
X230314285Y-102062295D01*
X230314285Y-102062295D02*
X230123809Y-102062295D01*
X230123809Y-102062295D02*
X230047618Y-102100390D01*
X230047618Y-102100390D02*
X230009523Y-102138485D01*
X230009523Y-102138485D02*
X229971428Y-102214676D01*
X229971428Y-102214676D02*
X229971428Y-102290866D01*
X229971428Y-102290866D02*
X230009523Y-102405152D01*
X230009523Y-102405152D02*
X230466666Y-102862295D01*
X230466666Y-102862295D02*
X229971428Y-102862295D01*
X235355304Y-90607819D02*
X235393400Y-90569723D01*
X235393400Y-90569723D02*
X235431495Y-90455438D01*
X235431495Y-90455438D02*
X235431495Y-90379247D01*
X235431495Y-90379247D02*
X235393400Y-90264961D01*
X235393400Y-90264961D02*
X235317209Y-90188771D01*
X235317209Y-90188771D02*
X235241019Y-90150676D01*
X235241019Y-90150676D02*
X235088638Y-90112580D01*
X235088638Y-90112580D02*
X234974352Y-90112580D01*
X234974352Y-90112580D02*
X234821971Y-90150676D01*
X234821971Y-90150676D02*
X234745780Y-90188771D01*
X234745780Y-90188771D02*
X234669590Y-90264961D01*
X234669590Y-90264961D02*
X234631495Y-90379247D01*
X234631495Y-90379247D02*
X234631495Y-90455438D01*
X234631495Y-90455438D02*
X234669590Y-90569723D01*
X234669590Y-90569723D02*
X234707685Y-90607819D01*
X235431495Y-90950676D02*
X234631495Y-90950676D01*
X235012447Y-90950676D02*
X235012447Y-91407819D01*
X235431495Y-91407819D02*
X234631495Y-91407819D01*
X234669590Y-92207818D02*
X234631495Y-92131628D01*
X234631495Y-92131628D02*
X234631495Y-92017342D01*
X234631495Y-92017342D02*
X234669590Y-91903056D01*
X234669590Y-91903056D02*
X234745780Y-91826866D01*
X234745780Y-91826866D02*
X234821971Y-91788771D01*
X234821971Y-91788771D02*
X234974352Y-91750675D01*
X234974352Y-91750675D02*
X235088638Y-91750675D01*
X235088638Y-91750675D02*
X235241019Y-91788771D01*
X235241019Y-91788771D02*
X235317209Y-91826866D01*
X235317209Y-91826866D02*
X235393400Y-91903056D01*
X235393400Y-91903056D02*
X235431495Y-92017342D01*
X235431495Y-92017342D02*
X235431495Y-92093533D01*
X235431495Y-92093533D02*
X235393400Y-92207818D01*
X235393400Y-92207818D02*
X235355304Y-92245914D01*
X235355304Y-92245914D02*
X235088638Y-92245914D01*
X235088638Y-92245914D02*
X235088638Y-92093533D01*
X235431495Y-93007818D02*
X235431495Y-92550675D01*
X235431495Y-92779247D02*
X234631495Y-92779247D01*
X234631495Y-92779247D02*
X234745780Y-92703056D01*
X234745780Y-92703056D02*
X234821971Y-92626866D01*
X234821971Y-92626866D02*
X234860066Y-92550675D01*
D10*
X240542580Y-88035713D02*
X241542580Y-88035713D01*
X241542580Y-88035713D02*
X241542580Y-87654761D01*
X241542580Y-87654761D02*
X241494961Y-87559523D01*
X241494961Y-87559523D02*
X241447342Y-87511904D01*
X241447342Y-87511904D02*
X241352104Y-87464285D01*
X241352104Y-87464285D02*
X241209247Y-87464285D01*
X241209247Y-87464285D02*
X241114009Y-87511904D01*
X241114009Y-87511904D02*
X241066390Y-87559523D01*
X241066390Y-87559523D02*
X241018771Y-87654761D01*
X241018771Y-87654761D02*
X241018771Y-88035713D01*
X241542580Y-86845237D02*
X241542580Y-86654761D01*
X241542580Y-86654761D02*
X241494961Y-86559523D01*
X241494961Y-86559523D02*
X241399723Y-86464285D01*
X241399723Y-86464285D02*
X241209247Y-86416666D01*
X241209247Y-86416666D02*
X240875914Y-86416666D01*
X240875914Y-86416666D02*
X240685438Y-86464285D01*
X240685438Y-86464285D02*
X240590200Y-86559523D01*
X240590200Y-86559523D02*
X240542580Y-86654761D01*
X240542580Y-86654761D02*
X240542580Y-86845237D01*
X240542580Y-86845237D02*
X240590200Y-86940475D01*
X240590200Y-86940475D02*
X240685438Y-87035713D01*
X240685438Y-87035713D02*
X240875914Y-87083332D01*
X240875914Y-87083332D02*
X241209247Y-87083332D01*
X241209247Y-87083332D02*
X241399723Y-87035713D01*
X241399723Y-87035713D02*
X241494961Y-86940475D01*
X241494961Y-86940475D02*
X241542580Y-86845237D01*
X241494961Y-85464285D02*
X241542580Y-85559523D01*
X241542580Y-85559523D02*
X241542580Y-85702380D01*
X241542580Y-85702380D02*
X241494961Y-85845237D01*
X241494961Y-85845237D02*
X241399723Y-85940475D01*
X241399723Y-85940475D02*
X241304485Y-85988094D01*
X241304485Y-85988094D02*
X241114009Y-86035713D01*
X241114009Y-86035713D02*
X240971152Y-86035713D01*
X240971152Y-86035713D02*
X240780676Y-85988094D01*
X240780676Y-85988094D02*
X240685438Y-85940475D01*
X240685438Y-85940475D02*
X240590200Y-85845237D01*
X240590200Y-85845237D02*
X240542580Y-85702380D01*
X240542580Y-85702380D02*
X240542580Y-85607142D01*
X240542580Y-85607142D02*
X240590200Y-85464285D01*
X240590200Y-85464285D02*
X240637819Y-85416666D01*
X240637819Y-85416666D02*
X240971152Y-85416666D01*
X240971152Y-85416666D02*
X240971152Y-85607142D01*
X241542580Y-84797618D02*
X241542580Y-84607142D01*
X241542580Y-84607142D02*
X241494961Y-84511904D01*
X241494961Y-84511904D02*
X241399723Y-84416666D01*
X241399723Y-84416666D02*
X241209247Y-84369047D01*
X241209247Y-84369047D02*
X240875914Y-84369047D01*
X240875914Y-84369047D02*
X240685438Y-84416666D01*
X240685438Y-84416666D02*
X240590200Y-84511904D01*
X240590200Y-84511904D02*
X240542580Y-84607142D01*
X240542580Y-84607142D02*
X240542580Y-84797618D01*
X240542580Y-84797618D02*
X240590200Y-84892856D01*
X240590200Y-84892856D02*
X240685438Y-84988094D01*
X240685438Y-84988094D02*
X240875914Y-85035713D01*
X240875914Y-85035713D02*
X241209247Y-85035713D01*
X241209247Y-85035713D02*
X241399723Y-84988094D01*
X241399723Y-84988094D02*
X241494961Y-84892856D01*
X241494961Y-84892856D02*
X241542580Y-84797618D01*
X240542580Y-83416666D02*
X240542580Y-83988094D01*
X240542580Y-83702380D02*
X241542580Y-83702380D01*
X241542580Y-83702380D02*
X241399723Y-83797618D01*
X241399723Y-83797618D02*
X241304485Y-83892856D01*
X241304485Y-83892856D02*
X241256866Y-83988094D01*
D12*
X234805616Y-100727014D02*
X234936850Y-100539538D01*
X235030588Y-100727014D02*
X235030588Y-100333313D01*
X235030588Y-100333313D02*
X234880607Y-100333313D01*
X234880607Y-100333313D02*
X234843112Y-100352061D01*
X234843112Y-100352061D02*
X234824364Y-100370809D01*
X234824364Y-100370809D02*
X234805616Y-100408304D01*
X234805616Y-100408304D02*
X234805616Y-100464547D01*
X234805616Y-100464547D02*
X234824364Y-100502042D01*
X234824364Y-100502042D02*
X234843112Y-100520790D01*
X234843112Y-100520790D02*
X234880607Y-100539538D01*
X234880607Y-100539538D02*
X235030588Y-100539538D01*
X234468158Y-100464547D02*
X234468158Y-100727014D01*
X234561897Y-100314566D02*
X234655635Y-100595781D01*
X234655635Y-100595781D02*
X234411915Y-100595781D01*
D11*
X227100000Y-71369068D02*
X226900000Y-71435735D01*
X226900000Y-71435735D02*
X226833333Y-71502401D01*
X226833333Y-71502401D02*
X226766666Y-71635735D01*
X226766666Y-71635735D02*
X226766666Y-71835735D01*
X226766666Y-71835735D02*
X226833333Y-71969068D01*
X226833333Y-71969068D02*
X226900000Y-72035735D01*
X226900000Y-72035735D02*
X227033333Y-72102401D01*
X227033333Y-72102401D02*
X227566666Y-72102401D01*
X227566666Y-72102401D02*
X227566666Y-70702401D01*
X227566666Y-70702401D02*
X227100000Y-70702401D01*
X227100000Y-70702401D02*
X226966666Y-70769068D01*
X226966666Y-70769068D02*
X226900000Y-70835735D01*
X226900000Y-70835735D02*
X226833333Y-70969068D01*
X226833333Y-70969068D02*
X226833333Y-71102401D01*
X226833333Y-71102401D02*
X226900000Y-71235735D01*
X226900000Y-71235735D02*
X226966666Y-71302401D01*
X226966666Y-71302401D02*
X227100000Y-71369068D01*
X227100000Y-71369068D02*
X227566666Y-71369068D01*
X226366666Y-70702401D02*
X225566666Y-70702401D01*
X225966666Y-72102401D02*
X225966666Y-70702401D01*
X224366666Y-72102401D02*
X225166666Y-72102401D01*
X224766666Y-72102401D02*
X224766666Y-70702401D01*
X224766666Y-70702401D02*
X224899999Y-70902401D01*
X224899999Y-70902401D02*
X225033333Y-71035735D01*
X225033333Y-71035735D02*
X225166666Y-71102401D01*
D12*
X225227014Y-101380383D02*
X225039538Y-101249149D01*
X225227014Y-101155411D02*
X224833313Y-101155411D01*
X224833313Y-101155411D02*
X224833313Y-101305392D01*
X224833313Y-101305392D02*
X224852061Y-101342888D01*
X224852061Y-101342888D02*
X224870809Y-101361635D01*
X224870809Y-101361635D02*
X224908304Y-101380383D01*
X224908304Y-101380383D02*
X224964547Y-101380383D01*
X224964547Y-101380383D02*
X225002042Y-101361635D01*
X225002042Y-101361635D02*
X225020790Y-101342888D01*
X225020790Y-101342888D02*
X225039538Y-101305392D01*
X225039538Y-101305392D02*
X225039538Y-101155411D01*
X224833313Y-101511617D02*
X224833313Y-101755336D01*
X224833313Y-101755336D02*
X224983295Y-101624103D01*
X224983295Y-101624103D02*
X224983295Y-101680346D01*
X224983295Y-101680346D02*
X225002042Y-101717841D01*
X225002042Y-101717841D02*
X225020790Y-101736589D01*
X225020790Y-101736589D02*
X225058285Y-101755336D01*
X225058285Y-101755336D02*
X225152024Y-101755336D01*
X225152024Y-101755336D02*
X225189519Y-101736589D01*
X225189519Y-101736589D02*
X225208267Y-101717841D01*
X225208267Y-101717841D02*
X225227014Y-101680346D01*
X225227014Y-101680346D02*
X225227014Y-101567860D01*
X225227014Y-101567860D02*
X225208267Y-101530364D01*
X225208267Y-101530364D02*
X225189519Y-101511617D01*
X211177014Y-93674383D02*
X210989538Y-93543149D01*
X211177014Y-93449411D02*
X210783313Y-93449411D01*
X210783313Y-93449411D02*
X210783313Y-93599392D01*
X210783313Y-93599392D02*
X210802061Y-93636888D01*
X210802061Y-93636888D02*
X210820809Y-93655635D01*
X210820809Y-93655635D02*
X210858304Y-93674383D01*
X210858304Y-93674383D02*
X210914547Y-93674383D01*
X210914547Y-93674383D02*
X210952042Y-93655635D01*
X210952042Y-93655635D02*
X210970790Y-93636888D01*
X210970790Y-93636888D02*
X210989538Y-93599392D01*
X210989538Y-93599392D02*
X210989538Y-93449411D01*
X210820809Y-93824364D02*
X210802061Y-93843112D01*
X210802061Y-93843112D02*
X210783313Y-93880607D01*
X210783313Y-93880607D02*
X210783313Y-93974346D01*
X210783313Y-93974346D02*
X210802061Y-94011841D01*
X210802061Y-94011841D02*
X210820809Y-94030589D01*
X210820809Y-94030589D02*
X210858304Y-94049336D01*
X210858304Y-94049336D02*
X210895799Y-94049336D01*
X210895799Y-94049336D02*
X210952042Y-94030589D01*
X210952042Y-94030589D02*
X211177014Y-93805617D01*
X211177014Y-93805617D02*
X211177014Y-94049336D01*
X221275616Y-100607014D02*
X221406850Y-100419538D01*
X221500588Y-100607014D02*
X221500588Y-100213313D01*
X221500588Y-100213313D02*
X221350607Y-100213313D01*
X221350607Y-100213313D02*
X221313112Y-100232061D01*
X221313112Y-100232061D02*
X221294364Y-100250809D01*
X221294364Y-100250809D02*
X221275616Y-100288304D01*
X221275616Y-100288304D02*
X221275616Y-100344547D01*
X221275616Y-100344547D02*
X221294364Y-100382042D01*
X221294364Y-100382042D02*
X221313112Y-100400790D01*
X221313112Y-100400790D02*
X221350607Y-100419538D01*
X221350607Y-100419538D02*
X221500588Y-100419538D01*
X220938158Y-100213313D02*
X221013149Y-100213313D01*
X221013149Y-100213313D02*
X221050644Y-100232061D01*
X221050644Y-100232061D02*
X221069392Y-100250809D01*
X221069392Y-100250809D02*
X221106887Y-100307052D01*
X221106887Y-100307052D02*
X221125635Y-100382042D01*
X221125635Y-100382042D02*
X221125635Y-100532024D01*
X221125635Y-100532024D02*
X221106887Y-100569519D01*
X221106887Y-100569519D02*
X221088140Y-100588267D01*
X221088140Y-100588267D02*
X221050644Y-100607014D01*
X221050644Y-100607014D02*
X220975654Y-100607014D01*
X220975654Y-100607014D02*
X220938158Y-100588267D01*
X220938158Y-100588267D02*
X220919411Y-100569519D01*
X220919411Y-100569519D02*
X220900663Y-100532024D01*
X220900663Y-100532024D02*
X220900663Y-100438285D01*
X220900663Y-100438285D02*
X220919411Y-100400790D01*
X220919411Y-100400790D02*
X220938158Y-100382042D01*
X220938158Y-100382042D02*
X220975654Y-100363295D01*
X220975654Y-100363295D02*
X221050644Y-100363295D01*
X221050644Y-100363295D02*
X221088140Y-100382042D01*
X221088140Y-100382042D02*
X221106887Y-100400790D01*
X221106887Y-100400790D02*
X221125635Y-100438285D01*
X212939519Y-79374383D02*
X212958267Y-79355635D01*
X212958267Y-79355635D02*
X212977014Y-79299392D01*
X212977014Y-79299392D02*
X212977014Y-79261897D01*
X212977014Y-79261897D02*
X212958267Y-79205654D01*
X212958267Y-79205654D02*
X212920771Y-79168159D01*
X212920771Y-79168159D02*
X212883276Y-79149411D01*
X212883276Y-79149411D02*
X212808285Y-79130663D01*
X212808285Y-79130663D02*
X212752042Y-79130663D01*
X212752042Y-79130663D02*
X212677052Y-79149411D01*
X212677052Y-79149411D02*
X212639556Y-79168159D01*
X212639556Y-79168159D02*
X212602061Y-79205654D01*
X212602061Y-79205654D02*
X212583313Y-79261897D01*
X212583313Y-79261897D02*
X212583313Y-79299392D01*
X212583313Y-79299392D02*
X212602061Y-79355635D01*
X212602061Y-79355635D02*
X212620809Y-79374383D01*
X212977014Y-79749336D02*
X212977014Y-79524364D01*
X212977014Y-79636850D02*
X212583313Y-79636850D01*
X212583313Y-79636850D02*
X212639556Y-79599355D01*
X212639556Y-79599355D02*
X212677052Y-79561860D01*
X212677052Y-79561860D02*
X212695799Y-79524364D01*
X227339519Y-90994383D02*
X227358267Y-90975635D01*
X227358267Y-90975635D02*
X227377014Y-90919392D01*
X227377014Y-90919392D02*
X227377014Y-90881897D01*
X227377014Y-90881897D02*
X227358267Y-90825654D01*
X227358267Y-90825654D02*
X227320771Y-90788159D01*
X227320771Y-90788159D02*
X227283276Y-90769411D01*
X227283276Y-90769411D02*
X227208285Y-90750663D01*
X227208285Y-90750663D02*
X227152042Y-90750663D01*
X227152042Y-90750663D02*
X227077052Y-90769411D01*
X227077052Y-90769411D02*
X227039556Y-90788159D01*
X227039556Y-90788159D02*
X227002061Y-90825654D01*
X227002061Y-90825654D02*
X226983313Y-90881897D01*
X226983313Y-90881897D02*
X226983313Y-90919392D01*
X226983313Y-90919392D02*
X227002061Y-90975635D01*
X227002061Y-90975635D02*
X227020809Y-90994383D01*
X227020809Y-91144364D02*
X227002061Y-91163112D01*
X227002061Y-91163112D02*
X226983313Y-91200607D01*
X226983313Y-91200607D02*
X226983313Y-91294346D01*
X226983313Y-91294346D02*
X227002061Y-91331841D01*
X227002061Y-91331841D02*
X227020809Y-91350589D01*
X227020809Y-91350589D02*
X227058304Y-91369336D01*
X227058304Y-91369336D02*
X227095799Y-91369336D01*
X227095799Y-91369336D02*
X227152042Y-91350589D01*
X227152042Y-91350589D02*
X227377014Y-91125617D01*
X227377014Y-91125617D02*
X227377014Y-91369336D01*
D13*
X226943923Y-92531666D02*
X226848685Y-92465000D01*
X226943923Y-92417381D02*
X226743923Y-92417381D01*
X226743923Y-92417381D02*
X226743923Y-92493571D01*
X226743923Y-92493571D02*
X226753447Y-92512619D01*
X226753447Y-92512619D02*
X226762971Y-92522142D01*
X226762971Y-92522142D02*
X226782019Y-92531666D01*
X226782019Y-92531666D02*
X226810590Y-92531666D01*
X226810590Y-92531666D02*
X226829638Y-92522142D01*
X226829638Y-92522142D02*
X226839161Y-92512619D01*
X226839161Y-92512619D02*
X226848685Y-92493571D01*
X226848685Y-92493571D02*
X226848685Y-92417381D01*
X226829638Y-92645952D02*
X226820114Y-92626904D01*
X226820114Y-92626904D02*
X226810590Y-92617381D01*
X226810590Y-92617381D02*
X226791542Y-92607857D01*
X226791542Y-92607857D02*
X226782019Y-92607857D01*
X226782019Y-92607857D02*
X226762971Y-92617381D01*
X226762971Y-92617381D02*
X226753447Y-92626904D01*
X226753447Y-92626904D02*
X226743923Y-92645952D01*
X226743923Y-92645952D02*
X226743923Y-92684047D01*
X226743923Y-92684047D02*
X226753447Y-92703095D01*
X226753447Y-92703095D02*
X226762971Y-92712619D01*
X226762971Y-92712619D02*
X226782019Y-92722142D01*
X226782019Y-92722142D02*
X226791542Y-92722142D01*
X226791542Y-92722142D02*
X226810590Y-92712619D01*
X226810590Y-92712619D02*
X226820114Y-92703095D01*
X226820114Y-92703095D02*
X226829638Y-92684047D01*
X226829638Y-92684047D02*
X226829638Y-92645952D01*
X226829638Y-92645952D02*
X226839161Y-92626904D01*
X226839161Y-92626904D02*
X226848685Y-92617381D01*
X226848685Y-92617381D02*
X226867733Y-92607857D01*
X226867733Y-92607857D02*
X226905828Y-92607857D01*
X226905828Y-92607857D02*
X226924876Y-92617381D01*
X226924876Y-92617381D02*
X226934400Y-92626904D01*
X226934400Y-92626904D02*
X226943923Y-92645952D01*
X226943923Y-92645952D02*
X226943923Y-92684047D01*
X226943923Y-92684047D02*
X226934400Y-92703095D01*
X226934400Y-92703095D02*
X226924876Y-92712619D01*
X226924876Y-92712619D02*
X226905828Y-92722142D01*
X226905828Y-92722142D02*
X226867733Y-92722142D01*
X226867733Y-92722142D02*
X226848685Y-92712619D01*
X226848685Y-92712619D02*
X226839161Y-92703095D01*
X226839161Y-92703095D02*
X226829638Y-92684047D01*
D12*
X211605616Y-92127014D02*
X211736850Y-91939538D01*
X211830588Y-92127014D02*
X211830588Y-91733313D01*
X211830588Y-91733313D02*
X211680607Y-91733313D01*
X211680607Y-91733313D02*
X211643112Y-91752061D01*
X211643112Y-91752061D02*
X211624364Y-91770809D01*
X211624364Y-91770809D02*
X211605616Y-91808304D01*
X211605616Y-91808304D02*
X211605616Y-91864547D01*
X211605616Y-91864547D02*
X211624364Y-91902042D01*
X211624364Y-91902042D02*
X211643112Y-91920790D01*
X211643112Y-91920790D02*
X211680607Y-91939538D01*
X211680607Y-91939538D02*
X211830588Y-91939538D01*
X211249411Y-91733313D02*
X211436887Y-91733313D01*
X211436887Y-91733313D02*
X211455635Y-91920790D01*
X211455635Y-91920790D02*
X211436887Y-91902042D01*
X211436887Y-91902042D02*
X211399392Y-91883295D01*
X211399392Y-91883295D02*
X211305654Y-91883295D01*
X211305654Y-91883295D02*
X211268158Y-91902042D01*
X211268158Y-91902042D02*
X211249411Y-91920790D01*
X211249411Y-91920790D02*
X211230663Y-91958285D01*
X211230663Y-91958285D02*
X211230663Y-92052024D01*
X211230663Y-92052024D02*
X211249411Y-92089519D01*
X211249411Y-92089519D02*
X211268158Y-92108267D01*
X211268158Y-92108267D02*
X211305654Y-92127014D01*
X211305654Y-92127014D02*
X211399392Y-92127014D01*
X211399392Y-92127014D02*
X211436887Y-92108267D01*
X211436887Y-92108267D02*
X211455635Y-92089519D01*
D11*
X229261904Y-94454819D02*
X229261904Y-95264342D01*
X229261904Y-95264342D02*
X229214285Y-95359580D01*
X229214285Y-95359580D02*
X229166666Y-95407200D01*
X229166666Y-95407200D02*
X229071428Y-95454819D01*
X229071428Y-95454819D02*
X228880952Y-95454819D01*
X228880952Y-95454819D02*
X228785714Y-95407200D01*
X228785714Y-95407200D02*
X228738095Y-95359580D01*
X228738095Y-95359580D02*
X228690476Y-95264342D01*
X228690476Y-95264342D02*
X228690476Y-94454819D01*
X228309523Y-94454819D02*
X227690476Y-94454819D01*
X227690476Y-94454819D02*
X228023809Y-94835771D01*
X228023809Y-94835771D02*
X227880952Y-94835771D01*
X227880952Y-94835771D02*
X227785714Y-94883390D01*
X227785714Y-94883390D02*
X227738095Y-94931009D01*
X227738095Y-94931009D02*
X227690476Y-95026247D01*
X227690476Y-95026247D02*
X227690476Y-95264342D01*
X227690476Y-95264342D02*
X227738095Y-95359580D01*
X227738095Y-95359580D02*
X227785714Y-95407200D01*
X227785714Y-95407200D02*
X227880952Y-95454819D01*
X227880952Y-95454819D02*
X228166666Y-95454819D01*
X228166666Y-95454819D02*
X228261904Y-95407200D01*
X228261904Y-95407200D02*
X228309523Y-95359580D01*
X240511619Y-93261905D02*
X239511619Y-93261905D01*
X239511619Y-93261905D02*
X239511619Y-93500000D01*
X239511619Y-93500000D02*
X239559238Y-93642857D01*
X239559238Y-93642857D02*
X239654476Y-93738095D01*
X239654476Y-93738095D02*
X239749714Y-93785714D01*
X239749714Y-93785714D02*
X239940190Y-93833333D01*
X239940190Y-93833333D02*
X240083047Y-93833333D01*
X240083047Y-93833333D02*
X240273523Y-93785714D01*
X240273523Y-93785714D02*
X240368761Y-93738095D01*
X240368761Y-93738095D02*
X240464000Y-93642857D01*
X240464000Y-93642857D02*
X240511619Y-93500000D01*
X240511619Y-93500000D02*
X240511619Y-93261905D01*
X239987809Y-94595238D02*
X240035428Y-94738095D01*
X240035428Y-94738095D02*
X240083047Y-94785714D01*
X240083047Y-94785714D02*
X240178285Y-94833333D01*
X240178285Y-94833333D02*
X240321142Y-94833333D01*
X240321142Y-94833333D02*
X240416380Y-94785714D01*
X240416380Y-94785714D02*
X240464000Y-94738095D01*
X240464000Y-94738095D02*
X240511619Y-94642857D01*
X240511619Y-94642857D02*
X240511619Y-94261905D01*
X240511619Y-94261905D02*
X239511619Y-94261905D01*
X239511619Y-94261905D02*
X239511619Y-94595238D01*
X239511619Y-94595238D02*
X239559238Y-94690476D01*
X239559238Y-94690476D02*
X239606857Y-94738095D01*
X239606857Y-94738095D02*
X239702095Y-94785714D01*
X239702095Y-94785714D02*
X239797333Y-94785714D01*
X239797333Y-94785714D02*
X239892571Y-94738095D01*
X239892571Y-94738095D02*
X239940190Y-94690476D01*
X239940190Y-94690476D02*
X239987809Y-94595238D01*
X239987809Y-94595238D02*
X239987809Y-94261905D01*
X240511619Y-95785714D02*
X240511619Y-95214286D01*
X240511619Y-95500000D02*
X239511619Y-95500000D01*
X239511619Y-95500000D02*
X239654476Y-95404762D01*
X239654476Y-95404762D02*
X239749714Y-95309524D01*
X239749714Y-95309524D02*
X239797333Y-95214286D01*
X235896704Y-95454819D02*
X235896704Y-96264342D01*
X235896704Y-96264342D02*
X235849085Y-96359580D01*
X235849085Y-96359580D02*
X235801466Y-96407200D01*
X235801466Y-96407200D02*
X235706228Y-96454819D01*
X235706228Y-96454819D02*
X235515752Y-96454819D01*
X235515752Y-96454819D02*
X235420514Y-96407200D01*
X235420514Y-96407200D02*
X235372895Y-96359580D01*
X235372895Y-96359580D02*
X235325276Y-96264342D01*
X235325276Y-96264342D02*
X235325276Y-95454819D01*
X234325276Y-96454819D02*
X234896704Y-96454819D01*
X234610990Y-96454819D02*
X234610990Y-95454819D01*
X234610990Y-95454819D02*
X234706228Y-95597676D01*
X234706228Y-95597676D02*
X234801466Y-95692914D01*
X234801466Y-95692914D02*
X234896704Y-95740533D01*
X237000049Y-93904820D02*
X237000049Y-94142915D01*
X237238144Y-94047677D02*
X237000049Y-94142915D01*
X237000049Y-94142915D02*
X236761954Y-94047677D01*
X237142906Y-94333391D02*
X237000049Y-94142915D01*
X237000049Y-94142915D02*
X236857192Y-94333391D01*
D13*
X224468333Y-91943923D02*
X224534999Y-91848685D01*
X224582618Y-91943923D02*
X224582618Y-91743923D01*
X224582618Y-91743923D02*
X224506428Y-91743923D01*
X224506428Y-91743923D02*
X224487380Y-91753447D01*
X224487380Y-91753447D02*
X224477857Y-91762971D01*
X224477857Y-91762971D02*
X224468333Y-91782019D01*
X224468333Y-91782019D02*
X224468333Y-91810590D01*
X224468333Y-91810590D02*
X224477857Y-91829638D01*
X224477857Y-91829638D02*
X224487380Y-91839161D01*
X224487380Y-91839161D02*
X224506428Y-91848685D01*
X224506428Y-91848685D02*
X224582618Y-91848685D01*
X224401666Y-91743923D02*
X224268333Y-91743923D01*
X224268333Y-91743923D02*
X224354047Y-91943923D01*
D12*
X230127014Y-91174383D02*
X229939538Y-91043149D01*
X230127014Y-90949411D02*
X229733313Y-90949411D01*
X229733313Y-90949411D02*
X229733313Y-91099392D01*
X229733313Y-91099392D02*
X229752061Y-91136888D01*
X229752061Y-91136888D02*
X229770809Y-91155635D01*
X229770809Y-91155635D02*
X229808304Y-91174383D01*
X229808304Y-91174383D02*
X229864547Y-91174383D01*
X229864547Y-91174383D02*
X229902042Y-91155635D01*
X229902042Y-91155635D02*
X229920790Y-91136888D01*
X229920790Y-91136888D02*
X229939538Y-91099392D01*
X229939538Y-91099392D02*
X229939538Y-90949411D01*
X230127014Y-91549336D02*
X230127014Y-91324364D01*
X230127014Y-91436850D02*
X229733313Y-91436850D01*
X229733313Y-91436850D02*
X229789556Y-91399355D01*
X229789556Y-91399355D02*
X229827052Y-91361860D01*
X229827052Y-91361860D02*
X229845799Y-91324364D01*
D14*
%TO.C,U2*%
X222701400Y-91689000D02*
X222701400Y-92459461D01*
X222701400Y-98182939D02*
X222701400Y-98953400D01*
X222701400Y-98953400D02*
X221930939Y-98953400D01*
X221930939Y-91689000D02*
X222701400Y-91689000D01*
X216207461Y-98953400D02*
X215437000Y-98953400D01*
X215437000Y-91689000D02*
X216207461Y-91689000D01*
X215437000Y-92459461D02*
X215437000Y-91689000D01*
X215437000Y-98953400D02*
X215437000Y-98182939D01*
D15*
G36*
X220884701Y-100680600D02*
G01*
X220503701Y-100680600D01*
X220503701Y-100426600D01*
X220884701Y-100426600D01*
X220884701Y-100680600D01*
G37*
G36*
X220234699Y-90215800D02*
G01*
X219853699Y-90215800D01*
X219853699Y-89961800D01*
X220234699Y-89961800D01*
X220234699Y-90215800D01*
G37*
G36*
X213963800Y-95836701D02*
G01*
X213709800Y-95836701D01*
X213709800Y-95455701D01*
X213963800Y-95455701D01*
X213963800Y-95836701D01*
G37*
D10*
%TO.C,BB_B1*%
X214000000Y-88500000D02*
X212000000Y-88500000D01*
X212000000Y-82500000D01*
X214000000Y-82500000D01*
X214000000Y-88500000D01*
D16*
%TO.C,Q1*%
X227437500Y-99989999D02*
X226787500Y-99990000D01*
X227437500Y-99989999D02*
X228087500Y-99990000D01*
X227437500Y-103110001D02*
X226787500Y-103110000D01*
X227437500Y-103110001D02*
X228087500Y-103110000D01*
X226515000Y-103389999D02*
X226035000Y-103390000D01*
X226275000Y-103060000D01*
X226515000Y-103389999D01*
G36*
X226515000Y-103389999D02*
G01*
X226035000Y-103390000D01*
X226275000Y-103060000D01*
X226515000Y-103389999D01*
G37*
%TO.C,DB2*%
X231300000Y-100900000D02*
X233260000Y-100899999D01*
X231300000Y-102100000D02*
X233260000Y-102100001D01*
X233260000Y-100899999D02*
X233260000Y-102100001D01*
D14*
%TO.C,CHG1*%
X234434200Y-90010800D02*
X234764400Y-90010800D01*
X234764400Y-90010800D02*
X235374000Y-90010800D01*
X235374000Y-90010800D02*
X235704200Y-90010800D01*
X235374000Y-90010800D02*
G75*
G02*
X234764400Y-90010800I-304800J0D01*
G01*
%TO.C,POGO1*%
D10*
X243000000Y-78250000D02*
X239000000Y-78250000D01*
X239000000Y-92750000D01*
X243000000Y-92750000D01*
X243000000Y-78250000D01*
X243000000Y-78250000D02*
X241000000Y-78250000D01*
X241000000Y-92750000D01*
X243000000Y-92750000D01*
X243000000Y-78250000D01*
X243000000Y-78250000D02*
X242000000Y-78250000D01*
X242000000Y-92750000D01*
X243000000Y-92750000D01*
X243000000Y-78250000D01*
D17*
%TO.C,BT1*%
X215450000Y-71900000D02*
X215450000Y-76400000D01*
X215450000Y-71900000D02*
X218000000Y-69450000D01*
X215450000Y-89250000D02*
X215450000Y-83400000D01*
X220500000Y-89250000D02*
X215450000Y-89250000D01*
X234000000Y-69450000D02*
X218000000Y-69450000D01*
X236550000Y-71900000D02*
X234000000Y-69450000D01*
X236550000Y-76400000D02*
X236550000Y-71900000D01*
X236550000Y-83400000D02*
X236550000Y-89250000D01*
X236550000Y-89250000D02*
X231500000Y-89250000D01*
%TO.C,R8*%
X225485000Y-92800000D02*
X225485000Y-92200000D01*
X226515000Y-92800000D02*
X226515000Y-92200000D01*
%TO.C,R5*%
X211830000Y-89650000D02*
X213170000Y-89650000D01*
X211830000Y-91350000D02*
X213170000Y-91350000D01*
%TO.C,U3*%
X230500000Y-93980000D02*
X226500000Y-93980000D01*
X230500000Y-99020000D02*
X226500000Y-99020000D01*
D18*
X233045000Y-94005000D02*
G75*
G02*
X232845000Y-94005000I-100000J0D01*
G01*
X232845000Y-94005000D02*
G75*
G02*
X233045000Y-94005000I100000J0D01*
G01*
D16*
%TO.C,DB1*%
X238156800Y-94300000D02*
X238156799Y-96260000D01*
X239356800Y-94300000D02*
X239356801Y-96260000D01*
X239356801Y-96260000D02*
X238156799Y-96260000D01*
D14*
%TO.C,U1*%
X234131500Y-94349000D02*
X236138100Y-94349000D01*
X234131500Y-96363261D02*
X234131500Y-95636739D01*
X236138100Y-97651000D02*
X234131500Y-97651000D01*
D17*
%TO.C,R7*%
X224200000Y-90485000D02*
X224800000Y-90485000D01*
X224200000Y-91515000D02*
X224800000Y-91515000D01*
%TD*%
M02*
