%TF.GenerationSoftware,KiCad,Pcbnew,9.0.1*%
%TF.CreationDate,2025-06-29T08:21:18-07:00*%
%TF.ProjectId,Complete_Watch,436f6d70-6c65-4746-955f-57617463682e,rev?*%
%TF.SameCoordinates,Original*%
%TF.FileFunction,Copper,L3,Inr*%
%TF.FilePolarity,Positive*%
%FSLAX46Y46*%
G04 Gerber Fmt 4.6, Leading zero omitted, Abs format (unit mm)*
G04 Created by KiCad (PCBNEW 9.0.1) date 2025-06-29 08:21:18*
%MOMM*%
%LPD*%
G01*
G04 APERTURE LIST*
%TA.AperFunction,ViaPad*%
%ADD10C,0.600000*%
%TD*%
%TA.AperFunction,Conductor*%
%ADD11C,0.200000*%
%TD*%
G04 APERTURE END LIST*
D10*
%TO.N,Net-(CHG1-VBAT)*%
X215000000Y-80452200D03*
X211021600Y-88115500D03*
X228754400Y-87988700D03*
%TO.N,USB + *%
X234756400Y-93191800D03*
X238941300Y-93191800D03*
%TO.N,GNDREF*%
X214755200Y-92314300D03*
X219433600Y-100737300D03*
%TO.N,CHIP_POW*%
X224887600Y-88431400D03*
X213522500Y-97094200D03*
X217001900Y-82598600D03*
X225205100Y-99413300D03*
%TO.N,Charge_STAT*%
X229001800Y-100785300D03*
X221005500Y-97695200D03*
X235207700Y-89028000D03*
%TO.N,Bat_ON*%
X230543700Y-101500000D03*
X215188600Y-90005900D03*
%TO.N,F*%
X215239400Y-82040400D03*
X218913500Y-88201200D03*
X223243000Y-98386000D03*
X221041600Y-88076800D03*
%TO.N,P*%
X214587200Y-98582600D03*
X239115500Y-81555300D03*
X228142500Y-102892700D03*
X234792000Y-82043700D03*
X227229600Y-90050000D03*
%TO.N,N*%
X225127900Y-85956300D03*
X232843700Y-82061300D03*
X216927100Y-96261800D03*
X221200500Y-89204200D03*
%TO.N,B*%
X222753400Y-90791400D03*
X234852800Y-91520100D03*
X231232100Y-88960000D03*
%TO.N,M*%
X222722600Y-85487100D03*
X226845700Y-85853300D03*
X231169800Y-75140000D03*
X212909700Y-92132600D03*
X217879000Y-100809200D03*
%TO.N,O*%
X232767700Y-82950300D03*
X218897200Y-86130900D03*
X235045400Y-78950000D03*
X215838800Y-99095200D03*
X219228000Y-94951100D03*
X226924500Y-88374100D03*
%TO.N,L*%
X217256000Y-97636900D03*
X228963000Y-93705800D03*
X213133300Y-96185500D03*
X222684400Y-101045900D03*
%TO.N,A*%
X229240100Y-73801100D03*
X231229100Y-85317200D03*
X217249500Y-73053800D03*
X224765600Y-91969400D03*
X236772500Y-88201900D03*
%TO.N,J*%
X228774400Y-97900700D03*
X235241300Y-89812900D03*
X232841900Y-97614900D03*
X219246200Y-96589000D03*
%TO.N,H*%
X240349314Y-95150685D03*
X215115700Y-88447300D03*
X233229200Y-96090000D03*
X221688200Y-102476800D03*
X221116600Y-94531300D03*
%TO.N,D*%
X227246900Y-91720500D03*
X216997000Y-92603600D03*
X217228200Y-80506200D03*
X223255200Y-88448000D03*
%TO.N,K*%
X219242200Y-79024400D03*
X216744500Y-86250800D03*
X220771000Y-83095600D03*
X220772600Y-70062600D03*
X219232400Y-97812800D03*
%TO.N,I*%
X214804000Y-84852100D03*
X221034200Y-96380800D03*
X219112000Y-76065100D03*
X222893700Y-70967300D03*
X220829500Y-85080100D03*
X239215300Y-80808800D03*
X210801800Y-85712500D03*
%TO.N,G*%
X213231900Y-80058700D03*
X224982800Y-100890700D03*
X225006900Y-70950000D03*
X224895200Y-73257400D03*
X232918700Y-79589800D03*
X216772700Y-78791900D03*
X230823800Y-73259000D03*
%TO.N,C*%
X224704000Y-93473600D03*
X234946700Y-94050000D03*
X226873000Y-87286700D03*
%TO.N,E*%
X235204200Y-84878100D03*
X238758900Y-85945700D03*
X225052100Y-71950000D03*
X226978300Y-92956000D03*
%TO.N,UPDI*%
X218744200Y-90025700D03*
X238948050Y-90271363D03*
%TO.N,SDA*%
X226908700Y-93855800D03*
X217243200Y-88156800D03*
%TO.N,Net-(Q1-G)*%
X228704000Y-102330300D03*
X217025100Y-94555700D03*
%TD*%
D11*
%TO.N,UPDI*%
X239863500Y-94636500D02*
X223355000Y-94636500D01*
X240500000Y-94000000D02*
X239863500Y-94636500D01*
X240500000Y-91411656D02*
X240500000Y-94000000D01*
X239359707Y-90271363D02*
X240500000Y-91411656D01*
X223355000Y-94636500D02*
X218744200Y-90025700D01*
X238948050Y-90271363D02*
X239359707Y-90271363D01*
%TO.N,Net-(CHG1-VBAT)*%
X224005900Y-87830400D02*
X223336500Y-87161000D01*
X223336500Y-87161000D02*
X211976100Y-87161000D01*
X211976100Y-87161000D02*
X211021600Y-88115500D01*
X228596100Y-87830400D02*
X224005900Y-87830400D01*
X228754400Y-87988700D02*
X228596100Y-87830400D01*
%TO.N,USB + *%
X238941300Y-93191800D02*
X234756400Y-93191800D01*
%TO.N,Charge_STAT*%
X221005500Y-97695200D02*
X225911700Y-97695200D01*
X225911700Y-97695200D02*
X229001800Y-100785300D01*
%TO.N,Bat_ON*%
X224494800Y-101500000D02*
X222348200Y-99353400D01*
X222348200Y-99353400D02*
X221862100Y-99353400D01*
X230543700Y-101500000D02*
X224494800Y-101500000D01*
X220218100Y-97709400D02*
X220218100Y-95035400D01*
X221862100Y-99353400D02*
X220218100Y-97709400D01*
X220218100Y-95035400D02*
X215188600Y-90005900D01*
%TO.N,F*%
X221041600Y-88076800D02*
X219037900Y-88076800D01*
X219037900Y-88076800D02*
X218913500Y-88201200D01*
%TO.N,P*%
X214618300Y-98551500D02*
X217440600Y-98551500D01*
X218743700Y-99854600D02*
X220145000Y-99854600D01*
X239115500Y-81555300D02*
X235280400Y-81555300D01*
X235280400Y-81555300D02*
X234792000Y-82043700D01*
X220145000Y-99854600D02*
X223183100Y-102892700D01*
X217440600Y-98551500D02*
X218743700Y-99854600D01*
X223183100Y-102892700D02*
X228142500Y-102892700D01*
X214587200Y-98582600D02*
X214618300Y-98551500D01*
%TO.N,N*%
X214605700Y-90336100D02*
X214605700Y-89748000D01*
X214605700Y-89748000D02*
X215149500Y-89204200D01*
X228505800Y-86399200D02*
X225570800Y-86399200D01*
X215299000Y-94633700D02*
X215299000Y-91029400D01*
X232843700Y-82061300D02*
X228505800Y-86399200D01*
X215299000Y-91029400D02*
X214605700Y-90336100D01*
X216927100Y-96261800D02*
X215299000Y-94633700D01*
X225570800Y-86399200D02*
X225127900Y-85956300D01*
X215149500Y-89204200D02*
X221200500Y-89204200D01*
%TO.N,B*%
X223466500Y-87876300D02*
X223018000Y-87876300D01*
X233792200Y-91520100D02*
X231232100Y-88960000D01*
X222706800Y-90744800D02*
X222753400Y-90791400D01*
X231232100Y-88960000D02*
X231154200Y-89037900D01*
X223018000Y-87876300D02*
X222706800Y-88187500D01*
X222706800Y-88187500D02*
X222706800Y-90744800D01*
X224628100Y-89037900D02*
X223466500Y-87876300D01*
X234852800Y-91520100D02*
X233792200Y-91520100D01*
X231154200Y-89037900D02*
X224628100Y-89037900D01*
%TO.N,M*%
X212909700Y-92132600D02*
X210474300Y-89697200D01*
X222722600Y-85487100D02*
X222810300Y-85399400D01*
X220604400Y-85668400D02*
X222541300Y-85668400D01*
X210474300Y-87867300D02*
X212776200Y-85565400D01*
X212776200Y-85565400D02*
X220501400Y-85565400D01*
X220501400Y-85565400D02*
X220604400Y-85668400D01*
X210474300Y-89697200D02*
X210474300Y-87867300D01*
X226391800Y-85399400D02*
X226845700Y-85853300D01*
X222541300Y-85668400D02*
X222722600Y-85487100D01*
X222810300Y-85399400D02*
X226391800Y-85399400D01*
%TO.N,O*%
X228975100Y-86742900D02*
X232767700Y-82950300D01*
X218897200Y-86130900D02*
X219509200Y-86742900D01*
X219509200Y-86742900D02*
X228975100Y-86742900D01*
%TO.N,L*%
X213133300Y-96185500D02*
X215804600Y-96185500D01*
X215804600Y-96185500D02*
X217256000Y-97636900D01*
X220287300Y-99510900D02*
X221822300Y-101045900D01*
X217256000Y-97636900D02*
X219130000Y-99510900D01*
X219130000Y-99510900D02*
X220287300Y-99510900D01*
X221822300Y-101045900D02*
X222684400Y-101045900D01*
%TO.N,A*%
X233887800Y-85317200D02*
X231229100Y-85317200D01*
X217996800Y-73801100D02*
X217249500Y-73053800D01*
X236772500Y-88201900D02*
X233887800Y-85317200D01*
X229240100Y-73801100D02*
X217996800Y-73801100D01*
%TO.N,J*%
X229060200Y-97614900D02*
X228774400Y-97900700D01*
X232841900Y-97614900D02*
X229060200Y-97614900D01*
%TO.N,H*%
X240349314Y-95150685D02*
X240000000Y-95500000D01*
X233229200Y-95633900D02*
X222219200Y-95633900D01*
X239307900Y-95500000D02*
X239174000Y-95633900D01*
X222219200Y-95633900D02*
X221116600Y-94531300D01*
X239174000Y-95633900D02*
X233229200Y-95633900D01*
X233229200Y-95633900D02*
X233229200Y-96090000D01*
X240000000Y-95500000D02*
X239307900Y-95500000D01*
%TO.N,D*%
X227246900Y-91720500D02*
X226527700Y-91720500D01*
X226527700Y-91720500D02*
X223255200Y-88448000D01*
%TO.N,I*%
X220829500Y-84946200D02*
X220829500Y-85080100D01*
X224966900Y-80808800D02*
X220829500Y-84946200D01*
X239215300Y-80808800D02*
X224966900Y-80808800D01*
X220829500Y-84946200D02*
X220735400Y-84852100D01*
X220735400Y-84852100D02*
X214804000Y-84852100D01*
X214804000Y-84852100D02*
X211662200Y-84852100D01*
X211662200Y-84852100D02*
X210801800Y-85712500D01*
%TO.N,G*%
X225610000Y-71553100D02*
X225610000Y-73249200D01*
X216772700Y-78792900D02*
X216772700Y-78791900D01*
X216772700Y-78792900D02*
X214497700Y-78792900D01*
X214497700Y-78792900D02*
X213231900Y-80058700D01*
X225601800Y-73257400D02*
X224895200Y-73257400D01*
X232918700Y-79589800D02*
X217569600Y-79589800D01*
X225610000Y-73249200D02*
X225601800Y-73257400D01*
X217569600Y-79589800D02*
X216772700Y-78792900D01*
X225006900Y-70950000D02*
X225610000Y-71553100D01*
X230814000Y-73249200D02*
X225610000Y-73249200D01*
X230823800Y-73259000D02*
X230814000Y-73249200D01*
%TO.N,C*%
X226873000Y-87286700D02*
X234235400Y-87286700D01*
X238887900Y-94049900D02*
X234946700Y-94049900D01*
X230147900Y-92397300D02*
X225780300Y-92397300D01*
X234946700Y-94049900D02*
X231800500Y-94049900D01*
X239529700Y-92581000D02*
X239529700Y-93408100D01*
X225780300Y-92397300D02*
X224704000Y-93473600D01*
X231800500Y-94049900D02*
X230147900Y-92397300D01*
X239529700Y-93408100D02*
X238887900Y-94049900D01*
X234946700Y-94049900D02*
X234946700Y-94050000D01*
X234235400Y-87286700D02*
X239529700Y-92581000D01*
%TO.N,E*%
X237691300Y-84878100D02*
X238758900Y-85945700D01*
X235204200Y-84878100D02*
X237691300Y-84878100D01*
%TO.N,SDA*%
X221851000Y-91434100D02*
X221851000Y-88065700D01*
X221290000Y-87504700D02*
X217895300Y-87504700D01*
X217895300Y-87504700D02*
X217243200Y-88156800D01*
X221851000Y-88065700D02*
X221290000Y-87504700D01*
X226747100Y-94017400D02*
X224434300Y-94017400D01*
X224434300Y-94017400D02*
X221851000Y-91434100D01*
X226908700Y-93855800D02*
X226747100Y-94017400D01*
%TO.N,Net-(Q1-G)*%
X217025100Y-94555700D02*
X218458000Y-95988600D01*
X219605700Y-98996200D02*
X220258600Y-98996200D01*
X218458000Y-95988600D02*
X218458000Y-97848500D01*
X224768300Y-102330300D02*
X228704000Y-102330300D01*
X222256000Y-99818000D02*
X224768300Y-102330300D01*
X220258600Y-98996200D02*
X221080400Y-99818000D01*
X218458000Y-97848500D02*
X219605700Y-98996200D01*
X221080400Y-99818000D02*
X222256000Y-99818000D01*
%TD*%
M02*
