%TF.GenerationSoftware,KiCad,Pcbnew,9.0.1*%
%TF.CreationDate,2025-06-29T08:21:18-07:00*%
%TF.ProjectId,Complete_Watch,436f6d70-6c65-4746-955f-57617463682e,rev?*%
%TF.SameCoordinates,Original*%
%TF.FileFunction,Copper,L1,Top*%
%TF.FilePolarity,Positive*%
%FSLAX46Y46*%
G04 Gerber Fmt 4.6, Leading zero omitted, Abs format (unit mm)*
G04 Created by KiCad (PCBNEW 9.0.1) date 2025-06-29 08:21:18*
%MOMM*%
%LPD*%
G01*
G04 APERTURE LIST*
%TA.AperFunction,SMDPad,CuDef*%
%ADD10R,0.600000X0.600000*%
%TD*%
%TA.AperFunction,ViaPad*%
%ADD11C,0.600000*%
%TD*%
%TA.AperFunction,Conductor*%
%ADD12C,0.200000*%
%TD*%
G04 APERTURE END LIST*
D10*
%TO.P,D126,1*%
%TO.N,H*%
X216000000Y-88950000D03*
%TO.P,D126,2*%
%TO.N,M*%
X216000000Y-90050000D03*
%TD*%
%TO.P,D175,1*%
%TO.N,F*%
X226000000Y-94950000D03*
%TO.P,D175,2*%
%TO.N,L*%
X226000000Y-96050000D03*
%TD*%
%TO.P,D40,1*%
%TO.N,A*%
X224000000Y-76950000D03*
%TO.P,D40,2*%
%TO.N,K*%
X224000000Y-78050000D03*
%TD*%
%TO.P,D27,1*%
%TO.N,E*%
X226000000Y-74950000D03*
%TO.P,D27,2*%
%TO.N,K*%
X226000000Y-76050000D03*
%TD*%
%TO.P,D32,1*%
%TO.N,N*%
X236000000Y-74950000D03*
%TO.P,D32,2*%
%TO.N,I*%
X236000000Y-76050000D03*
%TD*%
%TO.P,D137,1*%
%TO.N,J*%
X238000000Y-88950000D03*
%TO.P,D137,2*%
%TO.N,A*%
X238000000Y-90050000D03*
%TD*%
%TO.P,D57,1*%
%TO.N,M*%
X228000000Y-78950000D03*
%TO.P,D57,2*%
%TO.N,A*%
X228000000Y-80050000D03*
%TD*%
%TO.P,D43,1*%
%TO.N,M*%
X230000000Y-76950000D03*
%TO.P,D43,2*%
%TO.N,E*%
X230000000Y-78050000D03*
%TD*%
%TO.P,D66,1*%
%TO.N,D*%
X216000000Y-80950000D03*
%TO.P,D66,2*%
%TO.N,I*%
X216000000Y-82050000D03*
%TD*%
%TO.P,D25,1*%
%TO.N,A*%
X222000000Y-74950000D03*
%TO.P,D25,2*%
%TO.N,I*%
X222000000Y-76050000D03*
%TD*%
%TO.P,D149,1*%
%TO.N,L*%
X232000000Y-90950000D03*
%TO.P,D149,2*%
%TO.N,C*%
X232000000Y-92050000D03*
%TD*%
%TO.P,D84,1*%
%TO.N,C*%
X222000000Y-82950000D03*
%TO.P,D84,2*%
%TO.N,M*%
X222000000Y-84050000D03*
%TD*%
%TO.P,D143,1*%
%TO.N,N*%
X220000000Y-90950000D03*
%TO.P,D143,2*%
%TO.N,H*%
X220000000Y-92050000D03*
%TD*%
%TO.P,D77,1*%
%TO.N,P*%
X238000000Y-80950000D03*
%TO.P,D77,2*%
%TO.N,G*%
X238000000Y-82050000D03*
%TD*%
%TO.P,D20,1*%
%TO.N,K*%
X236000000Y-72950000D03*
%TO.P,D20,2*%
%TO.N,N*%
X236000000Y-74050000D03*
%TD*%
%TO.P,D33,1*%
%TO.N,K*%
X238000000Y-74950000D03*
%TO.P,D33,2*%
%TO.N,O*%
X238000000Y-76050000D03*
%TD*%
%TO.P,D52,1*%
%TO.N,C*%
X218000000Y-78950000D03*
%TO.P,D52,2*%
%TO.N,I*%
X218000000Y-80050000D03*
%TD*%
%TO.P,D76,1*%
%TO.N,G*%
X236000000Y-80950000D03*
%TO.P,D76,2*%
%TO.N,P*%
X236000000Y-82050000D03*
%TD*%
%TO.P,D187,1*%
%TO.N,L*%
X226000000Y-96950000D03*
%TO.P,D187,2*%
%TO.N,H*%
X226000000Y-98050000D03*
%TD*%
%TO.P,D28,1*%
%TO.N,K*%
X228000000Y-74950000D03*
%TO.P,D28,2*%
%TO.N,E*%
X228000000Y-76050000D03*
%TD*%
%TO.P,D153,1*%
%TO.N,H*%
X240000000Y-90950000D03*
%TO.P,D153,2*%
%TO.N,A*%
X240000000Y-92050000D03*
%TD*%
%TO.P,D180,1*%
%TO.N,H*%
X236000000Y-94950000D03*
%TO.P,D180,2*%
%TO.N,C*%
X236000000Y-96050000D03*
%TD*%
%TO.P,D182,1*%
%TO.N,L*%
X216000000Y-96950000D03*
%TO.P,D182,2*%
%TO.N,O*%
X216000000Y-98050000D03*
%TD*%
%TO.P,D125,1*%
%TO.N,K*%
X214000000Y-88950000D03*
%TO.P,D125,2*%
%TO.N,J*%
X214000000Y-90050000D03*
%TD*%
%TO.P,D105,1*%
%TO.N,P*%
X234000000Y-84950000D03*
%TO.P,D105,2*%
%TO.N,A*%
X234000000Y-86050000D03*
%TD*%
%TO.P,D199,1*%
%TO.N,F*%
X230000000Y-98950000D03*
%TO.P,D199,2*%
%TO.N,H*%
X230000000Y-100050000D03*
%TD*%
%TO.P,D186,1*%
%TO.N,H*%
X224000000Y-96950000D03*
%TO.P,D186,2*%
%TO.N,L*%
X224000000Y-98050000D03*
%TD*%
%TO.P,D5,1*%
%TO.N,G*%
X226000000Y-70950000D03*
%TO.P,D5,2*%
%TO.N,I*%
X226000000Y-72050000D03*
%TD*%
%TO.P,D69,1*%
%TO.N,K*%
X222000000Y-80950000D03*
%TO.P,D69,2*%
%TO.N,C*%
X222000000Y-82050000D03*
%TD*%
%TO.P,D94,1*%
%TO.N,H*%
X212000000Y-84950000D03*
%TO.P,D94,2*%
%TO.N,I*%
X212000000Y-86050000D03*
%TD*%
%TO.P,D122,1*%
%TO.N,E*%
X238000000Y-86950000D03*
%TO.P,D122,2*%
%TO.N,J*%
X238000000Y-88050000D03*
%TD*%
%TO.P,D79,1*%
%TO.N,G*%
X212000000Y-82950000D03*
%TO.P,D79,2*%
%TO.N,H*%
X212000000Y-84050000D03*
%TD*%
%TO.P,D154,1*%
%TO.N,L*%
X212000000Y-92950000D03*
%TO.P,D154,2*%
%TO.N,M*%
X212000000Y-94050000D03*
%TD*%
%TO.P,D45,1*%
%TO.N,N*%
X234000000Y-76950000D03*
%TO.P,D45,2*%
%TO.N,G*%
X234000000Y-78050000D03*
%TD*%
%TO.P,D197,1*%
%TO.N,H*%
X226000000Y-98950000D03*
%TO.P,D197,2*%
%TO.N,J*%
X226000000Y-100050000D03*
%TD*%
%TO.P,D150,1*%
%TO.N,B*%
X234000000Y-90950000D03*
%TO.P,D150,2*%
%TO.N,J*%
X234000000Y-92050000D03*
%TD*%
%TO.P,D172,1*%
%TO.N,O*%
X220000000Y-94950000D03*
%TO.P,D172,2*%
%TO.N,J*%
X220000000Y-96050000D03*
%TD*%
%TO.P,D159,1*%
%TO.N,O*%
X222000000Y-92950000D03*
%TO.P,D159,2*%
%TO.N,H*%
X222000000Y-94050000D03*
%TD*%
%TO.P,D188,1*%
%TO.N,F*%
X228000000Y-96950000D03*
%TO.P,D188,2*%
%TO.N,J*%
X228000000Y-98050000D03*
%TD*%
%TO.P,D74,1*%
%TO.N,E*%
X232000000Y-80950000D03*
%TO.P,D74,2*%
%TO.N,O*%
X232000000Y-82050000D03*
%TD*%
%TO.P,D200,1*%
%TO.N,H*%
X232000000Y-98950000D03*
%TO.P,D200,2*%
%TO.N,F*%
X232000000Y-100050000D03*
%TD*%
%TO.P,D54,1*%
%TO.N,B*%
X222000000Y-78950000D03*
%TO.P,D54,2*%
%TO.N,K*%
X222000000Y-80050000D03*
%TD*%
%TO.P,D78,1*%
%TO.N,I*%
X240000000Y-80950000D03*
%TO.P,D78,2*%
%TO.N,L*%
X240000000Y-82050000D03*
%TD*%
%TO.P,D127,1*%
%TO.N,M*%
X218000000Y-88950000D03*
%TO.P,D127,2*%
%TO.N,H*%
X218000000Y-90050000D03*
%TD*%
%TO.P,D8,1*%
%TO.N,K*%
X232000000Y-70950000D03*
%TO.P,D8,2*%
%TO.N,I*%
X232000000Y-72050000D03*
%TD*%
%TO.P,D195,1*%
%TO.N,J*%
X222000000Y-98950000D03*
%TO.P,D195,2*%
%TO.N,L*%
X222000000Y-100050000D03*
%TD*%
%TO.P,D103,1*%
%TO.N,O*%
X230000000Y-84950000D03*
%TO.P,D103,2*%
%TO.N,B*%
X230000000Y-86050000D03*
%TD*%
%TO.P,D173,1*%
%TO.N,H*%
X222000000Y-94950000D03*
%TO.P,D173,2*%
%TO.N,P*%
X222000000Y-96050000D03*
%TD*%
%TO.P,D138,1*%
%TO.N,E*%
X240000000Y-88950000D03*
%TO.P,D138,2*%
%TO.N,H*%
X240000000Y-90050000D03*
%TD*%
%TO.P,D111,1*%
%TO.N,K*%
X216000000Y-86950000D03*
%TO.P,D111,2*%
%TO.N,H*%
X216000000Y-88050000D03*
%TD*%
%TO.P,D114,1*%
%TO.N,D*%
X222000000Y-86950000D03*
%TO.P,D114,2*%
%TO.N,N*%
X222000000Y-88050000D03*
%TD*%
%TO.P,D93,1*%
%TO.N,L*%
X240000000Y-82950000D03*
%TO.P,D93,2*%
%TO.N,G*%
X240000000Y-84050000D03*
%TD*%
%TO.P,D3,1*%
%TO.N,E*%
X222000000Y-70950000D03*
%TO.P,D3,2*%
%TO.N,G*%
X222000000Y-72050000D03*
%TD*%
%TO.P,D23,1*%
%TO.N,B*%
X218000000Y-74950000D03*
%TO.P,D23,2*%
%TO.N,G*%
X218000000Y-76050000D03*
%TD*%
%TO.P,D133,1*%
%TO.N,P*%
X230000000Y-88950000D03*
%TO.P,D133,2*%
%TO.N,C*%
X230000000Y-90050000D03*
%TD*%
%TO.P,D145,1*%
%TO.N,O*%
X224000000Y-90950000D03*
%TO.P,D145,2*%
%TO.N,F*%
X224000000Y-92050000D03*
%TD*%
%TO.P,D72,1*%
%TO.N,A*%
X228000000Y-80950000D03*
%TO.P,D72,2*%
%TO.N,N*%
X228000000Y-82050000D03*
%TD*%
%TO.P,D30,1*%
%TO.N,M*%
X232000000Y-74950000D03*
%TO.P,D30,2*%
%TO.N,G*%
X232000000Y-76050000D03*
%TD*%
%TO.P,D14,1*%
%TO.N,E*%
X224000000Y-72950000D03*
%TO.P,D14,2*%
%TO.N,I*%
X224000000Y-74050000D03*
%TD*%
%TO.P,D68,1*%
%TO.N,C*%
X220000000Y-80950000D03*
%TO.P,D68,2*%
%TO.N,K*%
X220000000Y-82050000D03*
%TD*%
%TO.P,D124,1*%
%TO.N,J*%
X212000000Y-88950000D03*
%TO.P,D124,2*%
%TO.N,K*%
X212000000Y-90050000D03*
%TD*%
%TO.P,D19,1*%
%TO.N,M*%
X234000000Y-72950000D03*
%TO.P,D19,2*%
%TO.N,I*%
X234000000Y-74050000D03*
%TD*%
%TO.P,D65,1*%
%TO.N,G*%
X214000000Y-80950000D03*
%TO.P,D65,2*%
%TO.N,F*%
X214000000Y-82050000D03*
%TD*%
%TO.P,D34,1*%
%TO.N,D*%
X212000000Y-76950000D03*
%TO.P,D34,2*%
%TO.N,E*%
X212000000Y-78050000D03*
%TD*%
%TO.P,D183,1*%
%TO.N,O*%
X218000000Y-96950000D03*
%TO.P,D183,2*%
%TO.N,L*%
X218000000Y-98050000D03*
%TD*%
%TO.P,D92,1*%
%TO.N,G*%
X238000000Y-82950000D03*
%TO.P,D92,2*%
%TO.N,L*%
X238000000Y-84050000D03*
%TD*%
%TO.P,D152,1*%
%TO.N,A*%
X238000000Y-90950000D03*
%TO.P,D152,2*%
%TO.N,H*%
X238000000Y-92050000D03*
%TD*%
%TO.P,D147,1*%
%TO.N,P*%
X228000000Y-90950000D03*
%TO.P,D147,2*%
%TO.N,D*%
X228000000Y-92050000D03*
%TD*%
%TO.P,D55,1*%
%TO.N,K*%
X224000000Y-78950000D03*
%TO.P,D55,2*%
%TO.N,B*%
X224000000Y-80050000D03*
%TD*%
%TO.P,D136,1*%
%TO.N,A*%
X236000000Y-88950000D03*
%TO.P,D136,2*%
%TO.N,J*%
X236000000Y-90050000D03*
%TD*%
%TO.P,D117,1*%
%TO.N,O*%
X228000000Y-86950000D03*
%TO.P,D117,2*%
%TO.N,C*%
X228000000Y-88050000D03*
%TD*%
%TO.P,D189,1*%
%TO.N,J*%
X230000000Y-96950000D03*
%TO.P,D189,2*%
%TO.N,F*%
X230000000Y-98050000D03*
%TD*%
%TO.P,D176,1*%
%TO.N,L*%
X228000000Y-94950000D03*
%TO.P,D176,2*%
%TO.N,F*%
X228000000Y-96050000D03*
%TD*%
%TO.P,D163,1*%
%TO.N,L*%
X230000000Y-92950000D03*
%TO.P,D163,2*%
%TO.N,D*%
X230000000Y-94050000D03*
%TD*%
%TO.P,D116,1*%
%TO.N,C*%
X226000000Y-86950000D03*
%TO.P,D116,2*%
%TO.N,O*%
X226000000Y-88050000D03*
%TD*%
%TO.P,D70,1*%
%TO.N,B*%
X224000000Y-80950000D03*
%TO.P,D70,2*%
%TO.N,M*%
X224000000Y-82050000D03*
%TD*%
%TO.P,D109,1*%
%TO.N,I*%
X212000000Y-86950000D03*
%TO.P,D109,2*%
%TO.N,J*%
X212000000Y-88050000D03*
%TD*%
%TO.P,D146,1*%
%TO.N,D*%
X226000000Y-90950000D03*
%TO.P,D146,2*%
%TO.N,P*%
X226000000Y-92050000D03*
%TD*%
%TO.P,D82,1*%
%TO.N,D*%
X218000000Y-82950000D03*
%TO.P,D82,2*%
%TO.N,K*%
X218000000Y-84050000D03*
%TD*%
%TO.P,D6,1*%
%TO.N,I*%
X228000000Y-70950000D03*
%TO.P,D6,2*%
%TO.N,G*%
X228000000Y-72050000D03*
%TD*%
%TO.P,D194,1*%
%TO.N,P*%
X220000000Y-98950000D03*
%TO.P,D194,2*%
%TO.N,L*%
X220000000Y-100050000D03*
%TD*%
%TO.P,D121,1*%
%TO.N,L*%
X236000000Y-86950000D03*
%TO.P,D121,2*%
%TO.N,A*%
X236000000Y-88050000D03*
%TD*%
%TO.P,D196,1*%
%TO.N,L*%
X224000000Y-98950000D03*
%TO.P,D196,2*%
%TO.N,J*%
X224000000Y-100050000D03*
%TD*%
%TO.P,D17,1*%
%TO.N,K*%
X230000000Y-72950000D03*
%TO.P,D17,2*%
%TO.N,G*%
X230000000Y-74050000D03*
%TD*%
%TO.P,D26,1*%
%TO.N,I*%
X224000000Y-74950000D03*
%TO.P,D26,2*%
%TO.N,A*%
X224000000Y-76050000D03*
%TD*%
%TO.P,D98,1*%
%TO.N,D*%
X220000000Y-84950000D03*
%TO.P,D98,2*%
%TO.N,M*%
X220000000Y-86050000D03*
%TD*%
%TO.P,D12,1*%
%TO.N,A*%
X220000000Y-72950000D03*
%TO.P,D12,2*%
%TO.N,G*%
X220000000Y-74050000D03*
%TD*%
%TO.P,D89,1*%
%TO.N,O*%
X232000000Y-82950000D03*
%TO.P,D89,2*%
%TO.N,A*%
X232000000Y-84050000D03*
%TD*%
%TO.P,D13,1*%
%TO.N,G*%
X222000000Y-72950000D03*
%TO.P,D13,2*%
%TO.N,A*%
X222000000Y-74050000D03*
%TD*%
%TO.P,D39,1*%
%TO.N,I*%
X222000000Y-76950000D03*
%TO.P,D39,2*%
%TO.N,B*%
X222000000Y-78050000D03*
%TD*%
%TO.P,D96,1*%
%TO.N,F*%
X216000000Y-84950000D03*
%TO.P,D96,2*%
%TO.N,K*%
X216000000Y-86050000D03*
%TD*%
%TO.P,D185,1*%
%TO.N,P*%
X222000000Y-96950000D03*
%TO.P,D185,2*%
%TO.N,J*%
X222000000Y-98050000D03*
%TD*%
%TO.P,D139,1*%
%TO.N,K*%
X212000000Y-90950000D03*
%TO.P,D139,2*%
%TO.N,L*%
X212000000Y-92050000D03*
%TD*%
%TO.P,D36,1*%
%TO.N,C*%
X216000000Y-76950000D03*
%TO.P,D36,2*%
%TO.N,G*%
X216000000Y-78050000D03*
%TD*%
%TO.P,D64,1*%
%TO.N,F*%
X212000000Y-80950000D03*
%TO.P,D64,2*%
%TO.N,G*%
X212000000Y-82050000D03*
%TD*%
%TO.P,D164,1*%
%TO.N,C*%
X232000000Y-92950000D03*
%TO.P,D164,2*%
%TO.N,J*%
X232000000Y-94050000D03*
%TD*%
%TO.P,D106,1*%
%TO.N,E*%
X236000000Y-84950000D03*
%TO.P,D106,2*%
%TO.N,L*%
X236000000Y-86050000D03*
%TD*%
%TO.P,D60,1*%
%TO.N,G*%
X234000000Y-78950000D03*
%TO.P,D60,2*%
%TO.N,O*%
X234000000Y-80050000D03*
%TD*%
%TO.P,D160,1*%
%TO.N,F*%
X224000000Y-92950000D03*
%TO.P,D160,2*%
%TO.N,P*%
X224000000Y-94050000D03*
%TD*%
%TO.P,D90,1*%
%TO.N,E*%
X234000000Y-82950000D03*
%TO.P,D90,2*%
%TO.N,P*%
X234000000Y-84050000D03*
%TD*%
%TO.P,D119,1*%
%TO.N,P*%
X232000000Y-86950000D03*
%TO.P,D119,2*%
%TO.N,B*%
X232000000Y-88050000D03*
%TD*%
%TO.P,D131,1*%
%TO.N,O*%
X226000000Y-88950000D03*
%TO.P,D131,2*%
%TO.N,D*%
X226000000Y-90050000D03*
%TD*%
%TO.P,D177,1*%
%TO.N,D*%
X230000000Y-94950000D03*
%TO.P,D177,2*%
%TO.N,J*%
X230000000Y-96050000D03*
%TD*%
%TO.P,D142,1*%
%TO.N,H*%
X218000000Y-90950000D03*
%TO.P,D142,2*%
%TO.N,N*%
X218000000Y-92050000D03*
%TD*%
%TO.P,D118,1*%
%TO.N,B*%
X230000000Y-86950000D03*
%TO.P,D118,2*%
%TO.N,P*%
X230000000Y-88050000D03*
%TD*%
%TO.P,D47,1*%
%TO.N,O*%
X238000000Y-76950000D03*
%TO.P,D47,2*%
%TO.N,I*%
X238000000Y-78050000D03*
%TD*%
%TO.P,D50,1*%
%TO.N,D*%
X214000000Y-78950000D03*
%TO.P,D50,2*%
%TO.N,G*%
X214000000Y-80050000D03*
%TD*%
%TO.P,D129,1*%
%TO.N,N*%
X222000000Y-88950000D03*
%TO.P,D129,2*%
%TO.N,F*%
X222000000Y-90050000D03*
%TD*%
%TO.P,D21,1*%
%TO.N,C*%
X214000000Y-74950000D03*
%TO.P,D21,2*%
%TO.N,E*%
X214000000Y-76050000D03*
%TD*%
%TO.P,D104,1*%
%TO.N,A*%
X232000000Y-84950000D03*
%TO.P,D104,2*%
%TO.N,P*%
X232000000Y-86050000D03*
%TD*%
%TO.P,D155,1*%
%TO.N,M*%
X214000000Y-92950000D03*
%TO.P,D155,2*%
%TO.N,L*%
X214000000Y-94050000D03*
%TD*%
%TO.P,D148,1*%
%TO.N,C*%
X230000000Y-90950000D03*
%TO.P,D148,2*%
%TO.N,L*%
X230000000Y-92050000D03*
%TD*%
%TO.P,D170,1*%
%TO.N,N*%
X216000000Y-94950000D03*
%TO.P,D170,2*%
%TO.N,L*%
X216000000Y-96050000D03*
%TD*%
%TO.P,D120,1*%
%TO.N,A*%
X234000000Y-86950000D03*
%TO.P,D120,2*%
%TO.N,L*%
X234000000Y-88050000D03*
%TD*%
%TO.P,D201,1*%
%TO.N,D*%
X234000000Y-98950000D03*
%TO.P,D201,2*%
%TO.N,F*%
X234000000Y-100050000D03*
%TD*%
%TO.P,D97,1*%
%TO.N,K*%
X218000000Y-84950000D03*
%TO.P,D97,2*%
%TO.N,F*%
X218000000Y-86050000D03*
%TD*%
%TO.P,D181,1*%
%TO.N,B*%
X238000000Y-94950000D03*
%TO.P,D181,2*%
%TO.N,F*%
X238000000Y-96050000D03*
%TD*%
%TO.P,D191,1*%
%TO.N,H*%
X234000000Y-96950000D03*
%TO.P,D191,2*%
%TO.N,D*%
X234000000Y-98050000D03*
%TD*%
%TO.P,D11,1*%
%TO.N,E*%
X218000000Y-72950000D03*
%TO.P,D11,2*%
%TO.N,B*%
X218000000Y-74050000D03*
%TD*%
%TO.P,D102,1*%
%TO.N,B*%
X228000000Y-84950000D03*
%TO.P,D102,2*%
%TO.N,O*%
X228000000Y-86050000D03*
%TD*%
%TO.P,D95,1*%
%TO.N,I*%
X214000000Y-84950000D03*
%TO.P,D95,2*%
%TO.N,H*%
X214000000Y-86050000D03*
%TD*%
%TO.P,D48,1*%
%TO.N,K*%
X240000000Y-77000000D03*
%TO.P,D48,2*%
%TO.N,P*%
X240000000Y-78100000D03*
%TD*%
%TO.P,D161,1*%
%TO.N,P*%
X226000000Y-92950000D03*
%TO.P,D161,2*%
%TO.N,F*%
X226000000Y-94050000D03*
%TD*%
%TO.P,D73,1*%
%TO.N,N*%
X230000000Y-80950000D03*
%TO.P,D73,2*%
%TO.N,A*%
X230000000Y-82050000D03*
%TD*%
%TO.P,D2,1*%
%TO.N,E*%
X220000000Y-70950000D03*
%TO.P,D2,2*%
%TO.N,A*%
X220000000Y-72050000D03*
%TD*%
%TO.P,D101,1*%
%TO.N,N*%
X226000000Y-84950000D03*
%TO.P,D101,2*%
%TO.N,C*%
X226000000Y-86050000D03*
%TD*%
%TO.P,D179,1*%
%TO.N,C*%
X234000000Y-94950000D03*
%TO.P,D179,2*%
%TO.N,H*%
X234000000Y-96050000D03*
%TD*%
%TO.P,D56,1*%
%TO.N,A*%
X226000000Y-78950000D03*
%TO.P,D56,2*%
%TO.N,M*%
X226000000Y-80050000D03*
%TD*%
%TO.P,D24,1*%
%TO.N,G*%
X220000000Y-74950000D03*
%TO.P,D24,2*%
%TO.N,B*%
X220000000Y-76050000D03*
%TD*%
%TO.P,D141,1*%
%TO.N,M*%
X216000000Y-90950000D03*
%TO.P,D141,2*%
%TO.N,J*%
X216000000Y-92050000D03*
%TD*%
%TO.P,D168,1*%
%TO.N,A*%
X240000000Y-92950000D03*
%TO.P,D168,2*%
%TO.N,F*%
X240000000Y-94050000D03*
%TD*%
%TO.P,D35,1*%
%TO.N,E*%
X214000000Y-76950000D03*
%TO.P,D35,2*%
%TO.N,D*%
X214000000Y-78050000D03*
%TD*%
%TO.P,D62,1*%
%TO.N,I*%
X238000000Y-78950000D03*
%TO.P,D62,2*%
%TO.N,P*%
X238000000Y-80050000D03*
%TD*%
%TO.P,D83,1*%
%TO.N,K*%
X220000000Y-82950000D03*
%TO.P,D83,2*%
%TO.N,D*%
X220000000Y-84050000D03*
%TD*%
%TO.P,D107,1*%
%TO.N,L*%
X238000000Y-84950000D03*
%TO.P,D107,2*%
%TO.N,E*%
X238000000Y-86050000D03*
%TD*%
%TO.P,D158,1*%
%TO.N,H*%
X220000000Y-92950000D03*
%TO.P,D158,2*%
%TO.N,O*%
X220000000Y-94050000D03*
%TD*%
%TO.P,D51,1*%
%TO.N,G*%
X216000000Y-78950000D03*
%TO.P,D51,2*%
%TO.N,D*%
X216000000Y-80050000D03*
%TD*%
%TO.P,D165,1*%
%TO.N,J*%
X234000000Y-92950000D03*
%TO.P,D165,2*%
%TO.N,C*%
X234000000Y-94050000D03*
%TD*%
%TO.P,D157,1*%
%TO.N,N*%
X218000000Y-92950000D03*
%TO.P,D157,2*%
%TO.N,J*%
X218000000Y-94050000D03*
%TD*%
%TO.P,D63,1*%
%TO.N,P*%
X240000000Y-78950000D03*
%TO.P,D63,2*%
%TO.N,I*%
X240000000Y-80050000D03*
%TD*%
%TO.P,D59,1*%
%TO.N,N*%
X232000000Y-78950000D03*
%TO.P,D59,2*%
%TO.N,E*%
X232000000Y-80050000D03*
%TD*%
%TO.P,D85,1*%
%TO.N,M*%
X224000000Y-82950000D03*
%TO.P,D85,2*%
%TO.N,C*%
X224000000Y-84050000D03*
%TD*%
%TO.P,D140,1*%
%TO.N,J*%
X214000000Y-90950000D03*
%TO.P,D140,2*%
%TO.N,M*%
X214000000Y-92050000D03*
%TD*%
%TO.P,D174,1*%
%TO.N,P*%
X224000000Y-94950000D03*
%TO.P,D174,2*%
%TO.N,H*%
X224000000Y-96050000D03*
%TD*%
%TO.P,D22,1*%
%TO.N,E*%
X216000000Y-74950000D03*
%TO.P,D22,2*%
%TO.N,C*%
X216000000Y-76050000D03*
%TD*%
%TO.P,D9,1*%
%TO.N,K*%
X234000000Y-70950000D03*
%TO.P,D9,2*%
%TO.N,M*%
X234000000Y-72050000D03*
%TD*%
%TO.P,D169,1*%
%TO.N,L*%
X214000000Y-94900000D03*
%TO.P,D169,2*%
%TO.N,N*%
X214000000Y-96000000D03*
%TD*%
%TO.P,D135,1*%
%TO.N,L*%
X234000000Y-88950000D03*
%TO.P,D135,2*%
%TO.N,B*%
X234000000Y-90050000D03*
%TD*%
%TO.P,D162,1*%
%TO.N,D*%
X228000000Y-92950000D03*
%TO.P,D162,2*%
%TO.N,L*%
X228000000Y-94050000D03*
%TD*%
%TO.P,D49,1*%
%TO.N,E*%
X212000000Y-78950000D03*
%TO.P,D49,2*%
%TO.N,F*%
X212000000Y-80050000D03*
%TD*%
%TO.P,D86,1*%
%TO.N,B*%
X226000000Y-82950000D03*
%TO.P,D86,2*%
%TO.N,N*%
X226000000Y-84050000D03*
%TD*%
%TO.P,D193,1*%
%TO.N,L*%
X218000000Y-98950000D03*
%TO.P,D193,2*%
%TO.N,P*%
X218000000Y-100050000D03*
%TD*%
%TO.P,D81,1*%
%TO.N,I*%
X216000000Y-82950000D03*
%TO.P,D81,2*%
%TO.N,F*%
X216000000Y-84050000D03*
%TD*%
%TO.P,D184,1*%
%TO.N,J*%
X220000000Y-96950000D03*
%TO.P,D184,2*%
%TO.N,P*%
X220000000Y-98050000D03*
%TD*%
%TO.P,D130,1*%
%TO.N,D*%
X224000000Y-88950000D03*
%TO.P,D130,2*%
%TO.N,O*%
X224000000Y-90050000D03*
%TD*%
%TO.P,D42,1*%
%TO.N,E*%
X228000000Y-76950000D03*
%TO.P,D42,2*%
%TO.N,M*%
X228000000Y-78050000D03*
%TD*%
%TO.P,D134,1*%
%TO.N,B*%
X232000000Y-88950000D03*
%TO.P,D134,2*%
%TO.N,L*%
X232000000Y-90050000D03*
%TD*%
%TO.P,D37,1*%
%TO.N,G*%
X218000000Y-76950000D03*
%TO.P,D37,2*%
%TO.N,C*%
X218000000Y-78050000D03*
%TD*%
%TO.P,D61,1*%
%TO.N,O*%
X236000000Y-78950000D03*
%TO.P,D61,2*%
%TO.N,G*%
X236000000Y-80050000D03*
%TD*%
%TO.P,D7,1*%
%TO.N,I*%
X230000000Y-70950000D03*
%TO.P,D7,2*%
%TO.N,K*%
X230000000Y-72050000D03*
%TD*%
%TO.P,D171,1*%
%TO.N,J*%
X218000000Y-94950000D03*
%TO.P,D171,2*%
%TO.N,O*%
X218000000Y-96050000D03*
%TD*%
%TO.P,D167,1*%
%TO.N,H*%
X238000000Y-92950000D03*
%TO.P,D167,2*%
%TO.N,B*%
X238000000Y-94050000D03*
%TD*%
%TO.P,D112,1*%
%TO.N,F*%
X218000000Y-86950000D03*
%TO.P,D112,2*%
%TO.N,M*%
X218000000Y-88050000D03*
%TD*%
%TO.P,D67,1*%
%TO.N,I*%
X218000000Y-80950000D03*
%TO.P,D67,2*%
%TO.N,D*%
X218000000Y-82050000D03*
%TD*%
%TO.P,D41,1*%
%TO.N,K*%
X226000000Y-76950000D03*
%TO.P,D41,2*%
%TO.N,A*%
X226000000Y-78050000D03*
%TD*%
%TO.P,D71,1*%
%TO.N,M*%
X226000000Y-80950000D03*
%TO.P,D71,2*%
%TO.N,B*%
X226000000Y-82050000D03*
%TD*%
%TO.P,D75,1*%
%TO.N,O*%
X234000000Y-80950000D03*
%TO.P,D75,2*%
%TO.N,E*%
X234000000Y-82050000D03*
%TD*%
%TO.P,D80,1*%
%TO.N,F*%
X214000000Y-82950000D03*
%TO.P,D80,2*%
%TO.N,I*%
X214000000Y-84050000D03*
%TD*%
%TO.P,D128,1*%
%TO.N,F*%
X220000000Y-88950000D03*
%TO.P,D128,2*%
%TO.N,N*%
X220000000Y-90050000D03*
%TD*%
%TO.P,D132,1*%
%TO.N,C*%
X228000000Y-88950000D03*
%TO.P,D132,2*%
%TO.N,P*%
X228000000Y-90050000D03*
%TD*%
%TO.P,D29,1*%
%TO.N,G*%
X230000000Y-74950000D03*
%TO.P,D29,2*%
%TO.N,M*%
X230000000Y-76050000D03*
%TD*%
%TO.P,D144,1*%
%TO.N,F*%
X222000000Y-90950000D03*
%TO.P,D144,2*%
%TO.N,O*%
X222000000Y-92050000D03*
%TD*%
%TO.P,D123,1*%
%TO.N,J*%
X240000000Y-86950000D03*
%TO.P,D123,2*%
%TO.N,E*%
X240000000Y-88050000D03*
%TD*%
%TO.P,D156,1*%
%TO.N,J*%
X216000000Y-92950000D03*
%TO.P,D156,2*%
%TO.N,N*%
X216000000Y-94050000D03*
%TD*%
%TO.P,D110,1*%
%TO.N,H*%
X214000000Y-86950000D03*
%TO.P,D110,2*%
%TO.N,K*%
X214000000Y-88050000D03*
%TD*%
%TO.P,D151,1*%
%TO.N,J*%
X236000000Y-90950000D03*
%TO.P,D151,2*%
%TO.N,B*%
X236000000Y-92050000D03*
%TD*%
%TO.P,D99,1*%
%TO.N,M*%
X222000000Y-84950000D03*
%TO.P,D99,2*%
%TO.N,D*%
X222000000Y-86050000D03*
%TD*%
%TO.P,D53,1*%
%TO.N,I*%
X220000000Y-78950000D03*
%TO.P,D53,2*%
%TO.N,C*%
X220000000Y-80050000D03*
%TD*%
%TO.P,D108,1*%
%TO.N,G*%
X240000000Y-84950000D03*
%TO.P,D108,2*%
%TO.N,J*%
X240000000Y-86050000D03*
%TD*%
%TO.P,D18,1*%
%TO.N,I*%
X232000000Y-72950000D03*
%TO.P,D18,2*%
%TO.N,M*%
X232000000Y-74050000D03*
%TD*%
%TO.P,D88,1*%
%TO.N,A*%
X230000000Y-82950000D03*
%TO.P,D88,2*%
%TO.N,O*%
X230000000Y-84050000D03*
%TD*%
%TO.P,D178,1*%
%TO.N,J*%
X232000000Y-94950000D03*
%TO.P,D178,2*%
%TO.N,D*%
X232000000Y-96050000D03*
%TD*%
%TO.P,D113,1*%
%TO.N,M*%
X220000000Y-86950000D03*
%TO.P,D113,2*%
%TO.N,F*%
X220000000Y-88050000D03*
%TD*%
%TO.P,D192,1*%
%TO.N,C*%
X236000000Y-96950000D03*
%TO.P,D192,2*%
%TO.N,F*%
X236000000Y-98050000D03*
%TD*%
%TO.P,D15,1*%
%TO.N,I*%
X226000000Y-72950000D03*
%TO.P,D15,2*%
%TO.N,E*%
X226000000Y-74050000D03*
%TD*%
%TO.P,D87,1*%
%TO.N,N*%
X228000000Y-82950000D03*
%TO.P,D87,2*%
%TO.N,B*%
X228000000Y-84050000D03*
%TD*%
%TO.P,D100,1*%
%TO.N,C*%
X224000000Y-84950000D03*
%TO.P,D100,2*%
%TO.N,N*%
X224000000Y-86050000D03*
%TD*%
%TO.P,D31,1*%
%TO.N,I*%
X234000000Y-74950000D03*
%TO.P,D31,2*%
%TO.N,N*%
X234000000Y-76050000D03*
%TD*%
%TO.P,D38,1*%
%TO.N,B*%
X220000000Y-76950000D03*
%TO.P,D38,2*%
%TO.N,I*%
X220000000Y-78050000D03*
%TD*%
%TO.P,D16,1*%
%TO.N,G*%
X228000000Y-72950000D03*
%TO.P,D16,2*%
%TO.N,K*%
X228000000Y-74050000D03*
%TD*%
%TO.P,D44,1*%
%TO.N,G*%
X232000000Y-76950000D03*
%TO.P,D44,2*%
%TO.N,N*%
X232000000Y-78050000D03*
%TD*%
%TO.P,D4,1*%
%TO.N,G*%
X224000000Y-70950000D03*
%TO.P,D4,2*%
%TO.N,E*%
X224000000Y-72050000D03*
%TD*%
%TO.P,D46,1*%
%TO.N,I*%
X236000000Y-76950000D03*
%TO.P,D46,2*%
%TO.N,O*%
X236000000Y-78050000D03*
%TD*%
%TO.P,D91,1*%
%TO.N,P*%
X236000000Y-82950000D03*
%TO.P,D91,2*%
%TO.N,E*%
X236000000Y-84050000D03*
%TD*%
%TO.P,D1,1*%
%TO.N,A*%
X218000000Y-70950000D03*
%TO.P,D1,2*%
%TO.N,E*%
X218000000Y-72050000D03*
%TD*%
%TO.P,D166,1*%
%TO.N,B*%
X236000000Y-92950000D03*
%TO.P,D166,2*%
%TO.N,H*%
X236000000Y-94050000D03*
%TD*%
%TO.P,D190,1*%
%TO.N,D*%
X232000000Y-96950000D03*
%TO.P,D190,2*%
%TO.N,H*%
X232000000Y-98050000D03*
%TD*%
%TO.P,D115,1*%
%TO.N,N*%
X224000000Y-86950000D03*
%TO.P,D115,2*%
%TO.N,D*%
X224000000Y-88050000D03*
%TD*%
%TO.P,D10,1*%
%TO.N,B*%
X216000000Y-72950000D03*
%TO.P,D10,2*%
%TO.N,E*%
X216000000Y-74050000D03*
%TD*%
%TO.P,D198,1*%
%TO.N,J*%
X228000000Y-98950000D03*
%TO.P,D198,2*%
%TO.N,H*%
X228000000Y-100050000D03*
%TD*%
%TO.P,D58,1*%
%TO.N,E*%
X230000000Y-78950000D03*
%TO.P,D58,2*%
%TO.N,N*%
X230000000Y-80050000D03*
%TD*%
D11*
%TO.N,Net-(CHG1-VBAT)*%
X215000000Y-80452200D03*
X211021600Y-88115500D03*
X228754400Y-87988700D03*
%TO.N,USB + *%
X234756400Y-93191800D03*
X238941300Y-93191800D03*
%TO.N,GNDREF*%
X214755200Y-92314300D03*
X219433600Y-100737300D03*
%TO.N,CHIP_POW*%
X224887600Y-88431400D03*
X213522500Y-97094200D03*
X217001900Y-82598600D03*
X225205100Y-99413300D03*
%TO.N,Charge_STAT*%
X229001800Y-100785300D03*
X221005500Y-97695200D03*
X235207700Y-89028000D03*
%TO.N,Bat_ON*%
X230543700Y-101500000D03*
X215188600Y-90005900D03*
%TO.N,F*%
X215239400Y-82040400D03*
X218913500Y-88201200D03*
X223243000Y-98386000D03*
X221041600Y-88076800D03*
%TO.N,P*%
X214587200Y-98582600D03*
X239115500Y-81555300D03*
X228142500Y-102892700D03*
X234792000Y-82043700D03*
X227229600Y-90050000D03*
%TO.N,N*%
X225127900Y-85956300D03*
X232843700Y-82061300D03*
X216927100Y-96261800D03*
X221200500Y-89204200D03*
%TO.N,B*%
X222753400Y-90791400D03*
X234852800Y-91520100D03*
X231232100Y-88960000D03*
%TO.N,M*%
X222722600Y-85487100D03*
X226845700Y-85853300D03*
X231169800Y-75140000D03*
X212909700Y-92132600D03*
X217879000Y-100809200D03*
%TO.N,O*%
X232767700Y-82950300D03*
X218897200Y-86130900D03*
X235045400Y-78950000D03*
X215838800Y-99095200D03*
X219228000Y-94951100D03*
X226924500Y-88374100D03*
%TO.N,L*%
X217256000Y-97636900D03*
X228963000Y-93705800D03*
X213133300Y-96185500D03*
X222684400Y-101045900D03*
%TO.N,A*%
X229240100Y-73801100D03*
X231229100Y-85317200D03*
X217249500Y-73053800D03*
X224765600Y-91969400D03*
X236772500Y-88201900D03*
%TO.N,J*%
X228774400Y-97900700D03*
X235241300Y-89812900D03*
X232841900Y-97614900D03*
X219246200Y-96589000D03*
%TO.N,H*%
X240349314Y-95150685D03*
X215115700Y-88447300D03*
X233229200Y-96090000D03*
X221688200Y-102476800D03*
X221116600Y-94531300D03*
%TO.N,D*%
X227246900Y-91720500D03*
X216997000Y-92603600D03*
X217228200Y-80506200D03*
X223255200Y-88448000D03*
%TO.N,K*%
X219242200Y-79024400D03*
X216744500Y-86250800D03*
X220771000Y-83095600D03*
X220772600Y-70062600D03*
X219232400Y-97812800D03*
%TO.N,I*%
X214804000Y-84852100D03*
X221034200Y-96380800D03*
X219112000Y-76065100D03*
X222893700Y-70967300D03*
X220829500Y-85080100D03*
X239215300Y-80808800D03*
X210801800Y-85712500D03*
%TO.N,G*%
X213231900Y-80058700D03*
X224982800Y-100890700D03*
X225006900Y-70950000D03*
X224895200Y-73257400D03*
X232918700Y-79589800D03*
X216772700Y-78791900D03*
X230823800Y-73259000D03*
%TO.N,C*%
X224704000Y-93473600D03*
X234946700Y-94050000D03*
X226873000Y-87286700D03*
%TO.N,E*%
X235204200Y-84878100D03*
X238758900Y-85945700D03*
X225052100Y-71950000D03*
X226978300Y-92956000D03*
%TO.N,UPDI*%
X218744200Y-90025700D03*
X238948050Y-90271363D03*
%TO.N,SDA*%
X226908700Y-93855800D03*
X217243200Y-88156800D03*
%TO.N,Net-(Q1-G)*%
X228704000Y-102330300D03*
X217025100Y-94555700D03*
%TD*%
D12*
%TO.N,H*%
X240050000Y-90000000D02*
X240000000Y-90050000D01*
X241500000Y-90000000D02*
X240050000Y-90000000D01*
X241500000Y-93000000D02*
X241500000Y-90000000D01*
X241000000Y-93500000D02*
X241500000Y-93000000D01*
X241000000Y-94000000D02*
X241000000Y-93500000D01*
%TO.N,F*%
X230000000Y-98500000D02*
X230000000Y-98319600D01*
X228000000Y-96050000D02*
X227456300Y-96050000D01*
X220543700Y-88050000D02*
X220926700Y-88050000D01*
X224000000Y-92950000D02*
X223456300Y-92950000D01*
X219306800Y-87900500D02*
X219211000Y-87900500D01*
X232000000Y-100050000D02*
X231456300Y-100050000D01*
X228000000Y-96950000D02*
X228543700Y-96950000D01*
X236407800Y-97506300D02*
X237456300Y-96457800D01*
X218913500Y-88198000D02*
X218913500Y-88201200D01*
X220000000Y-88050000D02*
X220000000Y-88950000D01*
X224000000Y-92050000D02*
X224000000Y-92950000D01*
X212900000Y-83506300D02*
X211529000Y-83506300D01*
X223184500Y-93493700D02*
X221599100Y-93493700D01*
X220000000Y-88050000D02*
X220543700Y-88050000D01*
X240000000Y-94050000D02*
X240000000Y-94593700D01*
X222000000Y-90950000D02*
X222000000Y-91493700D01*
X214271900Y-82950000D02*
X214543700Y-82950000D01*
X225456300Y-94950000D02*
X224912600Y-95493700D01*
X219456300Y-88050000D02*
X219306800Y-87900500D01*
X236000000Y-98050000D02*
X236000000Y-98593700D01*
X221456300Y-93350900D02*
X221456300Y-91629600D01*
X214543700Y-82950000D02*
X214543700Y-83137400D01*
X213456300Y-82950000D02*
X212900000Y-83506300D01*
X218000000Y-86950000D02*
X218000000Y-86050000D01*
X228630500Y-96950100D02*
X228543700Y-96950100D01*
X214000000Y-82950000D02*
X214000000Y-82050000D01*
X222543700Y-87649100D02*
X222543700Y-89370400D01*
X222000000Y-90050000D02*
X222000000Y-89506300D01*
X226000000Y-94950000D02*
X226543700Y-94950000D01*
X218271900Y-86950000D02*
X218012600Y-86950000D01*
X226543700Y-95137400D02*
X226543700Y-94950000D01*
X214543700Y-82050000D02*
X214553300Y-82040400D01*
X228000000Y-96050000D02*
X228000000Y-96950000D01*
X223456300Y-92950000D02*
X223184500Y-93221800D01*
X211456300Y-81629600D02*
X211592200Y-81493700D01*
X222400900Y-87506300D02*
X222543700Y-87649100D01*
X230543700Y-99137400D02*
X230543700Y-98950000D01*
X238000000Y-96050000D02*
X237456300Y-96050000D01*
X222543700Y-89370400D02*
X222407800Y-89506300D01*
X219211000Y-87900500D02*
X218913500Y-88198000D01*
X214543700Y-83137400D02*
X215456300Y-84050000D01*
X234000000Y-100050000D02*
X232000000Y-100050000D01*
X236000000Y-98050000D02*
X236000000Y-97506300D01*
X221599100Y-93493700D02*
X221456300Y-93350900D01*
X218271900Y-86950000D02*
X218543700Y-86950000D01*
X212000000Y-80050000D02*
X212000000Y-80950000D01*
X224912600Y-95493700D02*
X223571300Y-95493700D01*
X231456300Y-100050000D02*
X230543700Y-99137400D01*
X226000000Y-94050000D02*
X226000000Y-94950000D01*
X218000000Y-86950000D02*
X218012600Y-86950000D01*
X212000000Y-80950000D02*
X212000000Y-81493700D01*
X240000000Y-94593700D02*
X238543700Y-96050000D01*
X211529000Y-83506300D02*
X211456300Y-83433600D01*
X230000000Y-98500000D02*
X230000000Y-98050000D01*
X220926700Y-88050000D02*
X221470400Y-87506300D01*
X223571300Y-95493700D02*
X223184500Y-95106900D01*
X222000000Y-90950000D02*
X222000000Y-90050000D01*
X216000000Y-84050000D02*
X215456300Y-84050000D01*
X222407800Y-89506300D02*
X222000000Y-89506300D01*
X234271900Y-100050000D02*
X234000000Y-100050000D01*
X221470400Y-87506300D02*
X222400900Y-87506300D01*
X214000000Y-82050000D02*
X214543700Y-82050000D01*
X211592200Y-81493700D02*
X212000000Y-81493700D01*
X221456300Y-91629600D02*
X221592200Y-91493700D01*
X237456300Y-96457800D02*
X237456300Y-96050000D01*
X223184500Y-95106900D02*
X223184500Y-93493700D01*
X230000000Y-98950000D02*
X230000000Y-98500000D01*
X228543700Y-96950100D02*
X228543700Y-96950000D01*
X236000000Y-97506300D02*
X236407800Y-97506300D01*
X211456300Y-83433600D02*
X211456300Y-81629600D01*
X220000000Y-88050000D02*
X219456300Y-88050000D01*
X221592200Y-91493700D02*
X222000000Y-91493700D01*
X230000000Y-98950000D02*
X230543700Y-98950000D01*
X234271900Y-100050000D02*
X234543700Y-100050000D01*
X218543700Y-87233200D02*
X218543700Y-86950000D01*
X214553300Y-82040400D02*
X215239400Y-82040400D01*
X219211000Y-87900500D02*
X218543700Y-87233200D01*
X227456300Y-96050000D02*
X226543700Y-95137400D01*
X214000000Y-82950000D02*
X213456300Y-82950000D01*
X216000000Y-84950000D02*
X216000000Y-84050000D01*
X223184500Y-93221800D02*
X223184500Y-93493700D01*
X236000000Y-98593700D02*
X234543700Y-100050000D01*
X238000000Y-96050000D02*
X238543700Y-96050000D01*
X226000000Y-94950000D02*
X225456300Y-94950000D01*
X230000000Y-98319600D02*
X228630500Y-96950100D01*
X214271900Y-82950000D02*
X214000000Y-82950000D01*
%TO.N,P*%
X227456300Y-90050000D02*
X227229600Y-90050000D01*
X240407800Y-79493700D02*
X240543700Y-79629600D01*
X232903000Y-87493700D02*
X234428700Y-87493700D01*
X231007400Y-89504900D02*
X230543700Y-89041200D01*
X226000000Y-92950000D02*
X226000000Y-92050000D01*
X224896500Y-94050000D02*
X225456300Y-93490200D01*
X222000000Y-96950000D02*
X222000000Y-96050000D01*
X224000000Y-94050000D02*
X224543700Y-94050000D01*
X220000000Y-98050000D02*
X220000000Y-98950000D01*
X232903000Y-87309300D02*
X232903000Y-87493700D01*
X234543700Y-87378700D02*
X234543700Y-85629600D01*
X222543700Y-99350900D02*
X222543700Y-97629600D01*
X222400900Y-99493700D02*
X222543700Y-99350900D01*
X234428700Y-87493700D02*
X234543700Y-87378700D01*
X232543700Y-86950000D02*
X232903000Y-87309300D01*
X218000000Y-100050000D02*
X218543700Y-100050000D01*
X240543700Y-81381800D02*
X240431800Y-81493700D01*
X239115500Y-81555300D02*
X239115500Y-81493700D01*
X239087400Y-81493700D02*
X238543700Y-80950000D01*
X226543700Y-91644500D02*
X226543700Y-92050000D01*
X240000000Y-78950000D02*
X240000000Y-79493700D01*
X220271900Y-99493700D02*
X222400900Y-99493700D01*
X232389700Y-89504900D02*
X231007400Y-89504900D01*
X238000000Y-80950000D02*
X238543700Y-80950000D01*
X224543700Y-94050000D02*
X224896500Y-94050000D01*
X228000000Y-90050000D02*
X227456300Y-90050000D01*
X236543700Y-85350900D02*
X236543700Y-83629600D01*
X216209200Y-99493700D02*
X218174800Y-99493700D01*
X232903000Y-88991600D02*
X232389700Y-89504900D01*
X236543700Y-83629600D02*
X236407800Y-83493700D01*
X239115500Y-81493700D02*
X239087400Y-81493700D01*
X240543700Y-79629600D02*
X240543700Y-81381800D01*
X218174800Y-99493700D02*
X218543700Y-99862600D01*
X216064000Y-99638900D02*
X216209200Y-99493700D01*
X218543700Y-100050000D02*
X218543700Y-99862600D01*
X234543700Y-85629600D02*
X234667000Y-85506300D01*
X232000000Y-86950000D02*
X232543700Y-86950000D01*
X236407800Y-83493700D02*
X236000000Y-83493700D01*
X230543700Y-89041200D02*
X230543700Y-88950000D01*
X236000000Y-82950000D02*
X236000000Y-83493700D01*
X234667000Y-85506300D02*
X236388300Y-85506300D01*
X232000000Y-86050000D02*
X232000000Y-86950000D01*
X235456300Y-82050000D02*
X234798300Y-82050000D01*
X227238200Y-90950000D02*
X226543700Y-91644500D01*
X232903000Y-87493700D02*
X232903000Y-88991600D01*
X226000000Y-92050000D02*
X226543700Y-92050000D01*
X238000000Y-80050000D02*
X238000000Y-80950000D01*
X228000000Y-90950000D02*
X228000000Y-90050000D01*
X234798300Y-82050000D02*
X234792000Y-82043700D01*
X218543700Y-99862600D02*
X219456300Y-98950000D01*
X240000000Y-79493700D02*
X240407800Y-79493700D01*
X225456300Y-93490200D02*
X225456300Y-92950000D01*
X219728200Y-98950000D02*
X220271900Y-99493700D01*
X236000000Y-82050000D02*
X235456300Y-82050000D01*
X234543700Y-85629600D02*
X234407800Y-85493700D01*
X230000000Y-88050000D02*
X230000000Y-88950000D01*
X214587200Y-98582600D02*
X214587200Y-98612400D01*
X222543700Y-97629600D02*
X222407800Y-97493700D01*
X234000000Y-84050000D02*
X234000000Y-84950000D01*
X214587200Y-98612400D02*
X215613700Y-99638900D01*
X222000000Y-96950000D02*
X222000000Y-97493700D01*
X236000000Y-82950000D02*
X236000000Y-82050000D01*
X219728200Y-98950000D02*
X219456300Y-98950000D01*
X240000000Y-78950000D02*
X240000000Y-78100000D01*
X226000000Y-92950000D02*
X225456300Y-92950000D01*
X227456300Y-90950000D02*
X227238200Y-90950000D01*
X236388300Y-85506300D02*
X236543700Y-85350900D01*
X222407800Y-97493700D02*
X222000000Y-97493700D01*
X234000000Y-84950000D02*
X234000000Y-85493700D01*
X234407800Y-85493700D02*
X234000000Y-85493700D01*
X228000000Y-90950000D02*
X227456300Y-90950000D01*
X224000000Y-94050000D02*
X224000000Y-94950000D01*
X230000000Y-88950000D02*
X230543700Y-88950000D01*
X220000000Y-98950000D02*
X219728200Y-98950000D01*
X215613700Y-99638900D02*
X216064000Y-99638900D01*
X240431800Y-81493700D02*
X239115500Y-81493700D01*
%TO.N,N*%
X230667000Y-81506300D02*
X230543700Y-81629600D01*
X228000000Y-82950000D02*
X228543700Y-82950000D01*
X214543700Y-96000000D02*
X214543700Y-95862600D01*
X217456300Y-93137400D02*
X216543700Y-94050000D01*
X230000000Y-80950000D02*
X230000000Y-81493700D01*
X233456300Y-76950000D02*
X233456300Y-77137400D01*
X228543700Y-82950000D02*
X229087400Y-83493700D01*
X220000000Y-90050000D02*
X220000000Y-90950000D01*
X218000000Y-92950000D02*
X218000000Y-92050000D01*
X228000000Y-82050000D02*
X228000000Y-82950000D01*
X232185500Y-78050000D02*
X232543700Y-78050000D01*
X230000000Y-80050000D02*
X230000000Y-80950000D01*
X218000000Y-92950000D02*
X217456300Y-92950000D01*
X217456300Y-92950000D02*
X217456300Y-93137400D01*
X236000000Y-74050000D02*
X236000000Y-74950000D01*
X216000000Y-94950000D02*
X215456300Y-94950000D01*
X236000000Y-74050000D02*
X235456300Y-74050000D01*
X224543700Y-86050000D02*
X224637400Y-85956300D01*
X216457400Y-94950000D02*
X216927100Y-95419700D01*
X232400900Y-81506300D02*
X230667000Y-81506300D01*
X232000000Y-78050000D02*
X232000000Y-77506300D01*
X214000000Y-96000000D02*
X214543700Y-96000000D01*
X216000000Y-94050000D02*
X216000000Y-94593700D01*
X231572900Y-75506300D02*
X232400700Y-75506300D01*
X233588600Y-73506300D02*
X234912600Y-73506300D01*
X230543700Y-81629600D02*
X230407800Y-81493700D01*
X216000000Y-94950000D02*
X216457400Y-94950000D01*
X216000000Y-94050000D02*
X216543700Y-94050000D01*
X232185500Y-78050000D02*
X232000000Y-78050000D01*
X232907600Y-74187300D02*
X233588600Y-73506300D01*
X232843700Y-81949100D02*
X232400900Y-81506300D01*
X234912600Y-73506300D02*
X235456300Y-74050000D01*
X234000000Y-76050000D02*
X234000000Y-76950000D01*
X214543700Y-95862600D02*
X215456300Y-94950000D01*
X232000000Y-78950000D02*
X231456300Y-78950000D01*
X232907600Y-74999400D02*
X232907600Y-74187300D01*
X230432800Y-83493700D02*
X230543700Y-83382800D01*
X222000000Y-88950000D02*
X221456300Y-88950000D01*
X231592200Y-77506300D02*
X231456300Y-77370400D01*
X220543700Y-89861000D02*
X221200500Y-89204200D01*
X216187400Y-94593700D02*
X216457400Y-94863700D01*
X220000000Y-90050000D02*
X220543700Y-90050000D01*
X232000000Y-78050000D02*
X232000000Y-78950000D01*
X225127900Y-85278400D02*
X225127900Y-85956300D01*
X226000000Y-84050000D02*
X226000000Y-84950000D01*
X233456300Y-77137400D02*
X232543700Y-78050000D01*
X232000000Y-77506300D02*
X231592200Y-77506300D01*
X224000000Y-86950000D02*
X224000000Y-86050000D01*
X220543700Y-90050000D02*
X220543700Y-89861000D01*
X234000000Y-76950000D02*
X233456300Y-76950000D01*
X226000000Y-84950000D02*
X225456300Y-84950000D01*
X231456300Y-77370400D02*
X231456300Y-75622900D01*
X230543700Y-83382800D02*
X230543700Y-81629600D01*
X232400700Y-75506300D02*
X232907600Y-74999400D01*
X230543700Y-80050000D02*
X230543700Y-79862600D01*
X222000000Y-88950000D02*
X222000000Y-88050000D01*
X224000000Y-86050000D02*
X224543700Y-86050000D01*
X221200500Y-89204200D02*
X221202100Y-89204200D01*
X221202100Y-89204200D02*
X221456300Y-88950000D01*
X230543700Y-79862600D02*
X231456300Y-78950000D01*
X216457400Y-94863700D02*
X216457400Y-94950000D01*
X224637400Y-85956300D02*
X225127900Y-85956300D01*
X225456300Y-84950000D02*
X225127900Y-85278400D01*
X216000000Y-94593700D02*
X216187400Y-94593700D01*
X232843700Y-82061300D02*
X232843700Y-81949100D01*
X229087400Y-83493700D02*
X230432800Y-83493700D01*
X230000000Y-80050000D02*
X230543700Y-80050000D01*
X231456300Y-75622900D02*
X231572900Y-75506300D01*
X230407800Y-81493700D02*
X230000000Y-81493700D01*
X216927100Y-95419700D02*
X216927100Y-96261800D01*
%TO.N,B*%
X232000000Y-88050000D02*
X232000000Y-88950000D01*
X220543700Y-76050000D02*
X221087400Y-75506300D01*
X224407800Y-79506300D02*
X224000000Y-79506300D01*
X222407800Y-77506300D02*
X222000000Y-77506300D01*
X227456300Y-83862600D02*
X226543700Y-82950000D01*
X228480600Y-87493700D02*
X227556300Y-87493700D01*
X217728200Y-74050000D02*
X217456300Y-74050000D01*
X218000000Y-74050000D02*
X218543700Y-74050000D01*
X228000000Y-84050000D02*
X228000000Y-84950000D01*
X226388300Y-79493700D02*
X226543700Y-79649100D01*
X218543700Y-74050000D02*
X219087400Y-73506300D01*
X234926500Y-91520200D02*
X234852800Y-91520200D01*
X228000000Y-84950000D02*
X228000000Y-85493700D01*
X235456300Y-92050000D02*
X234926500Y-91520200D01*
X238000000Y-94050000D02*
X237456300Y-94050000D01*
X221087400Y-74192800D02*
X221087400Y-75506300D01*
X234000000Y-90050000D02*
X234000000Y-90950000D01*
X230000000Y-86950000D02*
X229456300Y-86950000D01*
X216543700Y-73137400D02*
X217456300Y-74050000D01*
X231446300Y-88960000D02*
X231232100Y-88960000D01*
X236543700Y-92950000D02*
X237456300Y-93862600D01*
X231456300Y-88950000D02*
X231446300Y-88960000D01*
X234271900Y-90950000D02*
X234000000Y-90950000D01*
X227592200Y-85493700D02*
X228000000Y-85493700D01*
X217728200Y-74050000D02*
X218000000Y-74321800D01*
X224543700Y-79370400D02*
X224667000Y-79493700D01*
X222543700Y-77370400D02*
X222407800Y-77506300D01*
X217864100Y-74050000D02*
X218000000Y-74050000D01*
X230000000Y-86950000D02*
X230000000Y-86050000D01*
X226543700Y-81370400D02*
X226407800Y-81506300D01*
X231456300Y-87862600D02*
X231456300Y-88050000D01*
X234852800Y-91520200D02*
X234852800Y-91520100D01*
X228000000Y-84050000D02*
X227456300Y-84050000D01*
X227556300Y-87493700D02*
X227456300Y-87393700D01*
X218000000Y-74321800D02*
X218000000Y-74950000D01*
X234271900Y-90950000D02*
X234543700Y-90950000D01*
X222543700Y-77370400D02*
X222667000Y-77493700D01*
X224667000Y-79493700D02*
X226388300Y-79493700D01*
X232000000Y-88050000D02*
X231456300Y-88050000D01*
X227456300Y-85629600D02*
X227592200Y-85493700D01*
X222000000Y-78050000D02*
X222000000Y-78950000D01*
X226407800Y-81506300D02*
X226000000Y-81506300D01*
X236000000Y-92950000D02*
X236543700Y-92950000D01*
X224000000Y-80950000D02*
X224000000Y-80050000D01*
X222000000Y-78050000D02*
X222000000Y-77506300D01*
X226000000Y-82050000D02*
X226000000Y-81506300D01*
X220000000Y-76050000D02*
X220543700Y-76050000D01*
X230000000Y-86950000D02*
X230543700Y-86950000D01*
X216000000Y-72950000D02*
X216543700Y-72950000D01*
X224000000Y-80050000D02*
X224000000Y-79506300D01*
X224543700Y-77621300D02*
X224543700Y-79370400D01*
X224416100Y-77493700D02*
X224543700Y-77621300D01*
X234852800Y-91520100D02*
X234852800Y-91259100D01*
X222543700Y-75621300D02*
X222543700Y-77370400D01*
X227456300Y-87393700D02*
X227456300Y-85629600D01*
X238000000Y-94050000D02*
X238000000Y-94950000D01*
X220000000Y-76950000D02*
X220000000Y-76050000D01*
X230543700Y-86950000D02*
X231456300Y-87862600D01*
X227456300Y-84050000D02*
X227456300Y-83862600D01*
X221087400Y-75506300D02*
X222428700Y-75506300D01*
X232000000Y-88950000D02*
X231456300Y-88950000D01*
X234852800Y-91259100D02*
X234543700Y-90950000D01*
X237456300Y-93862600D02*
X237456300Y-94050000D01*
X216543700Y-72950000D02*
X216543700Y-73137400D01*
X226543700Y-79649100D02*
X226543700Y-81370400D01*
X217864100Y-74050000D02*
X217728200Y-74050000D01*
X236000000Y-92050000D02*
X235456300Y-92050000D01*
X226000000Y-82950000D02*
X226543700Y-82950000D01*
X229024300Y-86950000D02*
X228480600Y-87493700D01*
X222667000Y-77493700D02*
X224416100Y-77493700D01*
X226000000Y-82050000D02*
X226000000Y-82950000D01*
X236000000Y-92950000D02*
X236000000Y-92050000D01*
X229456300Y-86950000D02*
X229024300Y-86950000D01*
X219087400Y-73506300D02*
X220400900Y-73506300D01*
X220400900Y-73506300D02*
X221087400Y-74192800D01*
X222428700Y-75506300D02*
X222543700Y-75621300D01*
X224543700Y-79370400D02*
X224407800Y-79506300D01*
%TO.N,M*%
X221728200Y-84950000D02*
X222000000Y-84950000D01*
X221456300Y-85266800D02*
X221456300Y-84950000D01*
X225456300Y-81137400D02*
X224543700Y-82050000D01*
X233456300Y-72950000D02*
X233456300Y-73137400D01*
X226388300Y-83493700D02*
X226845700Y-83951100D01*
X219571300Y-83506300D02*
X219439700Y-83637900D01*
X232000000Y-74950000D02*
X232000000Y-74050000D01*
X222000000Y-84950000D02*
X222000000Y-84050000D01*
X217592200Y-87506300D02*
X218000000Y-87506300D01*
X232000000Y-74950000D02*
X231456300Y-74950000D01*
X220673100Y-86050000D02*
X221456300Y-85266800D01*
X229456300Y-76950000D02*
X229456300Y-77137400D01*
X230543700Y-76050000D02*
X231013500Y-75580200D01*
X224000000Y-82950000D02*
X224000000Y-82050000D01*
X231169800Y-75140500D02*
X231169800Y-75140000D01*
X220000000Y-86950000D02*
X220000000Y-86050000D01*
X231171400Y-75138900D02*
X231170300Y-75140000D01*
X228000000Y-78050000D02*
X228543700Y-78050000D01*
X212000000Y-94050000D02*
X212543700Y-94050000D01*
X219439700Y-83637900D02*
X219439700Y-84521400D01*
X234000000Y-72050000D02*
X234000000Y-72950000D01*
X212543700Y-94050000D02*
X212543700Y-93862600D01*
X218000000Y-88050000D02*
X218000000Y-87506300D01*
X231170300Y-75140000D02*
X231169800Y-75140000D01*
X213373700Y-92132600D02*
X213456300Y-92050000D01*
X216000000Y-90050000D02*
X216543700Y-90050000D01*
X214000000Y-92950000D02*
X213456300Y-92950000D01*
X221728200Y-84950000D02*
X221456300Y-84950000D01*
X222000000Y-84950000D02*
X222543700Y-84950000D01*
X234000000Y-72950000D02*
X233456300Y-72950000D01*
X224000000Y-82950000D02*
X224543700Y-82950000D01*
X220000000Y-86050000D02*
X220543700Y-86050000D01*
X222543700Y-84950000D02*
X222543700Y-85308200D01*
X220400900Y-83506300D02*
X219571300Y-83506300D01*
X212543700Y-93862600D02*
X213456300Y-92950000D01*
X224543700Y-82950000D02*
X225087400Y-83493700D01*
X222543700Y-85308200D02*
X222722600Y-85487100D01*
X220944600Y-84050000D02*
X220400900Y-83506300D01*
X212909700Y-92132600D02*
X213373700Y-92132600D01*
X231267400Y-75138900D02*
X231171400Y-75138900D01*
X220543700Y-86050000D02*
X220673100Y-86050000D01*
X231013500Y-75580200D02*
X231013500Y-75296800D01*
X217456300Y-88950000D02*
X217456300Y-89137400D01*
X225087400Y-83493700D02*
X226388300Y-83493700D01*
X222000000Y-84050000D02*
X220944600Y-84050000D01*
X231456300Y-74950000D02*
X231267400Y-75138900D01*
X230000000Y-76950000D02*
X229456300Y-76950000D01*
X232000000Y-74050000D02*
X232543700Y-74050000D01*
X218000000Y-88950000D02*
X218000000Y-88050000D01*
X217456300Y-87370400D02*
X217592200Y-87506300D01*
X217456300Y-89137400D02*
X216543700Y-90050000D01*
X226000000Y-80950000D02*
X226000000Y-80050000D01*
X219439700Y-84521400D02*
X218467400Y-85493700D01*
X214000000Y-92050000D02*
X214000000Y-92950000D01*
X226000000Y-80950000D02*
X225456300Y-80950000D01*
X230000000Y-76050000D02*
X230543700Y-76050000D01*
X233456300Y-73137400D02*
X232543700Y-74050000D01*
X231013500Y-75296800D02*
X231169800Y-75140500D01*
X214000000Y-92050000D02*
X213456300Y-92050000D01*
X217456300Y-85649000D02*
X217456300Y-87370400D01*
X218000000Y-88950000D02*
X217456300Y-88950000D01*
X217611600Y-85493700D02*
X217456300Y-85649000D01*
X226845700Y-83951100D02*
X226845700Y-85853300D01*
X218467400Y-85493700D02*
X217611600Y-85493700D01*
X230000000Y-76050000D02*
X230000000Y-76950000D01*
X229456300Y-77137400D02*
X228543700Y-78050000D01*
X228000000Y-78050000D02*
X228000000Y-78950000D01*
X224000000Y-82050000D02*
X224543700Y-82050000D01*
X216000000Y-90950000D02*
X216000000Y-90050000D01*
X225456300Y-80950000D02*
X225456300Y-81137400D01*
%TO.N,O*%
X235814500Y-78950000D02*
X235542700Y-78950000D01*
X226000000Y-88950000D02*
X225456300Y-88950000D01*
X230000000Y-84050000D02*
X230000000Y-84950000D01*
X216000000Y-98934000D02*
X216000000Y-98050000D01*
X236000000Y-78050000D02*
X236000000Y-78950000D01*
X217456300Y-96950000D02*
X217174100Y-96950000D01*
X231456300Y-83137400D02*
X231456300Y-82950000D01*
X229456300Y-85137400D02*
X229456300Y-84950000D01*
X235045400Y-78950000D02*
X235045400Y-79548300D01*
X224543700Y-89862600D02*
X224543700Y-90050000D01*
X226000000Y-88050000D02*
X226543700Y-88050000D01*
X220000000Y-94950000D02*
X219456300Y-94950000D01*
X232000000Y-82950000D02*
X232767400Y-82950000D01*
X219455200Y-94951100D02*
X219456300Y-94950000D01*
X226867800Y-88374100D02*
X226924500Y-88374100D01*
X226000000Y-88950000D02*
X226000000Y-88050000D01*
X215838800Y-99095200D02*
X216000000Y-98934000D01*
X218000000Y-96950000D02*
X217456300Y-96950000D01*
X219228000Y-95365700D02*
X219228000Y-94951100D01*
X216000000Y-98050000D02*
X216543700Y-98050000D01*
X225456300Y-88950000D02*
X224543700Y-89862600D01*
X220000000Y-94050000D02*
X220000000Y-94950000D01*
X222000000Y-92050000D02*
X222543700Y-92050000D01*
X237456300Y-76950000D02*
X237456300Y-77137400D01*
X228000000Y-86050000D02*
X228543700Y-86050000D01*
X219228000Y-94951100D02*
X219455200Y-94951100D01*
X238000000Y-76050000D02*
X238000000Y-76950000D01*
X237456300Y-77137400D02*
X236543700Y-78050000D01*
X230543700Y-84050000D02*
X231456300Y-83137400D01*
X235814500Y-78950000D02*
X236000000Y-78950000D01*
X218543700Y-96050000D02*
X219228000Y-95365700D01*
X232000000Y-82950000D02*
X232000000Y-82050000D01*
X224000000Y-90050000D02*
X224000000Y-90950000D01*
X223456300Y-91137400D02*
X223456300Y-90950000D01*
X216543700Y-97580400D02*
X216543700Y-98050000D01*
X224000000Y-90050000D02*
X224543700Y-90050000D01*
X223728200Y-90950000D02*
X224000000Y-90950000D01*
X222543700Y-92050000D02*
X223456300Y-91137400D01*
X217174100Y-96950000D02*
X216543700Y-97580400D01*
X236000000Y-78050000D02*
X236543700Y-78050000D01*
X238000000Y-76950000D02*
X237456300Y-76950000D01*
X228000000Y-86950000D02*
X228000000Y-86050000D01*
X222000000Y-92050000D02*
X222000000Y-92950000D01*
X218000000Y-96050000D02*
X218543700Y-96050000D01*
X232000000Y-82950000D02*
X231456300Y-82950000D01*
X232767400Y-82950000D02*
X232767700Y-82950300D01*
X226543700Y-88050000D02*
X226867800Y-88374100D01*
X218000000Y-96050000D02*
X218000000Y-96950000D01*
X235045400Y-79548300D02*
X234543700Y-80050000D01*
X223728200Y-90950000D02*
X223456300Y-90950000D01*
X230000000Y-84950000D02*
X229456300Y-84950000D01*
X228543700Y-86050000D02*
X229456300Y-85137400D01*
X235542700Y-78950000D02*
X235045400Y-78950000D01*
X234000000Y-80950000D02*
X234000000Y-80050000D01*
X234000000Y-80050000D02*
X234543700Y-80050000D01*
X230000000Y-84050000D02*
X230543700Y-84050000D01*
%TO.N,L*%
X229814500Y-92950000D02*
X230000000Y-92950000D01*
X222086400Y-100050000D02*
X222086400Y-100447900D01*
X234000000Y-88050000D02*
X234543700Y-88050000D01*
X228887900Y-93705800D02*
X228963000Y-93705800D01*
X232000000Y-90950000D02*
X231456300Y-90950000D01*
X228000000Y-94050000D02*
X228543700Y-94050000D01*
X211592200Y-93493700D02*
X211425900Y-93660000D01*
X238000000Y-84050000D02*
X238000000Y-84950000D01*
X235456300Y-86950000D02*
X235456300Y-87137400D01*
X236543700Y-85862600D02*
X237456300Y-84950000D01*
X213442700Y-96185500D02*
X213442700Y-96387300D01*
X212000000Y-92950000D02*
X212000000Y-93493700D01*
X222086400Y-100447900D02*
X222684400Y-101045900D01*
X216000000Y-96547600D02*
X216000000Y-96950000D01*
X236000000Y-86950000D02*
X235456300Y-86950000D01*
X217456300Y-97837200D02*
X217256000Y-97636900D01*
X225864100Y-96950000D02*
X226000000Y-96950000D01*
X218000000Y-98050000D02*
X217456300Y-98050000D01*
X214000000Y-94900000D02*
X214000000Y-94050000D01*
X224543700Y-98050000D02*
X224543700Y-97862600D01*
X211425900Y-94483300D02*
X211842600Y-94900000D01*
X234000000Y-88950000D02*
X234000000Y-88050000D01*
X240543700Y-85372800D02*
X240422800Y-85493700D01*
X232543700Y-90050000D02*
X232543700Y-89862600D01*
X218000000Y-98950000D02*
X218000000Y-98050000D01*
X230000000Y-92050000D02*
X230000000Y-92950000D01*
X236000000Y-86050000D02*
X236000000Y-86950000D01*
X226000000Y-96678200D02*
X226000000Y-96050000D01*
X228963000Y-93443300D02*
X229456300Y-92950000D01*
X213133300Y-96185500D02*
X213442700Y-96185500D01*
X240000000Y-82950000D02*
X240000000Y-83493700D01*
X216000000Y-96050000D02*
X216000000Y-96547600D01*
X240422800Y-85493700D02*
X239087400Y-85493700D01*
X232543700Y-89862600D02*
X233456300Y-88950000D01*
X212000000Y-93493700D02*
X211592200Y-93493700D01*
X211842600Y-94900000D02*
X213442700Y-94900000D01*
X222086400Y-100050000D02*
X222543700Y-100050000D01*
X222543700Y-100050000D02*
X223456300Y-99137400D01*
X217456300Y-98050000D02*
X217456300Y-97837200D01*
X238000000Y-84950000D02*
X238543700Y-84950000D01*
X240000000Y-83493700D02*
X240407800Y-83493700D01*
X220000000Y-100050000D02*
X222000000Y-100050000D01*
X224000000Y-98950000D02*
X224000000Y-98050000D01*
X213442700Y-96387300D02*
X213603000Y-96547600D01*
X238000000Y-84950000D02*
X237456300Y-84950000D01*
X236543700Y-86050000D02*
X236543700Y-85862600D01*
X212000000Y-92050000D02*
X212000000Y-92950000D01*
X225864100Y-96950000D02*
X225728200Y-96950000D01*
X240543700Y-83629600D02*
X240543700Y-85372800D01*
X231456300Y-91137400D02*
X230543700Y-92050000D01*
X231456300Y-90950000D02*
X231456300Y-91137400D01*
X232000000Y-90050000D02*
X232000000Y-90950000D01*
X228963000Y-93705800D02*
X228963000Y-93443300D01*
X223456300Y-99137400D02*
X223456300Y-98950000D01*
X229814500Y-92950000D02*
X229456300Y-92950000D01*
X240407800Y-83493700D02*
X240543700Y-83629600D01*
X213603000Y-96547600D02*
X216000000Y-96547600D01*
X236000000Y-86050000D02*
X236543700Y-86050000D01*
X225728200Y-96950000D02*
X225456300Y-96950000D01*
X234000000Y-88950000D02*
X233456300Y-88950000D01*
X235456300Y-87137400D02*
X234543700Y-88050000D01*
X213442700Y-94900000D02*
X213442700Y-96185500D01*
X232000000Y-90050000D02*
X232543700Y-90050000D01*
X230000000Y-92050000D02*
X230543700Y-92050000D01*
X224000000Y-98950000D02*
X223456300Y-98950000D01*
X224000000Y-98050000D02*
X224543700Y-98050000D01*
X213442700Y-94900000D02*
X214000000Y-94900000D01*
X228543700Y-94050000D02*
X228887900Y-93705800D01*
X239087400Y-85493700D02*
X238543700Y-84950000D01*
X222000000Y-100050000D02*
X222086400Y-100050000D01*
X225728200Y-96950000D02*
X226000000Y-96678200D01*
X240000000Y-82950000D02*
X240000000Y-82050000D01*
X211425900Y-93660000D02*
X211425900Y-94483300D01*
X228000000Y-94050000D02*
X228000000Y-94950000D01*
X224543700Y-97862600D02*
X225456300Y-96950000D01*
%TO.N,A*%
X217583900Y-73506300D02*
X217249500Y-73171900D01*
X236000000Y-88950000D02*
X236543700Y-88950000D01*
X222000000Y-74050000D02*
X222000000Y-74950000D01*
X226000000Y-78050000D02*
X226000000Y-78950000D01*
X232000000Y-84950000D02*
X232543700Y-84950000D01*
X233456300Y-86050000D02*
X232543700Y-85137400D01*
X232000000Y-84050000D02*
X232000000Y-84950000D01*
X230000000Y-82050000D02*
X229456300Y-82050000D01*
X240000000Y-92050000D02*
X239456300Y-92050000D01*
X219456300Y-71862600D02*
X219456300Y-72050000D01*
X218543700Y-70950000D02*
X219456300Y-71862600D01*
X223456300Y-75862600D02*
X223456300Y-76050000D01*
X220057100Y-72950000D02*
X220000000Y-72950000D01*
X237456300Y-90050000D02*
X236543700Y-89137400D01*
X220057100Y-72950000D02*
X220543700Y-72950000D01*
X226543700Y-79137400D02*
X226543700Y-78950000D01*
X224543700Y-76950000D02*
X225456300Y-77862600D01*
X228000000Y-80950000D02*
X228543700Y-80950000D01*
X220000000Y-72321800D02*
X220000000Y-72950000D01*
X219728200Y-72050000D02*
X219456300Y-72050000D01*
X222000000Y-74050000D02*
X221456300Y-74050000D01*
X236000000Y-88201900D02*
X236000000Y-88950000D01*
X221456300Y-74050000D02*
X220543700Y-73137400D01*
X228543700Y-81137400D02*
X229456300Y-82050000D01*
X220000000Y-72950000D02*
X219079200Y-72950000D01*
X220543700Y-73137400D02*
X220543700Y-72950000D01*
X238000000Y-90950000D02*
X238000000Y-90050000D01*
X224000000Y-76050000D02*
X223456300Y-76050000D01*
X226000000Y-78950000D02*
X226543700Y-78950000D01*
X232543700Y-85137400D02*
X232543700Y-84950000D01*
X231456300Y-85090000D02*
X231229100Y-85317200D01*
X218522900Y-73506300D02*
X217583900Y-73506300D01*
X218000000Y-70950000D02*
X218543700Y-70950000D01*
X234000000Y-86950000D02*
X234000000Y-86050000D01*
X238543700Y-90950000D02*
X238543700Y-91137400D01*
X232000000Y-84950000D02*
X231456300Y-84950000D01*
X222543700Y-74950000D02*
X223456300Y-75862600D01*
X224000000Y-76050000D02*
X224000000Y-76950000D01*
X234000000Y-86050000D02*
X233456300Y-86050000D01*
X238000000Y-90950000D02*
X238543700Y-90950000D01*
X228543700Y-80950000D02*
X228543700Y-81137400D01*
X230000000Y-82950000D02*
X230000000Y-82050000D01*
X220000000Y-72050000D02*
X219728200Y-72050000D01*
X238543700Y-91137400D02*
X239456300Y-92050000D01*
X240000000Y-92950000D02*
X240000000Y-92050000D01*
X222000000Y-74950000D02*
X222543700Y-74950000D01*
X231456300Y-84950000D02*
X231456300Y-85090000D01*
X236000000Y-88050000D02*
X236000000Y-88201900D01*
X228000000Y-80950000D02*
X228000000Y-80050000D01*
X224000000Y-76950000D02*
X224543700Y-76950000D01*
X236543700Y-89137400D02*
X236543700Y-88950000D01*
X228000000Y-80050000D02*
X227456300Y-80050000D01*
X225456300Y-77862600D02*
X225456300Y-78050000D01*
X227456300Y-80050000D02*
X226543700Y-79137400D01*
X236000000Y-88201900D02*
X236772500Y-88201900D01*
X238000000Y-90050000D02*
X237456300Y-90050000D01*
X219728200Y-72050000D02*
X220000000Y-72321800D01*
X219079200Y-72950000D02*
X218522900Y-73506300D01*
X217249500Y-73171900D02*
X217249500Y-73053800D01*
X226000000Y-78050000D02*
X225456300Y-78050000D01*
%TO.N,J*%
X234000000Y-92050000D02*
X234000000Y-91506300D01*
X232000000Y-94950000D02*
X232000000Y-94050000D01*
X238000000Y-88050000D02*
X237456300Y-88050000D01*
X217498200Y-93843700D02*
X217699600Y-93642300D01*
X223599100Y-97493700D02*
X224400900Y-97493700D01*
X233566200Y-89493700D02*
X233456300Y-89603600D01*
X223456300Y-96555400D02*
X223456300Y-97350900D01*
X224661400Y-99188200D02*
X224661400Y-99252700D01*
X222400900Y-95500000D02*
X223456300Y-96555400D01*
X240407800Y-87493700D02*
X240568500Y-87654400D01*
X226912600Y-97506300D02*
X227456300Y-98050000D01*
X211589100Y-91493700D02*
X212912600Y-91493700D01*
X230000000Y-96950000D02*
X230543700Y-96950000D01*
X240410100Y-89493700D02*
X239087400Y-89493700D01*
X216000000Y-92050000D02*
X216000000Y-92950000D01*
X228000000Y-98050000D02*
X228625100Y-98050000D01*
X218580200Y-93500000D02*
X220449500Y-93500000D01*
X212000000Y-88950000D02*
X212000000Y-89493700D01*
X236912600Y-87506300D02*
X235599100Y-87506300D01*
X217699600Y-93558400D02*
X217758000Y-93500000D01*
X232841900Y-97614900D02*
X232720700Y-97493700D01*
X217456300Y-94050000D02*
X217456300Y-93885500D01*
X212912600Y-91493700D02*
X213456300Y-90950000D01*
X224949300Y-98900300D02*
X224661400Y-99188200D01*
X224661400Y-99252700D02*
X224407800Y-99506300D01*
X216000000Y-92050000D02*
X216543700Y-92050000D01*
X226585000Y-97506300D02*
X225571300Y-97506300D01*
X218580200Y-91685600D02*
X218400900Y-91506300D01*
X233456300Y-91370400D02*
X233592200Y-91506300D01*
X225396700Y-96497900D02*
X225396700Y-95617600D01*
X234664000Y-88802900D02*
X234664000Y-89253100D01*
X234695300Y-88410100D02*
X234695300Y-88771600D01*
X240000000Y-87493700D02*
X240407800Y-87493700D01*
X228000000Y-98050000D02*
X227456300Y-98050000D01*
X221029200Y-96950000D02*
X220543700Y-96950000D01*
X215456300Y-92050000D02*
X215456300Y-91862600D01*
X224000000Y-100050000D02*
X224000000Y-99506300D01*
X222000000Y-98050000D02*
X222000000Y-98950000D01*
X212000000Y-88050000D02*
X212000000Y-88950000D01*
X226585000Y-95690300D02*
X226585000Y-97506300D01*
X220449500Y-93500000D02*
X220543700Y-93594200D01*
X217087400Y-91506300D02*
X216543700Y-92050000D01*
X232543700Y-94050000D02*
X233456300Y-93137400D01*
X234000000Y-92950000D02*
X234000000Y-92050000D01*
X234695300Y-89293500D02*
X234495100Y-89493700D01*
X224949300Y-98128300D02*
X224949300Y-98900300D01*
X220000000Y-96589000D02*
X220000000Y-96050000D01*
X238000000Y-88050000D02*
X238000000Y-88950000D01*
X220673300Y-95500000D02*
X222400900Y-95500000D01*
X235599100Y-87506300D02*
X234695300Y-88410100D01*
X214000000Y-90950000D02*
X214000000Y-90050000D01*
X211453200Y-89632700D02*
X211453200Y-91357800D01*
X218000000Y-94050000D02*
X217456300Y-94050000D01*
X221562800Y-97483600D02*
X221029200Y-96950000D01*
X220543700Y-95370400D02*
X220407800Y-95506300D01*
X217758000Y-93500000D02*
X218580200Y-93500000D01*
X230000000Y-96050000D02*
X230000000Y-96950000D01*
X234695300Y-88771600D02*
X234664000Y-88802900D01*
X231087400Y-97493700D02*
X230543700Y-96950000D01*
X218000000Y-94950000D02*
X218000000Y-94050000D01*
X240568500Y-89335300D02*
X240410100Y-89493700D01*
X234695300Y-89284400D02*
X234695300Y-89293500D01*
X234495100Y-89493700D02*
X233566200Y-89493700D01*
X218400900Y-91506300D02*
X217087400Y-91506300D01*
X220000000Y-96050000D02*
X220000000Y-95506300D01*
X223456300Y-97350900D02*
X223599100Y-97493700D01*
X228000000Y-98950000D02*
X228000000Y-98050000D01*
X215456300Y-91862600D02*
X214543700Y-90950000D01*
X217456300Y-93885500D02*
X217498100Y-93843700D01*
X224407800Y-99506300D02*
X224000000Y-99506300D01*
X220000000Y-96589000D02*
X219246200Y-96589000D01*
X224400900Y-97493700D02*
X225396700Y-96497900D01*
X236000000Y-90050000D02*
X235456300Y-90050000D01*
X217699600Y-93642300D02*
X217699600Y-93558400D01*
X218580200Y-93500000D02*
X218580200Y-91685600D01*
X228625100Y-98050000D02*
X228774400Y-97900700D01*
X239087400Y-89493700D02*
X238543700Y-88950000D01*
X217498100Y-93843700D02*
X217498200Y-93843700D01*
X220000000Y-96950000D02*
X220000000Y-96589000D01*
X232720700Y-97493700D02*
X231087400Y-97493700D01*
X233592200Y-91506300D02*
X234000000Y-91506300D01*
X236000000Y-90050000D02*
X236000000Y-90950000D01*
X234664000Y-89253100D02*
X234695300Y-89284400D01*
X220543700Y-93594200D02*
X220543700Y-95370400D01*
X214000000Y-90950000D02*
X214543700Y-90950000D01*
X238000000Y-88950000D02*
X238543700Y-88950000D01*
X212000000Y-89493700D02*
X211592200Y-89493700D01*
X234000000Y-92950000D02*
X233456300Y-92950000D01*
X233456300Y-93137400D02*
X233456300Y-92950000D01*
X240000000Y-86950000D02*
X240000000Y-87493700D01*
X226000000Y-100050000D02*
X224000000Y-100050000D01*
X222000000Y-98050000D02*
X221562800Y-97612800D01*
X220543700Y-95370400D02*
X220673300Y-95500000D01*
X216000000Y-92050000D02*
X215456300Y-92050000D01*
X226388400Y-95493700D02*
X226585000Y-95690300D01*
X225396700Y-95617600D02*
X225520600Y-95493700D01*
X234695300Y-89293500D02*
X235214700Y-89812900D01*
X226585000Y-97506300D02*
X226912600Y-97506300D01*
X233456300Y-89603600D02*
X233456300Y-91370400D01*
X237456300Y-88050000D02*
X236912600Y-87506300D01*
X235214700Y-89812900D02*
X235241300Y-89812900D01*
X220407800Y-95506300D02*
X220000000Y-95506300D01*
X240000000Y-86050000D02*
X240000000Y-86950000D01*
X232000000Y-94050000D02*
X232543700Y-94050000D01*
X225571300Y-97506300D02*
X224949300Y-98128300D01*
X214000000Y-90950000D02*
X213456300Y-90950000D01*
X240568500Y-87654400D02*
X240568500Y-89335300D01*
X225520600Y-95493700D02*
X226388400Y-95493700D01*
X211592200Y-89493700D02*
X211453200Y-89632700D01*
X220000000Y-96950000D02*
X220543700Y-96950000D01*
X211453200Y-91357800D02*
X211589100Y-91493700D01*
X235456300Y-90027900D02*
X235456300Y-90050000D01*
X221562800Y-97612800D02*
X221562800Y-97483600D01*
X235241300Y-89812900D02*
X235456300Y-90027900D01*
%TO.N,H*%
X212000000Y-84950000D02*
X212543700Y-84950000D01*
X214000000Y-86950000D02*
X214000000Y-86050000D01*
X241000000Y-94499999D02*
X241000000Y-94000000D01*
X221456300Y-94950000D02*
X221116700Y-94610400D01*
X219456300Y-92050000D02*
X219456300Y-91862600D01*
X232000000Y-98050000D02*
X232000000Y-98950000D01*
X215456300Y-88787900D02*
X215115700Y-88447300D01*
X236000000Y-94950000D02*
X235456300Y-94950000D01*
X238000000Y-92950000D02*
X238000000Y-93493700D01*
X232000000Y-98950000D02*
X232543700Y-98950000D01*
X218000000Y-90050000D02*
X218000000Y-90950000D01*
X228000000Y-100050000D02*
X227456300Y-100050000D01*
X234401100Y-99493700D02*
X233087400Y-99493700D01*
X219456300Y-91862600D02*
X218543700Y-90950000D01*
X221116700Y-94610400D02*
X221116700Y-94531300D01*
X222000000Y-94950000D02*
X222543700Y-94950000D01*
X240000000Y-90050000D02*
X240000000Y-90950000D01*
X214000000Y-86050000D02*
X213456300Y-86050000D01*
X233456300Y-96050000D02*
X233416300Y-96090000D01*
X234000000Y-96050000D02*
X234000000Y-96950000D01*
X240349314Y-95150685D02*
X241000000Y-94499999D01*
X227456300Y-99862600D02*
X226543700Y-98950000D01*
X240500000Y-93500000D02*
X241000000Y-94000000D01*
X234547800Y-99347000D02*
X234401100Y-99493700D01*
X222543700Y-95137400D02*
X223456300Y-96050000D01*
X212543700Y-84950000D02*
X212543700Y-85137400D01*
X227456300Y-100050000D02*
X227456300Y-99862600D01*
X234000000Y-96950000D02*
X234000000Y-97493700D01*
X214543700Y-86950000D02*
X214543700Y-87137400D01*
X225029500Y-102476800D02*
X227456300Y-100050000D01*
X236000000Y-94950000D02*
X236000000Y-94050000D01*
X222000000Y-94950000D02*
X222000000Y-94050000D01*
X234543700Y-96050000D02*
X234543700Y-95862600D01*
X239319700Y-93739500D02*
X239559200Y-93500000D01*
X221456300Y-93862600D02*
X221456300Y-94050000D01*
X214543700Y-87137400D02*
X215456300Y-88050000D01*
X234547800Y-97633700D02*
X234547800Y-99347000D01*
X216000000Y-88050000D02*
X215456300Y-88050000D01*
X238664300Y-93739500D02*
X239319700Y-93739500D01*
X222000000Y-94950000D02*
X221456300Y-94950000D01*
X222543700Y-94950000D02*
X222543700Y-95137400D01*
X233087400Y-99493700D02*
X232543700Y-98950000D01*
X224000000Y-96050000D02*
X223456300Y-96050000D01*
X234543700Y-95862600D02*
X235456300Y-94950000D01*
X239559200Y-93500000D02*
X240500000Y-93500000D01*
X230000000Y-100050000D02*
X228000000Y-100050000D01*
X212543700Y-85137400D02*
X213456300Y-86050000D01*
X218000000Y-90950000D02*
X218543700Y-90950000D01*
X221116700Y-94531300D02*
X221116600Y-94531300D01*
X220000000Y-92950000D02*
X220000000Y-92050000D01*
X234000000Y-96050000D02*
X234543700Y-96050000D01*
X220000000Y-92050000D02*
X219456300Y-92050000D01*
X220543700Y-92950000D02*
X221456300Y-93862600D01*
X238418500Y-93493700D02*
X238664300Y-93739500D01*
X234407800Y-97493700D02*
X234547800Y-97633700D01*
X222000000Y-94050000D02*
X221456300Y-94050000D01*
X238000000Y-93493700D02*
X238418500Y-93493700D01*
X234000000Y-96050000D02*
X233456300Y-96050000D01*
X212000000Y-84050000D02*
X212000000Y-84950000D01*
X221688200Y-102476800D02*
X225029500Y-102476800D01*
X215456300Y-88950000D02*
X215456300Y-88787900D01*
X214000000Y-86950000D02*
X214543700Y-86950000D01*
X234000000Y-97493700D02*
X234407800Y-97493700D01*
X220000000Y-92950000D02*
X220543700Y-92950000D01*
X226000000Y-98950000D02*
X226543700Y-98950000D01*
X224000000Y-96050000D02*
X224000000Y-96950000D01*
X216000000Y-88950000D02*
X216000000Y-88050000D01*
X216000000Y-88950000D02*
X215456300Y-88950000D01*
X238000000Y-92950000D02*
X238000000Y-92050000D01*
X233416300Y-96090000D02*
X233229200Y-96090000D01*
X226000000Y-98950000D02*
X226000000Y-98050000D01*
%TO.N,D*%
X222000000Y-86950000D02*
X222000000Y-86050000D01*
X226000000Y-89506300D02*
X228428700Y-89506300D01*
X224000000Y-88448000D02*
X224000000Y-88950000D01*
X214000000Y-78050000D02*
X214000000Y-78950000D01*
X227805700Y-93281700D02*
X228000000Y-93281700D01*
X224000000Y-88050000D02*
X224000000Y-88448000D01*
X222000000Y-86950000D02*
X222543700Y-86950000D01*
X228407800Y-91506300D02*
X228000000Y-91506300D01*
X228543700Y-89621300D02*
X228543700Y-91370400D01*
X233864100Y-98050000D02*
X233728200Y-98050000D01*
X228428700Y-89506300D02*
X228543700Y-89621300D01*
X211592200Y-77493700D02*
X212000000Y-77493700D01*
X227437200Y-91910800D02*
X227246900Y-91720500D01*
X228000000Y-91910800D02*
X227437200Y-91910800D01*
X234000000Y-98050000D02*
X233864100Y-98050000D01*
X213814500Y-78950000D02*
X213456300Y-78950000D01*
X228912600Y-95493700D02*
X227553500Y-95493700D01*
X213814500Y-78950000D02*
X214000000Y-78950000D01*
X216987500Y-80506200D02*
X217228200Y-80506200D01*
X233728200Y-98050000D02*
X234000000Y-98321800D01*
X216000000Y-80050000D02*
X216000000Y-80950000D01*
X222543700Y-87137400D02*
X223456300Y-88050000D01*
X226000000Y-90050000D02*
X226000000Y-90950000D01*
X219592200Y-85493700D02*
X219456300Y-85629600D01*
X233864100Y-97868200D02*
X232945900Y-96950000D01*
X216000000Y-80950000D02*
X216543700Y-80950000D01*
X220000000Y-84050000D02*
X220000000Y-84950000D01*
X216000000Y-80050000D02*
X215456300Y-80050000D01*
X224000000Y-88448000D02*
X223255200Y-88448000D01*
X213456300Y-78950000D02*
X212912600Y-79493700D01*
X216543700Y-80950000D02*
X216987500Y-80506200D01*
X230000000Y-94050000D02*
X230000000Y-94950000D01*
X230000000Y-94950000D02*
X229456300Y-94950000D01*
X232000000Y-96950000D02*
X232000000Y-96050000D01*
X234000000Y-98321800D02*
X234000000Y-98950000D01*
X220000000Y-84950000D02*
X220000000Y-85493700D01*
X230000000Y-94950000D02*
X230543700Y-94950000D01*
X228000000Y-92950000D02*
X228000000Y-92050000D01*
X211588900Y-79493700D02*
X211456300Y-79361100D01*
X219583900Y-87506300D02*
X220900000Y-87506300D01*
X211456300Y-79361100D02*
X211456300Y-77629600D01*
X228000000Y-92950000D02*
X228000000Y-93281700D01*
X217100000Y-81506300D02*
X216543700Y-80950000D01*
X231456300Y-96050000D02*
X230543700Y-95137400D01*
X226000000Y-90050000D02*
X226000000Y-89506300D01*
X228543700Y-91370400D02*
X228407800Y-91506300D01*
X224000000Y-88050000D02*
X223456300Y-88050000D01*
X218000000Y-82950000D02*
X218000000Y-82050000D01*
X227553500Y-95493700D02*
X227456300Y-95396500D01*
X211456300Y-77629600D02*
X211592200Y-77493700D01*
X228000000Y-91910800D02*
X228000000Y-91506300D01*
X220900000Y-87506300D02*
X221456300Y-86950000D01*
X219456300Y-85629600D02*
X219456300Y-87378700D01*
X227456300Y-93631100D02*
X227805700Y-93281700D01*
X233864100Y-98050000D02*
X233864100Y-97868200D01*
X230543700Y-95137400D02*
X230543700Y-94950000D01*
X212912600Y-79493700D02*
X211588900Y-79493700D01*
X222000000Y-86950000D02*
X221456300Y-86950000D01*
X228000000Y-92050000D02*
X228000000Y-91910800D01*
X232000000Y-96050000D02*
X231456300Y-96050000D01*
X214543700Y-79137400D02*
X215456300Y-80050000D01*
X227456300Y-95396500D02*
X227456300Y-93631100D01*
X218000000Y-82050000D02*
X218000000Y-81506300D01*
X219456300Y-87378700D02*
X219583900Y-87506300D01*
X232945900Y-96950000D02*
X232000000Y-96950000D01*
X220000000Y-85493700D02*
X219592200Y-85493700D01*
X214543700Y-78950000D02*
X214543700Y-79137400D01*
X229456300Y-94950000D02*
X228912600Y-95493700D01*
X214000000Y-78950000D02*
X214543700Y-78950000D01*
X222543700Y-86950000D02*
X222543700Y-87137400D01*
X218000000Y-81506300D02*
X217100000Y-81506300D01*
X212000000Y-76950000D02*
X212000000Y-77493700D01*
%TO.N,K*%
X213728200Y-88950000D02*
X214000000Y-88950000D01*
X229456300Y-72950000D02*
X229157100Y-73249200D01*
X218543700Y-84050000D02*
X218543700Y-83862600D01*
X230000000Y-72050000D02*
X230000000Y-72950000D01*
X218000000Y-84950000D02*
X218000000Y-84050000D01*
X228696400Y-73567800D02*
X228696400Y-73709900D01*
X238271900Y-74950000D02*
X238543700Y-74950000D01*
X230400900Y-75493700D02*
X228271900Y-75493700D01*
X232416100Y-73506300D02*
X231532600Y-73506300D01*
X216000000Y-86950000D02*
X216000000Y-87493700D01*
X216543700Y-89378700D02*
X216428700Y-89493700D01*
X216428700Y-89493700D02*
X215445300Y-89493700D01*
X232570600Y-70950000D02*
X232570600Y-73351800D01*
X217456300Y-85137400D02*
X217456300Y-84950000D01*
X216000000Y-86050000D02*
X216000000Y-86950000D01*
X215445300Y-89493700D02*
X215413800Y-89462200D01*
X230000000Y-72950000D02*
X229456300Y-72950000D01*
X212543700Y-89862600D02*
X213456300Y-88950000D01*
X222000000Y-80050000D02*
X222000000Y-80950000D01*
X218543700Y-83862600D02*
X219456300Y-82950000D01*
X236000000Y-72950000D02*
X235456300Y-72950000D01*
X212000000Y-90950000D02*
X212000000Y-90050000D01*
X214000000Y-88950000D02*
X214543700Y-88950000D01*
X220000000Y-82950000D02*
X219456300Y-82950000D01*
X216000000Y-86050000D02*
X216457400Y-86050000D01*
X232570600Y-70950000D02*
X234000000Y-70950000D01*
X240000000Y-77000000D02*
X240000000Y-76456300D01*
X240000000Y-76456300D02*
X238543700Y-75000000D01*
X216543700Y-86050000D02*
X217456300Y-85137400D01*
X226543700Y-75862600D02*
X227456300Y-74950000D01*
X228000000Y-74050000D02*
X228543700Y-74050000D01*
X230626100Y-74412800D02*
X230626100Y-75268500D01*
X219609800Y-79506300D02*
X219242200Y-79138700D01*
X220000000Y-82950000D02*
X220000000Y-82050000D01*
X215055900Y-89462200D02*
X214543700Y-88950000D01*
X229157100Y-73249200D02*
X229015000Y-73249200D01*
X220000000Y-82950000D02*
X220543700Y-82950000D01*
X228543700Y-73862600D02*
X228543700Y-74050000D01*
X226000000Y-76050000D02*
X226000000Y-76950000D01*
X228000000Y-74950000D02*
X227728200Y-74950000D01*
X234407800Y-71493700D02*
X235456300Y-72542200D01*
X232570600Y-73351800D02*
X232416100Y-73506300D01*
X216000000Y-87493700D02*
X216407800Y-87493700D01*
X229015000Y-73249200D02*
X228696400Y-73567800D01*
X236543700Y-73221800D02*
X236543700Y-72950000D01*
X215413800Y-89462200D02*
X215055900Y-89462200D01*
X220543700Y-82950000D02*
X220625400Y-82950000D01*
X212543700Y-90050000D02*
X212543700Y-89862600D01*
X228000000Y-74950000D02*
X228000000Y-74050000D01*
X222000000Y-80050000D02*
X222543700Y-80050000D01*
X212000000Y-90050000D02*
X212543700Y-90050000D01*
X222543700Y-80050000D02*
X222543700Y-79862600D01*
X219242200Y-79138700D02*
X219242200Y-79024400D01*
X220625400Y-82950000D02*
X220771000Y-83095600D01*
X221456300Y-80050000D02*
X220912600Y-79506300D01*
X213728200Y-88950000D02*
X213456300Y-88950000D01*
X232570600Y-70950000D02*
X232000000Y-70950000D01*
X231532600Y-73506300D02*
X230626100Y-74412800D01*
X235456300Y-72542200D02*
X235456300Y-72950000D01*
X220912600Y-79506300D02*
X219609800Y-79506300D01*
X224000000Y-78950000D02*
X223456300Y-78950000D01*
X228271900Y-75493700D02*
X227728200Y-74950000D01*
X216407800Y-87493700D02*
X216543700Y-87629600D01*
X216457400Y-86050000D02*
X216543700Y-86050000D01*
X226000000Y-76050000D02*
X226543700Y-76050000D01*
X230568900Y-70062600D02*
X220772600Y-70062600D01*
X222000000Y-80050000D02*
X221456300Y-80050000D01*
X238543700Y-75000000D02*
X238543700Y-74950000D01*
X232000000Y-70950000D02*
X231456300Y-70950000D01*
X234000000Y-71493700D02*
X234407800Y-71493700D01*
X227728200Y-74950000D02*
X227456300Y-74950000D01*
X218000000Y-84050000D02*
X218543700Y-84050000D01*
X224000000Y-78950000D02*
X224000000Y-78050000D01*
X234000000Y-70950000D02*
X234000000Y-71493700D01*
X238271900Y-74950000D02*
X236543700Y-73221800D01*
X228696400Y-73709900D02*
X228543700Y-73862600D01*
X218000000Y-84950000D02*
X217456300Y-84950000D01*
X230626100Y-75268500D02*
X230400900Y-75493700D01*
X226543700Y-76050000D02*
X226543700Y-75862600D01*
X216543700Y-87629600D02*
X216543700Y-89378700D01*
X238000000Y-74950000D02*
X238271900Y-74950000D01*
X214000000Y-88050000D02*
X214000000Y-88950000D01*
X222543700Y-79862600D02*
X223456300Y-78950000D01*
X236000000Y-72950000D02*
X236543700Y-72950000D01*
X231456300Y-70950000D02*
X230568900Y-70062600D01*
X216543700Y-86050000D02*
X216744500Y-86250800D01*
%TO.N,I*%
X240000000Y-80950000D02*
X239456300Y-80950000D01*
X215445600Y-85493700D02*
X214804000Y-84852100D01*
X234000000Y-74950000D02*
X234543700Y-74950000D01*
X220543700Y-78050000D02*
X220543700Y-77862600D01*
X235456300Y-76050000D02*
X234543700Y-75137400D01*
X238000000Y-78050000D02*
X238000000Y-77506300D01*
X227728200Y-70950000D02*
X227184500Y-70406300D01*
X236000000Y-76050000D02*
X236543700Y-76050000D01*
X224000000Y-74950000D02*
X224000000Y-74050000D01*
X218543700Y-83350900D02*
X218400900Y-83493700D01*
X226000000Y-72950000D02*
X226000000Y-72050000D01*
X225456300Y-73492300D02*
X225456300Y-72950000D01*
X217087400Y-83493700D02*
X217087400Y-84807200D01*
X227456300Y-71229500D02*
X227456300Y-70950000D01*
X226543700Y-72050000D02*
X226635800Y-72050000D01*
X218400900Y-83493700D02*
X217087400Y-83493700D01*
X216400900Y-85493700D02*
X215445600Y-85493700D01*
X214804000Y-84852100D02*
X214641600Y-84852100D01*
X216000000Y-82950000D02*
X216543700Y-82950000D01*
X240000000Y-80050000D02*
X239456300Y-80050000D01*
X222000000Y-76050000D02*
X222000000Y-76950000D01*
X218543700Y-81493700D02*
X218543700Y-83350900D01*
X230000000Y-70950000D02*
X228000000Y-70950000D01*
X214000000Y-84950000D02*
X214543700Y-84950000D01*
X239215300Y-80808800D02*
X239315100Y-80808800D01*
X212000000Y-86050000D02*
X211456300Y-86050000D01*
X239456300Y-80050000D02*
X239456300Y-79862600D01*
X216000000Y-82050000D02*
X216000000Y-82950000D01*
X234543700Y-75137400D02*
X234543700Y-74950000D01*
X226635800Y-72050000D02*
X227456300Y-71229500D01*
X239456300Y-79862600D02*
X238543700Y-78950000D01*
X226000000Y-72950000D02*
X225456300Y-72950000D01*
X219112000Y-76065100D02*
X219112000Y-77017900D01*
X238543700Y-77370400D02*
X238407800Y-77506300D01*
X212000000Y-86950000D02*
X212000000Y-86050000D01*
X218000000Y-80950000D02*
X218543700Y-81493700D01*
X236543700Y-76050000D02*
X237087400Y-75506300D01*
X220000000Y-78050000D02*
X220543700Y-78050000D01*
X232000000Y-72950000D02*
X232000000Y-72050000D01*
X219112000Y-77017900D02*
X219587800Y-77493700D01*
X224543700Y-74050000D02*
X224898600Y-74050000D01*
X224000000Y-74050000D02*
X224543700Y-74050000D01*
X214641600Y-84852100D02*
X214543700Y-84950000D01*
X240000000Y-80050000D02*
X240000000Y-80950000D01*
X238400900Y-75506300D02*
X238543700Y-75649100D01*
X217087400Y-83493700D02*
X216543700Y-82950000D01*
X220543700Y-77862600D02*
X221456300Y-76950000D01*
X239315100Y-80808800D02*
X239456300Y-80950000D01*
X238000000Y-78950000D02*
X238000000Y-78050000D01*
X224898600Y-74050000D02*
X225456300Y-73492300D01*
X214000000Y-84050000D02*
X214000000Y-84950000D01*
X210801800Y-85712500D02*
X211118800Y-85712500D01*
X220174800Y-77493700D02*
X220543700Y-77862600D01*
X236000000Y-76050000D02*
X235456300Y-76050000D01*
X232000000Y-72050000D02*
X231456300Y-72050000D01*
X227728200Y-70950000D02*
X227456300Y-70950000D01*
X237087400Y-75506300D02*
X238400900Y-75506300D01*
X228000000Y-70950000D02*
X227728200Y-70950000D01*
X234000000Y-74950000D02*
X234000000Y-74050000D01*
X226000000Y-72050000D02*
X226543700Y-72050000D01*
X238543700Y-75649100D02*
X238543700Y-77370400D01*
X230000000Y-70950000D02*
X230543700Y-70950000D01*
X227184500Y-70406300D02*
X223454700Y-70406300D01*
X211118800Y-85712500D02*
X211456300Y-86050000D01*
X218000000Y-80950000D02*
X218000000Y-80050000D01*
X236000000Y-76950000D02*
X236000000Y-76050000D01*
X217087400Y-84807200D02*
X216400900Y-85493700D01*
X222000000Y-76950000D02*
X221456300Y-76950000D01*
X223454700Y-70406300D02*
X222893700Y-70967300D01*
X238000000Y-78950000D02*
X238543700Y-78950000D01*
X220000000Y-78050000D02*
X220000000Y-78950000D01*
X231456300Y-72050000D02*
X230543700Y-71137400D01*
X238407800Y-77506300D02*
X238000000Y-77506300D01*
X230543700Y-71137400D02*
X230543700Y-70950000D01*
X219587800Y-77493700D02*
X220174800Y-77493700D01*
%TO.N,G*%
X222664900Y-72050000D02*
X223456300Y-71258600D01*
X225006900Y-70950000D02*
X226000000Y-70950000D01*
X235728200Y-80950000D02*
X235456300Y-80950000D01*
X230543700Y-73257900D02*
X230822700Y-73257900D01*
X236543700Y-81137400D02*
X236543700Y-80950000D01*
X230407800Y-73506300D02*
X230000000Y-73506300D01*
X224000000Y-70950000D02*
X225006900Y-70950000D01*
X237456300Y-82050000D02*
X236543700Y-81137400D01*
X234407800Y-77506300D02*
X234000000Y-77506300D01*
X236000000Y-80050000D02*
X236000000Y-80950000D01*
X234000000Y-78950000D02*
X234000000Y-78050000D01*
X216000000Y-78050000D02*
X216543700Y-78050000D01*
X214000000Y-80050000D02*
X213456300Y-80050000D01*
X212000000Y-82050000D02*
X212543700Y-82050000D01*
X230543700Y-73257900D02*
X230543700Y-73370400D01*
X220000000Y-74950000D02*
X220000000Y-74050000D01*
X214000000Y-80950000D02*
X213456300Y-80950000D01*
X229087400Y-71506300D02*
X230400900Y-71506300D01*
X219456300Y-74950000D02*
X218543700Y-75862600D01*
X234543700Y-75649100D02*
X234543700Y-77370400D01*
X232543700Y-76050000D02*
X233087400Y-75506300D01*
X214000000Y-80050000D02*
X214000000Y-80950000D01*
X222543700Y-72050000D02*
X222664900Y-72050000D01*
X218000000Y-76950000D02*
X218000000Y-76050000D01*
X233399900Y-81307600D02*
X233399900Y-79589800D01*
X213456300Y-81137400D02*
X212543700Y-82050000D01*
X232000000Y-76050000D02*
X232543700Y-76050000D01*
X230400900Y-71506300D02*
X230543700Y-71649100D01*
X235728200Y-80950000D02*
X236000000Y-80950000D01*
X238543700Y-83137400D02*
X238543700Y-82950000D01*
X234543700Y-77370400D02*
X234407800Y-77506300D01*
X216701800Y-78791900D02*
X216772700Y-78791900D01*
X233586000Y-81493700D02*
X233399900Y-81307600D01*
X228000000Y-72950000D02*
X228000000Y-72050000D01*
X217456300Y-76950000D02*
X217456300Y-77137400D01*
X240000000Y-84050000D02*
X239456300Y-84050000D01*
X213456300Y-80950000D02*
X213456300Y-81137400D01*
X223456300Y-71258600D02*
X223456300Y-70950000D01*
X238000000Y-82950000D02*
X238543700Y-82950000D01*
X213447600Y-80058700D02*
X213456300Y-80050000D01*
X230822700Y-73257900D02*
X230823800Y-73259000D01*
X218543700Y-75862600D02*
X218543700Y-76050000D01*
X216000000Y-78950000D02*
X216543700Y-78950000D01*
X228543700Y-72050000D02*
X229087400Y-71506300D01*
X236000000Y-80950000D02*
X236543700Y-80950000D01*
X222000000Y-72950000D02*
X222000000Y-72050000D01*
X217456300Y-77137400D02*
X216543700Y-78050000D01*
X234400900Y-75506300D02*
X234543700Y-75649100D01*
X220000000Y-74950000D02*
X219456300Y-74950000D01*
X233087400Y-75506300D02*
X234400900Y-75506300D01*
X216000000Y-78050000D02*
X216000000Y-78950000D01*
X234000000Y-78050000D02*
X234000000Y-77506300D01*
X238000000Y-82950000D02*
X238000000Y-82050000D01*
X234912600Y-81493700D02*
X233586000Y-81493700D01*
X239456300Y-84050000D02*
X238543700Y-83137400D01*
X218000000Y-76050000D02*
X218543700Y-76050000D01*
X222000000Y-72050000D02*
X222543700Y-72050000D01*
X238000000Y-82050000D02*
X237456300Y-82050000D01*
X228000000Y-72050000D02*
X228543700Y-72050000D01*
X230543700Y-73370400D02*
X230407800Y-73506300D01*
X235456300Y-80950000D02*
X234912600Y-81493700D01*
X216543700Y-78950000D02*
X216701800Y-78791900D01*
X232000000Y-76950000D02*
X232000000Y-76050000D01*
X230000000Y-74950000D02*
X230000000Y-74050000D01*
X213231900Y-80058700D02*
X213447600Y-80058700D01*
X230543700Y-71649100D02*
X230543700Y-73257900D01*
X234000000Y-78950000D02*
X234000000Y-79493700D01*
X218000000Y-76950000D02*
X217456300Y-76950000D01*
X212000000Y-82050000D02*
X212000000Y-82950000D01*
X240000000Y-84950000D02*
X240000000Y-84050000D01*
X233399900Y-79589800D02*
X232918700Y-79589800D01*
X234000000Y-79493700D02*
X233496000Y-79493700D01*
X233496000Y-79493700D02*
X233399900Y-79589800D01*
X230000000Y-74050000D02*
X230000000Y-73506300D01*
X224000000Y-70950000D02*
X223456300Y-70950000D01*
%TO.N,C*%
X224000000Y-84050000D02*
X223456300Y-84050000D01*
X215456300Y-77629600D02*
X215592200Y-77493700D01*
X232912600Y-95493700D02*
X231554800Y-95493700D01*
X234000000Y-94950000D02*
X233456300Y-94950000D01*
X224000000Y-85493700D02*
X223592200Y-85493700D01*
X234946700Y-94050000D02*
X234000000Y-94050000D01*
X236000000Y-96950000D02*
X236000000Y-96050000D01*
X218006300Y-78950000D02*
X218012600Y-78950000D01*
X214000000Y-74950000D02*
X214543700Y-74950000D01*
X218271900Y-78950000D02*
X218012600Y-78950000D01*
X222000000Y-82950000D02*
X222543700Y-82950000D01*
X236000000Y-95506300D02*
X236407800Y-95506300D01*
X230000000Y-90050000D02*
X229456300Y-90050000D01*
X224906200Y-87500100D02*
X225456300Y-86950000D01*
X232000000Y-92950000D02*
X232000000Y-93493700D01*
X218271900Y-78950000D02*
X218543700Y-78950000D01*
X216000000Y-76950000D02*
X216000000Y-77493700D01*
X215456300Y-79378700D02*
X215456300Y-77629600D01*
X223596700Y-87500100D02*
X224906200Y-87500100D01*
X216000000Y-76950000D02*
X216000000Y-76050000D01*
X220185500Y-80950000D02*
X220543700Y-80950000D01*
X220185500Y-80950000D02*
X220000000Y-80950000D01*
X236407800Y-95506300D02*
X236543700Y-95370400D01*
X223451500Y-85634400D02*
X223451500Y-87354900D01*
X229456300Y-89862600D02*
X229456300Y-90050000D01*
X218543700Y-79137400D02*
X219456300Y-80050000D01*
X226873000Y-87279300D02*
X226873000Y-87286700D01*
X236468400Y-93506300D02*
X235490400Y-93506300D01*
X218543700Y-78950000D02*
X218543700Y-79137400D01*
X226000000Y-86950000D02*
X225456300Y-86950000D01*
X223592200Y-85493700D02*
X223451500Y-85634400D01*
X224000000Y-84950000D02*
X224000000Y-85493700D01*
X236543700Y-95370400D02*
X236543700Y-93581600D01*
X215571300Y-79493700D02*
X215456300Y-79378700D01*
X220000000Y-80950000D02*
X220000000Y-80050000D01*
X222000000Y-82050000D02*
X221456300Y-82050000D01*
X215592200Y-77493700D02*
X216000000Y-77493700D01*
X221456300Y-82050000D02*
X221456300Y-81862600D01*
X220000000Y-80050000D02*
X219456300Y-80050000D01*
X230000000Y-90950000D02*
X230000000Y-90050000D01*
X226873000Y-87466700D02*
X226873000Y-87286700D01*
X221456300Y-81862600D02*
X220543700Y-80950000D01*
X226000000Y-86950000D02*
X226000000Y-86050000D01*
X234000000Y-94050000D02*
X234000000Y-94950000D01*
X226000000Y-86950000D02*
X226543700Y-86950000D01*
X215456300Y-76050000D02*
X214543700Y-75137400D01*
X233456300Y-94950000D02*
X232912600Y-95493700D01*
X226543700Y-86950000D02*
X226873000Y-87279300D01*
X231456300Y-95395200D02*
X231456300Y-93629600D01*
X218006300Y-78950000D02*
X217462600Y-79493700D01*
X236000000Y-96050000D02*
X236000000Y-95506300D01*
X218000000Y-78950000D02*
X218000000Y-78050000D01*
X231456300Y-93629600D02*
X231592200Y-93493700D01*
X216000000Y-76050000D02*
X215456300Y-76050000D01*
X223456300Y-83862600D02*
X222543700Y-82950000D01*
X227456300Y-88050000D02*
X226873000Y-87466700D01*
X228000000Y-88950000D02*
X228543700Y-88950000D01*
X223456300Y-84050000D02*
X223456300Y-83862600D01*
X217462600Y-79493700D02*
X215571300Y-79493700D01*
X232000000Y-92950000D02*
X232000000Y-92050000D01*
X235490400Y-93506300D02*
X234946700Y-94050000D01*
X214543700Y-75137400D02*
X214543700Y-74950000D01*
X224000000Y-84050000D02*
X224000000Y-84950000D01*
X218000000Y-78950000D02*
X218006300Y-78950000D01*
X223451500Y-87354900D02*
X223596700Y-87500100D01*
X236543700Y-93581600D02*
X236468400Y-93506300D01*
X228000000Y-88050000D02*
X228000000Y-88950000D01*
X228543700Y-88950000D02*
X229456300Y-89862600D01*
X222000000Y-82050000D02*
X222000000Y-82950000D01*
X228000000Y-88050000D02*
X227456300Y-88050000D01*
X231592200Y-93493700D02*
X232000000Y-93493700D01*
X231554800Y-95493700D02*
X231456300Y-95395200D01*
%TO.N,E*%
X238000000Y-86050000D02*
X238543700Y-86050000D01*
X214000000Y-76950000D02*
X214000000Y-76050000D01*
X213592200Y-75506300D02*
X214000000Y-75506300D01*
X217614700Y-70353200D02*
X217456300Y-70511600D01*
X232000000Y-80950000D02*
X232543700Y-80950000D01*
X221449300Y-70950000D02*
X222000000Y-70950000D01*
X215456300Y-72549100D02*
X215955400Y-72050000D01*
X226000000Y-74050000D02*
X226000000Y-74950000D01*
X218859500Y-70353200D02*
X217614700Y-70353200D01*
X235456300Y-84950000D02*
X235384400Y-84878100D01*
X228912600Y-79493700D02*
X229456300Y-78950000D01*
X235384400Y-84878100D02*
X235204200Y-84878100D01*
X215955400Y-72050000D02*
X218000000Y-72050000D01*
X228000000Y-76950000D02*
X228000000Y-76050000D01*
X224643700Y-71950000D02*
X224543700Y-72050000D01*
X217456300Y-71370400D02*
X217592200Y-71506300D01*
X218000000Y-72050000D02*
X218000000Y-72950000D01*
X216000000Y-73778100D02*
X214207800Y-73778100D01*
X218000000Y-72050000D02*
X218000000Y-71506300D01*
X224000000Y-72950000D02*
X223456300Y-72950000D01*
X216000000Y-73778100D02*
X216000000Y-73506300D01*
X225456300Y-75629600D02*
X225456300Y-77350900D01*
X240000000Y-88050000D02*
X239456300Y-88050000D01*
X222912600Y-74807200D02*
X222912600Y-73493700D01*
X236000000Y-84050000D02*
X236000000Y-84950000D01*
X222912600Y-73493700D02*
X223456300Y-72950000D01*
X213456300Y-74529600D02*
X213456300Y-75370400D01*
X225333000Y-75506300D02*
X223611700Y-75506300D01*
X213456300Y-75370400D02*
X213592200Y-75506300D01*
X224000000Y-72050000D02*
X224000000Y-72950000D01*
X213456300Y-77137400D02*
X212543700Y-78050000D01*
X238648000Y-85945700D02*
X238543700Y-86050000D01*
X213456300Y-76950000D02*
X213456300Y-77137400D01*
X240000000Y-88050000D02*
X240000000Y-88950000D01*
X239456300Y-88050000D02*
X239456300Y-87862600D01*
X217592200Y-71506300D02*
X218000000Y-71506300D01*
X216000000Y-74050000D02*
X216000000Y-73778100D01*
X227428500Y-77493700D02*
X228000000Y-77493700D01*
X225456300Y-77350900D02*
X225599100Y-77493700D01*
X216000000Y-73506300D02*
X215592200Y-73506300D01*
X230000000Y-78950000D02*
X230000000Y-78050000D01*
X225599100Y-77493700D02*
X227428500Y-77493700D01*
X214000000Y-76050000D02*
X214000000Y-75506300D01*
X233456300Y-82050000D02*
X233456300Y-81862600D01*
X227571300Y-79493700D02*
X228912600Y-79493700D01*
X225592200Y-75493700D02*
X225456300Y-75629600D01*
X235456300Y-84050000D02*
X234543700Y-83137400D01*
X225052100Y-71950000D02*
X224643700Y-71950000D01*
X228000000Y-76950000D02*
X228000000Y-77493700D01*
X215592200Y-73506300D02*
X215456300Y-73370400D01*
X212000000Y-78950000D02*
X212000000Y-78050000D01*
X225456300Y-75629600D02*
X225333000Y-75506300D01*
X215456300Y-73370400D02*
X215456300Y-72549100D01*
X221449300Y-70950000D02*
X221449300Y-73343900D01*
X224000000Y-72050000D02*
X224543700Y-72050000D01*
X239456300Y-87862600D02*
X238543700Y-86950000D01*
X214207800Y-73778100D02*
X213456300Y-74529600D01*
X238758900Y-85945700D02*
X238648000Y-85945700D01*
X236000000Y-84050000D02*
X235456300Y-84050000D01*
X234000000Y-82050000D02*
X233456300Y-82050000D01*
X234000000Y-82050000D02*
X234000000Y-82950000D01*
X223611700Y-75506300D02*
X222912600Y-74807200D01*
X234000000Y-82950000D02*
X234543700Y-82950000D01*
X226000000Y-74950000D02*
X226000000Y-75493700D01*
X214000000Y-76950000D02*
X213456300Y-76950000D01*
X212000000Y-78050000D02*
X212543700Y-78050000D01*
X220000000Y-70950000D02*
X221449300Y-70950000D01*
X227428500Y-79350900D02*
X227571300Y-79493700D01*
X233456300Y-81862600D02*
X232543700Y-80950000D01*
X232000000Y-80050000D02*
X232000000Y-80950000D01*
X227428500Y-77493700D02*
X227428500Y-79350900D01*
X226000000Y-75493700D02*
X225592200Y-75493700D01*
X238000000Y-86950000D02*
X238000000Y-86050000D01*
X217456300Y-70511600D02*
X217456300Y-71370400D01*
X216000000Y-74050000D02*
X216000000Y-74950000D01*
X234543700Y-83137400D02*
X234543700Y-82950000D01*
X230000000Y-78950000D02*
X229456300Y-78950000D01*
X219456300Y-70950000D02*
X218859500Y-70353200D01*
X236000000Y-84950000D02*
X235456300Y-84950000D01*
X238000000Y-86950000D02*
X238543700Y-86950000D01*
X220000000Y-70950000D02*
X219456300Y-70950000D01*
X221599100Y-73493700D02*
X222912600Y-73493700D01*
X221449300Y-73343900D02*
X221599100Y-73493700D01*
%TD*%
M02*
