%TF.GenerationSoftware,KiCad,Pcbnew,9.0.1*%
%TF.CreationDate,2025-06-29T08:21:18-07:00*%
%TF.ProjectId,Complete_Watch,436f6d70-6c65-4746-955f-57617463682e,rev?*%
%TF.SameCoordinates,Original*%
%TF.FileFunction,Copper,L2,Inr*%
%TF.FilePolarity,Positive*%
%FSLAX46Y46*%
G04 Gerber Fmt 4.6, Leading zero omitted, Abs format (unit mm)*
G04 Created by KiCad (PCBNEW 9.0.1) date 2025-06-29 08:21:18*
%MOMM*%
%LPD*%
G01*
G04 APERTURE LIST*
%TA.AperFunction,ViaPad*%
%ADD10C,0.600000*%
%TD*%
%TA.AperFunction,Conductor*%
%ADD11C,0.200000*%
%TD*%
G04 APERTURE END LIST*
D10*
%TO.N,Net-(CHG1-VBAT)*%
X215000000Y-80452200D03*
X211021600Y-88115500D03*
X228754400Y-87988700D03*
%TO.N,USB + *%
X234756400Y-93191800D03*
X238941300Y-93191800D03*
%TO.N,GNDREF*%
X214755200Y-92314300D03*
X219433600Y-100737300D03*
%TO.N,CHIP_POW*%
X224887600Y-88431400D03*
X213522500Y-97094200D03*
X217001900Y-82598600D03*
X225205100Y-99413300D03*
%TO.N,Charge_STAT*%
X229001800Y-100785300D03*
X221005500Y-97695200D03*
X235207700Y-89028000D03*
%TO.N,Bat_ON*%
X230543700Y-101500000D03*
X215188600Y-90005900D03*
%TO.N,F*%
X215239400Y-82040400D03*
X218913500Y-88201200D03*
X223243000Y-98386000D03*
X221041600Y-88076800D03*
%TO.N,P*%
X214587200Y-98582600D03*
X239115500Y-81555300D03*
X228142500Y-102892700D03*
X234792000Y-82043700D03*
X227229600Y-90050000D03*
%TO.N,N*%
X225127900Y-85956300D03*
X232843700Y-82061300D03*
X216927100Y-96261800D03*
X221200500Y-89204200D03*
%TO.N,B*%
X222753400Y-90791400D03*
X234852800Y-91520100D03*
X231232100Y-88960000D03*
%TO.N,M*%
X222722600Y-85487100D03*
X226845700Y-85853300D03*
X231169800Y-75140000D03*
X212909700Y-92132600D03*
X217879000Y-100809200D03*
%TO.N,O*%
X232767700Y-82950300D03*
X218897200Y-86130900D03*
X235045400Y-78950000D03*
X215838800Y-99095200D03*
X219228000Y-94951100D03*
X226924500Y-88374100D03*
%TO.N,L*%
X217256000Y-97636900D03*
X228963000Y-93705800D03*
X213133300Y-96185500D03*
X222684400Y-101045900D03*
%TO.N,A*%
X229240100Y-73801100D03*
X231229100Y-85317200D03*
X217249500Y-73053800D03*
X224765600Y-91969400D03*
X236772500Y-88201900D03*
%TO.N,J*%
X228774400Y-97900700D03*
X235241300Y-89812900D03*
X232841900Y-97614900D03*
X219246200Y-96589000D03*
%TO.N,H*%
X240349314Y-95150685D03*
X215115700Y-88447300D03*
X233229200Y-96090000D03*
X221688200Y-102476800D03*
X221116600Y-94531300D03*
%TO.N,D*%
X227246900Y-91720500D03*
X216997000Y-92603600D03*
X217228200Y-80506200D03*
X223255200Y-88448000D03*
%TO.N,K*%
X219242200Y-79024400D03*
X216744500Y-86250800D03*
X220771000Y-83095600D03*
X220772600Y-70062600D03*
X219232400Y-97812800D03*
%TO.N,I*%
X214804000Y-84852100D03*
X221034200Y-96380800D03*
X219112000Y-76065100D03*
X222893700Y-70967300D03*
X220829500Y-85080100D03*
X239215300Y-80808800D03*
X210801800Y-85712500D03*
%TO.N,G*%
X213231900Y-80058700D03*
X224982800Y-100890700D03*
X225006900Y-70950000D03*
X224895200Y-73257400D03*
X232918700Y-79589800D03*
X216772700Y-78791900D03*
X230823800Y-73259000D03*
%TO.N,C*%
X224704000Y-93473600D03*
X234946700Y-94050000D03*
X226873000Y-87286700D03*
%TO.N,E*%
X235204200Y-84878100D03*
X238758900Y-85945700D03*
X225052100Y-71950000D03*
X226978300Y-92956000D03*
%TO.N,UPDI*%
X218744200Y-90025700D03*
X238948050Y-90271363D03*
%TO.N,SDA*%
X226908700Y-93855800D03*
X217243200Y-88156800D03*
%TO.N,Net-(Q1-G)*%
X228704000Y-102330300D03*
X217025100Y-94555700D03*
%TD*%
D11*
%TO.N,Net-(CHG1-VBAT)*%
X211345500Y-84106700D02*
X215000000Y-80452200D01*
X211345500Y-87791600D02*
X211345500Y-84106700D01*
X211021600Y-88115500D02*
X211345500Y-87791600D01*
%TO.N,GNDREF*%
X214755200Y-96058900D02*
X214755200Y-92314300D01*
X219433600Y-100737300D02*
X214755200Y-96058900D01*
%TO.N,CHIP_POW*%
X225326200Y-99292200D02*
X225326200Y-88870000D01*
X217001900Y-82598600D02*
X217001900Y-85199400D01*
X213677000Y-96939700D02*
X213522500Y-97094200D01*
X225326200Y-88870000D02*
X224887600Y-88431400D01*
X217001900Y-85199400D02*
X213677000Y-88524300D01*
X213677000Y-88524300D02*
X213677000Y-96939700D01*
X225205100Y-99413300D02*
X225326200Y-99292200D01*
%TO.N,Charge_STAT*%
X235207700Y-89028000D02*
X232299700Y-91936000D01*
X232299700Y-96144700D02*
X229001800Y-99442600D01*
X229001800Y-99442600D02*
X229001800Y-100785300D01*
X232299700Y-91936000D02*
X232299700Y-96144700D01*
%TO.N,F*%
X221041600Y-88076800D02*
X223347700Y-90382900D01*
X217672900Y-82480000D02*
X217672900Y-86960600D01*
X223347700Y-90382900D02*
X223347700Y-98281300D01*
X217233300Y-82040400D02*
X217672900Y-82480000D01*
X217672900Y-86960600D02*
X218913500Y-88201200D01*
X223347700Y-98281300D02*
X223243000Y-98386000D01*
X215239400Y-82040400D02*
X217233300Y-82040400D01*
%TO.N,P*%
X229097600Y-91917900D02*
X227229600Y-90050000D01*
X229550000Y-93890800D02*
X228142500Y-95298300D01*
X229550000Y-92370400D02*
X229550000Y-93890800D01*
X229097600Y-91917900D02*
X229550000Y-92370400D01*
X239115500Y-81900000D02*
X229097600Y-91917900D01*
X228142500Y-95298300D02*
X228142500Y-102892700D01*
X239115500Y-81555300D02*
X239115500Y-81900000D01*
%TO.N,M*%
X215277000Y-97764500D02*
X217879000Y-100366500D01*
X213356900Y-97764500D02*
X215277000Y-97764500D01*
X226845700Y-79464100D02*
X226845700Y-85853300D01*
X231169800Y-75140000D02*
X226845700Y-79464100D01*
X212589600Y-96997200D02*
X213356900Y-97764500D01*
X217879000Y-100366500D02*
X217879000Y-100809200D01*
X212589600Y-92452700D02*
X212589600Y-96997200D01*
X212909700Y-92132600D02*
X212589600Y-92452700D01*
%TO.N,O*%
X219824300Y-94354800D02*
X219228000Y-94951100D01*
X235045400Y-78950000D02*
X235045400Y-80672600D01*
X219824300Y-87058000D02*
X219824300Y-94354800D01*
X218897200Y-86130900D02*
X219824300Y-87058000D01*
X235045400Y-80672600D02*
X232767700Y-82950300D01*
%TO.N,L*%
X222684400Y-101045900D02*
X223099700Y-101461200D01*
X223099700Y-101461200D02*
X225213700Y-101461200D01*
X227646000Y-99028900D02*
X227646000Y-95022800D01*
X225213700Y-101461200D02*
X227646000Y-99028900D01*
X227646000Y-95022800D02*
X228963000Y-93705800D01*
%TO.N,A*%
X225799700Y-70360700D02*
X224746100Y-70360700D01*
X224330400Y-70776400D02*
X224330400Y-91534200D01*
X231753200Y-84793100D02*
X231753200Y-74890000D01*
X231753200Y-74890000D02*
X230941100Y-74077900D01*
X224330400Y-91534200D02*
X224765600Y-91969400D01*
X229516900Y-74077900D02*
X229240100Y-73801100D01*
X229240100Y-73801100D02*
X225799700Y-70360700D01*
X231229100Y-85317200D02*
X231753200Y-84793100D01*
X230941100Y-74077900D02*
X229516900Y-74077900D01*
X224746100Y-70360700D02*
X224330400Y-70776400D01*
%TO.N,J*%
X232685400Y-97458400D02*
X232685400Y-92368800D01*
X232841900Y-97614900D02*
X232685400Y-97458400D01*
X232685400Y-92368800D02*
X235241300Y-89812900D01*
%TO.N,H*%
X221651200Y-95065900D02*
X221116600Y-94531300D01*
X221331700Y-96944400D02*
X221651200Y-96624900D01*
X221651200Y-96624900D02*
X221651200Y-95065900D01*
X220452500Y-96944400D02*
X221331700Y-96944400D01*
X216187000Y-92678900D02*
X220452500Y-96944400D01*
X216187000Y-89518600D02*
X216187000Y-92678900D01*
X215115700Y-88447300D02*
X216187000Y-89518600D01*
X221688200Y-97300900D02*
X221688200Y-102476800D01*
X221331700Y-96944400D02*
X221688200Y-97300900D01*
%TO.N,D*%
X219457200Y-90143400D02*
X219457200Y-87518400D01*
X219457200Y-87518400D02*
X218016600Y-86077800D01*
X218016600Y-80506200D02*
X218016600Y-72049500D01*
X218016600Y-72049500D02*
X220624700Y-69441400D01*
X222156200Y-69441400D02*
X223437500Y-70722700D01*
X223437500Y-88265700D02*
X223255200Y-88448000D01*
X216997000Y-92603600D02*
X219457200Y-90143400D01*
X218016600Y-86077800D02*
X218016600Y-80506200D01*
X217228200Y-80506200D02*
X218016600Y-80506200D01*
X223437500Y-70722700D02*
X223437500Y-88265700D01*
X220624700Y-69441400D02*
X222156200Y-69441400D01*
%TO.N,K*%
X219232400Y-97812800D02*
X219232400Y-97798300D01*
X214571700Y-90541400D02*
X214571700Y-88168500D01*
X220771000Y-79024400D02*
X220771000Y-70064200D01*
X220771000Y-70064200D02*
X220772600Y-70062600D01*
X214571700Y-88168500D02*
X216489400Y-86250800D01*
X220771000Y-79024400D02*
X219242200Y-79024400D01*
X215347800Y-91317500D02*
X214571700Y-90541400D01*
X215347800Y-93913700D02*
X215347800Y-91317500D01*
X219232400Y-97798300D02*
X215347800Y-93913700D01*
X220771000Y-83095600D02*
X220771000Y-79024400D01*
X216489400Y-86250800D02*
X216744500Y-86250800D01*
%TO.N,I*%
X220554700Y-84946200D02*
X220829500Y-84946200D01*
X220469200Y-95815800D02*
X221034200Y-96380800D01*
X220829500Y-84946200D02*
X220829500Y-85080100D01*
X222893700Y-82882000D02*
X222893700Y-70967300D01*
X218698400Y-83089900D02*
X218698400Y-76478700D01*
X218698400Y-76478700D02*
X219112000Y-76065100D01*
X220554700Y-84946200D02*
X218698400Y-83089900D01*
X220554700Y-84946200D02*
X220469200Y-85031700D01*
X220829500Y-84946200D02*
X222893700Y-82882000D01*
X220469200Y-85031700D02*
X220469200Y-95815800D01*
%TO.N,G*%
X232918700Y-75353900D02*
X230823800Y-73259000D01*
X225775800Y-74138000D02*
X225775800Y-100097700D01*
X224895200Y-73257400D02*
X225775800Y-74138000D01*
X232918700Y-79589800D02*
X232918700Y-75353900D01*
X225775800Y-100097700D02*
X224982800Y-100890700D01*
%TO.N,E*%
X226639300Y-92617000D02*
X226978300Y-92956000D01*
X232637300Y-87445000D02*
X228529300Y-87445000D01*
X226244400Y-88522900D02*
X226244400Y-73142300D01*
X226639300Y-88917800D02*
X226244400Y-88522900D01*
X226244400Y-73142300D02*
X225052100Y-71950000D01*
X226639300Y-88917800D02*
X226639300Y-92617000D01*
X228529300Y-87445000D02*
X228210700Y-87763600D01*
X228210700Y-87763600D02*
X228210700Y-87880200D01*
X228210700Y-87880200D02*
X227173100Y-88917800D01*
X227173100Y-88917800D02*
X226639300Y-88917800D01*
X235204200Y-84878100D02*
X232637300Y-87445000D01*
%TD*%
M02*
